<svg xmlns="http://www.w3.org/2000/svg" width="424" height="1823" viewBox="0 0 424 1823" version="1.1">
	<path d="M 176.500 33.984 C 102.497 38.272, 47.469 55.451, 37.105 77.499 C 34.591 82.847, 34.467 86.359, 36.571 92.556 C 38.007 96.788, 38.002 97.475, 36.513 100.613 C 34.061 105.782, 33.632 121.630, 35.285 146 C 36.282 160.690, 36.547 174.468, 36.122 189.500 C 35.129 224.604, 35.774 520.477, 37.936 1023 C 40.556 1631.574, 40.508 1591.078, 38.615 1599 C 37.283 1604.570, 37.128 1612.509, 37.531 1654.500 C 37.790 1681.450, 38.637 1714.021, 39.415 1726.879 L 40.829 1750.258 45.665 1755.195 C 59.320 1769.138, 101.133 1784.164, 141.500 1789.635 C 156.783 1791.706, 212.742 1792.586, 234.531 1791.097 C 289.413 1787.347, 319.187 1781.474, 342.622 1769.774 C 354.261 1763.964, 361.584 1759.141, 366.500 1754.050 L 370.500 1749.907 371.155 1707.703 C 371.515 1684.492, 372.260 1653.575, 372.811 1639 C 373.909 1609.944, 373.741 1598.307, 372.163 1594.195 C 371.462 1592.365, 370.961 1466.733, 370.603 1203 C 370.110 839.790, 369.825 802.745, 367.478 796.764 C 366.972 795.474, 367.497 794.761, 369.520 793.992 L 372.244 792.957 371.532 767.228 C 371.140 753.078, 370.634 738.575, 370.406 735 C 369.576 721.961, 370.037 656.147, 371.048 643.500 C 371.619 636.350, 372.474 624.200, 372.948 616.500 C 373.422 608.800, 374.296 597.325, 374.889 591 C 375.482 584.675, 376.434 572.075, 377.004 563 C 378.096 545.629, 380.242 517.645, 382.029 497.500 C 383.187 484.445, 383.546 477.567, 384.455 451 C 385.330 425.436, 386.836 399.093, 388.659 377.500 C 391.212 347.241, 389.469 328.270, 383.194 318.035 C 380.683 313.937, 373.955 307.819, 370.806 306.768 C 369.752 306.417, 369.486 294.891, 369.427 247.041 C 369.354 188.294, 369.373 187.731, 371.427 185.817 C 373.423 183.958, 373.530 182.488, 374.327 146.193 C 375.254 104.011, 374.790 92.175, 372.219 92.374 C 371.054 92.465, 370.274 91.082, 369.457 87.481 C 366.591 74.853, 358.292 66.723, 337.448 56.123 C 321.079 47.798, 300.573 42.102, 272.500 38.082 C 246.169 34.311, 202.795 32.460, 176.500 33.984 M 182.500 38.674 C 146.436 40.455, 124.642 43.388, 97.883 50.064 C 61.893 59.043, 39.997 72.505, 40.001 85.651 C 40.002 91.321, 45.674 100.919, 53.778 108.967 C 70.940 126.009, 99.616 137.141, 145.500 144.574 C 161.245 147.124, 164.678 147.330, 192 147.359 C 242.116 147.413, 277.590 142.132, 327.247 127.227 L 342.994 122.500 343.617 119.203 C 343.960 117.390, 344.074 115.771, 343.870 115.604 C 343.667 115.438, 338.100 117.274, 331.500 119.685 C 294.520 133.196, 245.426 140.999, 197.500 140.986 C 128.334 140.966, 77.222 127.074, 53.375 101.813 C 46.551 94.585, 45 91.418, 45.706 86.156 C 46.447 80.634, 52.707 74.895, 64.740 68.710 C 107.598 46.677, 190.504 38.069, 263.491 48.074 C 281.556 50.550, 288.363 51.924, 306 56.652 C 340.535 65.910, 356.627 77.085, 357.070 92.116 C 357.109 93.427, 357.455 95.295, 357.839 96.266 C 358.469 97.860, 358.865 97.759, 361.900 95.224 L 365.263 92.417 363.666 86.958 C 362.787 83.956, 360.687 79.832, 358.997 77.793 C 355.132 73.129, 345.587 65.834, 337.620 61.456 C 308.621 45.521, 242.005 35.737, 182.500 38.674 M 171.500 52.142 C 125.494 55.166, 83.837 64.720, 62.925 77.042 C 55 81.712, 49 86.184, 49.001 87.420 C 49.003 91.909, 68.817 109.952, 73.780 109.985 C 75.034 109.993, 78.634 108.922, 81.780 107.605 C 99.043 100.377, 133.651 93.748, 168.395 91.015 C 185.100 89.700, 225.337 89.712, 241.696 91.037 C 275.901 93.806, 306.345 99.927, 326.252 108.039 C 334.872 111.552, 336.873 111.675, 340.395 108.904 C 341.860 107.752, 343.721 107.063, 344.530 107.373 C 345.363 107.693, 347.521 106.604, 349.501 104.865 C 352.468 102.260, 353 101.147, 353 97.546 C 353 87.500, 346.595 77.970, 336.653 73.221 C 301.189 56.281, 235.698 47.922, 171.500 52.142 M 358.213 104.140 L 348.927 111.056 349.600 153.778 C 349.971 177.275, 350.433 196.683, 350.627 196.907 C 350.822 197.131, 354.436 193.915, 358.659 189.760 L 366.337 182.205 367.094 153.852 C 367.510 138.259, 368.114 119.342, 368.437 111.816 C 368.759 104.290, 368.680 97.927, 368.261 97.678 C 367.843 97.428, 363.321 100.336, 358.213 104.140 M 42.525 127.267 C 42.923 139.514, 43.305 155.946, 43.374 163.783 L 43.500 178.032 57 184.402 C 87.591 198.837, 116.965 207.312, 155 212.676 C 173.136 215.233, 232.061 215.257, 250 212.714 C 280.769 208.352, 309.654 200.611, 331 191.006 C 335.675 188.902, 340.288 186.929, 341.250 186.622 C 342.864 186.106, 343 183.804, 343 157.098 L 343 128.132 332.975 131.509 C 309.866 139.291, 277.733 145.996, 246 149.657 C 227.018 151.848, 177.257 152.158, 154.500 150.228 C 125.604 147.777, 96.601 140.338, 76.381 130.191 C 65.315 124.638, 52.439 115.503, 46.753 109.172 C 44.692 106.878, 42.735 105, 42.404 105 C 42.073 105, 42.128 115.020, 42.525 127.267 M 43.346 187.761 C 45.119 198.848, 46.229 347.111, 48.502 876 C 49.867 1193.625, 51.010 1483.958, 51.041 1521.183 L 51.097 1588.867 61.799 1592.389 C 92.109 1602.366, 112.738 1606.938, 141 1609.940 C 169.902 1613.010, 189.032 1614, 219.405 1613.998 C 248.699 1613.996, 265.489 1612.764, 289 1608.892 C 302.074 1606.738, 337.069 1598.087, 352.500 1593.193 L 361.500 1590.339 361.114 1216.419 C 360.902 1010.764, 360.657 842.404, 360.568 842.287 C 360.480 842.170, 357.381 842.576, 353.681 843.189 C 345.893 844.479, 339.717 843.208, 337.976 839.956 C 337.395 838.870, 336.642 831.205, 336.302 822.922 L 335.683 807.863 333.225 808.480 C 322.935 811.062, 322.652 810.684, 322.514 794.169 C 321.373 658.191, 321.026 470.983, 321.794 406 C 322.866 315.344, 322.464 319.969, 329.764 314.187 C 335.067 309.987, 348.184 301.940, 356.799 297.601 L 364 293.975 364 276.151 C 364 266.347, 364.299 243.291, 364.665 224.913 L 365.330 191.500 357.516 198.795 C 353.218 202.807, 348.900 206.518, 347.920 207.043 C 345.033 208.588, 343 205.648, 343 199.929 C 343 197.218, 342.537 195, 341.971 195 C 341.406 195, 338.303 196.333, 335.077 197.961 C 285.814 222.829, 205.836 231.253, 136 218.930 C 102.291 212.982, 70.158 201.711, 51 189.116 C 47.975 187.127, 44.870 185.103, 44.101 184.617 C 42.953 183.893, 42.818 184.458, 43.346 187.761 M 350.872 306.389 C 343.377 310.904, 334.907 316.376, 332.050 318.549 C 327.388 322.095, 326.912 322.807, 327.404 325.500 C 328.514 331.590, 329.183 669.533, 328.209 732.267 C 327.327 789.037, 327.528 801.861, 329.327 803.660 C 329.603 803.936, 330.880 803.596, 332.164 802.904 C 333.449 802.212, 341.700 799.085, 350.500 795.954 L 366.500 790.261 366.815 783.880 C 366.988 780.371, 366.834 775.493, 366.472 773.040 C 365.907 769.208, 365.669 768.856, 364.783 770.540 C 362.177 775.491, 358.177 776.267, 354.455 772.545 C 352.403 770.494, 352 769.122, 352 764.191 C 352 759.315, 352.425 757.833, 354.452 755.646 C 357.634 752.213, 361.246 752.227, 363.964 755.682 L 366.074 758.364 365.787 748.061 L 365.500 737.758 362.015 736.629 C 359.068 735.674, 358.397 734.883, 357.665 731.500 C 356.203 724.744, 355.639 627.862, 356.919 603.500 C 359.330 557.629, 360.078 546.368, 361.003 542 C 361.527 539.525, 362.401 532.550, 362.944 526.500 C 364.768 506.186, 366.065 494.583, 368.047 480.845 C 372.399 450.683, 373.392 435.708, 373.341 401 C 373.271 352.866, 370.974 332.337, 364.600 322.873 C 360.428 316.678, 360.248 315.430, 363.086 312.408 C 364.542 310.859, 365.340 308.345, 365.725 304.094 C 366.029 300.742, 365.878 298.040, 365.389 298.089 C 364.900 298.138, 358.367 301.873, 350.872 306.389 M 367.418 314.352 C 367.133 315.096, 368.274 317.917, 369.955 320.621 C 373.797 326.801, 375.535 335.073, 377.394 356.023 C 380.122 386.770, 379.118 433.853, 374.965 470 C 373.859 479.625, 372.310 493.125, 371.523 500 C 370.735 506.875, 369.170 520.150, 368.043 529.500 C 363.622 566.190, 360.903 626.984, 361.088 685 C 361.169 710.691, 362.642 731.762, 364.321 731.250 C 364.772 731.112, 365.092 714.462, 365.032 694.250 C 364.961 670.718, 365.477 649.047, 366.466 634 C 367.915 611.954, 368.438 603.888, 371.037 563.500 C 371.603 554.700, 372.496 540.300, 373.022 531.500 C 373.548 522.700, 374.667 508.525, 375.508 500 C 378.421 470.472, 379.844 447.458, 382.155 392.500 C 383.687 356.054, 383.676 356.758, 382.888 344 C 382.026 330.050, 379.529 322.529, 373.885 316.885 C 369.757 312.757, 368.256 312.169, 367.418 314.352 M 346.285 320.968 C 342.096 323.522, 338.285 331.150, 336.921 339.715 C 336.326 343.447, 335.594 359.430, 335.293 375.233 C 334.665 408.240, 334.247 406.865, 343.612 402.577 C 346.743 401.144, 349.502 400.169, 349.744 400.410 C 350.338 401.005, 347.208 450.489, 345.942 460.500 C 343.193 482.246, 339.061 530.435, 337.067 564 C 335.796 585.411, 335.204 664.209, 335.972 709.987 C 336.484 740.497, 336.562 741.484, 338.500 741.789 C 339.600 741.962, 341.525 742.612, 342.777 743.235 C 345.757 744.716, 349.686 743.320, 352.257 739.865 C 354.157 737.313, 354.181 736.518, 353.013 714.365 C 352.211 699.141, 351.986 673.121, 352.340 636.500 C 352.857 583.053, 353.196 575.892, 356.506 548.500 C 360.929 511.895, 362.106 500.014, 362.912 483.822 C 363.396 474.100, 364.034 465.755, 364.328 465.278 C 364.623 464.801, 365.841 452.309, 367.036 437.517 C 369.369 408.621, 369.336 407.035, 365.479 363.500 C 362.043 324.719, 357.315 314.243, 346.285 320.968 M 347.498 325.378 C 345.739 326.664, 345.724 326.867, 347.280 328.423 C 349.177 330.320, 350.639 335.220, 351.480 342.500 C 352.363 350.144, 355.261 390.236, 355.744 401.500 C 356.225 412.714, 354.659 440.849, 352.459 460.500 C 351.659 467.650, 350.311 481.375, 349.465 491 C 348.619 500.625, 347.288 515.700, 346.509 524.500 C 342.250 572.577, 341.416 606.122, 341.876 710.817 L 342 739.135 344.250 738.455 C 345.488 738.081, 346.887 737.416, 347.361 736.977 C 347.841 736.532, 347.660 725.417, 346.951 711.839 C 345.946 692.578, 345.919 675.191, 346.821 628.500 C 347.448 596.050, 348.404 566.350, 348.945 562.500 C 349.487 558.650, 350.638 549.200, 351.505 541.500 C 352.371 533.800, 353.956 519.850, 355.027 510.500 C 356.099 501.150, 356.981 490.720, 356.988 487.322 C 356.994 483.923, 357.867 473.123, 358.928 463.322 C 363.724 418.975, 364.014 406.735, 361.023 374.686 C 358.210 344.539, 357.346 337.952, 355.409 331.876 C 352.819 323.754, 351.359 322.554, 347.498 325.378 M 342.671 333.649 C 341.628 337.310, 341.004 347.905, 340.445 371.446 C 340.132 384.617, 339.622 395.802, 339.313 396.303 C 338.763 397.193, 340.839 396.729, 345.905 394.832 L 348.310 393.932 347.612 371.233 C 346.916 348.574, 345.585 334.258, 344.024 332.649 C 343.570 332.181, 342.961 332.631, 342.671 333.649 M 337.993 758.853 C 335.402 761.444, 335 762.578, 335 767.288 C 335 774.352, 337.584 778, 342.587 778 C 345.398 778, 346.393 777.403, 348.011 774.750 C 350.819 770.145, 350.693 762.874, 347.750 759.637 C 344.096 755.617, 341.442 755.404, 337.993 758.853 M 357.667 759.667 C 356.661 760.672, 356.896 766.295, 358.015 768 C 358.891 769.333, 359.109 769.333, 359.985 768 C 362.216 764.601, 360.152 757.181, 357.667 759.667 M 340.035 762.934 C 338.578 765.658, 338.749 770.275, 340.392 772.521 C 342.545 775.466, 345 772.832, 345 767.578 C 345 761.703, 342.130 759.019, 340.035 762.934 M 358.029 798.961 C 357.220 799.473, 353.620 800.843, 350.029 802.006 C 339.216 805.507, 339.469 805.070, 339.695 819.845 C 339.917 834.280, 340.783 837.657, 344.505 838.591 C 347.217 839.271, 354.608 837.631, 359.250 835.319 L 362 833.949 362 822.121 C 362 815.616, 362.289 807.527, 362.642 804.147 C 363.227 798.554, 363.114 798.001, 361.392 798.015 C 360.352 798.024, 358.838 798.449, 358.029 798.961 M 270.870 1029.438 C 270.523 1029.798, 234.748 1030.479, 191.370 1030.951 C 123.486 1031.689, 111.664 1032.035, 106.500 1033.436 C 92.281 1037.293, 82.823 1044.615, 78.932 1054.779 C 74.522 1066.299, 74.387 1087.383, 77.015 1355 C 78.484 1504.625, 78.673 1513.498, 80.490 1518.970 C 82.914 1526.268, 90.693 1534.245, 99.753 1538.723 L 107.395 1542.500 160.447 1543.275 C 189.626 1543.700, 233.750 1543.925, 258.500 1543.775 L 303.500 1543.500 309.780 1540.221 C 317.851 1536.006, 322.940 1531.364, 326.342 1525.113 C 331.552 1515.540, 332.008 1512.457, 332.487 1483.500 C 333.493 1422.737, 334.033 1327.223, 334.085 1201 C 334.134 1078.744, 333.997 1067.037, 332.459 1062 C 327.680 1046.352, 319.877 1037.969, 305 1032.500 C 298.682 1030.178, 295.451 1029.668, 284.500 1029.263 C 277.350 1028.998, 271.216 1029.077, 270.870 1029.438 M 278 1035.271 C 277.725 1035.543, 242.400 1036.505, 199.500 1037.409 C 156.600 1038.313, 117.900 1039.484, 113.500 1040.011 C 93.991 1042.350, 84.423 1052.722, 82.607 1073.500 C 82.318 1076.800, 82.519 1095.925, 83.053 1116 C 83.587 1136.075, 84.451 1233.632, 84.973 1332.794 L 85.923 1513.088 88.674 1518.142 C 92.330 1524.860, 99.516 1531.154, 106.640 1533.881 C 112.412 1536.090, 112.884 1536.105, 204.401 1537.004 L 296.361 1537.907 303.867 1534.783 C 312.730 1531.093, 317.651 1526.950, 321.033 1520.330 L 323.500 1515.500 324.174 1316 C 324.572 1198.183, 325.301 1106.044, 325.955 1090.963 C 327.182 1062.647, 327 1061.221, 321.062 1052.590 C 314.406 1042.916, 300.904 1036.149, 286.500 1035.267 C 282.100 1034.998, 278.275 1035, 278 1035.271 M 264.500 1040.022 C 258.450 1040.422, 224.475 1041.072, 189 1041.466 C 153.525 1041.860, 122.250 1042.593, 119.500 1043.096 C 112.972 1044.290, 103.362 1049.038, 99.164 1053.143 C 94.849 1057.363, 91.441 1064.163, 90.155 1071.119 C 88.780 1078.558, 88.704 1177.487, 89.967 1314.500 C 91.809 1514.236, 91.540 1504.343, 95.329 1511.669 C 97.842 1516.528, 105.329 1523.620, 111.144 1526.649 L 116.500 1529.438 152 1530.117 C 171.525 1530.491, 210.675 1530.838, 239 1530.889 L 290.500 1530.980 295.500 1528.612 C 306.934 1523.197, 313.227 1515.428, 316.436 1502.764 C 318.175 1495.905, 319.523 1356.653, 319.441 1192.500 L 319.381 1074.500 317.147 1067.865 C 313.303 1056.448, 306.061 1048.111, 296.344 1043.920 C 292.091 1042.086, 277.969 1038.746, 276.162 1039.147 C 275.798 1039.228, 270.550 1039.622, 264.500 1040.022 M 264 1045.077 C 259.688 1045.821, 224.442 1047.050, 153.500 1048.929 C 127.475 1049.619, 119.377 1050.154, 115.187 1051.459 C 107.935 1053.719, 101.035 1060.526, 97.913 1068.500 C 95.014 1075.906, 95.099 1056.487, 96.865 1307.500 L 98.230 1501.500 100.553 1506.094 C 104.232 1513.370, 110.618 1519.254, 117.505 1521.714 C 123.319 1523.791, 125.596 1523.881, 193 1524.678 C 293.355 1525.865, 285.260 1526.052, 293 1522.362 C 300.636 1518.722, 305.070 1514.374, 308.067 1507.589 L 310.236 1502.679 310.591 1348.589 C 310.787 1263.840, 311.368 1167.050, 311.883 1133.500 L 312.820 1072.500 310.360 1067 C 305.222 1055.508, 292.377 1046.858, 278.376 1045.460 C 275.144 1045.138, 271.600 1044.745, 270.500 1044.587 C 269.400 1044.430, 266.475 1044.650, 264 1045.077 M 45.214 1596.762 C 43.259 1601.521, 44.990 1675.593, 48.341 1730.500 L 49.500 1749.500 63.500 1756.554 C 84.796 1767.284, 116.461 1776.874, 141 1780.026 C 154.462 1781.755, 210.080 1782.406, 231.038 1781.080 C 296.168 1776.959, 327.925 1769.389, 354 1751.769 L 360.500 1747.376 361.156 1702.438 C 361.516 1677.722, 362.504 1644.013, 363.352 1627.530 C 364.199 1611.046, 364.677 1597.344, 364.414 1597.080 C 364.150 1596.817, 359.112 1598.253, 353.217 1600.271 C 330.615 1608.011, 300.724 1615.187, 277.500 1618.447 C 241.600 1623.488, 187.341 1623.284, 138.500 1617.925 C 103.673 1614.104, 83.904 1609.472, 54.214 1598.176 C 46.621 1595.287, 45.868 1595.169, 45.214 1596.762" stroke="none" fill="#000000" fill-rule="evenodd"/>
</svg>