<?xml version="1.0"?>
<svg width="573" height="1875" xmlns="http://www.w3.org/2000/svg" xmlns:svg="http://www.w3.org/2000/svg" enable-background="new 0 0 573 1875" version="1.1" xml:space="preserve">
 <g class="layer" display="inline">
  <title>Layer 1</title>
  <path d="m303.34,1683.41c49.55,-2.89 98.39,-7.24 144.7,-24.37c0,17.87 0.25,35.46 -0.06,53.04c-0.53,29.32 -1.67,58.62 -2,87.94c-0.09,8.24 -3.48,12.43 -10.51,16.29c-22.56,12.38 -47.2,16.72 -72.12,20.52c-35.18,5.35 -70.53,7.68 -106.07,5.8c-33.51,-1.76 -66.79,-5.18 -98.08,-18.63c-6.71,-2.89 -13.01,-6.71 -19.65,-9.76c-3.77,-1.74 -2.67,-4.7 -2.83,-7.56c-0.57,-10.79 -1.44,-21.57 -1.83,-32.37c-0.34,-9.64 -0.16,-19.29 -0.28,-28.94c-0.2,-17.31 -0.32,-34.62 -0.74,-51.92c-0.29,-11.75 -1.04,-23.48 -1.56,-34.65c55.59,16.54 112.3,25.81 171.03,24.61z" fill="#FEFEFE" id="svg_3"/>
  <path d="m163.66,246.33c-9.39,-4.36 -18.5,-8.42 -27.38,-12.95c-1.3,-0.66 -2.01,-3.54 -2.06,-5.41c-0.52,-19.15 -0.83,-38.3 -1.23,-57.45c-0.06,-2.75 -0.33,-5.49 -0.53,-8.74c15.4,21.26 38.64,28.27 61.44,35.08c33.66,10.05 68.56,10.89 103.43,11.24c26.85,0.27 53.59,-0.14 80.17,-4.81c22.67,-3.98 44.43,-10.23 63.96,-22.75c4.42,-2.83 8.3,-6.51 12.61,-9.94c-0.58,12.51 -1.14,24.86 -1.73,37.21c-0.42,8.82 -1.06,17.62 -1.26,26.44c-0.07,3.13 -1.26,4.78 -3.89,6.2c-24.91,13.46 -51.27,21.69 -79.59,24.49c-39.77,3.95 -79.47,3.74 -119.24,0.9c-29.11,-2.07 -57.14,-8.92 -84.7,-19.51z" fill="#FDFDFD" id="svg_4"/>
  <path d="m79.9,1276c0,103.51 0,206.53 0,309.57c-7.8,-0.66 -7.91,-0.76 -7.89,-7.77c0.29,-97.79 0.8,-195.57 0.79,-293.36c0,-43.63 -1.26,-87.26 -1.5,-130.89c-0.29,-52.31 -0.1,-104.62 -0.09,-156.93c0,-5.16 0.3,-10.32 0.31,-15.48c0.01,-9.14 -3.31,-16.91 -10.03,-23.12c-5.26,-4.85 -10.63,-9.6 -16.02,-14.31c-5.55,-4.85 -5.65,-5.71 -0.14,-13.01c9.89,9.39 20.51,18 29.22,28.23c6.63,7.79 6.76,18.77 6.74,28.7c-0.1,50.3 -0.76,100.61 -1.03,150.92c-0.25,45.65 -0.25,91.3 -0.36,137.45z" fill="#F1F1F1" id="svg_5"/>
  <path d="m493.06,1400c-0.42,-81.47 -0.99,-162.44 -1.06,-243.41c-0.01,-10.35 1.47,-21.03 4.4,-30.92c1.98,-6.65 7.09,-12.77 11.95,-18.07c7.05,-7.71 15.07,-14.56 22.88,-21.54c1.25,-1.12 3.6,-1.01 5.44,-1.47c-0.31,2.86 0.43,6.68 -1.13,8.37c-3.55,3.86 -8.15,6.79 -12.48,9.89c-13.56,9.7 -18.58,23.9 -18.97,39.47c-1.1,43.8 -1.76,87.61 -1.94,131.42c-0.39,90.96 -0.36,181.93 -0.5,272.9c0,3.99 -0.27,8.05 0.3,11.97c0.3,2.04 2.18,3.85 3.35,5.76c1.59,-0.97 3.58,-1.62 4.69,-2.98c7.16,-8.78 14.07,-17.76 21.18,-26.57c2.04,-2.54 4.48,-4.76 6.93,-7.33c3.26,3.95 0.83,6.56 -1.01,8.87c-6,7.55 -12.29,14.89 -18.37,22.39c-6.07,7.49 -12.03,15.08 -18.01,22.58c-6.43,-2.51 -8.22,-5.59 -8.18,-11.89c0.28,-37.82 0.44,-75.64 0.58,-113.46c0.06,-18.49 -0.03,-36.99 -0.05,-55.98z" fill="#F1F1F1" id="svg_6"/>
  <path d="m326.18,141.91c0.03,5.14 -0.21,9.82 0.13,14.45c0.35,4.87 -2.14,5.95 -6.26,5.86c-8.32,-0.19 -16.64,-0.3 -24.96,-0.33c-11.65,-0.06 -23.29,-0.02 -35.9,-0.02c0,-26.4 0,-53.61 0,-81.33c20,-3.57 40.95,-5.25 62.1,-2.35c3.61,0.49 5.16,2.05 5.08,6.28c-0.35,18.98 -0.19,37.97 -0.19,57.44m-23.15,-20.88c2.49,6.29 6.28,8.62 11.68,7.19c4.94,-1.31 8.19,-6.67 7.31,-12.06c-0.77,-4.74 -4.85,-8.31 -9.28,-8.12c-5.22,0.21 -9.38,4.72 -9.83,10.67c-0.04,0.5 0.02,1 0.12,2.32m-21.03,0c1.65,-8.55 -6.6,-13.71 -11.79,-11.47c-4.89,2.12 -7.76,6.02 -7.26,11.23c0.45,4.64 2.85,7.7 7.61,8.56c5.11,0.92 8.48,-1.34 11.44,-8.32m30.6,32.94c1.28,-0.29 2.65,-0.39 3.83,-0.91c4.33,-1.91 6.71,-6.98 5.39,-11.64c-1.21,-4.28 -3.95,-6.88 -8.64,-6.76c-4.22,0.1 -8.11,3.98 -8.9,8.71c-0.83,5.02 1.68,8.54 8.32,10.6m-43.03,0.24c6.28,1.57 11.15,-1.24 12.38,-7.16c1.12,-5.35 -2.17,-10.56 -7.12,-11.27c-5,-0.72 -10.05,3.4 -10.55,8.95c-0.35,3.85 0.89,7.21 5.29,9.48z" fill="#F9F9F9" id="svg_7"/>
  <path d="m201.33,192.54c-17.26,-3.89 -32.99,-10.66 -48.08,-18.87c-9.96,-5.42 -16.25,-14.19 -19.07,-25.13c-2.17,-8.42 3.59,-13.86 9.36,-17.73c8.62,-5.79 17.77,-11.25 27.43,-14.9c26.11,-9.85 53.42,-15 81.43,-18.46c0,2.72 0,5.14 0,7.66c-10.43,1.25 -20.95,1.76 -31.12,3.91c-16.08,3.39 -32.22,7 -47.75,12.27c-8.53,2.9 -16.57,8.54 -23.55,14.45c-9.12,7.74 -9.2,19.24 -0.09,27.03c6.81,5.83 14.97,10.58 23.26,14.12c22.72,9.69 46.96,13.57 71.34,16.24c35.91,3.92 71.86,4.12 107.75,-0.09c25.72,-3.01 51.13,-7.7 74.51,-19.52c5.82,-2.94 11.34,-7.12 15.9,-11.8c8,-8.21 7.01,-18.71 -1.39,-26.5c-10.36,-9.59 -23.27,-14.04 -36.36,-17.96c-21.11,-6.32 -42.7,-10.24 -64.73,-11.52c-2.48,-0.14 -4.93,-0.68 -7.71,-1.09c-0.1,-1.41 -0.2,-2.82 -0.29,-4.14c0.59,-0.24 0.89,-0.47 1.18,-0.46c33.78,1.16 66.45,7.66 97.48,21.2c5.99,2.61 11.62,6.63 16.53,10.99c10.8,9.6 10.82,23.69 0.64,33.8c-12.02,11.95 -26.85,19.53 -42.85,23.57c-19.31,4.87 -39.09,8.03 -58.81,11.03c-26.18,3.99 -52.62,2.45 -78.83,0.67c-22.02,-1.49 -43.86,-5.65 -66.18,-8.77z" fill="#EDEDED" id="svg_8"/>
  <path d="m364.01,148.85c-10.31,-1.3 -20.19,-2.53 -30.72,-3.85c0,-11.23 0,-23.1 0,-35.93c5.79,0.65 11.81,1.31 17.82,2c19.54,2.22 39,5.11 57.43,12.14c8.75,3.33 17.21,7.88 25.03,13.05c10.81,7.13 10.68,17.08 0.37,24.81c-3.83,2.88 -8.09,5.18 -11.81,7.53c-17.86,-11.81 -37.89,-15.43 -58.12,-19.75z" fill="#FBFBFB" id="svg_9"/>
  <path d="m172.95,164.77c-1.91,1.08 -3.47,2.02 -6.11,3.59c-4.19,-3.45 -9.15,-6.8 -13.17,-11.05c-4.93,-5.21 -5.03,-11.02 0,-16.07c4.15,-4.15 9.11,-7.86 14.35,-10.51c19.07,-9.63 39.69,-14.29 60.65,-17.54c7.72,-1.2 15.44,-2.33 23.62,-3.56c0,12.68 0,24.86 0,37.06c-27.57,0.86 -53.56,8.19 -79.34,18.08z" fill="#FBFBFB" id="svg_10"/>
  <path d="m169.56,454c0.01,-12.65 0.59,-24.84 -0.11,-36.95c-0.71,-12.34 -9.9,-24.51 -24.63,-26.04c-3.95,-0.41 -7.97,-0.23 -11.96,-0.25c-2.82,-0.01 -4.94,-0.67 -4.99,-4.09c-0.04,-3.12 0.75,-5.04 4.53,-4.83c6.46,0.37 13.01,-0.19 19.4,0.62c14.01,1.76 25.2,14.55 26.88,29.14c1.73,14.98 1.06,30.25 1.13,45.39c0.18,35.48 0.47,70.96 0.01,106.44c-0.11,7.93 -2.37,16.08 -4.99,23.67c-2.27,6.58 -8.46,10.69 -14.92,12.33c-8.29,2.12 -17.01,2.63 -25.55,3.72c-2.96,0.38 -5.17,-0.89 -4.71,-4.12c0.4,-2.71 0.31,-6.17 4.9,-6.08c3.46,0.07 7,-0.36 10.41,-1.05c16.55,-3.36 24.05,-12.68 24.11,-29.48c0.13,-35.97 0.32,-71.95 0.49,-108.42z" fill="#F3F3F3" id="svg_11" stroke="#000000"/>
  <path d="m288.4,55.27c9.95,-0.58 19.25,0.47 27.35,5.67c4.59,2.94 8.36,7.15 12.03,11.55c-23.82,-2.64 -47.01,-1.6 -70.55,2.28c2.1,-6.41 6.21,-10.95 11.85,-13.42c6.03,-2.62 12.56,-4.07 19.32,-6.08z" fill="#EAE6E5" id="svg_14"/>
  <path d="m38.54,1337.26c0.49,-11.86 1.11,-23.3 1.81,-36.01c5.83,4.89 11.22,9.29 16.43,13.91c0.6,0.53 0.34,2.2 0.28,3.33c-0.56,12.01 -1.17,24.01 -1.76,36.04c-4.71,-3.78 -10.29,-8.11 -15.64,-12.72c-0.87,-0.75 -0.68,-2.73 -1.12,-4.55z" fill="#F5F5F5" id="svg_15"/>
  <path d="m124.66,932.99c-9.05,1.33 -17.8,2.53 -26.52,4.01c-8.93,1.52 -17.83,3.34 -26.74,4.99c-2.02,0.37 -4.06,0.6 -6.18,-0.1c20.41,-6.58 41.14,-9.72 61.95,-12.17c0.11,0.46 0.23,0.93 0.34,1.39c-0.84,0.62 -1.69,1.25 -2.85,1.88z" fill="#FEFEFE" id="svg_16"/>
  <path d="m84.94,930.73c-8.75,1.75 -17.16,3.3 -25.59,4.73c-1.25,0.21 -2.57,-0.19 -3.81,-0.75c7.9,-4.88 68.4,-13.82 72.63,-10.64c-14.71,2.2 -28.8,4.32 -43.24,6.66z" fill="#FEFEFE" id="svg_17"/>
  <path d="m302.99,120.62c-0.06,-0.91 -0.12,-1.41 -0.08,-1.91c0.45,-5.95 4.61,-10.46 9.83,-10.67c4.43,-0.19 8.51,3.38 9.28,8.12c0.88,5.39 -2.37,10.75 -7.31,12.06c-5.4,1.43 -9.19,-0.9 -11.72,-7.6z" fill="#080808" id="svg_28"/>
  <path d="m281.92,121.42c-2.88,6.59 -6.25,8.85 -11.36,7.93c-4.76,-0.86 -7.16,-3.92 -7.61,-8.56c-0.5,-5.21 2.37,-9.11 7.26,-11.23c5.19,-2.24 13.44,2.92 11.71,11.86z" fill="#080808" id="svg_29"/>
  <path d="m312.2,153.94c-6.24,-2.03 -8.75,-5.55 -7.92,-10.57c0.79,-4.73 4.68,-8.61 8.9,-8.71c4.69,-0.12 7.43,2.48 8.64,6.76c1.32,4.66 -1.06,9.73 -5.39,11.64c-1.18,0.52 -2.55,0.62 -4.23,0.88z" fill="#080808" id="svg_30"/>
  <path d="m269.2,154.09c-4.03,-2.15 -5.27,-5.51 -4.92,-9.36c0.5,-5.55 5.55,-9.67 10.55,-8.95c4.95,0.71 8.24,5.92 7.12,11.27c-1.23,5.92 -6.1,8.73 -12.75,7.04z" fill="#080808" id="svg_31"/>
  <line fill="none" id="svg_1" stroke="#000000" x1="134" x2="134" y1="235" y2="1667.5"/>
  <line fill="none" id="svg_12" stroke="#000000" x1="451.5" x2="449" y1="240" y2="1662.5"/>
  <line fill="none" id="svg_13" stroke="#000000" x1="134" x2="26.5" y1="1587.5" y2="1587.5"/>
  <line fill="none" id="svg_18" stroke="#000000" x1="26.5" x2="29" y1="1590" y2="916.92"/>
  <line fill="none" id="svg_19" stroke="#000000" x1="453.04" x2="554.77" y1="1077.69" y2="1077.69"/>
  <line fill="none" id="svg_20" stroke="#000000" x1="446.5" x2="556.5" y1="1607.5" y2="1607.5"/>
  <line fill="none" id="svg_21" stroke="#000000" x1="554" x2="554" y1="1605" y2="1077.5"/>
  <line fill="none" id="svg_23" stroke="#000000" x1="27.77" x2="133.92" y1="916.54" y2="916.54"/>
 </g>
</svg>