<svg version="1.1" id="Layer_1" xmlns="http://www.w3.org/2000/svg" xmlns:xlink="http://www.w3.org/1999/xlink" x="0px" y="0px"
	 width="100%" viewBox="0 0 573 1875" enable-background="new 0 0 573 1875" xml:space="preserve">
<path fill="#F2EEED" opacity="1.000000" stroke="none" 
	d="
M1.000000,649.000000 
	C1.000000,432.666656 1.000000,216.833328 1.000000,1.000000 
	C192.000000,1.000000 383.000000,1.000000 574.000000,1.000000 
	C574.000000,626.000000 574.000000,1251.000000 574.000000,1876.000000 
	C383.000000,1876.000000 192.000000,1876.000000 1.000000,1876.000000 
	C1.000000,1467.166626 1.000000,1058.333374 1.000000,649.000000 
M541.864868,1187.503174 
	C541.683044,1177.006470 541.497925,1166.509644 541.320068,1156.012939 
	C540.992859,1136.692383 540.638611,1117.372070 540.412354,1098.050415 
	C540.396606,1096.698730 541.304443,1095.320557 541.847290,1093.980957 
	C543.782043,1089.206543 543.184509,1084.574097 539.799500,1080.918091 
	C536.250000,1077.084351 532.099670,1073.777344 528.037415,1070.453369 
	C511.280121,1056.741821 491.422211,1054.940918 470.908661,1055.796753 
	C467.484924,1055.939575 464.066284,1056.204834 460.946564,1056.395264 
	C460.946564,1044.428711 460.962189,1032.959229 460.944153,1021.489868 
	C460.746033,895.328125 460.606110,769.166199 460.319794,643.004639 
	C460.107635,549.508545 459.180511,456.010498 459.598175,362.517944 
	C459.817596,313.395416 455.587921,264.298340 459.167755,215.162796 
	C460.110748,202.219681 459.939606,189.195618 460.291199,176.209045 
	C460.442902,170.605515 459.414886,164.624222 461.028687,159.474472 
	C465.015533,146.751938 461.631042,136.269760 452.585693,127.683746 
	C447.111511,122.487564 440.610260,117.991112 433.858124,114.597534 
	C415.866425,105.555008 396.279205,101.230362 376.706024,97.159088 
	C371.201752,96.014175 365.516541,95.423927 359.892731,95.239738 
	C350.494141,94.931908 341.078156,95.155678 331.669495,95.155678 
	C331.424194,94.464256 331.178894,93.772842 330.933594,93.081421 
	C331.779114,92.084740 332.436310,90.551422 333.500519,90.178001 
	C340.700470,87.651627 343.842804,83.121826 341.387482,75.828415 
	C339.423828,69.995544 336.692902,63.840511 332.595520,59.405476 
	C313.396210,38.623928 274.437622,37.270451 253.278442,56.113014 
	C245.950546,62.638611 241.832886,70.744713 241.839417,80.683456 
	C241.842911,85.998901 241.893814,91.418892 249.128220,92.825645 
	C247.230438,93.449936 245.635712,93.834770 244.020813,93.960403 
	C216.619034,96.092079 190.023407,101.864243 164.389084,111.810249 
	C150.334335,117.263435 137.880569,125.056313 129.537476,138.070572 
	C128.191757,140.169754 126.916649,143.402771 127.580070,145.483047 
	C129.136078,150.362305 127.764183,154.883911 127.619865,159.594727 
	C126.906059,182.895370 126.501122,206.205994 126.110184,229.515152 
	C126.077911,231.439285 126.975746,233.375992 127.419556,235.311859 
	C128.122955,238.380066 129.143005,241.424362 129.403915,244.531265 
	C129.651886,247.484024 128.925446,250.503983 128.922607,253.494675 
	C128.883926,294.285583 128.896576,335.076508 128.896576,375.099915 
	C120.240868,380.026947 119.072990,387.133667 124.509148,393.760315 
	C125.351250,394.786835 126.272713,396.175812 126.274109,397.398163 
	C126.287773,409.386810 125.914955,421.377533 126.028381,433.364105 
	C126.504608,483.687073 127.134224,534.008606 127.575592,584.331726 
	C127.592064,586.209839 126.633636,588.407471 125.450882,589.928406 
	C121.492065,595.019104 121.677391,601.213074 125.911316,606.278992 
	C126.924164,607.490845 127.144836,609.576965 127.241600,611.288574 
	C127.362335,613.424133 126.835785,615.588074 126.831642,617.740173 
	C126.651031,711.567261 126.497025,805.394348 126.341339,899.221497 
	C126.333923,903.690674 126.340385,908.159851 126.340385,912.795227 
	C101.549835,912.431580 77.525574,916.034851 53.505573,919.646606 
	C44.763809,920.960999 36.633354,930.843750 36.722775,939.778992 
	C36.735207,941.021118 36.564907,942.308594 36.226711,943.503662 
	C33.785984,952.128174 29.995853,960.595276 29.046209,969.373352 
	C26.613546,991.859741 25.023476,1014.461121 23.883255,1037.056152 
	C22.951998,1055.510376 22.834829,1074.023804 22.942032,1092.507568 
	C23.065510,1113.797607 23.899187,1135.082642 24.295074,1156.372314 
	C24.545284,1169.827881 24.467026,1183.289429 24.706173,1196.745361 
	C24.917953,1208.661377 25.644953,1220.573608 25.629807,1232.486816 
	C25.614355,1244.639160 24.621609,1256.791748 24.659529,1268.942383 
	C24.928947,1355.270630 25.319504,1441.598633 25.845407,1527.925659 
	C25.867359,1531.529175 27.055092,1535.398804 28.673922,1538.660889 
	C31.774578,1544.908936 35.524696,1550.839722 39.097874,1556.847046 
	C46.779274,1569.761353 56.289062,1581.023560 69.342873,1588.793335 
	C72.399040,1590.612427 76.078041,1592.281860 79.520554,1592.387451 
	C89.994499,1592.708496 100.493111,1592.101929 110.981697,1592.118530 
	C116.411369,1592.127075 121.840164,1592.689331 127.147133,1592.994385 
	C127.147133,1599.804443 127.224243,1606.119873 127.132835,1612.432983 
	C126.843803,1632.396606 126.341835,1652.358154 126.214172,1672.322510 
	C126.121552,1686.807617 127.017357,1701.313110 126.544075,1715.779053 
	C125.634659,1743.575073 124.531921,1771.336060 126.528275,1799.141968 
	C127.163895,1807.995117 129.770218,1815.327026 137.296417,1820.394043 
	C156.459351,1833.294800 178.129639,1839.952759 200.453232,1844.032593 
	C216.292770,1846.927246 232.533035,1847.627563 248.593674,1849.314575 
	C275.547394,1852.145752 302.492188,1851.302002 329.363434,1848.512085 
	C345.910889,1846.793945 362.364227,1844.168213 378.859131,1841.944824 
	C400.674255,1839.004272 421.637238,1833.251953 440.758575,1822.087158 
	C444.873871,1819.684204 449.445038,1816.325562 451.332581,1812.259033 
	C454.026825,1806.454468 455.419769,1799.626343 455.653656,1793.173340 
	C456.570923,1767.866577 456.980072,1742.537231 457.249115,1717.212891 
	C457.417084,1701.403931 457.011108,1685.588623 456.832947,1669.776489 
	C456.758606,1663.175415 456.330231,1656.565552 456.559479,1649.977051 
	C456.860107,1641.336670 458.040894,1632.717285 458.130371,1624.081543 
	C458.234406,1614.041382 457.567078,1603.993286 457.244324,1594.242920 
	C465.616302,1594.242920 474.087158,1594.375977 482.552032,1594.207397 
	C491.888672,1594.021362 500.504669,1591.118652 506.609558,1583.995483 
	C517.658447,1571.103760 528.096924,1557.687134 538.711060,1544.426147 
	C540.679749,1541.966553 542.794800,1539.405762 543.889343,1536.529053 
	C544.885742,1533.910034 544.969421,1530.770386 544.759460,1527.911255 
	C544.513855,1524.565796 543.093994,1521.295166 542.940369,1517.957153 
	C542.703491,1512.812622 543.245789,1507.637939 543.224487,1502.477051 
	C542.792786,1397.818604 542.327820,1293.160400 541.864868,1187.503174 
z"/>
<path fill="#010101" opacity="1.000000" stroke="none" 
	d="
M541.867188,1188.002686 
	C542.327820,1293.160400 542.792786,1397.818604 543.224487,1502.477051 
	C543.245789,1507.637939 542.703491,1512.812622 542.940369,1517.957153 
	C543.093994,1521.295166 544.513855,1524.565796 544.759460,1527.911255 
	C544.969421,1530.770386 544.885742,1533.910034 543.889343,1536.529053 
	C542.794800,1539.405762 540.679749,1541.966553 538.711060,1544.426147 
	C528.096924,1557.687134 517.658447,1571.103760 506.609558,1583.995483 
	C500.504669,1591.118652 491.888672,1594.021362 482.552032,1594.207397 
	C474.087158,1594.375977 465.616302,1594.242920 457.244324,1594.242920 
	C457.567078,1603.993286 458.234406,1614.041382 458.130371,1624.081543 
	C458.040894,1632.717285 456.860107,1641.336670 456.559479,1649.977051 
	C456.330231,1656.565552 456.758606,1663.175415 456.832947,1669.776489 
	C457.011108,1685.588623 457.417084,1701.403931 457.249115,1717.212891 
	C456.980072,1742.537231 456.570923,1767.866577 455.653656,1793.173340 
	C455.419769,1799.626343 454.026825,1806.454468 451.332581,1812.259033 
	C449.445038,1816.325562 444.873871,1819.684204 440.758575,1822.087158 
	C421.637238,1833.251953 400.674255,1839.004272 378.859131,1841.944824 
	C362.364227,1844.168213 345.910889,1846.793945 329.363434,1848.512085 
	C302.492188,1851.302002 275.547394,1852.145752 248.593674,1849.314575 
	C232.533035,1847.627563 216.292770,1846.927246 200.453232,1844.032593 
	C178.129639,1839.952759 156.459351,1833.294800 137.296417,1820.394043 
	C129.770218,1815.327026 127.163895,1807.995117 126.528275,1799.141968 
	C124.531921,1771.336060 125.634659,1743.575073 126.544075,1715.779053 
	C127.017357,1701.313110 126.121552,1686.807617 126.214172,1672.322510 
	C126.341835,1652.358154 126.843803,1632.396606 127.132835,1612.432983 
	C127.224243,1606.119873 127.147133,1599.804443 127.147133,1592.994385 
	C121.840164,1592.689331 116.411369,1592.127075 110.981697,1592.118530 
	C100.493111,1592.101929 89.994499,1592.708496 79.520554,1592.387451 
	C76.078041,1592.281860 72.399040,1590.612427 69.342873,1588.793335 
	C56.289062,1581.023560 46.779274,1569.761353 39.097874,1556.847046 
	C35.524696,1550.839722 31.774578,1544.908936 28.673922,1538.660889 
	C27.055092,1535.398804 25.867359,1531.529175 25.845407,1527.925659 
	C25.319504,1441.598633 24.928947,1355.270630 24.659529,1268.942383 
	C24.621609,1256.791748 25.614355,1244.639160 25.629807,1232.486816 
	C25.644953,1220.573608 24.917953,1208.661377 24.706173,1196.745361 
	C24.467026,1183.289429 24.545284,1169.827881 24.295074,1156.372314 
	C23.899187,1135.082642 23.065510,1113.797607 22.942032,1092.507568 
	C22.834829,1074.023804 22.951998,1055.510376 23.883255,1037.056152 
	C25.023476,1014.461121 26.613546,991.859741 29.046209,969.373352 
	C29.995853,960.595276 33.785984,952.128174 36.226711,943.503662 
	C36.564907,942.308594 36.735207,941.021118 36.722775,939.778992 
	C36.633354,930.843750 44.763809,920.960999 53.505573,919.646606 
	C77.525574,916.034851 101.549835,912.431580 126.340385,912.795227 
	C126.340385,908.159851 126.333923,903.690674 126.341339,899.221497 
	C126.497025,805.394348 126.651031,711.567261 126.831642,617.740173 
	C126.835785,615.588074 127.362335,613.424133 127.241600,611.288574 
	C127.144836,609.576965 126.924164,607.490845 125.911316,606.278992 
	C121.677391,601.213074 121.492065,595.019104 125.450882,589.928406 
	C126.633636,588.407471 127.592064,586.209839 127.575592,584.331726 
	C127.134224,534.008606 126.504608,483.687073 126.028381,433.364105 
	C125.914955,421.377533 126.287773,409.386810 126.274109,397.398163 
	C126.272713,396.175812 125.351250,394.786835 124.509148,393.760315 
	C119.072990,387.133667 120.240868,380.026947 128.896576,375.099915 
	C128.896576,335.076508 128.883926,294.285583 128.922607,253.494675 
	C128.925446,250.503983 129.651886,247.484024 129.403915,244.531265 
	C129.143005,241.424362 128.122955,238.380066 127.419556,235.311859 
	C126.975746,233.375992 126.077911,231.439285 126.110184,229.515152 
	C126.501122,206.205994 126.906059,182.895370 127.619865,159.594727 
	C127.764183,154.883911 129.136078,150.362305 127.580070,145.483047 
	C126.916649,143.402771 128.191757,140.169754 129.537476,138.070572 
	C137.880569,125.056313 150.334335,117.263435 164.389084,111.810249 
	C190.023407,101.864243 216.619034,96.092079 244.020813,93.960403 
	C245.635712,93.834770 247.230438,93.449936 249.128220,92.825645 
	C241.893814,91.418892 241.842911,85.998901 241.839417,80.683456 
	C241.832886,70.744713 245.950546,62.638611 253.278442,56.113014 
	C274.437622,37.270451 313.396210,38.623928 332.595520,59.405476 
	C336.692902,63.840511 339.423828,69.995544 341.387482,75.828415 
	C343.842804,83.121826 340.700470,87.651627 333.500519,90.178001 
	C332.436310,90.551422 331.779114,92.084740 330.933594,93.081421 
	C331.178894,93.772842 331.424194,94.464256 331.669495,95.155678 
	C341.078156,95.155678 350.494141,94.931908 359.892731,95.239738 
	C365.516541,95.423927 371.201752,96.014175 376.706024,97.159088 
	C396.279205,101.230362 415.866425,105.555008 433.858124,114.597534 
	C440.610260,117.991112 447.111511,122.487564 452.585693,127.683746 
	C461.631042,136.269760 465.015533,146.751938 461.028687,159.474472 
	C459.414886,164.624222 460.442902,170.605515 460.291199,176.209045 
	C459.939606,189.195618 460.110748,202.219681 459.167755,215.162796 
	C455.587921,264.298340 459.817596,313.395416 459.598175,362.517944 
	C459.180511,456.010498 460.107635,549.508545 460.319794,643.004639 
	C460.606110,769.166199 460.746033,895.328125 460.944153,1021.489868 
	C460.962189,1032.959229 460.946564,1044.428711 460.946564,1056.395264 
	C464.066284,1056.204834 467.484924,1055.939575 470.908661,1055.796753 
	C491.422211,1054.940918 511.280121,1056.741821 528.037415,1070.453369 
	C532.099670,1073.777344 536.250000,1077.084351 539.799500,1080.918091 
	C543.184509,1084.574097 543.782043,1089.206543 541.847290,1093.980957 
	C541.304443,1095.320557 540.396606,1096.698730 540.412354,1098.050415 
	C540.638611,1117.372070 540.992859,1136.692383 541.320068,1156.012939 
	C541.497925,1166.509644 541.683044,1177.006470 541.867188,1188.002686 
M86.932808,1056.029175 
	C86.932808,1043.269775 86.932808,1030.510254 86.932808,1017.750793 
	C86.674500,1017.752869 86.416191,1017.754883 86.157883,1017.756897 
	C86.157883,1030.823242 86.157883,1043.889526 86.018311,1057.889404 
	C86.058708,1073.240356 86.099106,1088.591187 86.017220,1104.883057 
	C86.034760,1119.900879 86.052307,1134.918823 86.008240,1150.880127 
	C86.008240,1178.846680 86.008240,1206.813354 86.008240,1234.779907 
	C86.315544,1234.778931 86.622841,1234.777832 86.930145,1234.776855 
	C86.930145,1206.496826 86.930145,1178.216797 86.953125,1149.012817 
	C86.922249,1133.989258 86.891373,1118.965576 86.927628,1103.014404 
	C86.899117,1087.661621 86.870613,1072.308838 86.932808,1056.029175 
M302.870911,1683.419800 
	C244.611328,1684.606445 187.895386,1675.343018 132.308990,1658.796021 
	C132.828232,1669.969849 133.582214,1681.703247 133.869980,1693.448120 
	C134.293900,1710.750854 134.405060,1728.061279 134.611038,1745.369019 
	C134.725845,1755.015503 134.546448,1764.670654 134.892715,1774.307739 
	C135.280716,1785.106689 136.152924,1795.887695 136.724594,1806.681152 
	C136.875824,1809.535889 135.777863,1812.503296 139.551727,1814.238647 
	C146.193008,1817.292847 152.493118,1821.111938 159.200394,1823.996094 
	C190.493073,1837.452271 223.772018,1840.865479 257.281403,1842.632202 
	C292.824585,1844.506226 328.174072,1842.182617 363.354340,1836.826538 
	C388.271515,1833.032959 412.908020,1828.688477 435.473114,1816.309082 
	C442.499969,1812.453979 445.889435,1808.258789 445.981812,1800.021851 
	C446.310577,1770.704224 447.451904,1741.396973 447.977478,1712.080078 
	C448.292694,1694.498169 448.035400,1676.905762 448.035400,1659.042358 
	C401.733704,1676.173950 352.893250,1680.516235 302.870911,1683.419800 
M164.020355,246.475891 
	C191.218475,256.919861 219.251511,263.766663 248.362122,265.841553 
	C288.126434,268.675781 327.832794,268.885559 367.596497,264.944550 
	C395.923004,262.137085 422.281738,253.912628 447.193481,240.449051 
	C449.822205,239.028381 451.014526,237.381042 451.084961,234.251358 
	C451.283356,225.433487 451.918182,216.625977 452.340393,207.812439 
	C452.932159,195.461426 453.487305,183.108673 454.065552,170.595062 
	C449.758331,174.030701 445.883484,177.713257 441.463531,180.544952 
	C421.927246,193.061081 400.172119,199.310730 377.501038,203.292709 
	C350.922729,207.960953 324.181793,208.373199 297.331299,208.102448 
	C262.462891,207.750870 227.561615,206.909058 193.904999,196.861008 
	C171.103745,190.053802 147.860306,183.036255 132.462494,161.776169 
	C132.662903,165.029526 132.927429,167.771332 132.985596,170.517517 
	C133.391220,189.666977 133.699844,208.818817 134.216156,227.965118 
	C134.266769,229.842468 134.983963,232.717834 136.284286,233.381668 
	C145.157379,237.911560 154.269424,241.973389 164.020355,246.475891 
M79.896744,1275.500000 
	C80.007111,1229.848633 80.008873,1184.196777 80.256966,1138.546143 
	C80.530373,1088.239380 81.193314,1037.934082 81.291794,987.627380 
	C81.311226,977.700745 81.184547,966.722229 74.551460,958.931396 
	C65.838791,948.698059 55.217243,940.089905 45.331402,930.701904 
	C39.818523,937.996704 39.924435,938.859924 45.471916,943.711853 
	C50.860474,948.424683 56.228474,953.165039 61.486774,958.021790 
	C68.205093,964.227112 71.527290,972.003784 71.516312,981.140991 
	C71.510109,986.300842 71.211815,991.460388 71.210571,996.620117 
	C71.198013,1048.930908 71.009933,1101.242920 71.296471,1153.552246 
	C71.535461,1197.182983 72.802490,1240.810791 72.803642,1284.439819 
	C72.806229,1382.226807 72.302650,1480.013794 72.011414,1577.800781 
	C71.990532,1584.813110 72.103004,1584.905762 79.901085,1585.574951 
	C79.901085,1482.525024 79.901085,1379.512451 79.896744,1275.500000 
M493.056305,1400.500000 
	C493.077454,1418.994751 493.169037,1437.489746 493.105042,1455.984253 
	C492.974182,1493.802979 492.806671,1531.621948 492.533417,1569.439819 
	C492.487915,1575.742432 494.279449,1578.822021 500.710510,1581.334595 
	C506.687012,1573.830811 512.647522,1566.242065 518.723999,1558.747437 
	C524.803650,1551.248657 531.086060,1543.912842 537.091919,1536.356567 
	C538.925903,1534.048828 541.360840,1531.436401 538.097778,1527.492065 
	C535.651428,1530.056885 533.213440,1532.280884 531.165771,1534.819824 
	C524.056274,1543.634766 517.145691,1552.610718 509.990601,1561.387817 
	C508.878784,1562.751709 506.885437,1563.397095 505.299744,1564.374756 
	C504.133606,1562.459473 502.253906,1560.649048 501.953888,1558.606445 
	C501.377960,1554.685547 501.647919,1550.632935 501.653778,1546.635132 
	C501.786774,1455.669800 501.760529,1364.703613 502.148041,1273.739380 
	C502.334686,1229.930786 502.989990,1186.117676 504.090332,1142.323120 
	C504.481567,1126.750854 509.497559,1112.554077 523.057861,1102.850098 
	C527.385376,1099.753296 531.986816,1096.820190 535.541260,1092.963013 
	C537.104675,1091.266479 536.363525,1087.446167 536.668762,1084.590210 
	C534.828796,1085.048828 532.482605,1084.940674 531.231445,1086.058350 
	C523.416321,1093.040039 515.404663,1099.891357 508.346649,1107.599609 
	C503.490753,1112.902710 498.378387,1119.017822 496.404999,1125.667603 
	C493.469971,1135.557861 491.990967,1146.242310 491.999725,1156.587036 
	C492.068268,1237.558228 492.640320,1318.529053 493.056305,1400.500000 
M326.155365,141.420486 
	C326.179291,122.437607 326.017670,103.451271 326.370239,84.474495 
	C326.448914,80.240036 324.904510,78.681938 321.287201,78.187050 
	C300.138336,75.293686 279.193085,76.968079 259.189484,80.541092 
	C259.189484,108.261055 259.189484,135.468948 259.189484,161.873825 
	C271.800446,161.873825 283.443146,161.834320 295.085449,161.887146 
	C303.408569,161.924911 311.732483,162.026611 320.053345,162.218231 
	C324.173767,162.313126 326.661316,161.227112 326.305328,156.363281 
	C325.966095,151.728088 326.212097,147.050064 326.155365,141.420486 
M201.721069,192.685562 
	C223.645111,195.663620 245.489182,199.823822 267.513885,201.313782 
	C293.722900,203.086807 320.162018,204.631287 346.340698,200.641876 
	C366.055298,197.637543 385.842224,194.480789 405.147003,189.608917 
	C421.148193,185.570724 435.978210,177.985291 448.000580,166.044586 
	C458.182373,155.931961 458.160431,141.843430 447.362213,132.242920 
	C442.452484,127.877716 436.818817,123.862770 430.832092,121.250771 
	C399.796417,107.709930 367.128662,101.211403 333.350555,100.049614 
	C333.057007,100.039513 332.755066,100.273209 332.170319,100.508400 
	C332.263794,101.831200 332.363098,103.237045 332.463135,104.653069 
	C335.244476,105.056221 337.693909,105.596992 340.166382,105.740562 
	C362.204529,107.020348 383.788544,110.937614 404.903198,117.261459 
	C417.987488,121.180214 430.903900,125.633446 441.258118,135.222641 
	C449.663818,143.007339 450.652405,153.509918 442.650299,161.715561 
	C438.086761,166.395203 432.574951,170.580856 426.749908,173.523895 
	C403.370300,185.336197 377.960175,190.033188 352.244110,193.044830 
	C316.354370,197.247955 280.395355,197.054184 244.494354,193.129135 
	C220.110321,190.463226 195.870453,186.582458 173.148407,176.886719 
	C164.862625,173.351074 156.703201,168.600418 149.886047,162.767838 
	C140.780136,154.977051 140.861603,143.478561 149.983749,135.744385 
	C156.962280,129.827667 164.996826,124.187950 173.534149,121.289459 
	C189.055847,116.019691 205.202209,112.414001 221.278976,109.018715 
	C231.451981,106.870262 241.971100,106.360573 252.397095,105.108406 
	C252.397095,102.593010 252.397095,100.168846 252.397095,97.450706 
	C224.394012,100.908150 197.083893,106.058640 170.974991,115.912888 
	C161.312698,119.559715 152.157104,125.022827 143.543640,130.808701 
	C137.774445,134.684006 132.007736,140.116241 134.179031,148.540466 
	C136.997635,159.476089 143.286880,168.246078 153.252335,173.671082 
	C168.338303,181.883560 184.068741,188.652267 201.721069,192.685562 
M364.432404,148.917572 
	C384.240112,153.171341 404.265015,156.789627 422.132233,168.596436 
	C425.848572,166.252319 430.110657,163.947815 433.944092,161.071960 
	C444.254425,153.337036 444.379547,143.390839 433.574829,136.258514 
	C425.751129,131.093994 417.285919,126.543671 408.538788,123.209732 
	C390.106659,116.184372 370.645325,113.288605 351.113617,111.068054 
	C345.099152,110.384262 339.082275,109.721649 333.285797,109.073837 
	C333.285797,121.897972 333.285797,133.767273 333.285797,145.002289 
	C343.824860,146.316513 353.704315,147.548477 364.432404,148.917572 
M173.295685,164.621552 
	C198.733841,154.880096 224.720459,147.548492 252.288422,146.689911 
	C252.288422,134.486084 252.288422,122.306984 252.288422,109.631859 
	C244.113571,110.860191 236.388382,111.989029 228.673798,113.186256 
	C207.705002,116.440376 187.091248,121.096901 168.022781,130.731354 
	C162.783401,133.378571 157.819473,137.085114 153.670685,141.244659 
	C148.641998,146.286392 148.741150,152.104202 153.671860,157.314072 
	C157.689774,161.559433 162.653625,164.909561 166.836227,168.358337 
	C169.475128,166.785583 171.040970,165.852356 173.295685,164.621552 
M169.556030,454.499908 
	C169.389969,490.472992 169.199554,526.445984 169.068604,562.419189 
	C169.007446,579.221802 161.510788,588.544678 144.956009,591.897888 
	C141.548737,592.588013 138.012070,593.024841 134.547882,592.953613 
	C129.956314,592.859314 130.049011,596.315308 129.654480,599.034119 
	C129.186172,602.261292 131.396240,603.529968 134.356415,603.150818 
	C142.903549,602.056091 151.616089,601.548035 159.913467,599.434692 
	C166.369156,597.790405 172.564865,593.675415 174.833496,587.100952 
	C177.451309,579.514587 179.713593,571.363464 179.816818,563.427490 
	C180.278214,527.954773 179.988815,492.471039 179.814636,456.992035 
	C179.740295,441.849609 180.405304,426.580200 178.683136,411.604401 
	C177.004883,397.010559 165.809143,384.220734 151.795166,382.456573 
	C145.405960,381.652252 138.856705,382.205994 132.397110,381.841156 
	C128.617844,381.627716 127.827301,383.549316 127.870056,386.674194 
	C127.916725,390.085388 130.038116,390.753662 132.858505,390.764465 
	C136.847458,390.779755 140.865967,390.600464 144.819458,391.010040 
	C159.546906,392.535889 168.735367,404.706726 169.447281,417.050201 
	C170.145828,429.161896 169.573471,441.346924 169.556030,454.499908 
M333.084503,397.452606 
	C336.502502,398.269897 339.920532,399.087219 343.443695,399.929657 
	C343.479065,387.845703 337.974304,372.452393 330.885223,366.143066 
	C322.673431,358.834625 317.231628,359.477539 311.431000,366.986023 
	C298.908752,383.195099 297.202240,402.092926 298.250977,421.220032 
	C303.485443,420.928833 308.114014,420.244934 312.685516,420.517456 
	C319.465057,420.921661 319.447845,421.210175 320.386749,415.605194 
	C318.738037,414.359650 316.381897,413.321869 316.451477,412.486023 
	C316.624603,410.405945 317.818573,408.377289 318.768433,406.407928 
	C319.345123,405.212280 320.230164,404.165344 320.976685,403.051575 
	C319.646698,402.365936 318.306580,401.080933 316.988556,401.103210 
	C312.413696,401.180634 307.846527,401.711945 303.184875,402.077759 
	C302.763855,406.816986 302.393219,410.989288 302.022552,415.161591 
	C301.327576,415.080994 300.632568,415.000397 299.937592,414.919800 
	C300.345581,410.438141 299.851379,405.569916 301.537231,401.635864 
	C302.396545,399.630615 307.171387,399.303314 310.245728,398.192474 
	C309.869415,390.772552 312.273468,387.230621 318.594604,387.003876 
	C329.128510,386.626068 333.029510,388.658325 333.084503,397.452606 
M323.767487,460.756775 
	C326.666138,458.613617 330.239716,456.985626 332.340485,454.233429 
	C339.466492,444.897675 342.500000,433.941315 343.812897,421.809387 
	C339.949158,421.809387 336.483093,421.809387 333.061371,421.809387 
	C332.229248,432.109039 330.200928,433.539673 317.792084,433.091858 
	C312.010956,432.883270 310.963989,431.397552 310.864136,422.639252 
	C306.830688,422.929718 302.842163,423.216919 297.336304,423.613373 
	C300.265686,432.763519 302.127136,441.062256 305.580109,448.635376 
	C308.763977,455.618317 313.492676,462.058777 323.767487,460.756775 
M287.949738,55.314705 
	C281.639526,57.278103 275.105682,58.728546 269.084137,61.353996 
	C263.438049,63.815746 259.327271,68.362816 257.234344,74.766006 
	C280.766449,70.890381 303.957764,69.847275 327.776123,72.492699 
	C324.112885,68.091881 320.342407,63.875587 315.753815,60.936760 
	C307.646851,55.744560 298.347260,54.687874 287.949738,55.314705 
M38.682732,1337.664917 
	C38.982510,1339.078857 38.791103,1341.062378 39.662357,1341.813599 
	C45.008049,1346.423462 50.594170,1350.754517 55.297691,1354.533569 
	C55.892937,1342.501465 56.497604,1330.496338 57.063313,1318.489380 
	C57.116676,1317.356812 57.383980,1315.694336 56.775166,1315.155151 
	C51.569801,1310.544922 46.184967,1306.137451 40.349174,1301.246338 
	C39.654766,1313.958008 39.029625,1325.401733 38.682732,1337.664917 
M144.909683,932.986755 
	C146.033569,932.359680 147.157455,931.732605 148.281342,931.105530 
	C148.126999,930.645020 147.972641,930.184509 147.818298,929.723999 
	C120.075287,932.173340 92.425438,935.309326 65.217796,941.894897 
	C68.037445,942.587524 70.758751,942.363647 73.459091,941.988770 
	C85.347069,940.338501 97.213264,938.521301 109.117630,937.001892 
	C120.744522,935.517944 132.408157,934.321838 144.909683,932.986755 
M89.998322,930.504578 
	C106.335991,928.389343 122.673653,926.274048 139.719894,924.067078 
	C134.823486,920.888306 64.699806,929.834534 55.546806,934.710999 
	C56.979836,935.273010 58.513847,935.667175 59.959431,935.456055 
	C69.721954,934.029968 79.465775,932.475769 89.998322,930.504578 
M344.660461,405.823395 
	C344.453278,404.386078 344.246063,402.948761 344.050018,401.588654 
	C340.269043,401.357300 336.852142,401.148224 333.625641,400.950775 
	C333.198395,407.440460 332.809784,413.343658 332.419525,419.271637 
	C336.626251,419.271637 340.236725,419.271637 344.694244,419.271637 
	C344.694244,414.974182 344.694244,410.858704 344.660461,405.823395 
M88.024315,978.630066 
	C87.179771,975.729736 86.335236,972.829407 85.429016,969.717285 
	C85.429016,981.403320 85.429016,992.627258 85.429016,1004.503662 
	C90.669449,1001.242493 91.422752,989.204651 88.024315,978.630066 
M86.983322,1352.500000 
	C86.983322,1331.411133 86.983322,1310.322266 86.983322,1289.233521 
	C86.760612,1289.235840 86.537895,1289.238159 86.315186,1289.240479 
	C86.315186,1319.437866 86.315186,1349.635132 86.315186,1379.832520 
	C86.537865,1379.833496 86.760544,1379.834351 86.983223,1379.835327 
	C86.983223,1371.056885 86.983223,1362.278442 86.983322,1352.500000 
M87.042740,1470.496826 
	C87.042740,1446.966797 87.042740,1423.436768 87.042740,1399.906616 
	C86.774269,1399.908203 86.505806,1399.909668 86.237335,1399.911133 
	C86.237335,1428.719727 86.237335,1457.528320 86.237335,1486.336914 
	C86.506203,1486.339233 86.775070,1486.341431 87.043938,1486.343750 
	C87.043938,1481.393921 87.043938,1476.444214 87.042740,1470.496826 
M322.881439,401.442932 
	C323.014740,402.004913 323.148071,402.566864 323.281403,403.128815 
	C323.830200,402.940277 324.378998,402.751709 324.927795,402.563141 
	C323.791748,400.092804 323.239532,396.889984 321.340790,395.376495 
	C319.729431,394.092133 316.457184,394.581940 316.194427,397.921448 
	C318.460663,398.964996 320.476074,399.893066 322.881439,401.442932 
M166.996429,1001.518311 
	C166.996429,1006.312866 166.996429,1011.107422 166.996429,1015.901917 
	C167.232361,1015.897339 167.468292,1015.892761 167.704224,1015.888245 
	C167.704224,1007.309143 167.704224,998.730042 167.704224,990.151001 
	C167.467941,990.146790 167.231674,990.142578 166.995392,990.138367 
	C166.995392,993.603455 166.995392,997.068481 166.996429,1001.518311 
z"/>
<path fill="#FEFEFE" opacity="1.000000" stroke="none" 
	d="
M303.339966,1683.406860 
	C352.893250,1680.516235 401.733704,1676.173950 448.035400,1659.042358 
	C448.035400,1676.905762 448.292694,1694.498169 447.977478,1712.080078 
	C447.451904,1741.396973 446.310577,1770.704224 445.981812,1800.021851 
	C445.889435,1808.258789 442.499969,1812.453979 435.473114,1816.309082 
	C412.908020,1828.688477 388.271515,1833.032959 363.354340,1836.826538 
	C328.174072,1842.182617 292.824585,1844.506226 257.281403,1842.632202 
	C223.772018,1840.865479 190.493073,1837.452271 159.200394,1823.996094 
	C152.493118,1821.111938 146.193008,1817.292847 139.551727,1814.238647 
	C135.777863,1812.503296 136.875824,1809.535889 136.724594,1806.681152 
	C136.152924,1795.887695 135.280716,1785.106689 134.892715,1774.307739 
	C134.546448,1764.670654 134.725845,1755.015503 134.611038,1745.369019 
	C134.405060,1728.061279 134.293900,1710.750854 133.869980,1693.448120 
	C133.582214,1681.703247 132.828232,1669.969849 132.308990,1658.796021 
	C187.895386,1675.343018 244.611328,1684.606445 303.339966,1683.406860 
z"/>
<path fill="#FDFDFD" opacity="1.000000" stroke="none" 
	d="
M163.662369,246.331039 
	C154.269424,241.973389 145.157379,237.911560 136.284286,233.381668 
	C134.983963,232.717834 134.266769,229.842468 134.216156,227.965118 
	C133.699844,208.818817 133.391220,189.666977 132.985596,170.517517 
	C132.927429,167.771332 132.662903,165.029526 132.462494,161.776169 
	C147.860306,183.036255 171.103745,190.053802 193.904999,196.861008 
	C227.561615,206.909058 262.462891,207.750870 297.331299,208.102448 
	C324.181793,208.373199 350.922729,207.960953 377.501038,203.292709 
	C400.172119,199.310730 421.927246,193.061081 441.463531,180.544952 
	C445.883484,177.713257 449.758331,174.030701 454.065552,170.595062 
	C453.487305,183.108673 452.932159,195.461426 452.340393,207.812439 
	C451.918182,216.625977 451.283356,225.433487 451.084961,234.251358 
	C451.014526,237.381042 449.822205,239.028381 447.193481,240.449051 
	C422.281738,253.912628 395.923004,262.137085 367.596497,264.944550 
	C327.832794,268.885559 288.126434,268.675781 248.362122,265.841553 
	C219.251511,263.766663 191.218475,256.919861 163.662369,246.331039 
z"/>
<path fill="#F1F1F1" opacity="1.000000" stroke="none" 
	d="
M79.898911,1276.000000 
	C79.901085,1379.512451 79.901085,1482.525024 79.901085,1585.574951 
	C72.103004,1584.905762 71.990532,1584.813110 72.011414,1577.800781 
	C72.302650,1480.013794 72.806229,1382.226807 72.803642,1284.439819 
	C72.802490,1240.810791 71.535461,1197.182983 71.296471,1153.552246 
	C71.009933,1101.242920 71.198013,1048.930908 71.210571,996.620117 
	C71.211815,991.460388 71.510109,986.300842 71.516312,981.140991 
	C71.527290,972.003784 68.205093,964.227112 61.486774,958.021790 
	C56.228474,953.165039 50.860474,948.424683 45.471916,943.711853 
	C39.924435,938.859924 39.818523,937.996704 45.331402,930.701904 
	C55.217243,940.089905 65.838791,948.698059 74.551460,958.931396 
	C81.184547,966.722229 81.311226,977.700745 81.291794,987.627380 
	C81.193314,1037.934082 80.530373,1088.239380 80.256966,1138.546143 
	C80.008873,1184.196777 80.007111,1229.848633 79.898911,1276.000000 
z"/>
<path fill="#F1F1F1" opacity="1.000000" stroke="none" 
	d="
M493.056702,1400.000000 
	C492.640320,1318.529053 492.068268,1237.558228 491.999725,1156.587036 
	C491.990967,1146.242310 493.469971,1135.557861 496.404999,1125.667603 
	C498.378387,1119.017822 503.490753,1112.902710 508.346649,1107.599609 
	C515.404663,1099.891357 523.416321,1093.040039 531.231445,1086.058350 
	C532.482605,1084.940674 534.828796,1085.048828 536.668701,1084.590210 
	C536.363525,1087.446167 537.104675,1091.266479 535.541260,1092.963013 
	C531.986816,1096.820190 527.385376,1099.753296 523.057861,1102.850098 
	C509.497559,1112.554077 504.481567,1126.750854 504.090332,1142.323120 
	C502.989990,1186.117676 502.334686,1229.930786 502.148041,1273.739380 
	C501.760529,1364.703613 501.786774,1455.669800 501.653778,1546.635132 
	C501.647919,1550.632935 501.377960,1554.685547 501.953888,1558.606445 
	C502.253906,1560.649048 504.133606,1562.459473 505.299744,1564.374756 
	C506.885437,1563.397095 508.878784,1562.751709 509.990601,1561.387817 
	C517.145691,1552.610718 524.056274,1543.634766 531.165771,1534.819824 
	C533.213440,1532.280884 535.651428,1530.056885 538.097778,1527.492065 
	C541.360840,1531.436401 538.925903,1534.048828 537.091919,1536.356567 
	C531.086060,1543.912842 524.803650,1551.248657 518.723999,1558.747437 
	C512.647522,1566.242065 506.687012,1573.830811 500.710510,1581.334595 
	C494.279449,1578.822021 492.487915,1575.742432 492.533417,1569.439819 
	C492.806671,1531.621948 492.974182,1493.802979 493.105042,1455.984253 
	C493.169037,1437.489746 493.077454,1418.994751 493.056702,1400.000000 
z"/>
<path fill="#F9F9F9" opacity="1.000000" stroke="none" 
	d="
M326.178101,141.905670 
	C326.212097,147.050064 325.966095,151.728088 326.305328,156.363281 
	C326.661316,161.227112 324.173767,162.313126 320.053345,162.218231 
	C311.732483,162.026611 303.408569,161.924911 295.085449,161.887146 
	C283.443146,161.834320 271.800446,161.873825 259.189484,161.873825 
	C259.189484,135.468948 259.189484,108.261055 259.189484,80.541092 
	C279.193085,76.968079 300.138336,75.293686 321.287201,78.187050 
	C324.904510,78.681938 326.448914,80.240036 326.370239,84.474495 
	C326.017670,103.451271 326.179291,122.437607 326.178101,141.905670 
M303.033813,121.025841 
	C305.520264,127.315392 309.309967,129.649765 314.709473,128.217819 
	C319.651398,126.907227 322.899963,121.549706 322.022675,116.156921 
	C321.252594,111.423134 317.168518,107.851463 312.736877,108.036232 
	C307.518402,108.253807 303.363312,112.760109 302.909973,118.712311 
	C302.872345,119.206360 302.933411,119.707932 303.033813,121.025841 
M282.001617,121.027779 
	C283.648071,112.483299 275.396576,107.317421 270.211182,109.560104 
	C265.321167,111.675034 262.447937,115.579857 262.949524,120.793350 
	C263.395721,125.431419 265.797852,128.487717 270.560944,129.347061 
	C275.666321,130.268173 279.035736,128.009171 282.001617,121.027779 
M312.598236,153.969070 
	C313.879669,153.678040 315.246582,153.581100 316.427216,153.061188 
	C320.756256,151.154861 323.139709,146.076477 321.823456,141.419357 
	C320.613159,137.137299 317.865723,134.541931 313.177643,134.657837 
	C308.962067,134.762039 305.073395,138.638077 304.284943,143.369522 
	C303.447723,148.393433 305.958710,151.913483 312.598236,153.969070 
M269.567261,154.213348 
	C275.846497,155.782043 280.717957,152.965912 281.952209,147.053757 
	C283.069427,141.702301 279.777435,136.494614 274.826294,135.781052 
	C269.826569,135.060486 264.776245,139.176422 264.275940,144.729660 
	C263.928619,148.584641 265.174286,151.937988 269.567261,154.213348 
z"/>
<path fill="#EDEDED" opacity="1.000000" stroke="none" 
	d="
M201.332611,192.544708 
	C184.068741,188.652267 168.338303,181.883560 153.252335,173.671082 
	C143.286880,168.246078 136.997635,159.476089 134.179031,148.540466 
	C132.007736,140.116241 137.774445,134.684006 143.543640,130.808701 
	C152.157104,125.022827 161.312698,119.559715 170.974991,115.912888 
	C197.083893,106.058640 224.394012,100.908150 252.397095,97.450706 
	C252.397095,100.168846 252.397095,102.593010 252.397095,105.108406 
	C241.971100,106.360573 231.451981,106.870262 221.278976,109.018715 
	C205.202209,112.414001 189.055847,116.019691 173.534149,121.289459 
	C164.996826,124.187950 156.962280,129.827667 149.983749,135.744385 
	C140.861603,143.478561 140.780136,154.977051 149.886047,162.767838 
	C156.703201,168.600418 164.862625,173.351074 173.148407,176.886719 
	C195.870453,186.582458 220.110321,190.463226 244.494354,193.129135 
	C280.395355,197.054184 316.354370,197.247955 352.244110,193.044830 
	C377.960175,190.033188 403.370300,185.336197 426.749908,173.523895 
	C432.574951,170.580856 438.086761,166.395203 442.650299,161.715561 
	C450.652405,153.509918 449.663818,143.007339 441.258118,135.222641 
	C430.903900,125.633446 417.987488,121.180214 404.903198,117.261459 
	C383.788544,110.937614 362.204529,107.020348 340.166382,105.740562 
	C337.693909,105.596992 335.244476,105.056221 332.463135,104.653069 
	C332.363098,103.237045 332.263794,101.831200 332.170319,100.508400 
	C332.755066,100.273209 333.057007,100.039513 333.350555,100.049614 
	C367.128662,101.211403 399.796417,107.709930 430.832092,121.250771 
	C436.818817,123.862770 442.452484,127.877716 447.362213,132.242920 
	C458.160431,141.843430 458.182373,155.931961 448.000580,166.044586 
	C435.978210,177.985291 421.148193,185.570724 405.147003,189.608917 
	C385.842224,194.480789 366.055298,197.637543 346.340698,200.641876 
	C320.162018,204.631287 293.722900,203.086807 267.513885,201.313782 
	C245.489182,199.823822 223.645111,195.663620 201.332611,192.544708 
z"/>
<path fill="#FBFBFB" opacity="1.000000" stroke="none" 
	d="
M364.008118,148.848999 
	C353.704315,147.548477 343.824860,146.316513 333.285797,145.002289 
	C333.285797,133.767273 333.285797,121.897972 333.285797,109.073837 
	C339.082275,109.721649 345.099152,110.384262 351.113617,111.068054 
	C370.645325,113.288605 390.106659,116.184372 408.538788,123.209732 
	C417.285919,126.543671 425.751129,131.093994 433.574829,136.258514 
	C444.379547,143.390839 444.254425,153.337036 433.944092,161.071960 
	C430.110657,163.947815 425.848572,166.252319 422.132233,168.596436 
	C404.265015,156.789627 384.240112,153.171341 364.008118,148.848999 
z"/>
<path fill="#FBFBFB" opacity="1.000000" stroke="none" 
	d="
M172.951248,164.770355 
	C171.040970,165.852356 169.475128,166.785583 166.836227,168.358337 
	C162.653625,164.909561 157.689774,161.559433 153.671860,157.314072 
	C148.741150,152.104202 148.641998,146.286392 153.670685,141.244659 
	C157.819473,137.085114 162.783401,133.378571 168.022781,130.731354 
	C187.091248,121.096901 207.705002,116.440376 228.673798,113.186256 
	C236.388382,111.989029 244.113571,110.860191 252.288422,109.631859 
	C252.288422,122.306984 252.288422,134.486084 252.288422,146.689911 
	C224.720459,147.548492 198.733841,154.880096 172.951248,164.770355 
z"/>
<path fill="#F3F3F3" opacity="1.000000" stroke="none" 
	d="
M169.557449,453.999817 
	C169.573471,441.346924 170.145828,429.161896 169.447281,417.050201 
	C168.735367,404.706726 159.546906,392.535889 144.819458,391.010040 
	C140.865967,390.600464 136.847458,390.779755 132.858505,390.764465 
	C130.038116,390.753662 127.916725,390.085388 127.870056,386.674194 
	C127.827301,383.549316 128.617844,381.627716 132.397110,381.841156 
	C138.856705,382.205994 145.405960,381.652252 151.795166,382.456573 
	C165.809143,384.220734 177.004883,397.010559 178.683136,411.604401 
	C180.405304,426.580200 179.740295,441.849609 179.814636,456.992035 
	C179.988815,492.471039 180.278214,527.954773 179.816818,563.427490 
	C179.713593,571.363464 177.451309,579.514587 174.833496,587.100952 
	C172.564865,593.675415 166.369156,597.790405 159.913467,599.434692 
	C151.616089,601.548035 142.903549,602.056091 134.356415,603.150818 
	C131.396240,603.529968 129.186172,602.261292 129.654480,599.034119 
	C130.049011,596.315308 129.956314,592.859314 134.547882,592.953613 
	C138.012070,593.024841 141.548737,592.588013 144.956009,591.897888 
	C161.510788,588.544678 169.007446,579.221802 169.068604,562.419189 
	C169.199554,526.445984 169.389969,490.472992 169.557449,453.999817 
z"/>
<path fill="#F7F7F7" opacity="1.000000" stroke="none" 
	d="
M333.078247,397.021851 
	C333.029510,388.658325 329.128510,386.626068 318.594604,387.003876 
	C312.273468,387.230621 309.869415,390.772552 310.245728,398.192474 
	C307.171387,399.303314 302.396545,399.630615 301.537231,401.635864 
	C299.851379,405.569916 300.345581,410.438141 299.937592,414.919800 
	C300.632568,415.000397 301.327576,415.080994 302.022552,415.161591 
	C302.393219,410.989288 302.763855,406.816986 303.184875,402.077759 
	C307.846527,401.711945 312.413696,401.180634 316.988556,401.103210 
	C318.306580,401.080933 319.646698,402.365936 320.976685,403.051575 
	C320.230164,404.165344 319.345123,405.212280 318.768433,406.407928 
	C317.818573,408.377289 316.624603,410.405945 316.451477,412.486023 
	C316.381897,413.321869 318.738037,414.359650 320.386749,415.605194 
	C319.447845,421.210175 319.465057,420.921661 312.685516,420.517456 
	C308.114014,420.244934 303.485443,420.928833 298.250977,421.220032 
	C297.202240,402.092926 298.908752,383.195099 311.431000,366.986023 
	C317.231628,359.477539 322.673431,358.834625 330.885223,366.143066 
	C337.974304,372.452393 343.479065,387.845703 343.443695,399.929657 
	C339.920532,399.087219 336.502502,398.269897 333.078247,397.021851 
z"/>
<path fill="#F8F8F8" opacity="1.000000" stroke="none" 
	d="
M323.365417,460.833405 
	C313.492676,462.058777 308.763977,455.618317 305.580109,448.635376 
	C302.127136,441.062256 300.265686,432.763519 297.336304,423.613373 
	C302.842163,423.216919 306.830688,422.929718 310.864136,422.639252 
	C310.963989,431.397552 312.010956,432.883270 317.792084,433.091858 
	C330.200928,433.539673 332.229248,432.109039 333.061371,421.809387 
	C336.483093,421.809387 339.949158,421.809387 343.812897,421.809387 
	C342.500000,433.941315 339.466492,444.897675 332.340485,454.233429 
	C330.239716,456.985626 326.666138,458.613617 323.365417,460.833405 
z"/>
<path fill="#EAE6E5" opacity="1.000000" stroke="none" 
	d="
M288.403870,55.273125 
	C298.347260,54.687874 307.646851,55.744560 315.753815,60.936760 
	C320.342407,63.875587 324.112885,68.091881 327.776123,72.492699 
	C303.957764,69.847275 280.766449,70.890381 257.234344,74.766006 
	C259.327271,68.362816 263.438049,63.815746 269.084137,61.353996 
	C275.105682,58.728546 281.639526,57.278103 288.403870,55.273125 
z"/>
<path fill="#F5F5F5" opacity="1.000000" stroke="none" 
	d="
M38.543606,1337.255127 
	C39.029625,1325.401733 39.654766,1313.958008 40.349174,1301.246338 
	C46.184967,1306.137451 51.569801,1310.544922 56.775166,1315.155151 
	C57.383980,1315.694336 57.116676,1317.356812 57.063313,1318.489380 
	C56.497604,1330.496338 55.892937,1342.501465 55.297691,1354.533569 
	C50.594170,1350.754517 45.008049,1346.423462 39.662357,1341.813599 
	C38.791103,1341.062378 38.982510,1339.078857 38.543606,1337.255127 
z"/>
<path fill="#FEFEFE" opacity="1.000000" stroke="none" 
	d="
M144.482666,932.993042 
	C132.408157,934.321838 120.744522,935.517944 109.117630,937.001892 
	C97.213264,938.521301 85.347069,940.338501 73.459091,941.988770 
	C70.758751,942.363647 68.037445,942.587524 65.217796,941.894897 
	C92.425438,935.309326 120.075287,932.173340 147.818298,929.723999 
	C147.972641,930.184509 148.126999,930.645020 148.281342,931.105530 
	C147.157455,931.732605 146.033569,932.359680 144.482666,932.993042 
z"/>
<path fill="#FEFEFE" opacity="1.000000" stroke="none" 
	d="
M89.606979,930.733765 
	C79.465775,932.475769 69.721954,934.029968 59.959431,935.456055 
	C58.513847,935.667175 56.979836,935.273010 55.546806,934.710999 
	C64.699806,929.834534 134.823486,920.888306 139.719894,924.067078 
	C122.673653,926.274048 106.335991,928.389343 89.606979,930.733765 
z"/>
<path fill="#F1F1F1" opacity="1.000000" stroke="none" 
	d="
M344.677368,406.283325 
	C344.694244,410.858704 344.694244,414.974182 344.694244,419.271637 
	C340.236725,419.271637 336.626251,419.271637 332.419525,419.271637 
	C332.809784,413.343658 333.198395,407.440460 333.625641,400.950775 
	C336.852142,401.148224 340.269043,401.357300 344.050018,401.588654 
	C344.246063,402.948761 344.453278,404.386078 344.677368,406.283325 
z"/>
<path fill="#F1F1F1" opacity="1.000000" stroke="none" 
	d="
M88.027336,979.065430 
	C91.422752,989.204651 90.669449,1001.242493 85.429016,1004.503662 
	C85.429016,992.627258 85.429016,981.403320 85.429016,969.717285 
	C86.335236,972.829407 87.179771,975.729736 88.027336,979.065430 
z"/>
<path fill="#191818" opacity="1.000000" stroke="none" 
	d="
M86.983276,1353.000000 
	C86.983223,1362.278442 86.983223,1371.056885 86.983223,1379.835327 
	C86.760544,1379.834351 86.537865,1379.833496 86.315186,1379.832520 
	C86.315186,1349.635132 86.315186,1319.437866 86.315186,1289.240479 
	C86.537895,1289.238159 86.760612,1289.235840 86.983322,1289.233521 
	C86.983322,1310.322266 86.983322,1331.411133 86.983276,1353.000000 
z"/>
<path fill="#5C5A5A" opacity="1.000000" stroke="none" 
	d="
M87.043335,1470.995605 
	C87.043938,1476.444214 87.043938,1481.393921 87.043938,1486.343750 
	C86.775070,1486.341431 86.506203,1486.339233 86.237335,1486.336914 
	C86.237335,1457.528320 86.237335,1428.719727 86.237335,1399.911133 
	C86.505806,1399.909668 86.774269,1399.908203 87.042740,1399.906616 
	C87.042740,1423.436768 87.042740,1446.966797 87.043335,1470.995605 
z"/>
<path fill="#1B1B1B" opacity="1.000000" stroke="none" 
	d="
M86.930145,1149.936768 
	C86.930145,1178.216797 86.930145,1206.496826 86.930145,1234.776855 
	C86.622841,1234.777832 86.315544,1234.778931 86.008240,1234.779907 
	C86.008240,1206.813354 86.008240,1178.846680 86.253815,1150.423828 
	C86.499397,1149.967529 86.930145,1149.936768 86.930145,1149.936768 
z"/>
<path fill="#515050" opacity="1.000000" stroke="none" 
	d="
M86.139503,1103.942139 
	C86.099106,1088.591187 86.058708,1073.240356 86.259018,1057.429688 
	C86.499725,1056.970093 86.842110,1056.956055 86.842110,1056.956055 
	C86.870613,1072.308838 86.899117,1087.661621 86.714142,1103.488770 
	C86.500664,1103.963135 86.139503,1103.942139 86.139503,1103.942139 
z"/>
<path fill="#393838" opacity="1.000000" stroke="none" 
	d="
M86.078362,1104.412598 
	C86.139503,1103.942139 86.500664,1103.963135 86.680580,1103.952637 
	C86.891373,1118.965576 86.922249,1133.989258 86.941635,1149.474854 
	C86.930145,1149.936768 86.499397,1149.967529 86.284622,1149.952148 
	C86.052307,1134.918823 86.034760,1119.900879 86.078362,1104.412598 
z"/>
<path fill="#686766" opacity="1.000000" stroke="none" 
	d="
M86.887459,1056.492676 
	C86.842110,1056.956055 86.499725,1056.970093 86.328804,1056.962891 
	C86.157883,1043.889526 86.157883,1030.823242 86.157883,1017.756897 
	C86.416191,1017.754883 86.674500,1017.752869 86.932808,1017.750793 
	C86.932808,1030.510254 86.932808,1043.269775 86.887459,1056.492676 
z"/>
<path fill="#D6D6D6" opacity="1.000000" stroke="none" 
	d="
M322.686462,401.132019 
	C320.476074,399.893066 318.460663,398.964996 316.194427,397.921448 
	C316.457184,394.581940 319.729431,394.092133 321.340790,395.376495 
	C323.239532,396.889984 323.791748,400.092804 324.927795,402.563141 
	C324.378998,402.751709 323.830200,402.940277 323.281403,403.128815 
	C323.148071,402.566864 323.014740,402.004913 322.686462,401.132019 
z"/>
<path fill="#191818" opacity="1.000000" stroke="none" 
	d="
M166.995911,1001.025879 
	C166.995392,997.068481 166.995392,993.603455 166.995392,990.138367 
	C167.231674,990.142578 167.467941,990.146790 167.704224,990.151001 
	C167.704224,998.730042 167.704224,1007.309143 167.704224,1015.888245 
	C167.468292,1015.892761 167.232361,1015.897339 166.996429,1015.901917 
	C166.996429,1011.107422 166.996429,1006.312866 166.995911,1001.025879 
z"/>
<path fill="#080808" opacity="1.000000" stroke="none" 
	d="
M302.991211,120.615921 
	C302.933411,119.707932 302.872345,119.206360 302.909973,118.712311 
	C303.363312,112.760109 307.518402,108.253807 312.736877,108.036232 
	C317.168518,107.851463 321.252594,111.423134 322.022675,116.156921 
	C322.899963,121.549706 319.651398,126.907227 314.709473,128.217819 
	C309.309967,129.649765 305.520264,127.315392 302.991211,120.615921 
z"/>
<path fill="#080808" opacity="1.000000" stroke="none" 
	d="
M281.920776,121.423981 
	C279.035736,128.009171 275.666321,130.268173 270.560944,129.347061 
	C265.797852,128.487717 263.395721,125.431419 262.949524,120.793350 
	C262.447937,115.579857 265.321167,111.675034 270.211182,109.560104 
	C275.396576,107.317421 283.648071,112.483299 281.920776,121.423981 
z"/>
<path fill="#080808" opacity="1.000000" stroke="none" 
	d="
M312.203033,153.942398 
	C305.958710,151.913483 303.447723,148.393433 304.284943,143.369522 
	C305.073395,138.638077 308.962067,134.762039 313.177643,134.657837 
	C317.865723,134.541931 320.613159,137.137299 321.823456,141.419357 
	C323.139709,146.076477 320.756256,151.154861 316.427216,153.061188 
	C315.246582,153.581100 313.879669,153.678040 312.203033,153.942398 
z"/>
<path fill="#080808" opacity="1.000000" stroke="none" 
	d="
M269.197815,154.086365 
	C265.174286,151.937988 263.928619,148.584641 264.275940,144.729660 
	C264.776245,139.176422 269.826569,135.060486 274.826294,135.781052 
	C279.777435,136.494614 283.069427,141.702301 281.952209,147.053757 
	C280.717957,152.965912 275.846497,155.782043 269.197815,154.086365 
z"/>
</svg>