<?xml version="1.0"?>
<svg width="325" height="1733" xmlns="http://www.w3.org/2000/svg" xmlns:svg="http://www.w3.org/2000/svg" enable-background="new 0 0 573 1875" version="1.1" xml:space="preserve">
 <g class="layer" display="none">
  <title>Handle</title>
  <path class="top" d="m201.32,191.22c-17.26,-3.89 -32.99,-10.66 -48.08,-18.87c-9.96,-5.42 -16.25,-14.19 -19.07,-25.13c-2.17,-8.42 3.59,-13.86 9.36,-17.73c8.62,-5.79 17.77,-11.25 27.43,-14.9c26.11,-9.85 53.42,-15 81.43,-18.46c0,2.72 0,5.14 0,7.66c-10.43,1.25 -20.95,1.76 -31.12,3.91c-16.08,3.39 -32.22,7 -47.75,12.27c-8.53,2.9 -16.57,8.54 -23.55,14.45c-9.12,7.74 -9.2,19.24 -0.09,27.03c6.81,5.83 14.97,10.58 23.26,14.12c22.72,9.69 46.96,13.57 71.34,16.24c35.91,3.92 71.86,4.12 107.75,-0.09c25.72,-3.01 51.13,-7.7 74.51,-19.52c5.82,-2.94 11.34,-7.12 15.9,-11.8c8,-8.21 7.01,-18.71 -1.39,-26.5c-10.36,-9.59 -23.27,-14.04 -36.36,-17.96c-21.11,-6.32 -42.7,-10.24 -64.73,-11.52c-2.48,-0.14 -4.93,-0.68 -7.71,-1.09c-0.1,-1.41 -0.2,-2.82 -0.29,-4.14c0.59,-0.24 0.89,-0.47 1.18,-0.46c33.78,1.16 66.45,7.66 97.48,21.2c5.99,2.61 11.62,6.63 16.53,10.99c10.8,9.6 10.82,23.69 0.64,33.8c-12.02,11.95 -26.85,19.53 -42.85,23.57c-19.31,4.87 -39.09,8.03 -58.81,11.03c-26.18,3.99 -52.62,2.45 -78.83,0.67c-22.02,-1.49 -43.86,-5.65 -66.18,-8.77z" fill="#ffffff" id="svg_9"/>
  <rect class="top" fill="#ffffff" height="238" id="svg_74" width="60" x="130.5" y="373"/>
  <path class="top" d="m364,147.53c-10.31,-1.3 -20.19,-2.53 -30.72,-3.85c0,-11.23 0,-23.1 0,-35.93c5.79,0.65 11.81,1.31 17.82,2c19.54,2.22 39,5.11 57.43,12.14c8.75,3.33 17.21,7.88 25.03,13.05c10.81,7.13 10.68,17.08 0.37,24.81c-3.83,2.88 -8.09,5.18 -11.81,7.53c-17.86,-11.81 -37.89,-15.43 -58.12,-19.75z" fill="#ffffff" id="svg_8"/>
  <path class="top" d="m172.94,163.45c-1.91,1.08 -3.47,2.02 -6.11,3.59c-4.19,-3.45 -9.15,-6.8 -13.17,-11.05c-4.93,-5.21 -5.03,-11.02 0,-16.07c4.15,-4.15 9.11,-7.86 14.35,-10.51c19.07,-9.63 39.69,-14.29 60.65,-17.54c7.72,-1.2 15.44,-2.33 23.62,-3.56c0,12.68 0,24.86 0,37.06c-27.57,0.86 -53.56,8.19 -79.34,18.08z" fill="#ffffff" id="svg_7"/>
  <path class="top" d="m163.65,245.01c-9.39,-4.36 -18.5,-8.42 -27.38,-12.95c-1.3,-0.66 -2.01,-3.54 -2.06,-5.41c-0.52,-19.15 -0.83,-38.3 -1.23,-57.45c-0.06,-2.75 -0.33,-5.49 -0.53,-8.74c15.4,21.26 38.64,28.27 61.44,35.08c33.66,10.05 68.56,10.89 103.43,11.24c26.85,0.27 53.59,-0.14 80.17,-4.81c22.67,-3.98 44.43,-10.23 63.96,-22.75c4.42,-2.83 8.3,-6.51 12.61,-9.94c-0.58,12.51 -1.14,24.86 -1.73,37.21c-0.42,8.82 -1.06,17.62 -1.26,26.44c-0.07,3.13 -1.26,4.78 -3.89,6.2c-24.91,13.46 -51.27,21.69 -79.59,24.49c-39.77,3.95 -79.47,3.74 -119.24,0.9c-29.11,-2.07 -57.14,-8.92 -84.7,-19.51z" fill="#ffffff" id="svg_6" stroke="#000000" stroke-opacity="0"/>
  <ellipse class="top" cx="320" cy="408.5" fill="#ffffff" id="svg_11" rx="30" ry="60.5" stroke="#000000" stroke-opacity="0"/>
  <path class="base" d="m302.46,1670.91c48.9,-2.87 97.12,-7.19 142.82,-24.18c0,17.73 0.24,35.18 -0.06,52.64c-0.52,29.1 -1.65,58.18 -1.97,87.26c-0.09,8.18 -3.44,12.33 -10.38,16.17c-22.27,12.28 -46.59,16.59 -71.18,20.36c-34.73,5.31 -69.62,7.62 -104.7,5.75c-33.08,-1.75 -65.93,-5.14 -96.81,-18.49c-6.63,-2.87 -12.85,-6.66 -19.39,-9.69c-3.72,-1.73 -2.63,-4.66 -2.79,-7.5c-0.56,-10.71 -1.42,-21.4 -1.81,-32.12c-0.34,-9.56 -0.16,-19.14 -0.27,-28.72c-0.19,-17.18 -0.32,-34.36 -0.73,-51.52c-0.28,-11.66 -1.03,-23.3 -1.54,-34.39c54.87,16.41 110.85,25.61 168.82,24.43l0.01,0.01l-0.02,0l0,-0.01z" fill="#ffffff" id="svg_12" stroke="#000000" stroke-opacity="0"/>
 </g>
 <g class="layer" display="none">
  <title>Circles</title>
  <rect class="top" fill="#ffffff" height="82" id="svg_27" stroke="#000000" stroke-opacity="0" stroke-width="3" transform="matrix(1 0 0 1 0 0)" width="69" x="258.5" y="77"/>
  <path class="top" d="m297.98,108.3c-0.06,-0.91 -0.12,-1.41 -0.08,-1.91c0.45,-5.95 4.61,-10.46 9.83,-10.67c4.43,-0.19 8.51,3.38 9.28,8.12c0.88,5.39 -2.37,10.75 -7.31,12.06c-5.4,1.43 -9.19,-0.9 -11.72,-7.6z" fill="#000000" fill-opacity="0" id="svg_20" stroke="#000000" stroke-width="3" transform="matrix(1 0 0 1 0 0)"/>
  <path class="top" d="m308.19,139.62c-6.24,-2.03 -8.75,-5.55 -7.92,-10.57c0.79,-4.73 4.68,-8.61 8.9,-8.71c4.69,-0.12 7.43,2.48 8.64,6.76c1.32,4.66 -1.06,9.73 -5.39,11.64c-1.18,0.52 -2.55,0.62 -4.23,0.88z" fill="#000000" fill-opacity="0" id="svg_21" stroke="#000000" stroke-width="3" transform="matrix(1 0 0 1 0 0)"/>
  <path class="top" d="m274.19,138.77c-4.03,-2.15 -5.27,-5.51 -4.92,-9.36c0.5,-5.55 5.55,-9.67 10.55,-8.95c4.95,0.71 8.24,5.92 7.12,11.27c-1.23,5.92 -6.1,8.73 -12.75,7.04z" fill="#000000" fill-opacity="0" id="svg_24" stroke="#000000" stroke-width="3"/>
  <path class="top" d="m286.91,107.1c-2.88,6.59 -6.25,8.85 -11.36,7.93c-4.76,-0.86 -7.16,-3.92 -7.61,-8.56c-0.5,-5.21 2.37,-9.11 7.26,-11.23c5.19,-2.24 13.44,2.92 11.71,11.86z" fill="#000000" fill-opacity="0" id="svg_19" stroke="#000000" stroke-width="3"/>
 </g>
 <g class="layer" display="inline">
  <title>Main Bag</title>
  <path class="main" d="m541.01,1177.39c0.46,104.4 0.92,208.31 1.35,312.22c0.03,5.12 -0.52,10.26 -0.28,15.37c0.15,3.32 1.57,6.56 1.82,9.88c0.21,2.84 0.13,5.96 -0.87,8.56c-1.1,2.86 -3.21,5.4 -5.18,7.84c-10.61,13.16 -21.05,26.48 -32.1,39.29c-6.11,7.07 -14.72,9.95 -24.06,10.14c-8.46,0.17 -16.93,0.03 -25.31,0.03c0.33,9.68 0.99,19.66 0.89,29.63c-0.09,8.58 -1.27,17.14 -1.57,25.71c-0.23,6.54 0.2,13.11 0.27,19.66c0.18,15.7 0.59,31.39 0.42,47.09c-0.27,25.15 -0.68,50.3 -1.6,75.41c-0.23,6.41 -1.62,13.18 -4.32,18.95c-1.88,4.04 -6.46,7.37 -10.57,9.76c-19.12,11.08 -40.09,16.79 -61.9,19.71c-16.5,2.21 -32.95,4.82 -49.5,6.52c-26.87,2.77 -53.81,3.61 -80.77,0.79c-16.06,-1.67 -32.3,-2.36 -48.14,-5.24c-22.32,-4.05 -43.99,-10.66 -63.15,-23.47c-7.53,-5.02 -10.14,-12.3 -10.77,-21.1c-2,-27.6 -0.9,-55.16 0.01,-82.76c0.48,-14.37 -0.42,-28.76 -0.33,-43.15c0.13,-19.82 0.63,-39.63 0.92,-59.46c0.09,-6.26 0.02,-12.54 0.02,-19.3c-5.31,-0.3 -10.74,-0.85 -16.17,-0.86c-10.49,-0.02 -20.99,0.59 -31.46,0.27c-3.44,-0.11 -7.12,-1.77 -10.18,-3.57c-13.05,-7.71 -22.56,-18.89 -30.24,-31.71c-3.58,-5.97 -7.33,-11.85 -10.43,-18.06c-1.61,-3.24 -2.8,-7.08 -2.82,-10.65c-0.53,-85.71 -0.92,-171.42 -1.19,-257.13c-0.04,-12.06 0.95,-24.13 0.97,-36.19c0.01,-11.83 -0.71,-23.66 -0.92,-35.48c-0.24,-13.36 -0.16,-26.73 -0.41,-40.09c-0.4,-21.14 -1.23,-42.26 -1.36,-63.4c-0.11,-18.36 0.01,-36.73 0.94,-55.05c1.14,-22.44 2.73,-44.88 5.17,-67.2c0.95,-8.71 4.74,-17.12 7.18,-25.68c0.33,-1.18 0.51,-2.46 0.49,-3.69c-0.09,-8.88 8.04,-18.68 16.79,-19.99c24.02,-3.59 48.04,-7.17 72.83,-6.8c0,-4.61 -0.01,-9.04 0,-13.48c0.16,-93.16 0.31,-186.3 0.49,-279.46c0.01,-2.13 0.53,-4.29 0.41,-6.4c-0.1,-1.7 -0.32,-3.77 -1.33,-4.97c-4.23,-5.03 -4.42,-11.18 -0.46,-16.23c1.18,-1.51 2.14,-3.69 2.13,-5.56c-0.45,-49.96 -1.08,-99.92 -1.55,-149.88c-0.12,-11.89 0.26,-23.8 0.24,-35.7c0,-1.21 -0.92,-2.59 -1.76,-3.61c-5.44,-6.58 -4.27,-13.63 4.39,-18.53c0,-39.73 -0.02,-80.23 0.02,-120.74c0.01,-2.97 0.73,-5.97 0.48,-8.9c-0.26,-3.09 -1.28,-6.11 -1.98,-9.15c-0.44,-1.92 -1.34,-3.84 -1.31,-5.75c0.39,-23.14 0.8,-46.28 1.51,-69.43c0.14,-4.68 1.52,-9.16 -0.04,-14.01c-0.66,-2.07 0.61,-5.27 1.96,-7.36c8.34,-12.92 20.79,-20.66 34.85,-26.07c25.63,-9.88 52.23,-15.61 79.63,-17.72c1.62,-0.13 3.21,-0.51 5.11,-1.12c-7.24,-1.4 -7.29,-6.78 -7.29,-12.06c-0.01,-9.87 4.11,-17.91 11.44,-24.39c21.16,-18.7 60.12,-17.36 79.32,3.28c4.09,4.4 6.82,10.51 8.79,16.3c2.45,7.24 -0.69,11.74 -7.89,14.25c-1.06,0.37 -1.72,1.89 -2.57,2.88c0.25,0.69 0.49,1.37 0.74,2.07c9.41,0 18.82,-0.23 28.22,0.08c5.63,0.18 11.31,0.76 16.82,1.91c19.57,4.04 39.16,8.34 57.15,17.31c6.75,3.37 13.25,7.83 18.73,12.99c9.04,8.53 12.43,18.93 8.44,31.56c-1.62,5.11 -0.59,11.06 -0.74,16.62c-0.35,12.9 -0.18,25.82 -1.12,38.67c-3.58,48.79 0.65,97.53 0.43,146.3c-0.42,92.82 0.51,185.65 0.72,278.46c0.29,125.26 0.43,250.52 0.62,375.77c0.02,11.39 0.01,22.78 0.01,34.66c3.12,-0.2 6.53,-0.46 9.96,-0.6c20.51,-0.85 40.37,0.93 57.13,14.54c4.06,3.31 8.21,6.58 11.76,10.39c3.38,3.62 3.98,8.23 2.05,12.97c-0.55,1.33 -1.45,2.7 -1.44,4.04c0.23,19.18 0.58,38.36 0.91,57.54c0.18,10.42 0.36,20.85 0.55,31.76m-454.94,-131.02c0,-12.67 0,-25.34 0,-38c-0.26,0 -0.51,0 -0.77,0.01c0,12.97 0,25.94 -0.14,39.84c0.04,15.24 0.08,30.48 0,46.65c0.01,14.91 0.03,29.82 -0.01,45.67c0,27.77 0,55.53 0,83.3c0.31,0 0.61,0 0.92,0c0,-28.08 0,-56.15 0.02,-85.15c-0.03,-14.91 -0.06,-29.82 -0.02,-45.67c-0.03,-15.24 -0.06,-30.48 0,-46.64m215.94,622.88c-58.26,1.18 -114.97,-8.02 -170.56,-24.44c0.52,11.09 1.27,22.74 1.56,34.4c0.42,17.18 0.54,34.36 0.74,51.55c0.12,9.58 -0.06,19.16 0.28,28.73c0.39,10.72 1.26,21.42 1.83,32.14c0.16,2.84 -0.94,5.78 2.83,7.51c6.64,3.03 12.94,6.82 19.65,9.69c31.29,13.35 64.57,16.75 98.08,18.5c35.54,1.87 70.89,-0.45 106.07,-5.76c24.92,-3.77 49.56,-8.08 72.12,-20.37c7.03,-3.83 10.42,-7.99 10.51,-16.17c0.33,-29.11 1.47,-58.2 2,-87.31c0.31,-17.45 0.06,-34.92 0.06,-52.66c-46.31,17.01 -95.15,21.33 -145.17,24.2m-138.85,-1426.61c27.2,10.36 55.23,17.17 84.34,19.22c39.77,2.82 79.47,3.03 119.24,-0.89c28.32,-2.78 54.68,-10.95 79.59,-24.31c2.63,-1.41 3.82,-3.05 3.89,-6.16c0.2,-8.76 0.84,-17.49 1.26,-26.25c0.59,-12.26 1.15,-24.52 1.73,-36.94c-4.31,3.41 -8.19,7.06 -12.61,9.87c-19.53,12.43 -41.29,18.64 -63.96,22.59c-26.58,4.64 -53.32,5.04 -80.17,4.78c-34.87,-0.35 -69.77,-1.18 -103.43,-11.16c-22.8,-6.76 -46.04,-13.72 -61.44,-34.83c0.2,3.23 0.47,5.95 0.53,8.68c0.4,19.01 0.71,38.02 1.23,57.04c0.05,1.86 0.76,4.72 2.06,5.37c8.88,4.5 17.99,8.53 27.74,13.01m-84.12,1021.62c0.11,-45.32 0.11,-90.64 0.36,-135.97c0.27,-49.95 0.93,-99.9 1.03,-149.83c0.02,-9.86 -0.11,-20.76 -6.74,-28.49c-8.71,-10.16 -19.33,-18.7 -29.22,-28.03c-5.51,7.25 -5.41,8.1 0.14,12.92c5.39,4.68 10.76,9.39 16.02,14.21c6.72,6.17 10.04,13.88 10.03,22.95c-0.01,5.12 -0.31,10.25 -0.31,15.37c-0.01,51.93 -0.2,103.87 0.09,155.8c0.24,43.32 1.5,86.63 1.5,129.95c0.01,97.09 -0.5,194.16 -0.79,291.25c-0.02,6.96 0.09,7.06 7.89,7.71c0,-102.3 0,-204.58 0,-307.84m413.16,124.1c0.02,18.36 0.11,36.72 0.05,55.08c-0.14,37.55 -0.3,75.1 -0.58,112.64c-0.04,6.25 1.75,9.31 8.18,11.8c5.98,-7.45 11.94,-14.98 18.01,-22.42c6.08,-7.45 12.37,-14.73 18.37,-22.23c1.84,-2.29 4.27,-4.88 1.01,-8.81c-2.45,2.55 -4.89,4.76 -6.93,7.28c-7.11,8.75 -14.02,17.66 -21.18,26.38c-1.11,1.35 -3.1,2 -4.69,2.96c-1.17,-1.9 -3.05,-3.69 -3.35,-5.72c-0.57,-3.89 -0.3,-7.92 -0.3,-11.88c0.14,-90.32 0.11,-180.63 0.5,-270.94c0.18,-43.5 0.84,-86.99 1.94,-130.48c0.39,-15.46 5.41,-29.56 18.97,-39.19c4.33,-3.08 8.93,-5.99 12.48,-9.82c1.56,-1.68 0.82,-5.47 1.13,-8.31c-1.84,0.46 -4.19,0.35 -5.44,1.46c-7.81,6.93 -15.83,13.73 -22.88,21.39c-4.86,5.26 -9.97,11.34 -11.95,17.94c-2.93,9.82 -4.41,20.42 -4.4,30.7c0.07,80.39 0.64,160.78 1.06,242.16m-166.9,-1250.03c0.02,-18.84 -0.14,-37.7 0.21,-56.54c0.08,-4.2 -1.47,-5.75 -5.08,-6.23c-21.15,-2.88 -42.1,-1.21 -62.1,2.33c0,27.52 0,54.54 0,80.75c12.61,0 24.25,-0.04 35.9,0.02c8.32,0.03 16.64,0.14 24.96,0.33c4.12,0.09 6.61,-0.98 6.26,-5.82c-0.34,-4.6 -0.1,-9.24 -0.15,-14.83m-124.44,50.9c21.93,2.95 43.77,7.08 65.79,8.56c26.21,1.77 52.65,3.3 78.83,-0.67c19.72,-2.98 39.5,-6.12 58.81,-10.95c16,-4.01 30.83,-11.54 42.85,-23.4c10.18,-10.04 10.16,-24.03 -0.64,-33.56c-4.91,-4.33 -10.54,-8.32 -16.53,-10.91c-31.03,-13.44 -63.7,-19.9 -97.48,-21.05c-0.29,-0.01 -0.59,0.22 -1.18,0.46c0.09,1.31 0.19,2.71 0.29,4.11c2.78,0.41 5.23,0.94 7.71,1.08c22.03,1.27 43.62,5.16 64.73,11.44c13.09,3.89 26,8.31 36.36,17.83c8.4,7.73 9.39,18.16 1.39,26.31c-4.56,4.65 -10.08,8.8 -15.9,11.72c-23.38,11.74 -48.79,16.39 -74.51,19.38c-35.89,4.18 -71.84,3.98 -107.75,0.09c-24.38,-2.65 -48.62,-6.5 -71.34,-16.12c-8.29,-3.51 -16.45,-8.23 -23.26,-14.02c-9.11,-7.73 -9.03,-19.15 0.09,-26.84c6.98,-5.87 15.02,-11.47 23.55,-14.35c15.53,-5.23 31.67,-8.82 47.75,-12.18c10.17,-2.13 20.69,-2.64 31.12,-3.88c0,-2.5 0,-4.9 0,-7.6c-28.01,3.44 -55.32,8.55 -81.43,18.33c-9.66,3.62 -18.81,9.04 -27.43,14.79c-5.77,3.84 -11.53,9.24 -9.36,17.6c2.82,10.86 9.11,19.57 19.07,24.95c15.09,8.15 30.82,14.87 48.47,18.88m162.71,-43.46c19.81,4.22 39.84,7.81 57.7,19.54c3.72,-2.33 7.98,-4.62 11.81,-7.48c10.31,-7.67 10.44,-17.55 -0.37,-24.63c-7.82,-5.13 -16.28,-9.65 -25.03,-12.96c-18.43,-6.98 -37.89,-9.85 -57.43,-12.05c-6.01,-0.69 -12.03,-1.34 -17.82,-1.99c0,12.74 0,24.52 0,35.67c10.53,1.31 20.41,2.53 31.14,3.89m-191.13,15.59c25.43,-9.67 51.42,-16.95 78.99,-17.8c0,-12.11 0,-24.2 0,-36.79c-8.18,1.22 -15.9,2.34 -23.62,3.53c-20.96,3.23 -41.58,7.85 -60.65,17.41c-5.24,2.63 -10.2,6.31 -14.35,10.43c-5.03,5.01 -4.93,10.78 0,15.95c4.02,4.22 8.98,7.55 13.17,10.97c2.64,-1.56 4.2,-2.49 6.46,-3.71m-3.74,287.8c-0.17,35.71 -0.36,71.43 -0.49,107.14c-0.06,16.68 -7.56,25.93 -24.11,29.27c-3.41,0.69 -6.95,1.11 -10.41,1.04c-4.59,-0.09 -4.5,3.35 -4.9,6.04c-0.46,3.21 1.75,4.47 4.71,4.09c8.54,-1.08 17.26,-1.59 25.55,-3.69c6.46,-1.63 12.65,-5.71 14.92,-12.24c2.62,-7.54 4.88,-15.63 4.99,-23.5c0.46,-35.22 0.17,-70.45 -0.01,-105.67c-0.07,-15.03 0.6,-30.19 -1.13,-45.06c-1.68,-14.49 -12.87,-27.18 -26.88,-28.93c-6.39,-0.8 -12.94,-0.25 -19.4,-0.62c-3.78,-0.21 -4.57,1.7 -4.53,4.8c0.05,3.4 2.17,4.05 4.99,4.06c3.99,0.02 8.01,-0.16 11.96,0.25c14.73,1.52 23.92,13.6 24.63,25.85c0.7,12.02 0.12,24.13 0.11,37.18m163.52,-56.64c3.42,0.81 6.84,1.63 10.36,2.46c0.04,-11.99 -5.47,-27.28 -12.55,-33.55c-8.22,-7.26 -13.66,-6.61 -19.46,0.84c-12.52,16.09 -14.23,34.85 -13.18,53.84c5.24,-0.29 9.86,-0.97 14.44,-0.69c6.78,0.4 6.76,0.69 7.7,-4.87c-1.65,-1.24 -4.01,-2.27 -3.94,-3.1c0.17,-2.07 1.37,-4.08 2.32,-6.04c0.58,-1.19 1.46,-2.22 2.21,-3.34c-1.33,-0.68 -2.67,-1.96 -3.99,-1.94c-4.58,0.08 -9.14,0.61 -13.81,0.97c-0.42,4.71 -0.79,8.85 -1.16,12.99c-0.69,-0.08 -1.39,-0.16 -2.08,-0.24c0.41,-4.45 -0.09,-9.28 1.6,-13.18c0.86,-2 5.63,-2.32 8.71,-3.43c-0.38,-7.37 2.02,-10.88 8.34,-11.11c10.54,-0.37 14.44,1.65 14.49,10.37m-9.31,62.85c2.9,-2.13 6.47,-3.74 8.57,-6.48c7.13,-9.26 10.16,-20.14 11.47,-32.19c-3.86,0 -7.33,0 -10.75,0c-0.83,10.23 -2.86,11.65 -15.27,11.2c-12.41,-0.45 -6.83,-1.68 -6.93,-10.37c-4.03,0.29 -8.02,0.58 -13.52,0.96c2.93,9.08 4.79,17.32 8.24,24.85c3.18,6.93 7.91,13.32 18.19,12.03m-35.82,-402.54c-6.31,1.96 -12.84,3.4 -18.87,6c-5.64,2.45 -9.75,6.96 -11.85,13.32c23.54,-3.85 46.73,-4.88 70.55,-2.26c-3.67,-4.37 -7.44,-8.55 -12.03,-11.47c-8.1,-5.16 -17.4,-6.21 -27.8,-5.59m-249.27,1273.13c0.3,1.41 0.11,3.38 0.98,4.12c5.35,4.58 10.93,8.88 15.64,12.63c0.59,-11.94 1.2,-23.86 1.76,-35.78c0.06,-1.12 0.32,-2.78 -0.28,-3.31c-5.21,-4.59 -10.6,-8.96 -16.43,-13.81c-0.7,12.62 -1.32,23.98 -1.67,36.15m106.23,-401.76c1.12,-0.63 2.25,-1.25 3.37,-1.87c-0.15,-0.46 -0.31,-0.92 -0.46,-1.38c-27.74,2.43 -55.39,5.55 -82.6,12.08c2.82,0.69 5.54,0.47 8.24,0.1c11.89,-1.64 23.75,-3.45 35.66,-4.95c11.62,-1.47 23.29,-2.66 35.79,-3.98m-54.91,-2.47c16.34,-2.09 32.67,-4.2 49.72,-6.38c-4.9,-3.16 -75.02,5.72 -84.17,10.56c1.43,0.56 2.96,0.95 4.41,0.74c9.76,-1.42 19.51,-2.96 30.04,-4.92m254.66,-520.91c-0.21,-1.42 -0.41,-2.85 -0.61,-4.2c-3.78,-0.23 -7.2,-0.44 -10.42,-0.64c-0.43,6.44 -0.82,12.3 -1.21,18.19c4.21,0 7.82,0 12.27,0c0,-4.27 0,-8.35 -0.03,-13.35m-256.64,568.69c-0.84,-2.88 -1.68,-5.76 -2.59,-8.85c0,11.6 0,22.75 0,34.53c5.24,-3.24 5.99,-15.19 2.59,-25.68m-1.04,371.18c0,-20.94 0,-41.88 0,-62.82c-0.22,0.01 -0.44,0.01 -0.66,0.01c0,29.98 0,59.97 0,89.94c0.22,0 0.44,0 0.66,0.01c0,-8.72 0,-17.43 0,-27.14m0.06,117.15c0,-23.36 0,-46.72 0,-70.08c-0.27,0 -0.53,0 -0.8,0c0,28.6 0,57.21 0,85.81c0.27,0 0.54,0 0.8,0c0,-4.91 0,-9.83 0,-15.73m235.84,-1061.37c0.13,0.56 0.27,1.12 0.4,1.68c0.55,-0.19 1.1,-0.38 1.65,-0.57c-1.14,-2.45 -1.69,-5.63 -3.59,-7.13c-1.61,-1.28 -4.88,-0.79 -5.15,2.52c2.27,1.03 4.29,1.96 6.69,3.49m-155.88,595.77c0,4.76 0,9.52 0,14.28c0.23,0 0.47,-0.01 0.7,-0.01c0,-8.52 0,-17.04 0,-25.55c-0.23,0 -0.47,-0.01 -0.7,-0.01c0,3.44 0,6.88 0,11.3l0,-0.01z" fill="#000000" id="svg_2" stroke="#000000"/>
 </g>
 <g class="layer" display="inline">
  <title>bg</title>
  <rect class="left-fill" fill="#000000" height="17.57" id="svg_3" stroke="#000000" stroke-linecap="round" stroke-linejoin="round" stroke-opacity="0" stroke-width="0" width="23.24" x="60.63" y="1539.37"/>
  <rect class="left-fill" fill="#000000" height="15.14" id="svg_4" stroke="#000000" stroke-linecap="round" stroke-linejoin="round" stroke-opacity="0" stroke-width="0" width="21.62" x="66.03" y="1546.27"/>
  <rect class="left-fill" fill="#000000" height="18.92" id="svg_5" stroke="#000000" stroke-linecap="round" stroke-linejoin="round" stroke-opacity="0" stroke-width="0" width="30.54" x="72.52" y="1546.54"/>
  <rect class="left-fill" fill="#000000" height="620.86" id="svg_15" rx="10" ry="10" stroke="#000000" stroke-linecap="round" stroke-linejoin="round" stroke-opacity="0" stroke-width="0" width="111.57" x="46.22" y="923.33"/>
  <rect class="left-fill" fill="#000000" height="10.27" id="svg_14" stroke="#000000" stroke-linecap="round" stroke-linejoin="round" stroke-opacity="0" stroke-width="2" width="31.35" x="71.44" y="1560.72"/>
  <ellipse class="left-fill" cx="68.74" cy="1560.99" fill="#000000" id="svg_10" rx="4.32" ry="6.76" stroke="#000000" stroke-linecap="round" stroke-linejoin="round" stroke-opacity="0" stroke-width="0"/>
  <ellipse class="left-fill" cx="42.63" cy="1316.18" fill="#000000" id="svg_16" rx="33.06" ry="7.84" stroke="#000000" stroke-linecap="round" stroke-linejoin="round" stroke-opacity="0" stroke-width="0" transform="matrix(1 0 0 1 0 0) rotate(86.7013 42.63 1316.18)"/>
 </g>
 <g class="layer" display="inline">
  <title>Layer 1</title>
  <path class="left-pocket-outline" d="m33.55,933.9c-7.48,16.13 -8.58,33.65 -9.72,51.02c-2.97,44.67 -3.92,89.39 -2.91,134.06c3,130.05 1.32,260.13 1.81,390.17c0.03,8.7 2.05,16.56 6.77,24.12c9.35,14.96 18.24,29.74 33.13,40.41c6.68,4.81 13.24,3.89 18.97,3.95c21.67,0.19 42.94,5.21 64.76,3.76c13.45,-0.86 16.86,-4.87 16.83,-17.21c-0.06,-80.38 1.41,-160.77 0.55,-241.12c-1.38,-124.4 -0.25,-248.77 -0.61,-373.18c-0.03,-15.48 -9.87,-23.5 -19.77,-31.99c-1.44,-1.23 -3.62,-1.7 -4.81,-3.08c-12.44,-14.07 -28.35,-11.84 -44.2,-9.96c-14.74,1.7 -29.48,3.49 -44.16,5.77c-9.96,1.57 -12.54,9.38 -16.49,16.35c-0.86,1.51 -1.04,4.87 1.81,5.86c5.76,1.91 8.12,7.87 12.75,11.01c12.26,8.24 13.61,20.79 13.7,34.08c1.96,193.44 0.46,386.84 1.01,580.31c0.03,4.2 -0.64,8.14 -2.02,12" fill="none" id="svg_1" stroke="#ffffff" stroke-linecap="round" stroke-linejoin="round" stroke-width="2"/>
 </g>
</svg>