<svg xmlns="http://www.w3.org/2000/svg" width="573" height="1874.9999999999998" enable-background="new 0 0 573 1875" version="1.1" xml:space="preserve">
    <g class="layer" display="inline">
        <title>Layer 1</title>
        <path d="m541.87,1188c0.46,105.16 0.92,209.82 1.35,314.48c0.03,5.16 -0.52,10.33 -0.28,15.48c0.15,3.34 1.57,6.61 1.82,9.95c0.21,2.86 0.13,6 -0.87,8.62c-1.1,2.88 -3.21,5.44 -5.18,7.9c-10.61,13.26 -21.05,26.67 -32.1,39.57c-6.11,7.12 -14.72,10.02 -24.06,10.21c-8.46,0.17 -16.93,0.03 -25.31,0.03c0.33,9.75 0.99,19.8 0.89,29.84c-0.09,8.64 -1.27,17.26 -1.57,25.9c-0.23,6.59 0.2,13.2 0.27,19.8c0.18,15.81 0.59,31.62 0.42,47.43c-0.27,25.33 -0.68,50.66 -1.6,75.96c-0.23,6.46 -1.62,13.28 -4.32,19.09c-1.88,4.07 -6.46,7.42 -10.57,9.83c-19.12,11.16 -40.09,16.91 -61.9,19.85c-16.5,2.23 -32.95,4.85 -49.5,6.57c-26.87,2.79 -53.81,3.64 -80.77,0.8c-16.06,-1.68 -32.3,-2.38 -48.14,-5.28c-22.32,-4.08 -43.99,-10.74 -63.15,-23.64c-7.53,-5.06 -10.14,-12.39 -10.77,-21.25c-2,-27.8 -0.9,-55.56 0.01,-83.36c0.48,-14.47 -0.42,-28.97 -0.33,-43.46c0.13,-19.96 0.63,-39.92 0.92,-59.89c0.09,-6.31 0.02,-12.63 0.02,-19.44c-5.31,-0.3 -10.74,-0.86 -16.17,-0.87c-10.49,-0.02 -20.99,0.59 -31.46,0.27c-3.44,-0.11 -7.12,-1.78 -10.18,-3.6c-13.05,-7.77 -22.56,-19.03 -30.24,-31.94c-3.58,-6.01 -7.33,-11.94 -10.43,-18.19c-1.61,-3.26 -2.8,-7.13 -2.82,-10.73c-0.53,-86.33 -0.92,-172.66 -1.19,-258.99c-0.04,-12.15 0.95,-24.3 0.97,-36.45c0.01,-11.92 -0.71,-23.83 -0.92,-35.74c-0.24,-13.46 -0.16,-26.92 -0.41,-40.38c-0.4,-21.29 -1.23,-42.57 -1.36,-63.86c-0.11,-18.49 0.01,-37 0.94,-55.45c1.14,-22.6 2.73,-45.2 5.17,-67.69c0.95,-8.77 4.74,-17.24 7.18,-25.87c0.33,-1.19 0.51,-2.48 0.49,-3.72c-0.09,-8.94 8.04,-18.82 16.79,-20.13c24.02,-3.62 48.04,-7.22 72.83,-6.85c0,-4.64 -0.01,-9.11 0,-13.58c0.16,-93.83 0.31,-187.65 0.49,-281.48c0.01,-2.15 0.53,-4.32 0.41,-6.45c-0.1,-1.71 -0.32,-3.8 -1.33,-5.01c-4.23,-5.07 -4.42,-11.26 -0.46,-16.35c1.18,-1.52 2.14,-3.72 2.13,-5.6c-0.45,-50.32 -1.08,-100.64 -1.55,-150.97c-0.12,-11.98 0.26,-23.97 0.24,-35.96c0,-1.22 -0.92,-2.61 -1.76,-3.64c-5.44,-6.63 -4.27,-13.73 4.39,-18.66c0,-40.02 -0.02,-80.81 0.02,-121.61c0.01,-2.99 0.73,-6.01 0.48,-8.96c-0.26,-3.11 -1.28,-6.15 -1.98,-9.22c-0.44,-1.93 -1.34,-3.87 -1.31,-5.79c0.39,-23.31 0.8,-46.62 1.51,-69.93c0.14,-4.71 1.52,-9.23 -0.04,-14.11c-0.66,-2.08 0.61,-5.31 1.96,-7.41c8.34,-13.01 20.79,-20.81 34.85,-26.26c25.63,-9.95 52.23,-15.72 79.63,-17.85c1.62,-0.13 3.21,-0.51 5.11,-1.13c-7.24,-1.41 -7.29,-6.83 -7.29,-12.15c-0.01,-9.94 4.11,-18.04 11.44,-24.57c21.16,-18.84 60.12,-17.49 79.32,3.3c4.09,4.43 6.82,10.59 8.79,16.42c2.45,7.29 -0.69,11.82 -7.89,14.35c-1.06,0.37 -1.72,1.9 -2.57,2.9c0.25,0.69 0.49,1.38 0.74,2.08c9.41,0 18.82,-0.23 28.22,0.08c5.63,0.18 11.31,0.77 16.82,1.92c19.57,4.07 39.16,8.4 57.15,17.44c6.75,3.39 13.25,7.89 18.73,13.08c9.04,8.59 12.43,19.07 8.44,31.79c-1.62,5.15 -0.59,11.14 -0.74,16.74c-0.35,12.99 -0.18,26.01 -1.12,38.95c-3.58,49.14 0.65,98.24 0.43,147.36c-0.42,93.49 0.51,186.99 0.72,280.48c0.29,126.17 0.43,252.33 0.62,378.49c0.02,11.47 0.01,22.94 0.01,34.91c3.12,-0.2 6.53,-0.46 9.96,-0.6c20.51,-0.86 40.37,0.94 57.13,14.65c4.06,3.33 8.21,6.63 11.76,10.47c3.38,3.65 3.98,8.29 2.05,13.06c-0.55,1.34 -1.45,2.72 -1.44,4.07c0.23,19.32 0.58,38.64 0.91,57.96c0.18,10.5 0.36,21 0.55,31.99m-454.94,-131.97c0,-12.76 0,-25.52 0,-38.28c-0.26,0 -0.51,0 -0.77,0.01c0,13.06 0,26.13 -0.14,40.13c0.04,15.35 0.08,30.7 0,46.99c0.01,15.02 0.03,30.04 -0.01,46c0,27.97 0,55.93 0,83.9c0.31,0 0.61,0 0.92,0c0,-28.28 0,-56.56 0.02,-85.77c-0.03,-15.02 -0.06,-30.04 -0.02,-46c-0.03,-15.35 -0.06,-30.7 0,-46.98m215.94,627.39c-58.26,1.19 -114.97,-8.08 -170.56,-24.62c0.52,11.17 1.27,22.9 1.56,34.65c0.42,17.3 0.54,34.61 0.74,51.92c0.12,9.65 -0.06,19.3 0.28,28.94c0.39,10.8 1.26,21.58 1.83,32.37c0.16,2.86 -0.94,5.82 2.83,7.56c6.64,3.05 12.94,6.87 19.65,9.76c31.29,13.45 64.57,16.87 98.08,18.63c35.54,1.88 70.89,-0.45 106.07,-5.8c24.92,-3.8 49.56,-8.14 72.12,-20.52c7.03,-3.86 10.42,-8.05 10.51,-16.29c0.33,-29.32 1.47,-58.62 2,-87.94c0.31,-17.58 0.06,-35.17 0.06,-53.04c-46.31,17.13 -95.15,21.48 -145.17,24.38m-138.85,-1436.94c27.2,10.44 55.23,17.29 84.34,19.36c39.77,2.84 79.47,3.05 119.24,-0.9c28.32,-2.8 54.68,-11.03 79.59,-24.49c2.63,-1.42 3.82,-3.07 3.89,-6.2c0.2,-8.82 0.84,-17.62 1.26,-26.44c0.59,-12.35 1.15,-24.7 1.73,-37.21c-4.31,3.43 -8.19,7.11 -12.61,9.94c-19.53,12.52 -41.29,18.77 -63.96,22.75c-26.58,4.67 -53.32,5.08 -80.17,4.81c-34.87,-0.35 -69.77,-1.19 -103.43,-11.24c-22.8,-6.81 -46.04,-13.82 -61.44,-35.08c0.2,3.25 0.47,5.99 0.53,8.74c0.4,19.15 0.71,38.3 1.23,57.45c0.05,1.87 0.76,4.75 2.06,5.41c8.88,4.53 17.99,8.59 27.74,13.1m-84.12,1029.02c0.11,-45.65 0.11,-91.3 0.36,-136.95c0.27,-50.31 0.93,-100.62 1.03,-150.92c0.02,-9.93 -0.11,-20.91 -6.74,-28.7c-8.71,-10.23 -19.33,-18.84 -29.22,-28.23c-5.51,7.3 -5.41,8.16 0.14,13.01c5.39,4.71 10.76,9.46 16.02,14.31c6.72,6.21 10.04,13.98 10.03,23.12c-0.01,5.16 -0.31,10.32 -0.31,15.48c-0.01,52.31 -0.2,104.62 0.09,156.93c0.24,43.63 1.5,87.26 1.5,130.89c0.01,97.79 -0.5,195.57 -0.79,293.36c-0.02,7.01 0.09,7.11 7.89,7.77c0,-103.04 0,-206.06 0,-310.07m413.16,125c0.02,18.49 0.11,36.99 0.05,55.48c-0.14,37.82 -0.3,75.64 -0.58,113.46c-0.04,6.3 1.75,9.38 8.18,11.89c5.98,-7.5 11.94,-15.09 18.01,-22.58c6.08,-7.5 12.37,-14.84 18.37,-22.39c1.84,-2.31 4.27,-4.92 1.01,-8.87c-2.45,2.57 -4.89,4.79 -6.93,7.33c-7.11,8.81 -14.02,17.79 -21.18,26.57c-1.11,1.36 -3.1,2.01 -4.69,2.98c-1.17,-1.91 -3.05,-3.72 -3.35,-5.76c-0.57,-3.92 -0.3,-7.98 -0.3,-11.97c0.14,-90.97 0.11,-181.94 0.5,-272.9c0.18,-43.81 0.84,-87.62 1.94,-131.42c0.39,-15.57 5.41,-29.77 18.97,-39.47c4.33,-3.1 8.93,-6.03 12.48,-9.89c1.56,-1.69 0.82,-5.51 1.13,-8.37c-1.84,0.46 -4.19,0.35 -5.44,1.47c-7.81,6.98 -15.83,13.83 -22.88,21.54c-4.86,5.3 -9.97,11.42 -11.95,18.07c-2.93,9.89 -4.41,20.57 -4.4,30.92c0.07,80.97 0.64,161.94 1.06,243.91m-166.9,-1259.08c0.02,-18.98 -0.14,-37.97 0.21,-56.95c0.08,-4.23 -1.47,-5.79 -5.08,-6.28c-21.15,-2.9 -42.1,-1.22 -62.1,2.35c0,27.72 0,54.93 0,81.33c12.61,0 24.25,-0.04 35.9,0.02c8.32,0.03 16.64,0.14 24.96,0.33c4.12,0.09 6.61,-0.99 6.26,-5.86c-0.34,-4.63 -0.1,-9.31 -0.15,-14.94m-124.44,51.27c21.93,2.97 43.77,7.13 65.79,8.62c26.21,1.78 52.65,3.32 78.83,-0.67c19.72,-3 39.5,-6.16 58.81,-11.03c16,-4.04 30.83,-11.62 42.85,-23.57c10.18,-10.11 10.16,-24.2 -0.64,-33.8c-4.91,-4.36 -10.54,-8.38 -16.53,-10.99c-31.03,-13.54 -63.7,-20.04 -97.48,-21.2c-0.29,-0.01 -0.59,0.22 -1.18,0.46c0.09,1.32 0.19,2.73 0.29,4.14c2.78,0.41 5.23,0.95 7.71,1.09c22.03,1.28 43.62,5.2 64.73,11.52c13.09,3.92 26,8.37 36.36,17.96c8.4,7.79 9.39,18.29 1.39,26.5c-4.56,4.68 -10.08,8.86 -15.9,11.8c-23.38,11.82 -48.79,16.51 -74.51,19.52c-35.89,4.21 -71.84,4.01 -107.75,0.09c-24.38,-2.67 -48.62,-6.55 -71.34,-16.24c-8.29,-3.54 -16.45,-8.29 -23.26,-14.12c-9.11,-7.79 -9.03,-19.29 0.09,-27.03c6.98,-5.91 15.02,-11.55 23.55,-14.45c15.53,-5.27 31.67,-8.88 47.75,-12.27c10.17,-2.15 20.69,-2.66 31.12,-3.91c0,-2.52 0,-4.94 0,-7.66c-28.01,3.46 -55.32,8.61 -81.43,18.46c-9.66,3.65 -18.81,9.11 -27.43,14.9c-5.77,3.87 -11.53,9.31 -9.36,17.73c2.82,10.94 9.11,19.71 19.07,25.13c15.09,8.21 30.82,14.98 48.47,19.02m162.71,-43.77c19.81,4.25 39.84,7.87 57.7,19.68c3.72,-2.35 7.98,-4.65 11.81,-7.53c10.31,-7.73 10.44,-17.68 -0.37,-24.81c-7.82,-5.17 -16.28,-9.72 -25.03,-13.05c-18.43,-7.03 -37.89,-9.92 -57.43,-12.14c-6.01,-0.69 -12.03,-1.35 -17.82,-2c0,12.83 0,24.7 0,35.93c10.53,1.32 20.41,2.55 31.14,3.92m-191.13,15.7c25.43,-9.74 51.42,-17.07 78.99,-17.93c0,-12.2 0,-24.38 0,-37.06c-8.18,1.23 -15.9,2.36 -23.62,3.56c-20.96,3.25 -41.58,7.91 -60.65,17.54c-5.24,2.65 -10.2,6.36 -14.35,10.51c-5.03,5.05 -4.93,10.86 0,16.07c4.02,4.25 8.98,7.6 13.17,11.05c2.64,-1.57 4.2,-2.51 6.46,-3.74m-3.74,289.88c-0.17,35.97 -0.36,71.95 -0.49,107.92c-0.06,16.8 -7.56,26.12 -24.11,29.48c-3.41,0.69 -6.95,1.12 -10.41,1.05c-4.59,-0.09 -4.5,3.37 -4.9,6.08c-0.46,3.23 1.75,4.5 4.71,4.12c8.54,-1.09 17.26,-1.6 25.55,-3.72c6.46,-1.64 12.65,-5.75 14.92,-12.33c2.62,-7.59 4.88,-15.74 4.99,-23.67c0.46,-35.48 0.17,-70.96 -0.01,-106.44c-0.07,-15.14 0.6,-30.41 -1.13,-45.39c-1.68,-14.59 -12.87,-27.38 -26.88,-29.14c-6.39,-0.81 -12.94,-0.25 -19.4,-0.62c-3.78,-0.21 -4.57,1.71 -4.53,4.83c0.05,3.42 2.17,4.08 4.99,4.09c3.99,0.02 8.01,-0.16 11.96,0.25c14.73,1.53 23.92,13.7 24.63,26.04c0.7,12.11 0.12,24.3 0.11,37.45m163.52,-57.05c3.42,0.82 6.84,1.64 10.36,2.48c0.04,-12.08 -5.47,-27.48 -12.55,-33.79c-8.22,-7.31 -13.66,-6.66 -19.46,0.85c-12.52,16.21 -14.23,35.1 -13.18,54.23c5.24,-0.29 9.86,-0.98 14.44,-0.7c6.78,0.4 6.76,0.69 7.7,-4.91c-1.65,-1.25 -4.01,-2.29 -3.94,-3.12c0.17,-2.08 1.37,-4.11 2.32,-6.08c0.58,-1.2 1.46,-2.24 2.21,-3.36c-1.33,-0.68 -2.67,-1.97 -3.99,-1.95c-4.58,0.08 -9.14,0.61 -13.81,0.98c-0.42,4.74 -0.79,8.91 -1.16,13.08c-0.69,-0.08 -1.39,-0.16 -2.08,-0.24c0.41,-4.48 -0.09,-9.35 1.6,-13.28c0.86,-2.01 5.63,-2.34 8.71,-3.45c-0.38,-7.42 2.02,-10.96 8.34,-11.19c10.54,-0.37 14.44,1.66 14.49,10.45m-9.31,63.31c2.9,-2.15 6.47,-3.77 8.57,-6.53c7.13,-9.33 10.16,-20.29 11.47,-32.42c-3.86,0 -7.33,0 -10.75,0c-0.83,10.3 -2.86,11.73 -15.27,11.28c-5.78,-0.21 -6.83,-1.69 -6.93,-10.45c-4.03,0.29 -8.02,0.58 -13.52,0.97c2.93,9.15 4.79,17.45 8.24,25.03c3.18,6.98 7.91,13.42 18.19,12.12m-35.82,-405.45c-6.31,1.97 -12.84,3.42 -18.87,6.04c-5.64,2.47 -9.75,7.01 -11.85,13.42c23.54,-3.88 46.73,-4.92 70.55,-2.28c-3.67,-4.4 -7.44,-8.61 -12.03,-11.55c-8.1,-5.2 -17.4,-6.25 -27.8,-5.63m-249.27,1282.35c0.3,1.42 0.11,3.4 0.98,4.15c5.35,4.61 10.93,8.94 15.64,12.72c0.59,-12.03 1.2,-24.03 1.76,-36.04c0.06,-1.13 0.32,-2.8 -0.28,-3.33c-5.21,-4.62 -10.6,-9.02 -16.43,-13.91c-0.7,12.71 -1.32,24.15 -1.67,36.41m106.23,-404.67c1.12,-0.63 2.25,-1.26 3.37,-1.88c-0.15,-0.46 -0.31,-0.93 -0.46,-1.39c-27.74,2.45 -55.39,5.59 -82.6,12.17c2.82,0.7 5.54,0.47 8.24,0.1c11.89,-1.65 23.75,-3.47 35.66,-4.99c11.62,-1.48 23.29,-2.68 35.79,-4.01m-54.91,-2.49c16.34,-2.11 32.67,-4.23 49.72,-6.43c-4.9,-3.18 -75.02,5.76 -84.17,10.64c1.43,0.56 2.96,0.96 4.41,0.75c9.76,-1.43 19.51,-2.98 30.04,-4.96m254.66,-524.68c-0.21,-1.43 -0.41,-2.87 -0.61,-4.23c-3.78,-0.23 -7.2,-0.44 -10.42,-0.64c-0.43,6.49 -0.82,12.39 -1.21,18.32c4.21,0 7.82,0 12.27,0c0,-4.3 0,-8.41 -0.03,-13.45m-256.64,572.81c-0.84,-2.9 -1.68,-5.8 -2.59,-8.91c0,11.68 0,22.91 0,34.78c5.24,-3.26 5.99,-15.3 2.59,-25.87m-1.04,373.87c0,-21.09 0,-42.18 0,-63.27c-0.22,0.01 -0.44,0.01 -0.66,0.01c0,30.2 0,60.4 0,90.59c0.22,0 0.44,0 0.66,0.01c0,-8.78 0,-17.56 0,-27.34m0.06,118c0,-23.53 0,-47.06 0,-70.59c-0.27,0 -0.53,0 -0.8,0c0,28.81 0,57.62 0,86.43c0.27,0 0.54,0 0.8,0c0,-4.95 0,-9.9 0,-15.84m235.84,-1069.06c0.13,0.56 0.27,1.13 0.4,1.69c0.55,-0.19 1.1,-0.38 1.65,-0.57c-1.14,-2.47 -1.69,-5.67 -3.59,-7.18c-1.61,-1.29 -4.88,-0.8 -5.15,2.54c2.27,1.04 4.29,1.97 6.69,3.52m-155.88,600.08c0,4.79 0,9.59 0,14.38c0.23,0 0.47,-0.01 0.7,-0.01c0,-8.58 0,-17.16 0,-25.74c-0.23,0 -0.47,-0.01 -0.7,-0.01c0,3.46 0,6.93 0,11.38z" fill="#010101" id="Layer1" />
        <path d="m303.34,1683.41c49.55,-2.89 98.39,-7.24 144.7,-24.37c0,17.87 0.25,35.46 -0.06,53.04c-0.53,29.32 -1.67,58.62 -2,87.94c-0.09,8.24 -3.48,12.43 -10.51,16.29c-22.56,12.38 -47.2,16.72 -72.12,20.52c-35.18,5.35 -70.53,7.68 -106.07,5.8c-33.51,-1.76 -66.79,-5.18 -98.08,-18.63c-6.71,-2.89 -13.01,-6.71 -19.65,-9.76c-3.77,-1.74 -2.67,-4.7 -2.83,-7.56c-0.57,-10.79 -1.44,-21.57 -1.83,-32.37c-0.34,-9.64 -0.16,-19.29 -0.28,-28.94c-0.2,-17.31 -0.32,-34.62 -0.74,-51.92c-0.29,-11.75 -1.04,-23.48 -1.56,-34.65c55.59,16.54 112.3,25.81 171.03,24.61z" fill="#FEFEFE" id="Base" />
        <path d="m163.66,246.33c-9.39,-4.36 -18.5,-8.42 -27.38,-12.95c-1.3,-0.66 -2.01,-3.54 -2.06,-5.41c-0.52,-19.15 -0.83,-38.3 -1.23,-57.45c-0.06,-2.75 -0.33,-5.49 -0.53,-8.74c15.4,21.26 38.64,28.27 61.44,35.08c33.66,10.05 68.56,10.89 103.43,11.24c26.85,0.27 53.59,-0.14 80.17,-4.81c22.67,-3.98 44.43,-10.23 63.96,-22.75c4.42,-2.83 8.3,-6.51 12.61,-9.94c-0.58,12.51 -1.14,24.86 -1.73,37.21c-0.42,8.82 -1.06,17.62 -1.26,26.44c-0.07,3.13 -1.26,4.78 -3.89,6.2c-24.91,13.46 -51.27,21.69 -79.59,24.49c-39.77,3.95 -79.47,3.74 -119.24,0.9c-29.11,-2.07 -57.14,-8.92 -84.7,-19.51z" fill="#FDFDFD" id="Pocket-2" />
        <path d="m79.9,1276c0,103.51 0,206.53 0,309.57c-7.8,-0.66 -7.91,-0.76 -7.89,-7.77c0.29,-97.79 0.8,-195.57 0.79,-293.36c0,-43.63 -1.26,-87.26 -1.5,-130.89c-0.29,-52.31 -0.1,-104.62 -0.09,-156.93c0,-5.16 0.3,-10.32 0.31,-15.48c0.01,-9.14 -3.31,-16.91 -10.03,-23.12c-5.26,-4.85 -10.63,-9.6 -16.02,-14.31c-5.55,-4.85 -5.65,-5.71 -0.14,-13.01c9.89,9.39 20.51,18 29.22,28.23c6.63,7.79 6.76,18.77 6.74,28.7c-0.1,50.3 -0.76,100.61 -1.03,150.92c-0.25,45.65 -0.25,91.3 -0.36,137.45z" fill="#F1F1F1" id="Rangefinder-Pocket" />
        <path d="m493.06,1400c-0.42,-81.47 -0.99,-162.44 -1.06,-243.41c-0.01,-10.35 1.47,-21.03 4.4,-30.92c1.98,-6.65 7.09,-12.77 11.95,-18.07c7.05,-7.71 15.07,-14.56 22.88,-21.54c1.25,-1.12 3.6,-1.01 5.44,-1.47c-0.31,2.86 0.43,6.68 -1.13,8.37c-3.55,3.86 -8.15,6.79 -12.48,9.89c-13.56,9.7 -18.58,23.9 -18.97,39.47c-1.1,43.8 -1.76,87.61 -1.94,131.42c-0.39,90.96 -0.36,181.93 -0.5,272.9c0,3.99 -0.27,8.05 0.3,11.97c0.3,2.04 2.18,3.85 3.35,5.76c1.59,-0.97 3.58,-1.62 4.69,-2.98c7.16,-8.78 14.07,-17.76 21.18,-26.57c2.04,-2.54 4.48,-4.76 6.93,-7.33c3.26,3.95 0.83,6.56 -1.01,8.87c-6,7.55 -12.29,14.89 -18.37,22.39c-6.07,7.49 -12.03,15.08 -18.01,22.58c-6.43,-2.51 -8.22,-5.59 -8.18,-11.89c0.28,-37.82 0.44,-75.64 0.58,-113.46c0.06,-18.49 -0.03,-36.99 -0.05,-55.98z" fill="#F1F1F1" id="Strap" />
        <path d="m326.18,141.91c0.03,5.14 -0.21,9.82 0.13,14.45c0.35,4.87 -2.14,5.95 -6.26,5.86c-8.32,-0.19 -16.64,-0.3 -24.96,-0.33c-11.65,-0.06 -23.29,-0.02 -35.9,-0.02c0,-26.4 0,-53.61 0,-81.33c20,-3.57 40.95,-5.25 62.1,-2.35c3.61,0.49 5.16,2.05 5.08,6.28c-0.35,18.98 -0.19,37.97 -0.19,57.44m-23.15,-20.88c2.49,6.29 6.28,8.62 11.68,7.19c4.94,-1.31 8.19,-6.67 7.31,-12.06c-0.77,-4.74 -4.85,-8.31 -9.28,-8.12c-5.22,0.21 -9.38,4.72 -9.83,10.67c-0.04,0.5 0.02,1 0.12,2.32m-21.03,0c1.65,-8.55 -6.6,-13.71 -11.79,-11.47c-4.89,2.12 -7.76,6.02 -7.26,11.23c0.45,4.64 2.85,7.7 7.61,8.56c5.11,0.92 8.48,-1.34 11.44,-8.32m30.6,32.94c1.28,-0.29 2.65,-0.39 3.83,-0.91c4.33,-1.91 6.71,-6.98 5.39,-11.64c-1.21,-4.28 -3.95,-6.88 -8.64,-6.76c-4.22,0.1 -8.11,3.98 -8.9,8.71c-0.83,5.02 1.68,8.54 8.32,10.6m-43.03,0.24c6.28,1.57 11.15,-1.24 12.38,-7.16c1.12,-5.35 -2.17,-10.56 -7.12,-11.27c-5,-0.72 -10.05,3.4 -10.55,8.95c-0.35,3.85 0.89,7.21 5.29,9.48z" fill="#F9F9F9" id="Strap-Pad" />
        <path d="m201.33,192.54c-17.26,-3.89 -32.99,-10.66 -48.08,-18.87c-9.96,-5.42 -16.25,-14.19 -19.07,-25.13c-2.17,-8.42 3.59,-13.86 9.36,-17.73c8.62,-5.79 17.77,-11.25 27.43,-14.9c26.11,-9.85 53.42,-15 81.43,-18.46c0,2.72 0,5.14 0,7.66c-10.43,1.25 -20.95,1.76 -31.12,3.91c-16.08,3.39 -32.22,7 -47.75,12.27c-8.53,2.9 -16.57,8.54 -23.55,14.45c-9.12,7.74 -9.2,19.24 -0.09,27.03c6.81,5.83 14.97,10.58 23.26,14.12c22.72,9.69 46.96,13.57 71.34,16.24c35.91,3.92 71.86,4.12 107.75,-0.09c25.72,-3.01 51.13,-7.7 74.51,-19.52c5.82,-2.94 11.34,-7.12 15.9,-11.8c8,-8.21 7.01,-18.71 -1.39,-26.5c-10.36,-9.59 -23.27,-14.04 -36.36,-17.96c-21.11,-6.32 -42.7,-10.24 -64.73,-11.52c-2.48,-0.14 -4.93,-0.68 -7.71,-1.09c-0.1,-1.41 -0.2,-2.82 -0.29,-4.14c0.59,-0.24 0.89,-0.47 1.18,-0.46c33.78,1.16 66.45,7.66 97.48,21.2c5.99,2.61 11.62,6.63 16.53,10.99c10.8,9.6 10.82,23.69 0.64,33.8c-12.02,11.95 -26.85,19.53 -42.85,23.57c-19.31,4.87 -39.09,8.03 -58.81,11.03c-26.18,3.99 -52.62,2.45 -78.83,0.67c-22.02,-1.49 -43.86,-5.65 -66.18,-8.77z" fill="#EDEDED" id="Handle" />
        <path d="m364.01,148.85c-10.31,-1.3 -20.19,-2.53 -30.72,-3.85c0,-11.23 0,-23.1 0,-35.93c5.79,0.65 11.81,1.31 17.82,2c19.54,2.22 39,5.11 57.43,12.14c8.75,3.33 17.21,7.88 25.03,13.05c10.81,7.13 10.68,17.08 0.37,24.81c-3.83,2.88 -8.09,5.18 -11.81,7.53c-17.86,-11.81 -37.89,-15.43 -58.12,-19.75z" fill="#FBFBFB" id="Hardware" />
        <path d="m172.95,164.77c-1.91,1.08 -3.47,2.02 -6.11,3.59c-4.19,-3.45 -9.15,-6.8 -13.17,-11.05c-4.93,-5.21 -5.03,-11.02 0,-16.07c4.15,-4.15 9.11,-7.86 14.35,-10.51c19.07,-9.63 39.69,-14.29 60.65,-17.54c7.72,-1.2 15.44,-2.33 23.62,-3.56c0,12.68 0,24.86 0,37.06c-27.57,0.86 -53.56,8.19 -79.34,18.08z" fill="#FBFBFB" id="extra-9" />
        <path d="m169.56,454c0.01,-12.65 0.59,-24.84 -0.11,-36.95c-0.71,-12.34 -9.9,-24.51 -24.63,-26.04c-3.95,-0.41 -7.97,-0.23 -11.96,-0.25c-2.82,-0.01 -4.94,-0.67 -4.99,-4.09c-0.04,-3.12 0.75,-5.04 4.53,-4.83c6.46,0.37 13.01,-0.19 19.4,0.62c14.01,1.76 25.2,14.55 26.88,29.14c1.73,14.98 1.06,30.25 1.13,45.39c0.18,35.48 0.47,70.96 0.01,106.44c-0.11,7.93 -2.37,16.08 -4.99,23.67c-2.27,6.58 -8.46,10.69 -14.92,12.33c-8.29,2.12 -17.01,2.63 -25.55,3.72c-2.96,0.38 -5.17,-0.89 -4.71,-4.12c0.4,-2.71 0.31,-6.17 4.9,-6.08c3.46,0.07 7,-0.36 10.41,-1.05c16.55,-3.36 24.05,-12.68 24.11,-29.48c0.13,-35.97 0.32,-71.95 0.49,-108.42z" fill="#F3F3F3" id="extra-10" />
        <path d="m333.08,397.02c-0.05,-8.36 -3.95,-10.39 -14.49,-10.02c-6.32,0.23 -8.72,3.77 -8.34,11.19c-3.08,1.11 -7.85,1.44 -8.71,3.45c-1.69,3.93 -1.19,8.8 -1.6,13.28c0.69,0.08 1.39,0.16 2.08,0.24c0.37,-4.17 0.74,-8.34 1.16,-13.08c4.67,-0.37 9.23,-0.9 13.81,-0.98c1.32,-0.02 2.66,1.27 3.99,1.95c-0.75,1.12 -1.63,2.16 -2.21,3.36c-0.95,1.97 -2.15,4 -2.32,6.08c-0.07,0.83 2.29,1.87 3.94,3.12c-0.94,5.6 -0.92,5.31 -7.7,4.91c-4.58,-0.28 -9.2,0.41 -14.44,0.7c-1.05,-19.13 0.66,-38.02 13.18,-54.23c5.8,-7.51 11.24,-8.16 19.46,-0.85c7.08,6.31 12.59,21.71 12.55,33.79c-3.52,-0.84 -6.94,-1.66 -10.36,-2.91z" fill="#F7F7F7" id="extra-11" />
        <path d="m323.37,460.83c-9.88,1.23 -14.61,-5.21 -17.79,-12.19c-3.45,-7.58 -5.31,-15.88 -8.24,-25.03c5.5,-0.39 9.49,-0.68 13.52,-0.97c0.1,8.76 1.15,10.24 6.93,10.45c12.41,0.45 14.44,-0.98 15.27,-11.28c3.42,0 6.89,0 10.75,0c-1.31,12.13 -4.34,23.09 -11.47,32.42c-2.1,2.76 -5.67,4.38 -8.97,6.6z" fill="#F8F8F8" id="extra-12" />
        <path d="m288.4,55.27c9.95,-0.58 19.25,0.47 27.35,5.67c4.59,2.94 8.36,7.15 12.03,11.55c-23.82,-2.64 -47.01,-1.6 -70.55,2.28c2.1,-6.41 6.21,-10.95 11.85,-13.42c6.03,-2.62 12.56,-4.07 19.32,-6.08z" fill="#EAE6E5" id="extra-13" />
        <path d="m38.54,1337.26c0.49,-11.86 1.11,-23.3 1.81,-36.01c5.83,4.89 11.22,9.29 16.43,13.91c0.6,0.53 0.34,2.2 0.28,3.33c-0.56,12.01 -1.17,24.01 -1.76,36.04c-4.71,-3.78 -10.29,-8.11 -15.64,-12.72c-0.87,-0.75 -0.68,-2.73 -1.12,-4.55z" fill="#F5F5F5" id="extra-14" />
        <path d="m144.48,932.99c-12.07,1.33 -23.74,2.53 -35.36,4.01c-11.91,1.52 -23.77,3.34 -35.66,4.99c-2.7,0.37 -5.42,0.6 -8.24,-0.1c27.21,-6.58 54.86,-9.72 82.6,-12.17c0.15,0.46 0.31,0.93 0.46,1.39c-1.12,0.62 -2.25,1.25 -3.8,1.88z" fill="#FEFEFE" id="extra-15" />
        <path d="m89.61,930.73c-10.14,1.75 -19.89,3.3 -29.65,4.73c-1.45,0.21 -2.98,-0.19 -4.41,-0.75c9.15,-4.88 79.27,-13.82 84.17,-10.64c-17.05,2.2 -33.38,4.32 -50.11,6.66z" fill="#FEFEFE" id="extra-16" />
        <path d="m344.68,406.28c0.01,4.58 0.01,8.69 0.01,12.99c-4.45,0 -8.06,0 -12.27,0c0.39,-5.93 0.78,-11.83 1.21,-18.32c3.22,0.2 6.64,0.41 10.42,0.64c0.2,1.36 0.4,2.8 0.63,4.69z" fill="#F1F1F1" id="extra-17" />
        <path d="m88.03,979.07c3.39,10.13 2.64,22.17 -2.6,25.43c0,-11.87 0,-23.1 0,-34.78c0.91,3.11 1.75,6.01 2.6,9.35z" fill="#F1F1F1" id="extra-18" />
        <path d="m86.98,1353c0,9.28 0,18.06 0,26.84c-0.22,-0.01 -0.44,-0.01 -0.66,-0.01c0,-30.19 0,-60.39 0,-90.59c0.22,0 0.44,0 0.66,-0.01c0,21.09 0,42.18 0,63.77z" fill="#191818" id="extra-19" />
        <path d="m87.04,1471c0,5.44 0,10.39 0,15.34c-0.26,0 -0.53,0 -0.8,0c0,-28.81 0,-57.62 0,-86.43c0.27,0 0.53,0 0.8,0c0,23.53 0,47.06 0,71.09z" fill="#5C5A5A" id="extra-20" />
        <path d="m86.93,1149.94c0,28.28 0,56.56 0,84.84c-0.31,0 -0.61,0 -0.92,0c0,-27.97 0,-55.93 0.24,-84.36c0.25,-0.45 0.68,-0.48 0.68,-0.48z" fill="#1B1B1B" id="extra-21" />
        <path d="m86.14,1103.94c-0.04,-15.35 -0.08,-30.7 0.12,-46.51c0.24,-0.46 0.58,-0.47 0.58,-0.47c0.03,15.35 0.06,30.7 -0.13,46.53c-0.21,0.47 -0.57,0.45 -0.57,0.45z" fill="#515050" id="extra-22" />
        <path d="m86.08,1104.41c0.06,-0.47 0.42,-0.45 0.6,-0.46c0.21,15.02 0.24,30.04 0.26,45.52c-0.01,0.47 -0.44,0.5 -0.66,0.48c-0.23,-15.03 -0.25,-30.05 -0.2,-45.54z" fill="#393838" id="extra-23" />
        <path d="m86.89,1056.49c-0.05,0.47 -0.39,0.48 -0.56,0.47c-0.17,-13.07 -0.17,-26.14 -0.17,-39.2c0.26,-0.01 0.51,-0.01 0.77,-0.01c0,12.76 0,25.52 -0.04,38.74z" fill="#686766" id="extra-24" />
        <path d="m322.69,401.13c-2.21,-1.24 -4.23,-2.17 -6.5,-3.21c0.27,-3.34 3.54,-3.83 5.15,-2.54c1.9,1.51 2.45,4.71 3.59,7.18c-0.55,0.19 -1.1,0.38 -1.65,0.57c-0.13,-0.56 -0.27,-1.13 -0.59,-2z" fill="#D6D6D6" id="extra-25" />
        <path d="m167,1001.03c0,-3.96 0,-7.43 0,-10.89c0.23,0 0.47,0.01 0.7,0.01c0,8.58 0,17.16 0,25.74c-0.23,0 -0.47,0.01 -0.7,0.01c0,-4.79 0,-9.59 0,-14.87z" fill="#191818" id="extra-26" />
        <path d="m302.99,120.62c-0.06,-0.91 -0.12,-1.41 -0.08,-1.91c0.45,-5.95 4.61,-10.46 9.83,-10.67c4.43,-0.19 8.51,3.38 9.28,8.12c0.88,5.39 -2.37,10.75 -7.31,12.06c-5.4,1.43 -9.19,-0.9 -11.72,-7.6z" fill="#080808" id="extra-27" />
        <path d="m281.92,121.42c-2.88,6.59 -6.25,8.85 -11.36,7.93c-4.76,-0.86 -7.16,-3.92 -7.61,-8.56c-0.5,-5.21 2.37,-9.11 7.26,-11.23c5.19,-2.24 13.44,2.92 11.71,11.86z" fill="#080808" id="extra-28" />
        <path d="m312.2,153.94c-6.24,-2.03 -8.75,-5.55 -7.92,-10.57c0.79,-4.73 4.68,-8.61 8.9,-8.71c4.69,-0.12 7.43,2.48 8.64,6.76c1.32,4.66 -1.06,9.73 -5.39,11.64c-1.18,0.52 -2.55,0.62 -4.23,0.88z" fill="#080808" id="extra-29" />
        <path d="m269.2,154.09c-4.03,-2.15 -5.27,-5.51 -4.92,-9.36c0.5,-5.55 5.55,-9.67 10.55,-8.95c4.95,0.71 8.24,5.92 7.12,11.27c-1.23,5.92 -6.1,8.73 -12.75,7.04z" fill="#080808" id="extra-30" />
    </g>
    <g class="layer">
        <title>Layer 2</title>
        <line fill="none" id="svg_33" stroke="#ffffff" stroke-width="4" x1="125" x2="178" y1="912" y2="955" />
        <line fill="none" id="svg_35" stroke="#ffffff" stroke-width="4" x1="177" x2="180" y1="954" y2="1587" />
        <path d="m180,1585c-0.8,0 -1.7,0 -2.64,0c-0.86,0 -1.78,0 -2.64,0c-0.91,0 -1.81,0 -2.71,0c-0.88,0 -1.7,0 -2.6,0c-0.9,0 -1.8,0 -2.7,0c-0.9,0 -1.8,0 -2.67,0c-0.83,0 -1.73,0 -2.63,0c-0.9,0 -1.79,0 -2.69,0c-0.91,0 -1.8,0 -2.71,0c-0.8,0 -1.7,0 -2.6,0c-0.88,0 -1.84,0 -2.7,0c-0.9,0 -1.8,0 -2.67,0c-0.83,0 -1.73,0 -2.63,0c-0.9,0 -1.8,0 -2.7,0c-0.9,0 -1.79,0 -2.7,0c-0.88,0 -1.7,0 -2.6,0c-0.9,0 -1.8,0 -2.7,0c-0.93,0 -1.8,0 -2.7,0c-0.88,0 -1.7,0 -2.64,0c-0.86,0 -1.78,0 -2.64,0c-0.91,0 -1.8,0 -2.71,0c-0.88,0 -1.7,0 -2.64,0c-0.88,0 -1.76,0 -2.65,0c-0.93,0 -1.79,0 -2.7,0c-0.88,0 -1.7,0 -2.64,0c-0.86,0 -1.78,0 -2.64,0c-0.91,0 -1.81,0 -2.71,0c-0.88,0 -1.7,0 -2.6,0c-0.88,0 -1.84,0 -2.7,0c-0.93,0 -1.8,0 -2.68,0c-0.83,0 -1.74,0 -2.64,0c-0.87,0 -1.81,0 -2.67,0c-0.94,0 -1.8,0 -2.69,0c-0.9,0 -1.74,0 -2.64,0c-0.87,0 -1.83,0 -2.68,0c-0.93,0 -1.8,0 -2.7,0c-0.88,0 -1.72,0 -2.58,0c-0.93,0 -1.85,0 -2.71,0c-0.94,0 -1.8,0 -2.69,0l-0.9,0l-0.84,0l-0.86,0" fill="#0000ff" id="extra-31" stroke="#ffffff" stroke-width="4" />
        <path d="m75,1589c-0.8,0 -1.31,-0.37 -2,-0.91c-0.63,-0.5 -1.66,0.11 -2.57,-0.09c-0.83,-0.18 -1.43,-0.94 -2.3,-1c-0.84,-0.05 -1.12,-0.93 -1.95,-1c-0.81,-0.07 -1.16,-0.92 -1.88,-1c-0.93,-0.11 -1.49,-0.56 -2.16,-1.22c-0.61,-0.61 -0.92,-1.25 -1.55,-1.74c-0.66,-0.51 -1.41,-0.87 -2,-1.46c-0.66,-0.66 -1.22,-1.22 -1.93,-1.93c-0.65,-0.65 -1.16,-1.26 -1.65,-2c-0.44,-0.67 -0.85,-1.17 -1.28,-1.65c-0.54,-0.59 -1.33,-0.79 -1.7,-1.5c-0.42,-0.83 -0.51,-1.49 -1.04,-2c-0.55,-0.53 -0.56,-1.35 -1.02,-2.07c-0.48,-0.76 -1.26,-0.77 -1.8,-1.43c-0.47,-0.57 -0.75,-1.03 -1.17,-1.72c-0.43,-0.71 -1.43,-0.93 -1.92,-1.57c-0.57,-0.75 -0.44,-1.25 -1.08,-1.77c-0.66,-0.54 -0.88,-1.3 -1,-2.16c-0.11,-0.79 -0.7,-1.15 -1.17,-1.95c-0.39,-0.67 -0.98,-1.21 -1.48,-1.89c-0.51,-0.69 -0.9,-1.16 -1.52,-1.78c-0.62,-0.62 -1.26,-0.81 -1.75,-1.45c-0.57,-0.75 -0.67,-1.39 -1.09,-2c-0.45,-0.67 -0.45,-1.48 -1.02,-2.22c-0.49,-0.63 -0.85,-1.15 -1.33,-1.85c-0.5,-0.73 -1.11,-1.02 -1.64,-1.68c-0.55,-0.69 -0.15,-1.56 -0.66,-2.02c-0.63,-0.57 -0.68,-1.24 -1.23,-1.94c-0.44,-0.56 -0.41,-1.34 -0.95,-2c-0.46,-0.57 -0.21,-1.53 -0.67,-2.02c-0.55,-0.58 -0.5,-1.55 -1,-2l-0.5,-0.63l0,-0.85l-0.28,-0.78" fill="none" id="extra-32" stroke="#ffffff" stroke-width="4" />
        <path d="m74,1586c-1,-0.65 -1.63,-0.69 -2.5,-1c-0.62,-0.23 -1.15,-0.86 -1.78,-1.28c-0.8,-0.53 -1.09,-1.17 -1.74,-1.7c-0.69,-0.56 -1.46,-0.55 -2.26,-1.02c-0.65,-0.38 -1.25,-0.95 -1.73,-1.42c-0.52,-0.52 -1.2,-1.12 -1.95,-1.54c-0.78,-0.43 -1.4,-0.75 -1.98,-1.39c-0.49,-0.54 -1.03,-0.88 -1.77,-1.36c-0.7,-0.46 -0.87,-1.05 -1.32,-1.86c-0.36,-0.65 -1.73,-0.38 -1.96,-1.14c-0.25,-0.82 -0.81,-1.16 -1.43,-1.71c-0.7,-0.62 -0.91,-1.2 -1.49,-1.86c-0.54,-0.61 -0.57,-1.45 -1.11,-2.22c-0.44,-0.62 -1.19,-1.05 -1.81,-1.67c-0.62,-0.62 -0.95,-1.34 -1.39,-2.05c-0.45,-0.74 -1.6,-0.78 -1.78,-1.61c-0.17,-0.8 -0.67,-1.1 -1,-1.67c-0.42,-0.72 -1.21,-1.03 -1.83,-1.67c-0.58,-0.59 -0.55,-1.28 -1.16,-1.87c-0.63,-0.61 -0.66,-1.21 -1.23,-1.84c-0.56,-0.61 -1.06,-0.5 -1.72,-1.12c-0.61,-0.57 -0.06,-1.79 -0.89,-2c-0.79,-0.2 -0.94,-0.91 -1.17,-1.72c-0.22,-0.8 -1.21,-1.27 -1.65,-1.93c-0.51,-0.77 -0.91,-1.2 -1.35,-1.71c-0.47,-0.53 -0.82,-1.2 -1.35,-1.65c-0.54,-0.45 -0.36,-1.4 -0.93,-1.91c-0.68,-0.62 -1.41,-0.81 -1.72,-1.59c-0.33,-0.86 -0.48,-1.63 -1,-2.33c-0.45,-0.61 -0.98,-1.08 -1,-1.88c-0.03,-0.93 -0.83,-1.28 -1,-1.93l-0.57,-0.39l-0.42,-0.68l0,-0.86" fill="none" id="extra-33" stroke="#ffffff" stroke-width="4" />
        <path d="m69,1584c-0.97,-1 -1.35,-1.46 -2.01,-2c-0.67,-0.55 -1.33,-0.45 -1.87,-1.22c-0.46,-0.65 -0.57,-1.29 -1.21,-1.78c-0.72,-0.55 -1.08,-0.83 -1.94,-1c-0.81,-0.16 -1.08,-0.67 -1.92,-1c-0.8,-0.31 -1.34,-1 -2.02,-1.43l-0.39,-0.57l-0.93,0" fill="none" id="extra-34" stroke="#ffffff" stroke-width="4" />
        <line fill="none" id="svg_45" stroke="#ffffff" stroke-width="4" x1="180" x2="75" y1="1589" y2="1589" />
        <line fill="none" id="svg_46" stroke="#ffffff" stroke-width="4" x1="25" x2="71" y1="1533" y2="1586" />
    </g>
</svg>