<?xml version="1.0"?>
<svg width="573" height="1874.9999999999998" xmlns="http://www.w3.org/2000/svg" xmlns:svg="http://www.w3.org/2000/svg" enable-background="new 0 0 573 1875" version="1.1" xml:space="preserve">
 <g class="layer" display="inline">
  <title>Layer 1</title>
  <path d="m303.34,1683.41c49.55,-2.89 98.39,-7.24 144.7,-24.37c0,17.87 0.25,35.46 -0.06,53.04c-0.53,29.32 -1.67,58.62 -2,87.94c-0.09,8.24 -3.48,12.43 -10.51,16.29c-22.56,12.38 -47.2,16.72 -72.12,20.52c-35.18,5.35 -70.53,7.68 -106.07,5.8c-33.51,-1.76 -66.79,-5.18 -98.08,-18.63c-6.71,-2.89 -13.01,-6.71 -19.65,-9.76c-3.77,-1.74 -2.67,-4.7 -2.83,-7.56c-0.57,-10.79 -1.44,-21.57 -1.83,-32.37c-0.34,-9.64 -0.16,-19.29 -0.28,-28.94c-0.2,-17.31 -0.32,-34.62 -0.74,-51.92c-0.29,-11.75 -1.04,-23.48 -1.56,-34.65c55.59,16.54 112.3,25.81 171.03,24.61z" fill="#ffffff" id="svg_3" stroke="#000000" stroke-width="6"/>
  <path d="m160.6,243.27c-9.39,-4.36 -18.5,-8.42 -27.38,-12.95c-1.3,-0.66 -2.01,-3.54 -2.06,-5.41c-0.52,-19.15 -0.83,-38.3 -1.23,-57.45c-0.06,-2.75 -0.33,-5.49 -0.53,-8.74c15.4,21.26 38.64,28.27 61.44,35.08c33.66,10.05 68.56,10.89 103.43,11.24c26.85,0.27 53.59,-0.14 80.17,-4.81c22.67,-3.98 44.43,-10.23 63.96,-22.75c4.42,-2.83 8.3,-6.51 12.61,-9.94c-0.58,12.51 -1.14,24.86 -1.73,37.21c-0.42,8.82 -1.06,17.62 -1.26,26.44c-0.07,3.13 -1.26,4.78 -3.89,6.2c-24.91,13.46 -51.27,21.69 -79.59,24.49c-39.77,3.95 -79.47,3.74 -119.24,0.9c-29.11,-2.07 -57.14,-8.92 -84.7,-19.51z" fill="#ffffff" id="svg_4" stroke="#000000" stroke-width="6"/>
  <path d="m79.08,1267.81c0,104.21 0,207.93 0,311.67c-12.41,-0.66 -12.59,-0.76 -12.56,-7.82c0.46,-98.45 1.27,-196.89 1.26,-295.35c0,-43.92 -2.01,-87.85 -2.39,-131.77c-0.46,-52.66 -0.16,-105.33 -0.14,-157.99c0,-5.19 0.48,-10.39 0.49,-15.59c0.02,-9.21 -5.27,-17.02 -15.96,-23.28c-8.37,-4.88 -16.92,-9.66 -25.5,-14.41c-8.83,-4.88 -8.99,-5.75 -0.22,-13.1c15.74,9.45 32.64,18.12 46.5,28.42c10.55,7.85 10.76,18.9 10.73,28.89c-0.16,50.64 -1.21,101.29 -1.64,151.95c-0.4,45.96 -0.4,91.92 -0.57,138.38l0,-0.01z" fill="#ffffff" id="svg_5" stroke="#000000" stroke-width="6"/>
  <path d="m416.3,1399.99c-0.33,-81.01 -0.77,-161.53 -0.83,-242.05c-0.01,-10.29 1.14,-20.91 3.43,-30.75c1.54,-6.61 5.52,-12.7 9.31,-17.97c5.49,-7.67 11.74,-14.48 17.82,-21.42c0.97,-1.11 2.8,-1 4.24,-1.46c-0.24,2.84 0.33,6.64 -0.88,8.32c-2.76,3.84 -6.35,6.75 -9.72,9.83c-10.56,9.65 -14.47,23.77 -14.77,39.25c-0.86,43.56 -1.37,87.12 -1.51,130.69c-0.3,90.45 -0.28,180.91 -0.39,271.37c0,3.97 -0.21,8 0.23,11.9c0.23,2.03 1.7,3.83 2.61,5.73c1.24,-0.96 2.79,-1.61 3.65,-2.96c5.58,-8.73 10.96,-17.66 16.49,-26.42c1.59,-2.53 3.49,-4.73 5.4,-7.29c2.54,3.93 0.65,6.52 -0.79,8.82c-4.67,7.51 -9.57,14.81 -14.31,22.26c-4.73,7.45 -9.37,15 -14.02,22.45c-5.01,-2.5 -6.4,-5.56 -6.37,-11.82c0.22,-37.61 0.34,-75.22 0.45,-112.83c0.05,-18.39 -0.02,-36.78 -0.04,-55.67z" fill="#ffffff" id="svg_6" stroke="#000000" stroke-width="6"/>
  <path d="m323.12,138.85c0.03,5.14 -0.21,9.82 0.13,14.45c0.35,4.87 -2.14,5.95 -6.26,5.86c-8.32,-0.19 -16.64,-0.3 -24.96,-0.33c-11.65,-0.06 -23.29,-0.02 -35.9,-0.02c0,-26.4 0,-53.61 0,-81.33c20,-3.57 40.95,-5.25 62.1,-2.35c3.61,0.49 5.16,2.05 5.08,6.28c-0.35,18.98 -0.19,37.97 -0.19,57.44m-23.15,-20.88c2.49,6.29 6.28,8.62 11.68,7.19c4.94,-1.31 8.19,-6.67 7.31,-12.06c-0.77,-4.74 -4.85,-8.31 -9.28,-8.12c-5.22,0.21 -9.38,4.72 -9.83,10.67c-0.04,0.5 0.02,1 0.12,2.32m-21.03,0c1.65,-8.55 -6.6,-13.71 -11.79,-11.47c-4.89,2.12 -7.76,6.02 -7.26,11.23c0.45,4.64 2.85,7.7 7.61,8.56c5.11,0.92 8.48,-1.34 11.44,-8.32m30.6,32.94c1.28,-0.29 2.65,-0.39 3.83,-0.91c4.33,-1.91 6.71,-6.98 5.39,-11.64c-1.21,-4.28 -3.95,-6.88 -8.64,-6.76c-4.22,0.1 -8.11,3.98 -8.9,8.71c-0.83,5.02 1.68,8.54 8.32,10.6m-43.03,0.24c6.28,1.57 11.15,-1.24 12.38,-7.16c1.12,-5.35 -2.17,-10.56 -7.12,-11.27c-5,-0.72 -10.05,3.4 -10.55,8.95c-0.35,3.85 0.89,7.21 5.29,9.48z" fill="#ffffff" id="svg_7" stroke="#000000" stroke-width="6"/>
  <path d="m198.27,189.48c-17.26,-3.89 -32.99,-10.66 -48.08,-18.87c-9.96,-5.42 -16.25,-14.19 -19.07,-25.13c-2.17,-8.42 3.59,-13.86 9.36,-17.73c8.62,-5.79 17.77,-11.25 27.43,-14.9c26.11,-9.85 53.42,-15 81.43,-18.46c0,2.72 0,5.14 0,7.66c-10.43,1.25 -20.95,1.76 -31.12,3.91c-16.08,3.39 -32.22,7 -47.75,12.27c-8.53,2.9 -16.57,8.54 -23.55,14.45c-9.12,7.74 -9.2,19.24 -0.09,27.03c6.81,5.83 14.97,10.58 23.26,14.12c22.72,9.69 46.96,13.57 71.34,16.24c35.91,3.92 71.86,4.12 107.75,-0.09c25.72,-3.01 51.13,-7.7 74.51,-19.52c5.82,-2.94 11.34,-7.12 15.9,-11.8c8,-8.21 7.01,-18.71 -1.39,-26.5c-10.36,-9.59 -23.27,-14.04 -36.36,-17.96c-21.11,-6.32 -42.7,-10.24 -64.73,-11.52c-2.48,-0.14 -4.93,-0.68 -7.71,-1.09c-0.1,-1.41 -0.2,-2.82 -0.29,-4.14c0.59,-0.24 0.89,-0.47 1.18,-0.46c33.78,1.16 66.45,7.66 97.48,21.2c5.99,2.61 11.62,6.63 16.53,10.99c10.8,9.6 10.82,23.69 0.64,33.8c-12.02,11.95 -26.85,19.53 -42.85,23.57c-19.31,4.87 -39.09,8.03 -58.81,11.03c-26.18,3.99 -52.62,2.45 -78.83,0.67c-22.02,-1.49 -43.86,-5.65 -66.18,-8.77z" fill="#ffffff" id="svg_8" stroke="#000000" stroke-width="6"/>
  <path d="m360.95,145.79c-10.31,-1.3 -20.19,-2.53 -30.72,-3.85c0,-11.23 0,-23.1 0,-35.93c5.79,0.65 11.81,1.31 17.82,2c19.54,2.22 39,5.11 57.43,12.14c8.75,3.33 17.21,7.88 25.03,13.05c10.81,7.13 10.68,17.08 0.37,24.81c-3.83,2.88 -8.09,5.18 -11.81,7.53c-17.86,-11.81 -37.89,-15.43 -58.12,-19.75z" fill="#ffffff" id="svg_9" stroke="#000000" stroke-width="6"/>
  <path d="m169.89,161.71c-1.91,1.08 -3.47,2.02 -6.11,3.59c-4.19,-3.45 -9.15,-6.8 -13.17,-11.05c-4.93,-5.21 -5.03,-11.02 0,-16.07c4.15,-4.15 9.11,-7.86 14.35,-10.51c19.07,-9.63 39.69,-14.29 60.65,-17.54c7.72,-1.2 15.44,-2.33 23.62,-3.56c0,12.68 0,24.86 0,37.06c-27.57,0.86 -53.56,8.19 -79.34,18.08z" fill="#ffffff" id="svg_10" stroke="#000000" stroke-width="6"/>
  <path d="m169.56,454c0.01,-12.65 0.59,-24.84 -0.11,-36.95c-0.71,-12.34 -9.9,-24.51 -24.63,-26.04c-3.95,-0.41 -7.97,-0.23 -11.96,-0.25c-2.82,-0.01 -4.94,-0.67 -4.99,-4.09c-0.04,-3.12 0.75,-5.04 4.53,-4.83c6.46,0.37 13.01,-0.19 19.4,0.62c14.01,1.76 25.2,14.55 26.88,29.14c1.73,14.98 1.06,30.25 1.13,45.39c0.18,35.48 0.47,70.96 0.01,106.44c-0.11,7.93 -2.37,16.08 -4.99,23.67c-2.27,6.58 -8.46,10.69 -14.92,12.33c-8.29,2.12 -17.01,2.63 -25.55,3.72c-2.96,0.38 -5.17,-0.89 -4.71,-4.12c0.4,-2.71 0.31,-6.17 4.9,-6.08c3.46,0.07 7,-0.36 10.41,-1.05c16.55,-3.36 24.05,-12.68 24.11,-29.48c0.13,-35.97 0.32,-71.95 0.49,-108.42z" fill="#ffffff" id="svg_11" stroke="#000000" stroke-width="6"/>
  <path d="m285.34,52.21c9.95,-0.58 19.25,0.47 27.35,5.67c4.59,2.94 8.36,7.15 12.03,11.55c-23.82,-2.64 -47.01,-1.6 -70.55,2.28c2.1,-6.41 6.21,-10.95 11.85,-13.42c6.03,-2.62 12.56,-4.07 19.32,-6.08z" fill="#ffffff" id="svg_14" stroke="#000000" stroke-width="6"/>
  <path d="m38.54,1337.26c0.49,-11.86 1.11,-23.3 1.81,-36.01c5.83,4.89 11.22,9.29 16.43,13.91c0.6,0.53 0.34,2.2 0.28,3.33c-0.56,12.01 -1.17,24.01 -1.76,36.04c-4.71,-3.78 -10.29,-8.11 -15.64,-12.72c-0.87,-0.75 -0.68,-2.73 -1.12,-4.55z" fill="#F5F5F5" id="svg_15" stroke="#000000"/>
  <path d="m299.93,117.56c-0.06,-0.91 -0.12,-1.41 -0.08,-1.91c0.45,-5.95 4.61,-10.46 9.83,-10.67c4.43,-0.19 8.51,3.38 9.28,8.12c0.88,5.39 -2.37,10.75 -7.31,12.06c-5.4,1.43 -9.19,-0.9 -11.72,-7.6z" fill="#ffffff" id="svg_28" stroke="#000000" stroke-width="6"/>
  <path d="m278.86,118.36c-2.88,6.59 -6.25,8.85 -11.36,7.93c-4.76,-0.86 -7.16,-3.92 -7.61,-8.56c-0.5,-5.21 2.37,-9.11 7.26,-11.23c5.19,-2.24 13.44,2.92 11.71,11.86z" fill="#ffffff" id="svg_29" stroke="#000000" stroke-width="6"/>
  <path d="m309.14,150.88c-6.24,-2.03 -8.75,-5.55 -7.92,-10.57c0.79,-4.73 4.68,-8.61 8.9,-8.71c4.69,-0.12 7.43,2.48 8.64,6.76c1.32,4.66 -1.06,9.73 -5.39,11.64c-1.18,0.52 -2.55,0.62 -4.23,0.88z" fill="#ffffff" id="svg_30" stroke="#000000" stroke-width="6"/>
  <path d="m266.14,151.03c-4.03,-2.15 -5.27,-5.51 -4.92,-9.36c0.5,-5.55 5.55,-9.67 10.55,-8.95c4.95,0.71 8.24,5.92 7.12,11.27c-1.23,5.92 -6.1,8.73 -12.75,7.04z" fill="#ffffff" id="svg_31" stroke="#000000" stroke-width="6"/>
  <line fill="none" id="svg_27" stroke="#000000" stroke-width="5" x1="20.71" x2="20.71" y1="927.63" y2="1559.21"/>
  <line fill="none" id="svg_32" stroke="#000000" stroke-width="6" x1="20.71" x2="73.34" y1="1559.21" y2="1585.53"/>
  <path d="m188.41,1272.18c0,103.39 0,206.3 0,309.23c-12.41,-0.66 -12.59,-0.76 -12.56,-7.76c0.46,-97.68 1.27,-195.35 1.26,-293.04c0,-43.58 -2.01,-87.16 -2.39,-130.74c-0.46,-52.25 -0.16,-104.5 -0.14,-156.75c0,-5.15 0.48,-10.31 0.49,-15.46c0.02,-9.13 -5.27,-16.89 -15.96,-23.09c-8.37,-4.85 -16.92,-9.59 -25.5,-14.29c-8.83,-4.85 -8.99,-5.7 -0.22,-13c15.74,9.38 32.64,17.98 46.5,28.2c10.55,7.79 10.76,18.75 10.73,28.67c-0.16,50.25 -1.21,100.5 -1.64,150.76c-0.4,45.6 -0.4,91.2 -0.57,137.3l0,-0.01z" fill="#ffffff" id="svg_33" stroke="#000000" stroke-width="6"/>
  <line fill="none" id="svg_12" stroke="#000000" stroke-width="6" x1="187.02" x2="71.58" y1="1575.27" y2="1576.52"/>
  <line fill="#F1F1F1" id="svg_13" stroke="#000000" stroke-width="10" x1="20.55" x2="28.38" y1="920.33" y2="1531.25"/>
  <line fill="#F1F1F1" id="svg_16" stroke="#000000" stroke-width="6" x1="72.07" x2="27.99" y1="1578.75" y2="1527.99"/>
  <path d="m80.15,1267.5c0,104.12 0,207.75 0,311.4c-12.63,-0.66 -12.81,-0.76 -12.78,-7.81c0.47,-98.36 1.29,-196.72 1.28,-295.09c0,-43.89 -2.05,-87.77 -2.43,-131.66c-0.47,-52.62 -0.16,-105.23 -0.14,-157.85c0,-5.19 0.49,-10.38 0.5,-15.57c0.02,-9.2 -5.36,-17.01 -16.24,-23.25c-8.52,-4.88 -17.22,-9.65 -25.94,-14.39c-8.98,-4.88 -9.15,-5.74 -0.22,-13.09c16.01,9.44 33.21,18.11 47.31,28.39c10.73,7.84 10.95,18.88 10.92,28.87c-0.16,50.6 -1.23,101.21 -1.67,151.81c-0.41,45.92 -0.41,91.84 -0.58,138.26l0,-0.01z" fill="#ffffff" id="svg_17" stroke="#000000" stroke-width="6"/>
  <line fill="none" id="svg_18" stroke="#000000" stroke-width="6" x1="135.5" x2="137.5" y1="153.51" y2="941.67"/>
  <line fill="none" id="svg_19" stroke="#000000" stroke-width="6" x1="445.36" x2="447.36" y1="154.64" y2="1092.79"/>
  <path d="m17,922.78c0.72,0.32 1.65,0.49 2.42,0.57c1.05,0.11 1.71,0.42 2.71,0.52c0.89,0.09 1.73,0.02 2.71,0.02c0.86,0 1.75,0 2.61,0c0.94,0 1.83,0 2.67,0c0.94,0 1.78,0 2.69,0c0.92,0 1.76,0 2.71,0c0.87,0 1.75,0 2.65,0c0.83,0 1.79,0 2.66,0c0.89,0 1.78,0 2.62,0c0.95,0 1.79,0 2.69,0c0.91,0 1.78,0 2.69,0c0.84,0 1.83,-0.18 2.68,0.12c0.77,0.28 1.64,0.21 2.48,0.43c0.77,0.21 1.6,0.56 2.49,0.56c0.87,0 1.85,-0.22 2.66,0.09c0.74,0.28 1.49,0.46 2.41,0.46c0.86,0 1.79,0 2.69,0c0.87,0 1.78,0 2.61,0c0.92,0 1.82,0 2.66,0c0.94,0 1.79,0 2.67,0c0.94,0 1.79,0 2.72,0c0.84,0 1.72,0 2.67,0c0.84,0 1.78,0 2.61,0c0.92,0 1.82,0 2.7,0c0.89,0 1.74,0 2.66,0c0.92,0 1.6,0.26 2.39,0.55c0.85,0.31 1.75,0 2.66,0c0.9,0 1.78,0 2.65,0c0.93,0 1.8,0 2.72,0c0.84,0 1.77,0 2.65,0c0.89,0 1.79,0 2.62,0c0.89,0 1.69,0.31 2.44,0.56c0.83,0.27 1.78,-0.17 2.61,0c0.8,0.16 1.47,0.55 2.48,0.56c0.85,0 1.65,0.35 2.41,0.56c0.86,0.23 1.79,-0.04 2.66,0c0.95,0.05 1.67,0.54 2.5,0.56c0.94,0.02 1.75,0.31 2.55,0.54c0.86,0.24 1.78,0.02 2.68,0.02c0.88,0 1.79,0 2.67,0c0.83,0 1.69,0.35 2.49,0.56c0.9,0.23 1.57,0.25 2.26,0.55c0.81,0.35 1.75,0.01 2.65,0.01l0.52,0.55" fill="#ffffff" id="svg_22" stroke="#000000" stroke-width="6"/>
  <line fill="none" id="svg_24" stroke="#000000" stroke-width="6" x1="133.92" x2="132.38" y1="1660.38" y2="1571.15"/>
  <line fill="none" id="svg_25" stroke="#000000" stroke-width="6" x1="448.93" x2="447.39" y1="1658.85" y2="1091.93"/>
 </g>
 <g class="layer">
  <title>Layer 2</title>
 </g>
</svg>