<?xml version="1.0"?>
<svg width="585" height="1824" xmlns="http://www.w3.org/2000/svg" xmlns:svg="http://www.w3.org/2000/svg" enable-background="new 0 0 573 1875" version="1.1" xml:space="preserve">
 <g class="layer" display="inline">
  <title>Layer 1</title>
  <g class="layer1" display="inline" id="svg_4" transform="translate(6.38 19.49) matrix(1.00193 0 0 1 -6.39231 -19.49)">
   <title>Layer1</title>
   <path class="trim" d="m290.49,1659.2c49.55,-2.89 98.39,-7.24 144.7,-24.37c0,17.87 0.25,35.46 -0.06,53.04c-0.53,29.32 -1.67,58.62 -2,87.94c-0.09,8.24 -3.48,12.43 -10.51,16.29c-22.56,12.38 -47.2,16.72 -72.12,20.52c-35.18,5.35 -70.53,7.68 -106.07,5.8c-33.51,-1.76 -66.79,-5.18 -98.08,-18.63c-6.71,-2.89 -13.01,-6.71 -19.65,-9.76c-3.77,-1.74 -2.67,-4.7 -2.83,-7.56c-0.57,-10.79 -1.44,-21.57 -1.83,-32.37c-0.34,-9.64 -0.16,-19.29 -0.28,-28.94c-0.2,-17.31 -0.32,-34.62 -0.74,-51.92c-0.29,-11.75 -1.04,-23.48 -1.56,-34.65c55.59,16.54 112.3,25.81 171.03,24.61z" fill="#000000" id="svg_13" stroke="#000000" stroke-width="9"/>
   <path class="trim" d="m138.78,169.62c-9.28,-4.36 -18.28,-8.42 -27.06,-12.95c-1.28,-0.66 -1.99,-3.54 -2.04,-5.41c-0.51,-19.15 -0.82,-38.3 -1.22,-57.45c-0.06,-2.75 -0.33,-5.49 -0.52,-8.74c15.22,21.26 38.19,28.27 60.72,35.08c33.27,10.05 67.76,10.89 102.22,11.24c26.54,0.27 52.97,-0.14 79.24,-4.81c22.41,-3.98 43.91,-10.23 63.21,-22.75c4.37,-2.83 8.2,-6.51 12.46,-9.94c-0.57,12.51 -1.13,24.86 -1.71,37.21c-0.42,8.82 -1.05,17.62 -1.25,26.44c-0.07,3.13 -1.25,4.78 -3.84,6.2c-24.62,13.46 -50.67,21.69 -78.66,24.49c-39.31,3.95 -78.54,3.74 -117.85,0.9c-28.77,-2.07 -56.47,-8.92 -83.71,-19.51l0.01,0z" fill="#000000" fill-opacity="0" id="svg_14" stroke="#000000" stroke-width="3" transform="matrix(1 0 0 1 0 0)"/>
   <path class="trim" d="m174.31,114.58c-17.26,-3.89 -32.99,-10.66 -48.08,-18.87c-9.96,-5.42 -16.25,-14.19 -19.07,-25.13c-2.17,-8.42 3.59,-13.86 9.36,-17.73c8.62,-5.79 17.77,-11.25 27.43,-14.9c26.11,-9.85 53.42,-15 81.43,-18.46c0,2.72 0,5.14 0,7.66c-10.43,1.25 -20.95,1.76 -31.12,3.91c-16.08,3.39 -32.22,7 -47.75,12.27c-8.53,2.9 -16.57,8.54 -23.55,14.45c-9.12,7.74 -9.2,19.24 -0.09,27.03c6.81,5.83 14.97,10.58 23.26,14.12c22.72,9.69 46.96,13.57 71.34,16.24c35.91,3.92 71.86,4.12 107.75,-0.09c25.72,-3.01 51.13,-7.7 74.51,-19.52c5.82,-2.94 11.34,-7.12 15.9,-11.8c8,-8.21 7.01,-18.71 -1.39,-26.5c-10.36,-9.59 -23.27,-14.04 -36.36,-17.96c-21.11,-6.32 -42.7,-10.24 -64.73,-11.52c-2.48,-0.14 -4.93,-0.68 -7.71,-1.09c-0.1,-1.41 -0.2,-2.82 -0.29,-4.14c0.59,-0.24 0.89,-0.47 1.18,-0.46c33.78,1.16 66.45,7.66 97.48,21.2c5.99,2.61 11.62,6.63 16.53,10.99c10.8,9.6 10.82,23.69 0.64,33.8c-12.02,11.95 -26.85,19.53 -42.85,23.57c-19.31,4.87 -39.09,8.03 -58.81,11.03c-26.18,3.99 -52.62,2.45 -78.83,0.67c-22.02,-1.49 -43.86,-5.65 -66.18,-8.77z" fill="#000000" fill-opacity="0" id="svg_16" stroke="#000000" transform="matrix(1 0 0 1 0 0)"/>
   <path class="trim" d="m336.99,72.14c-10.31,-1.3 -20.19,-2.53 -30.72,-3.85c0,-11.23 0,-23.1 0,-35.93c5.79,0.65 11.81,1.31 17.82,2c19.54,2.22 39,5.11 57.43,12.14c8.75,3.33 17.21,7.88 25.03,13.05c10.81,7.13 10.68,17.08 0.37,24.81c-3.83,2.88 -8.09,5.18 -11.81,7.53c-17.86,-11.81 -37.89,-15.43 -58.12,-19.75z" fill="#000000" fill-opacity="0" id="svg_17" stroke="#000000" stroke-width="3"/>
   <path class="trim" d="m145.93,88.06c-1.91,1.08 -3.47,2.02 -6.11,3.59c-4.19,-3.45 -9.15,-6.8 -13.17,-11.05c-4.93,-5.21 -5.03,-11.02 0,-16.07c4.15,-4.15 9.11,-7.86 14.35,-10.51c19.07,-9.63 39.69,-14.29 60.65,-17.54c7.72,-1.2 15.44,-2.33 23.62,-3.56c0,12.68 0,24.86 0,37.06c-27.57,0.86 -53.56,8.19 -79.34,18.08z" fill="#000000" fill-opacity="0" id="svg_18" stroke="#000000" stroke-width="3" transform="matrix(1 0 0 1 0 0)"/>
   <line class="trim" fill="#000000" id="svg_25" stroke="#000000" stroke-width="4" x1="112.64" x2="107.85" y1="156.21" y2="866.49"/>
   <line class="trim" fill="#000000" id="svg_26" stroke="#000000" stroke-width="5" x1="419.14" x2="414.86" y1="162.22" y2="988.65"/>
   <line class="trim left pocket" fill="#000000" id="svg_27" stroke="#000000" stroke-width="9" x1="110.13" x2="9.46" y1="869.95" y2="876.98"/>
   <line class="trim left pocket" fill="#000000" id="svg_28" stroke="#000000" stroke-width="9" x1="7.46" x2="7.46" y1="872.22" y2="1485.07"/>
   <line class="trim left pocket" fill="#000000" id="svg_33" stroke="#000000" stroke-width="9" x1="6.38" x2="87.17" y1="874.68" y2="948.31"/>
   <line class="trim left pocket" fill="#000000" id="svg_34" stroke="#000000" stroke-width="9" transform="matrix(1 0 0 1 0 0)" x1="80.79" x2="85.08" y1="1557.93" y2="943.64"/>
   <line class="trim left pocket" fill="#000000" id="svg_35" stroke="#000000" stroke-width="9" x1="107.4" x2="173.65" y1="863.29" y2="924.12"/>
   <line class="trim left pocket" fill="#000000" id="svg_36" stroke="#000000" stroke-width="9" x1="174.65" x2="167.4" y1="920.79" y2="1559.04"/>
   <line class="trim" fill="#000000" id="svg_39" stroke="#000000" stroke-width="9" x1="121.15" x2="121.15" y1="1635.79" y2="1557.54"/>
   <line class="trim right pocket" fill="#000000" id="svg_43" stroke="#000000" stroke-width="9" x1="489.9" x2="488.65" y1="1004.54" y2="1525.79"/>
   <line class="trim right pocket" fill="#000000" id="svg_45" stroke="#000000" stroke-width="9" x1="489.9" x2="432.4" y1="1525.79" y2="1563.29"/>
   <line class="trim" fill="#000000" id="svg_50" stroke="#000000" stroke-width="9" x1="433.65" x2="434.9" y1="1562.04" y2="1638.29"/>
   <line fill="#000000" id="svg_53" stroke="#000000" stroke-width="9" x1="472.4" x2="445.48" y1="1020.79" y2="1052.2"/>
   <line class="trim right pocket" fill="#000000" id="svg_54" stroke="#000000" stroke-width="9" x1="447.4" x2="449.9" y1="1048.29" y2="1524.54"/>
   <line class="trim right pocket" fill="#000000" id="svg_56" stroke="#000000" stroke-width="9" x1="448.65" x2="476.15" y1="1523.29" y2="1505.79"/>
   <path class="trim right pocket" d="m414.9,988.49c1.91,0 2.83,0 3.75,0c0.8,0 1.79,0 2.68,0c0.84,0 1.75,0 2.76,0c0.88,0 1.72,0 2.71,0c0.89,0 1.74,0.11 2.64,0c0.96,-0.12 1.34,-1.12 2.28,-1.43c0.85,-0.29 1.77,0 2.64,0c0.93,0 1.81,0 2.72,0c0.97,0 1.84,0 2.65,0c0.99,0 1.91,0 2.78,0c0.87,0 1.86,0 2.67,0c0.89,0 1.96,-0.18 2.8,0.24c0.68,0.34 1.38,1.19 2.33,1.19c0.85,0 1.77,0 2.68,0c0.85,0 1.72,0 2.69,0c0.82,0 1.84,0 2.72,0c0.91,0 1.5,0.75 2.29,1.19c0.76,0.42 1.68,0.55 2.54,0.96c0.66,0.31 1.73,0.69 2.67,0.72c0.93,0.03 1.86,-0.22 2.7,0.32c0.58,0.37 1.37,1.03 2.33,1.12c0.83,0.08 1.54,0.62 2.33,1.03c0.92,0.47 1.87,0.03 2.76,0.49c0.85,0.44 1.41,1.35 2.22,1.35c0.89,0 1.95,-0.34 2.64,0.32c0.72,0.69 1.28,0.67 2.14,1.17c0.78,0.45 0.99,1.01 1.86,1.43c0.77,0.38 0.86,1.63 1.35,2.41c0.46,0.73 1.72,0.64 2.22,1.6c0.4,0.76 0.41,1.71 0.94,2.55c0.58,0.91 0.57,1.96 1.36,1.99l0.46,0.61" fill="#000000" id="svg_57" stroke="#000000" stroke-width="9"/>
   <path d="m414.9,989.54c-1.04,0 -1.88,-0.01 -2.86,0c-0.85,0.01 -0.88,1.02 -1.7,1.24c-0.85,0.23 -1.95,-0.36 -2.59,0.11c-0.69,0.52 -1.09,1.08 -1.58,1.77c-0.4,0.57 -0.91,0.74 -1.35,1.43c-0.42,0.65 -0.69,1.1 -1.25,1.69c-0.58,0.6 -1.18,0.9 -1.18,1.78c0,0.93 -0.41,1.38 -1.04,1.97c-0.48,0.45 0.13,1.84 -0.48,2.35c-0.7,0.58 -1.02,0.87 -1.69,1.39l-0.53,0.45l0,0.88" fill="#000000" id="svg_58" stroke="#000000" stroke-width="9"/>
   <line class="trim right pocket" fill="#000000" id="svg_60" stroke="#000000" stroke-width="9" x1="398.65" x2="397.4" y1="1004.54" y2="1560.79"/>
   <line class="trim right pocket" fill="#000000" id="svg_61" stroke="#000000" stroke-width="9" x1="396.15" x2="437.4" y1="1562.04" y2="1562.04"/>
   <line fill="#000000" id="svg_69" stroke="#000000" stroke-width="9" x1="581.98" x2="582.48" y1="1236.62" y2="1236.62"/>
   <line fill="#000000" id="svg_70" stroke="#000000" stroke-width="9" x1="35.15" x2="35.15" y1="1237.79" y2="1279.79"/>
   <line fill="#000000" id="svg_71" stroke="#000000" stroke-width="9" x1="33.98" x2="57.48" y1="1276.79" y2="1289.29"/>
   <line fill="#000000" id="svg_72" stroke="#000000" stroke-width="9" x1="58.15" x2="57.65" y1="1291.79" y2="1251.79"/>
   <line fill="#000000" id="svg_73" stroke="#000000" stroke-width="9" x1="37.65" x2="60.15" y1="1242.12" y2="1255.62"/>
   <path d="m6.5,1481.5c0.51,0.83 0.93,1.48 1.39,2.16c0.51,0.77 0.62,1.52 0.99,2.1c0.47,0.74 0.77,1.56 1.2,2.17c0.48,0.67 0.88,1.49 1.32,2.05c0.47,0.61 0.75,1.39 1.24,1.87c0.54,0.54 0.88,1.39 1.32,2.12c0.45,0.75 0.66,1.71 1.24,2.31c0.47,0.49 1.03,1.23 1.56,1.96c0.53,0.72 1.16,1.16 1.72,1.78c0.57,0.63 1.24,1.19 1.76,2.05c0.45,0.74 0.73,1.59 1.34,2.17c0.56,0.54 0.79,1.43 1.39,2.18c0.52,0.64 1.03,1.28 1.56,2.02c0.47,0.64 1.09,1.04 1.64,1.64c0.59,0.64 1.05,1.45 1.77,2.09c0.6,0.53 1.24,1.01 1.84,1.63c0.63,0.64 1.32,1.13 1.95,1.77c0.62,0.65 1.36,1.24 2.1,1.65c0.78,0.43 1.44,1.08 2.09,1.62c0.68,0.57 1.31,1.21 2,1.82c0.69,0.61 1.5,1 2.19,1.48c0.8,0.56 1.3,1.22 2.08,1.69c0.75,0.45 1.37,1.08 2,1.63c0.71,0.62 1.13,1.39 1.89,1.81c0.85,0.46 1.38,1.08 2.09,1.65c0.73,0.58 1.37,1.25 2,1.79c0.69,0.59 1.2,1.21 1.96,1.77c0.67,0.5 1.37,1.05 1.88,1.72c0.58,0.76 1.32,1.19 2.03,1.79c0.68,0.58 1.03,1.43 1.65,2.17c0.55,0.66 1.51,0.95 2.19,1.55c0.61,0.54 1.01,1.46 1.64,2c0.64,0.55 1.25,1.25 1.86,1.88c0.62,0.65 1.2,1.29 1.86,1.84c0.65,0.54 1.34,0.83 2.03,1.38c0.71,0.56 1.26,1.17 1.88,1.7c0.64,0.55 0.99,1.34 1.72,1.76c0.76,0.44 1.27,0.8 2.15,1.08c0.86,0.27 1.51,0.66 2.22,1.05c0.68,0.37 1.25,0.8 1.99,1.06l0.56,0.52" fill="none" id="svg_1" stroke="#000000" stroke-width="9"/>
   <path d="m281.43,70.98c-6.24,-2.03 -8.75,-5.55 -7.92,-10.57c0.79,-4.73 4.68,-8.61 8.9,-8.71c4.69,-0.12 7.43,2.48 8.64,6.76c1.32,4.66 -1.06,9.73 -5.39,11.64c-1.18,0.52 -2.55,0.62 -4.23,0.88z" fill="#000000" fill-opacity="0" id="svg_21" stroke="#000000" stroke-width="4" transform="matrix(1 0 0 1 0 0)"/>
   <path d="m248.43,71.13c-4.03,-2.15 -5.27,-5.51 -4.92,-9.36c0.5,-5.55 5.55,-9.67 10.55,-8.95c4.95,0.71 8.24,5.92 7.12,11.27c-1.23,5.92 -6.1,8.73 -12.75,7.04z" fill="#000000" fill-opacity="0" id="svg_22" stroke="#000000" stroke-width="4"/>
   <path d="m261.15,35.96c-2.88,6.59 -6.25,8.85 -11.36,7.93c-4.76,-0.86 -7.16,-3.92 -7.61,-8.56c-0.5,-5.21 2.37,-9.11 7.26,-11.23c5.19,-2.24 13.44,2.92 11.71,11.86z" fill="#000000" fill-opacity="0" id="svg_20" stroke="#000000" stroke-width="4"/>
   <path d="m270.97,35.8c-0.06,-0.87 -0.12,-1.34 -0.08,-1.82c0.45,-5.66 4.61,-9.95 9.83,-10.15c4.43,-0.18 8.51,3.22 9.28,7.73c0.88,5.13 -2.37,10.23 -7.31,11.47c-5.4,1.36 -9.19,-0.86 -11.72,-7.23z" fill="#000000" fill-opacity="0" id="svg_19" stroke="#000000" stroke-width="4"/>
  </g>
  <path d="m83,1553.5c1.49,0 2.53,0 3.54,0c0.99,0 2,0 2.98,0c1,0 2.02,0 3.02,0c0.96,0 1.99,0 3.01,0c1.02,0 2,0 2.98,0c1.02,0 2.04,0 3.02,0c0.94,0 2,0 3,0c1,0 2,0 2.95,0c1.03,0 2.05,0 3.05,0c0.96,0 1.97,0 3.01,0c0.99,0 2,0 2.98,0c1,0 2.02,0 3.02,0c0.95,0 1.96,0 3,0c1,0 2,0 2.98,0c1,0 2.02,0 3.02,0c0.96,0 2.04,-0.17 2.97,0.11c0.83,0.25 1.78,0.39 2.81,0.39c0.99,0 1.97,0 2.96,0c1.02,0 1.51,0.5 2.51,0.5c0.95,0 1.96,0 3,0c0.99,0 2,0 2.97,0c1.03,0 2.02,0 3,0c1.05,0 2.03,0 3.04,0c1.02,0 2,0 2.98,0c1,0 2.04,0 3.05,0c0.91,0 1.97,0 2.97,0l0.99,0l1,0l0.97,0" fill="none" id="svg_2" stroke="#000000" stroke-width="9"/>
 </g>
</svg>