<svg version="1.1" id="Layer_1" xmlns="http://www.w3.org/2000/svg" xmlns:xlink="http://www.w3.org/1999/xlink" x="0px" y="0px"
	 width="100%" viewBox="0 0 420 1843" enable-background="new 0 0 420 1843" xml:space="preserve">
<path fill="#F2EEED" opacity="1.000000" stroke="none" 
	d="
M421.000000,509.000000 
	C421.000000,954.333313 421.000000,1399.166626 421.000000,1844.000000 
	C281.000000,1844.000000 141.000000,1844.000000 1.000000,1844.000000 
	C1.000000,1229.666626 1.000000,615.333313 1.000000,1.000000 
	C141.000000,1.000000 281.000000,1.000000 421.000000,1.000000 
	C421.000000,170.166672 421.000000,339.333344 421.000000,509.000000 
M40.781006,96.525566 
	C40.409225,98.485222 39.762714,100.437225 39.707817,102.405716 
	C39.104717,124.030876 38.506325,145.656967 38.103855,167.286484 
	C37.957031,175.176971 38.752258,182.934555 44.330956,189.319366 
	C44.959183,190.038391 45.040661,191.407410 45.043259,192.475845 
	C45.133286,229.466797 45.143723,266.458008 45.286488,303.448700 
	C45.305424,308.355011 46.385189,313.412567 40.184120,315.631653 
	C39.642651,315.825439 39.250175,316.567841 38.892220,317.122375 
	C33.452747,325.549042 28.948687,334.303833 26.799244,344.291931 
	C21.893648,367.087372 23.281778,390.110901 24.400000,413.019287 
	C25.926434,444.290558 28.789785,475.494202 30.790129,506.745361 
	C33.418102,547.801758 36.116383,588.858948 38.124653,629.947998 
	C39.869839,665.654419 40.727112,701.404785 41.916267,737.137695 
	C42.403900,751.790649 42.445801,766.464905 43.267452,781.097107 
	C43.622120,787.413208 42.223404,794.236145 46.602295,799.941833 
	C46.908962,800.341431 46.607662,801.217651 46.568527,801.871033 
	C46.030991,810.845642 45.055523,819.818420 45.021538,828.794739 
	C44.831017,879.121704 44.732456,929.449829 44.857738,979.776917 
	C45.048584,1056.438354 45.415005,1133.099487 45.771584,1209.760498 
	C45.977779,1254.090332 46.405968,1298.419189 46.560120,1342.749268 
	C46.713692,1386.912964 47.047001,1431.081665 46.569309,1475.240356 
	C46.090996,1519.456909 48.408367,1563.688843 45.181110,1607.904785 
	C43.995552,1624.147949 44.983494,1640.549927 44.988407,1656.879517 
	C44.997433,1686.870728 45.072254,1716.862305 44.972416,1746.853149 
	C44.953655,1752.490601 45.876610,1757.443481 50.883724,1760.814575 
	C54.874184,1763.500977 58.647449,1766.609863 62.894547,1768.799072 
	C92.305290,1783.958984 123.965126,1792.296509 156.542191,1795.525879 
	C185.145920,1798.361450 214.061722,1798.244263 242.851425,1798.957031 
	C275.087006,1799.755005 306.029816,1792.722534 336.268066,1782.166382 
	C347.491943,1778.248169 358.054840,1773.132568 367.166260,1765.188843 
	C372.690002,1760.373169 375.372559,1753.944824 375.826324,1747.437500 
	C376.890289,1732.177490 376.962860,1716.820557 376.812256,1701.508911 
	C376.369690,1656.527954 375.136475,1611.550781 375.078796,1566.570923 
	C374.821747,1366.082764 375.040924,1165.593872 374.753204,965.105774 
	C374.466675,765.451843 373.868591,565.798218 373.213745,366.145081 
	C373.030640,310.323181 372.143707,254.503723 371.667206,198.682404 
	C371.642181,195.751694 372.325348,192.792252 372.882385,189.885193 
	C373.532806,186.491074 375.011139,183.152908 375.084137,179.767899 
	C375.493378,160.790375 375.510590,141.804810 375.823700,122.824669 
	C375.960114,114.555435 376.829620,106.287201 376.701508,98.028816 
	C376.623016,92.969360 376.593018,87.188461 374.241486,83.032951 
	C369.133942,74.007256 361.567261,66.987259 352.009186,62.257805 
	C334.335632,53.512718 315.484253,48.881325 296.181702,45.784336 
	C263.955627,40.613831 231.548920,39.894978 198.992966,41.540741 
	C167.620758,43.126667 136.586517,46.703747 106.224205,55.016701 
	C87.195122,60.226715 68.685829,66.721100 52.596344,78.590996 
	C48.043812,81.949585 43.667511,85.590332 43.333874,92.068634 
	C43.268658,93.334984 41.843845,94.531319 40.781006,96.525566 
z"/>
<path fill="#020202" opacity="1.000000" stroke="none" 
	d="
M40.913563,96.142761 
	C41.843845,94.531319 43.268658,93.334984 43.333874,92.068634 
	C43.667511,85.590332 48.043812,81.949585 52.596344,78.590996 
	C68.685829,66.721100 87.195122,60.226715 106.224205,55.016701 
	C136.586517,46.703747 167.620758,43.126667 198.992966,41.540741 
	C231.548920,39.894978 263.955627,40.613831 296.181702,45.784336 
	C315.484253,48.881325 334.335632,53.512718 352.009186,62.257805 
	C361.567261,66.987259 369.133942,74.007256 374.241486,83.032951 
	C376.593018,87.188461 376.623016,92.969360 376.701508,98.028816 
	C376.829620,106.287201 375.960114,114.555435 375.823700,122.824669 
	C375.510590,141.804810 375.493378,160.790375 375.084137,179.767899 
	C375.011139,183.152908 373.532806,186.491074 372.882385,189.885193 
	C372.325348,192.792252 371.642181,195.751694 371.667206,198.682404 
	C372.143707,254.503723 373.030640,310.323181 373.213745,366.145081 
	C373.868591,565.798218 374.466675,765.451843 374.753204,965.105774 
	C375.040924,1165.593872 374.821747,1366.082764 375.078796,1566.570923 
	C375.136475,1611.550781 376.369690,1656.527954 376.812256,1701.508911 
	C376.962860,1716.820557 376.890289,1732.177490 375.826324,1747.437500 
	C375.372559,1753.944824 372.690002,1760.373169 367.166260,1765.188843 
	C358.054840,1773.132568 347.491943,1778.248169 336.268066,1782.166382 
	C306.029816,1792.722534 275.087006,1799.755005 242.851425,1798.957031 
	C214.061722,1798.244263 185.145920,1798.361450 156.542191,1795.525879 
	C123.965126,1792.296509 92.305290,1783.958984 62.894547,1768.799072 
	C58.647449,1766.609863 54.874184,1763.500977 50.883724,1760.814575 
	C45.876610,1757.443481 44.953655,1752.490601 44.972416,1746.853149 
	C45.072254,1716.862305 44.997433,1686.870728 44.988407,1656.879517 
	C44.983494,1640.549927 43.995552,1624.147949 45.181110,1607.904785 
	C48.408367,1563.688843 46.090996,1519.456909 46.569309,1475.240356 
	C47.047001,1431.081665 46.713692,1386.912964 46.560120,1342.749268 
	C46.405968,1298.419189 45.977779,1254.090332 45.771584,1209.760498 
	C45.415005,1133.099487 45.048584,1056.438354 44.857738,979.776917 
	C44.732456,929.449829 44.831017,879.121704 45.021538,828.794739 
	C45.055523,819.818420 46.030991,810.845642 46.568527,801.871033 
	C46.607662,801.217651 46.908962,800.341431 46.602295,799.941833 
	C42.223404,794.236145 43.622120,787.413208 43.267452,781.097107 
	C42.445801,766.464905 42.403900,751.790649 41.916267,737.137695 
	C40.727112,701.404785 39.869839,665.654419 38.124653,629.947998 
	C36.116383,588.858948 33.418102,547.801758 30.790129,506.745361 
	C28.789785,475.494202 25.926434,444.290558 24.400000,413.019287 
	C23.281778,390.110901 21.893648,367.087372 26.799244,344.291931 
	C28.948687,334.303833 33.452747,325.549042 38.892220,317.122375 
	C39.250175,316.567841 39.642651,315.825439 40.184120,315.631653 
	C46.385189,313.412567 45.305424,308.355011 45.286488,303.448700 
	C45.143723,266.458008 45.133286,229.466797 45.043259,192.475845 
	C45.040661,191.407410 44.959183,190.038391 44.330956,189.319366 
	C38.752258,182.934555 37.957031,175.176971 38.103855,167.286484 
	C38.506325,145.656967 39.104717,124.030876 39.707817,102.405716 
	C39.762714,100.437225 40.409225,98.485222 40.913563,96.142761 
M66.698494,76.009438 
	C64.445732,77.407181 62.192974,78.804924 59.940212,80.202667 
	C60.349194,80.866188 60.758179,81.529701 61.167160,82.193214 
	C63.988094,80.537582 66.809029,78.881958 69.860786,76.633492 
	C69.060059,76.386726 68.259331,76.139969 66.698494,76.009438 
M69.963760,74.313324 
	C69.676712,77.417786 69.728851,77.534042 73.055786,76.041878 
	C88.266068,69.219940 104.294624,65.085213 120.548035,61.845760 
	C174.435242,51.105568 228.696976,49.349209 283.190674,56.045044 
	C303.883911,58.587696 324.342041,62.679031 343.531311,71.213448 
	C349.386566,73.817589 354.902374,77.493698 359.988129,81.434517 
	C365.307434,85.556335 368.262054,94.113976 365.802612,97.780891 
	C362.688110,102.424545 359.376617,107.496727 354.901001,110.557831 
	C343.208954,118.554604 330.470367,124.840897 316.717407,128.620865 
	C282.310486,138.077530 247.113876,142.283691 211.549057,142.869583 
	C191.934769,143.192688 172.291107,141.943985 152.664963,141.277542 
	C131.960922,140.574493 112.263664,135.221298 93.042686,127.890282 
	C86.422050,125.365128 79.922600,122.522240 72.920837,119.640549 
	C73.412811,123.191322 69.140999,127.367706 74.810440,129.554794 
	C83.653374,132.966110 92.532639,136.351242 101.582336,139.145706 
	C128.309555,147.398880 155.812515,150.983017 183.694901,151.724716 
	C211.713852,152.470062 239.661957,150.932205 267.397736,147.034744 
	C293.705688,143.337936 319.126923,135.851501 343.595306,125.611961 
	C352.856110,121.736481 361.521210,116.322281 367.503265,107.411568 
	C372.158966,100.476532 371.312439,85.548782 365.095215,79.475487 
	C357.367920,71.927071 348.278137,66.936462 338.445465,63.206093 
	C307.854065,51.600170 275.778717,47.769489 243.406143,46.425049 
	C205.156387,44.836521 167.135635,47.436337 129.563583,55.179508 
	C109.669189,59.279514 90.089127,64.407639 71.322441,73.654411 
	C71.322441,73.654411 71.000244,74.021751 69.963760,74.313324 
M118.857834,1777.714233 
	C130.770218,1780.109497 142.587128,1783.679565 154.614716,1784.657104 
	C180.150681,1786.732178 205.784424,1787.835815 231.399979,1788.643066 
	C265.368317,1789.713745 298.556763,1784.674561 330.472626,1772.903687 
	C340.204590,1769.314453 349.359009,1764.002197 358.452332,1758.898804 
	C363.680237,1755.964722 367.163513,1751.700317 365.253662,1744.576782 
	C364.209991,1740.684082 364.943054,1736.293213 365.006592,1732.129150 
	C365.296143,1713.148682 365.629517,1694.168945 365.952637,1675.188965 
	C366.253021,1657.542358 366.587738,1639.895996 366.849884,1622.248779 
	C366.942291,1616.028809 366.864685,1609.806396 366.864685,1602.819946 
	C262.962311,1644.407715 159.006882,1637.300903 54.682301,1603.024170 
	C54.632214,1603.795776 54.436737,1605.411133 54.436497,1607.026489 
	C54.434109,1623.184814 54.416344,1639.343384 54.494781,1655.501465 
	C54.641956,1685.820190 54.932384,1716.138794 54.941837,1746.457397 
	C54.943218,1750.884399 56.435524,1753.341797 60.353233,1755.375610 
	C78.766823,1764.934448 97.950958,1772.392456 118.857834,1777.714233 
M307.798889,1497.489746 
	C307.599487,1464.663696 307.089233,1431.835938 307.254913,1399.011719 
	C307.942078,1262.864380 308.625732,1126.716187 309.814575,990.572815 
	C310.070343,961.283386 283.707703,935.057678 255.022522,939.360535 
	C238.890640,941.780396 222.733200,944.042664 206.632904,946.656921 
	C187.361679,949.786011 168.200287,950.470154 149.184402,945.161316 
	C145.028351,944.001099 141.028366,942.193848 136.825226,941.306152 
	C122.410759,938.262024 107.806099,936.875549 93.104614,938.253174 
	C73.882751,940.054565 51.874611,956.305603 52.207211,981.288025 
	C53.192139,1055.268677 52.849762,1129.266846 53.073566,1203.257935 
	C53.407261,1313.577881 53.777496,1423.897705 54.165600,1534.217529 
	C54.173103,1536.351196 54.056801,1538.729858 54.906445,1540.576416 
	C60.752213,1553.280640 69.581429,1562.720337 82.988609,1568.129395 
	C102.317322,1575.927246 122.734612,1577.904907 143.019302,1580.092407 
	C159.371429,1581.855713 175.940552,1581.873047 192.421432,1582.112183 
	C215.647507,1582.449219 238.707779,1580.430298 261.316650,1574.866211 
	C268.063965,1573.205566 275.401917,1571.761108 281.002808,1568.021118 
	C300.582336,1554.947388 310.588196,1536.546631 308.552521,1512.442749 
	C308.160583,1507.802002 308.054443,1503.137329 307.798889,1497.489746 
M369.400391,119.458931 
	C369.400391,118.285645 369.400391,117.112350 369.400391,115.793579 
	C365.911835,118.540649 363.015137,121.026558 359.915222,123.226044 
	C348.504272,131.322540 335.539856,135.635818 322.276123,139.817062 
	C296.894684,147.818253 271.058990,153.014145 244.629974,155.379395 
	C209.244156,158.546234 173.792847,159.733521 138.629684,153.623199 
	C123.629456,151.016602 108.905533,146.574844 94.259819,142.273254 
	C86.557915,140.011124 79.295227,136.253525 71.629677,133.086716 
	C71.122757,140.775177 70.493805,148.015961 70.202667,155.270294 
	C69.769119,166.072830 69.738846,176.893463 69.180344,187.687927 
	C69.005737,191.062592 69.898224,192.657013 73.051712,194.012772 
	C94.157730,203.086731 116.215607,208.584549 138.872345,211.798080 
	C185.705750,218.440750 232.518967,218.036072 279.240570,210.719376 
	C308.611511,206.119827 337.432922,199.580673 364.033752,185.519913 
	C367.089233,183.904816 368.148804,182.207672 368.182281,178.711121 
	C368.368713,159.237793 368.892456,139.767685 369.400391,119.458931 
M264.558838,61.065311 
	C241.758926,60.797482 218.936630,59.777363 196.164886,60.455303 
	C168.693497,61.273151 141.365982,64.373947 114.548859,70.812302 
	C98.021629,74.780228 81.699440,79.425751 66.857086,88.051323 
	C65.155510,89.040184 62.515568,91.062180 62.711376,92.187393 
	C63.384258,96.054237 64.224174,100.549171 66.690392,103.276649 
	C69.621956,106.518745 73.070511,108.916229 73.365494,113.794922 
	C73.421806,114.726234 74.774544,116.016968 75.778748,116.323112 
	C76.681480,116.598312 78.041069,115.935287 78.995422,115.352524 
	C80.515511,114.424294 81.711884,112.662888 83.313065,112.217972 
	C97.558296,108.259743 111.651962,102.920303 126.188210,100.999924 
	C172.030701,94.943687 218.130920,94.946175 264.282043,97.528503 
	C288.500732,98.883629 311.547089,104.664246 334.079681,113.161285 
	C335.022308,113.516754 336.505310,113.796585 337.170563,113.320602 
	C343.877319,108.521950 350.580536,103.702965 357.045715,98.587631 
	C361.116669,95.366631 360.394348,91.133018 356.904541,88.345520 
	C351.138031,83.739525 345.209534,78.872154 338.546692,75.936623 
	C315.351624,65.717262 290.360687,63.544262 264.558838,61.065311 
M51.512131,534.059143 
	C52.331467,552.189148 53.146549,570.319397 53.971050,588.449158 
	C55.545158,623.061951 57.175682,657.672302 58.677082,692.288208 
	C59.289566,706.409424 59.705460,720.540771 60.049095,734.671387 
	C60.178291,739.984070 57.837112,741.422119 52.679996,739.615540 
	C50.874783,738.983215 49.093979,738.281189 47.134373,737.548340 
	C47.772957,756.099365 48.331905,774.068115 49.122559,792.026672 
	C49.185940,793.466187 50.535774,795.597046 51.813278,796.117981 
	C62.914509,800.644714 74.135941,804.876709 86.322937,809.583069 
	C86.545601,805.935486 86.772888,804.016357 86.763985,802.098206 
	C86.395073,722.617981 86.010376,643.137878 85.614182,563.657715 
	C85.498726,540.495605 85.183937,517.333374 85.237923,494.171844 
	C85.359093,442.184601 85.765900,390.197632 85.712700,338.210907 
	C85.707138,332.775635 84.894402,326.240540 81.862144,322.128662 
	C74.627167,312.317688 62.987579,308.968719 51.620571,304.672852 
	C51.328773,308.734528 50.069988,311.802582 54.492180,313.768494 
	C56.814281,314.800812 57.786247,317.530365 55.806225,320.570160 
	C44.212944,338.368561 40.311394,358.363525 40.782185,379.132294 
	C41.132298,394.577148 43.134003,409.979187 44.196411,425.414337 
	C46.667469,461.315002 49.015434,497.224121 51.512131,534.059143 
M328.076904,935.508362 
	C321.187836,922.873352 311.633331,913.368103 297.344269,909.496338 
	C281.893799,905.309875 266.322205,906.718384 250.781250,908.798035 
	C249.752869,908.935608 248.191498,910.898010 248.203293,911.997375 
	C248.254837,916.804626 248.597046,921.637390 249.330978,926.383850 
	C249.472595,927.299927 251.974213,928.658447 253.159760,928.459351 
	C257.242462,927.773621 261.235413,926.528015 265.242859,925.424316 
	C287.441986,919.310791 309.171265,933.221741 312.829254,955.780457 
	C314.020508,963.126648 315.677185,970.396301 316.961395,977.728943 
	C317.531555,980.984436 318.018860,984.309753 318.013641,987.602600 
	C317.897278,1061.245483 317.793427,1134.888672 317.509033,1208.531006 
	C317.137085,1304.828369 316.591644,1401.125122 316.240662,1497.422607 
	C316.229340,1500.531982 317.530121,1503.646118 318.219238,1506.758057 
	C323.681732,1500.119263 327.404724,1493.479492 331.826782,1487.343628 
	C334.597168,1483.499512 334.923889,1479.675415 334.767365,1475.235596 
	C334.115936,1456.757812 333.378052,1438.270264 333.348389,1419.785278 
	C333.100800,1265.499634 333.060120,1111.213379 332.673645,956.928101 
	C332.656311,950.004578 329.912659,943.087952 328.076904,935.508362 
M150.101486,472.466125 
	C150.139420,467.636536 150.090546,462.804321 150.236176,457.977997 
	C150.440872,451.193176 150.322479,450.962738 143.685287,450.501953 
	C142.573044,450.424713 141.439728,450.650848 140.142685,450.750031 
	C144.236053,479.964691 134.184189,507.235291 129.958145,535.622253 
	C133.091537,536.674316 136.181671,537.812073 139.330399,538.753845 
	C174.570969,549.294556 210.584961,549.897644 246.786850,546.497559 
	C267.835693,544.520630 281.997070,533.926147 288.160736,512.666321 
	C293.402039,494.587982 294.382141,476.303955 294.199371,457.795441 
	C293.965820,434.150879 293.174042,410.508606 293.206360,386.866150 
	C293.220947,376.192413 291.247803,366.085571 288.251648,355.974518 
	C284.811127,344.363800 277.853302,336.236969 266.599609,331.518311 
	C250.646149,324.829102 233.640198,322.972412 216.844803,322.824188 
	C199.125336,322.667816 181.350159,325.294647 163.653992,327.210541 
	C150.859909,328.595673 138.717300,332.506989 127.431007,338.821594 
	C134.701767,361.826080 138.631042,385.167816 140.033768,409.234467 
	C143.352554,407.640320 146.719131,406.023224 150.272049,404.316589 
	C149.575668,401.403381 148.671127,398.715302 148.316666,395.956573 
	C146.197952,379.467529 144.136490,362.969879 142.316193,346.446411 
	C142.184280,345.248932 143.878586,343.015381 145.129776,342.648682 
	C149.901505,341.250122 154.821259,340.322754 159.718628,339.392548 
	C185.474548,334.500549 211.437485,331.025879 237.668518,332.886047 
	C266.509338,334.931244 280.627563,346.155853 283.585480,375.908569 
	C284.354004,383.638428 283.226349,391.540222 283.282837,399.360748 
	C283.417236,417.971832 283.054932,436.622864 284.176788,455.180176 
	C285.303345,473.815796 285.276764,492.184845 279.222168,510.001312 
	C274.568390,523.695557 266.688599,534.341919 250.616562,535.289307 
	C231.205780,536.433533 211.795593,537.963440 192.367065,538.308289 
	C177.730484,538.568176 163.066910,537.172546 148.951523,532.618530 
	C141.092926,530.083130 140.887070,529.301208 142.289886,521.190125 
	C145.038010,505.300690 147.515457,489.364441 150.101486,472.466125 
M177.348831,426.418030 
	C176.235229,423.122131 175.051361,419.847900 174.025040,416.525055 
	C172.598129,411.905365 169.514572,408.625793 164.783585,408.806152 
	C159.452637,409.009430 153.733612,409.602570 148.969147,411.760773 
	C140.623932,415.540924 132.122711,417.466583 123.100456,418.408234 
	C119.893913,418.742889 116.109604,420.920258 114.053192,423.447723 
	C108.856888,429.834229 110.227432,437.541046 111.750710,444.894592 
	C112.267632,447.389984 113.222275,450.657959 115.081970,451.852509 
	C121.010361,455.660522 127.245224,459.457764 135.271515,457.297363 
	C135.271515,455.325043 135.271515,453.277222 135.271515,450.870758 
	C132.199158,450.870758 129.206543,451.108887 126.279686,450.773407 
	C124.744957,450.597504 123.325500,449.415955 121.853981,448.688538 
	C123.266510,447.846741 124.729698,446.203369 126.083633,446.288940 
	C137.728088,447.024750 149.516144,444.896240 160.947296,449.961975 
	C168.527588,453.321136 175.406769,449.238953 177.361252,441.069916 
	C178.404160,436.711029 177.507080,431.888000 177.348831,426.418030 
M64.903061,110.680962 
	C61.020519,108.374458 56.835686,106.238739 57.322060,100.686394 
	C57.773758,95.529839 54.708870,93.220467 50.371998,91.703064 
	C48.860451,93.844826 46.549770,95.813232 46.006458,98.186287 
	C45.130825,102.010880 45.217339,106.104027 45.251942,110.080635 
	C45.428322,130.351166 45.688412,150.621140 45.994957,170.890167 
	C46.054520,174.828781 45.144646,179.555176 46.955753,182.537231 
	C51.040272,189.262543 56.547512,195.123810 61.992348,201.987686 
	C62.345791,199.793121 62.707809,198.399979 62.774845,196.992813 
	C63.272995,186.536240 63.719742,176.077209 64.168884,165.618347 
	C64.858269,149.564880 65.573402,133.512314 66.174782,117.455513 
	C66.252899,115.369720 65.720482,113.261055 64.903061,110.680962 
M92.065521,685.588623 
	C92.065521,698.012756 92.065521,710.436951 92.065521,722.226746 
	C95.681831,722.226746 98.781662,722.258728 101.880539,722.218140 
	C105.270042,722.173706 107.307503,721.191162 107.352043,717.027710 
	C107.481705,704.907349 108.074799,692.792236 108.431641,680.673401 
	C108.453575,679.928406 108.003334,679.169495 107.706993,678.202271 
	C102.496506,678.202271 97.448860,678.202271 92.062225,678.202271 
	C92.062225,680.670471 92.062225,682.642273 92.065521,685.588623 
M295.109558,214.801651 
	C291.728180,215.424850 288.346832,216.048050 284.688202,216.722336 
	C286.015167,221.783508 287.214905,226.359497 288.449402,231.068008 
	C290.635834,230.628189 292.576996,230.241882 294.516388,229.846878 
	C304.462769,227.821045 314.443878,225.942780 324.321716,223.624741 
	C326.057007,223.217514 328.704987,220.865692 328.611145,219.581543 
	C328.318604,215.578903 326.912415,211.657623 325.940521,207.714859 
	C315.384949,210.138245 305.659668,212.371017 295.109558,214.801651 
M160.142487,455.941620 
	C160.031845,456.066071 159.902298,456.179474 159.819992,456.320465 
	C159.787445,456.376190 159.833054,456.546600 159.888702,456.574829 
	C163.499283,458.405579 167.062622,458.941040 170.523392,456.948212 
	C170.519653,456.452606 170.515930,455.956970 170.512192,455.461365 
	C167.250702,455.461365 163.989197,455.461365 160.142487,455.941620 
M54.735615,84.004585 
	C55.454838,84.903954 56.174061,85.803329 56.893284,86.702698 
	C58.022610,85.199402 59.151932,83.696098 60.281254,82.192802 
	C59.828632,81.823120 59.376011,81.453445 58.923389,81.083763 
	C57.729038,81.875412 56.534687,82.667061 54.735615,84.004585 
z"/>
<path fill="#FEFEFE" opacity="1.000000" stroke="none" 
	d="
M118.457924,1777.601074 
	C97.950958,1772.392456 78.766823,1764.934448 60.353233,1755.375610 
	C56.435524,1753.341797 54.943218,1750.884399 54.941837,1746.457397 
	C54.932384,1716.138794 54.641956,1685.820190 54.494781,1655.501465 
	C54.416344,1639.343384 54.434109,1623.184814 54.436497,1607.026489 
	C54.436737,1605.411133 54.632214,1603.795776 54.682301,1603.024170 
	C159.006882,1637.300903 262.962311,1644.407715 366.864685,1602.819946 
	C366.864685,1609.806396 366.942291,1616.028809 366.849884,1622.248779 
	C366.587738,1639.895996 366.253021,1657.542358 365.952637,1675.188965 
	C365.629517,1694.168945 365.296143,1713.148682 365.006592,1732.129150 
	C364.943054,1736.293213 364.209991,1740.684082 365.253662,1744.576782 
	C367.163513,1751.700317 363.680237,1755.964722 358.452332,1758.898804 
	C349.359009,1764.002197 340.204590,1769.314453 330.472626,1772.903687 
	C298.556763,1784.674561 265.368317,1789.713745 231.399979,1788.643066 
	C205.784424,1787.835815 180.150681,1786.732178 154.614716,1784.657104 
	C142.587128,1783.679565 130.770218,1780.109497 118.457924,1777.601074 
z"/>
<path fill="#F3F3F3" opacity="1.000000" stroke="none" 
	d="
M307.807678,1497.986694 
	C308.054443,1503.137329 308.160583,1507.802002 308.552521,1512.442749 
	C310.588196,1536.546631 300.582336,1554.947388 281.002808,1568.021118 
	C275.401917,1571.761108 268.063965,1573.205566 261.316650,1574.866211 
	C238.707779,1580.430298 215.647507,1582.449219 192.421432,1582.112183 
	C175.940552,1581.873047 159.371429,1581.855713 143.019302,1580.092407 
	C122.734612,1577.904907 102.317322,1575.927246 82.988609,1568.129395 
	C69.581429,1562.720337 60.752213,1553.280640 54.906445,1540.576416 
	C54.056801,1538.729858 54.173103,1536.351196 54.165600,1534.217529 
	C53.777496,1423.897705 53.407261,1313.577881 53.073566,1203.257935 
	C52.849762,1129.266846 53.192139,1055.268677 52.207211,981.288025 
	C51.874611,956.305603 73.882751,940.054565 93.104614,938.253174 
	C107.806099,936.875549 122.410759,938.262024 136.825226,941.306152 
	C141.028366,942.193848 145.028351,944.001099 149.184402,945.161316 
	C168.200287,950.470154 187.361679,949.786011 206.632904,946.656921 
	C222.733200,944.042664 238.890640,941.780396 255.022522,939.360535 
	C283.707703,935.057678 310.070343,961.283386 309.814575,990.572815 
	C308.625732,1126.716187 307.942078,1262.864380 307.254913,1399.011719 
	C307.089233,1431.835938 307.599487,1464.663696 307.807678,1497.986694 
M246.233337,1565.972534 
	C252.922363,1564.618408 259.575836,1563.045044 266.307251,1561.952148 
	C284.333221,1559.025513 300.769745,1543.872681 298.333832,1520.740723 
	C298.125549,1518.762817 298.283844,1516.744019 298.304779,1514.744507 
	C298.678101,1479.087646 299.323822,1443.431274 299.375946,1407.773926 
	C299.472870,1341.470215 299.205811,1275.166016 299.166077,1208.861938 
	C299.163727,1204.904175 300.140259,1200.945923 300.138763,1196.988037 
	C300.119293,1144.834351 300.221588,1092.678955 299.799896,1040.527954 
	C299.650635,1022.069641 299.125366,1003.512695 297.035797,985.198914 
	C294.700317,964.729919 273.662201,950.628052 253.468018,954.466064 
	C244.331039,956.202576 235.289917,958.461182 226.132919,960.071167 
	C199.592499,964.737305 173.003021,963.730713 146.581177,959.385681 
	C132.811722,957.121277 119.345993,953.060425 105.616310,950.487488 
	C94.938545,948.486450 84.623245,950.055725 76.015701,957.490417 
	C67.055962,965.229309 64.398567,976.184998 63.198654,987.002563 
	C61.947365,998.283264 62.790253,1009.802307 62.811241,1021.216980 
	C62.938957,1090.668091 62.977943,1160.119629 63.274837,1229.570068 
	C63.519901,1286.895874 64.117226,1344.220215 64.489510,1401.545654 
	C64.769798,1444.705688 64.867188,1487.867188 65.207253,1531.026733 
	C65.304504,1543.368774 71.806656,1552.193848 82.980247,1556.340942 
	C93.372543,1560.197876 104.314980,1562.892212 115.234116,1564.918701 
	C125.839905,1566.886841 136.854828,1566.649292 147.461319,1568.614746 
	C180.335297,1574.706665 212.852005,1571.138062 246.233337,1565.972534 
z"/>
<path fill="#FDFDFD" opacity="1.000000" stroke="none" 
	d="
M369.350647,119.877701 
	C368.892456,139.767685 368.368713,159.237793 368.182281,178.711121 
	C368.148804,182.207672 367.089233,183.904816 364.033752,185.519913 
	C337.432922,199.580673 308.611511,206.119827 279.240570,210.719376 
	C232.518967,218.036072 185.705750,218.440750 138.872345,211.798080 
	C116.215607,208.584549 94.157730,203.086731 73.051712,194.012772 
	C69.898224,192.657013 69.005737,191.062592 69.180344,187.687927 
	C69.738846,176.893463 69.769119,166.072830 70.202667,155.270294 
	C70.493805,148.015961 71.122757,140.775177 71.629677,133.086716 
	C79.295227,136.253525 86.557915,140.011124 94.259819,142.273254 
	C108.905533,146.574844 123.629456,151.016602 138.629684,153.623199 
	C173.792847,159.733521 209.244156,158.546234 244.629974,155.379395 
	C271.058990,153.014145 296.894684,147.818253 322.276123,139.817062 
	C335.539856,135.635818 348.504272,131.322540 359.915222,123.226044 
	C363.015137,121.026558 365.911835,118.540649 369.400391,115.793579 
	C369.400391,117.112350 369.400391,118.285645 369.350647,119.877701 
z"/>
<path fill="#FBFBFB" opacity="1.000000" stroke="none" 
	d="
M265.023468,61.101387 
	C290.360687,63.544262 315.351624,65.717262 338.546692,75.936623 
	C345.209534,78.872154 351.138031,83.739525 356.904541,88.345520 
	C360.394348,91.133018 361.116669,95.366631 357.045715,98.587631 
	C350.580536,103.702965 343.877319,108.521950 337.170563,113.320602 
	C336.505310,113.796585 335.022308,113.516754 334.079681,113.161285 
	C311.547089,104.664246 288.500732,98.883629 264.282043,97.528503 
	C218.130920,94.946175 172.030701,94.943687 126.188210,100.999924 
	C111.651962,102.920303 97.558296,108.259743 83.313065,112.217972 
	C81.711884,112.662888 80.515511,114.424294 78.995422,115.352524 
	C78.041069,115.935287 76.681480,116.598312 75.778748,116.323112 
	C74.774544,116.016968 73.421806,114.726234 73.365494,113.794922 
	C73.070511,108.916229 69.621956,106.518745 66.690392,103.276649 
	C64.224174,100.549171 63.384258,96.054237 62.711376,92.187393 
	C62.515568,91.062180 65.155510,89.040184 66.857086,88.051323 
	C81.699440,79.425751 98.021629,74.780228 114.548859,70.812302 
	C141.365982,64.373947 168.693497,61.273151 196.164886,60.455303 
	C218.936630,59.777363 241.758926,60.797482 265.023468,61.101387 
z"/>
<path fill="#F4F4F4" opacity="1.000000" stroke="none" 
	d="
M51.462708,533.594482 
	C49.015434,497.224121 46.667469,461.315002 44.196411,425.414337 
	C43.134003,409.979187 41.132298,394.577148 40.782185,379.132294 
	C40.311394,358.363525 44.212944,338.368561 55.806225,320.570160 
	C57.786247,317.530365 56.814281,314.800812 54.492180,313.768494 
	C50.069988,311.802582 51.328773,308.734528 51.620571,304.672852 
	C62.987579,308.968719 74.627167,312.317688 81.862144,322.128662 
	C84.894402,326.240540 85.707138,332.775635 85.712700,338.210907 
	C85.765900,390.197632 85.359093,442.184601 85.237923,494.171844 
	C85.183937,517.333374 85.498726,540.495605 85.614182,563.657715 
	C86.010376,643.137878 86.395073,722.617981 86.763985,802.098206 
	C86.772888,804.016357 86.545601,805.935486 86.322937,809.583069 
	C74.135941,804.876709 62.914509,800.644714 51.813278,796.117981 
	C50.535774,795.597046 49.185940,793.466187 49.122559,792.026672 
	C48.331905,774.068115 47.772957,756.099365 47.134373,737.548340 
	C49.093979,738.281189 50.874783,738.983215 52.679996,739.615540 
	C57.837112,741.422119 60.178291,739.984070 60.049095,734.671387 
	C59.705460,720.540771 59.289566,706.409424 58.677082,692.288208 
	C57.175682,657.672302 55.545158,623.061951 53.971050,588.449158 
	C53.146549,570.319397 52.331467,552.189148 51.462708,533.594482 
M61.806328,594.425293 
	C62.206421,604.241760 62.716618,614.055176 62.986290,623.875244 
	C63.849575,655.311523 64.644493,686.749695 65.413170,718.188416 
	C65.551422,723.843079 65.669029,729.515198 65.388680,735.158997 
	C64.988159,743.222351 64.827660,743.214417 72.103027,746.064941 
	C77.567635,748.206116 80.267128,746.757324 80.367012,741.000854 
	C80.580421,728.700439 80.628479,716.390625 80.412567,704.090515 
	C79.801674,669.288208 79.019615,634.488892 78.312904,599.688293 
	C77.850029,576.895386 77.439461,554.101440 76.936325,531.309448 
	C76.232880,499.443085 71.728088,467.958618 67.501160,436.435394 
	C66.093292,425.935913 65.676895,415.303467 64.834137,405.058716 
	C68.374168,405.058716 71.336411,405.021729 74.297340,405.068146 
	C77.939545,405.125214 80.160225,403.407684 80.102356,399.753510 
	C79.815147,381.617065 79.689095,363.468872 78.855278,345.354797 
	C78.524017,338.158051 76.953011,330.906219 72.017509,324.995758 
	C68.534828,320.825134 65.150414,320.585480 62.206303,325.270355 
	C59.403198,329.730804 57.122215,334.640961 55.379910,339.622101 
	C51.288406,351.319489 50.062897,363.499084 49.101692,375.857758 
	C47.320976,398.753326 48.892384,421.469971 51.189999,444.155426 
	C52.915306,461.190247 56.718765,478.055328 57.771729,495.108704 
	C59.793312,527.849487 60.519096,560.670288 61.806328,594.425293 
z"/>
<path fill="#F2F2F2" opacity="1.000000" stroke="none" 
	d="
M328.257874,935.838257 
	C329.912659,943.087952 332.656311,950.004578 332.673645,956.928101 
	C333.060120,1111.213379 333.100800,1265.499634 333.348389,1419.785278 
	C333.378052,1438.270264 334.115936,1456.757812 334.767365,1475.235596 
	C334.923889,1479.675415 334.597168,1483.499512 331.826782,1487.343628 
	C327.404724,1493.479492 323.681732,1500.119263 318.219238,1506.758057 
	C317.530121,1503.646118 316.229340,1500.531982 316.240662,1497.422607 
	C316.591644,1401.125122 317.137085,1304.828369 317.509033,1208.531006 
	C317.793427,1134.888672 317.897278,1061.245483 318.013641,987.602600 
	C318.018860,984.309753 317.531555,980.984436 316.961395,977.728943 
	C315.677185,970.396301 314.020508,963.126648 312.829254,955.780457 
	C309.171265,933.221741 287.441986,919.310791 265.242859,925.424316 
	C261.235413,926.528015 257.242462,927.773621 253.159760,928.459351 
	C251.974213,928.658447 249.472595,927.299927 249.330978,926.383850 
	C248.597046,921.637390 248.254837,916.804626 248.203293,911.997375 
	C248.191498,910.898010 249.752869,908.935608 250.781250,908.798035 
	C266.322205,906.718384 281.893799,905.309875 297.344269,909.496338 
	C311.633331,913.368103 321.187836,922.873352 328.257874,935.838257 
M323.788177,1285.500000 
	C323.788177,1350.584595 323.788177,1415.669312 323.788177,1480.753906 
	C324.470398,1480.770020 325.152618,1480.786133 325.834839,1480.802368 
	C325.930328,1479.284790 326.112122,1477.767212 326.109039,1476.249756 
	C325.753845,1301.788330 325.386261,1127.326904 324.992401,952.865601 
	C324.989105,951.404602 324.823975,949.880920 324.391602,948.493286 
	C317.314026,925.778809 301.636597,912.944397 276.838562,913.223328 
	C274.121368,913.253906 271.413208,914.089905 268.700867,914.552368 
	C268.749298,915.043945 268.797729,915.535583 268.846161,916.027161 
	C270.722961,916.027161 272.612579,915.884705 274.474243,916.052673 
	C281.209717,916.660522 288.146881,916.548950 294.623535,918.208740 
	C310.310242,922.228821 323.158112,943.789917 323.152069,955.076782 
	C323.093292,1064.884277 323.507507,1174.692261 323.788177,1285.500000 
z"/>
<path fill="#F3F3F3" opacity="1.000000" stroke="none" 
	d="
M150.103210,472.956848 
	C147.515457,489.364441 145.038010,505.300690 142.289886,521.190125 
	C140.887070,529.301208 141.092926,530.083130 148.951523,532.618530 
	C163.066910,537.172546 177.730484,538.568176 192.367065,538.308289 
	C211.795593,537.963440 231.205780,536.433533 250.616562,535.289307 
	C266.688599,534.341919 274.568390,523.695557 279.222168,510.001312 
	C285.276764,492.184845 285.303345,473.815796 284.176788,455.180176 
	C283.054932,436.622864 283.417236,417.971832 283.282837,399.360748 
	C283.226349,391.540222 284.354004,383.638428 283.585480,375.908569 
	C280.627563,346.155853 266.509338,334.931244 237.668518,332.886047 
	C211.437485,331.025879 185.474548,334.500549 159.718628,339.392548 
	C154.821259,340.322754 149.901505,341.250122 145.129776,342.648682 
	C143.878586,343.015381 142.184280,345.248932 142.316193,346.446411 
	C144.136490,362.969879 146.197952,379.467529 148.316666,395.956573 
	C148.671127,398.715302 149.575668,401.403381 150.272049,404.316589 
	C146.719131,406.023224 143.352554,407.640320 140.033768,409.234467 
	C138.631042,385.167816 134.701767,361.826080 127.431007,338.821594 
	C138.717300,332.506989 150.859909,328.595673 163.653992,327.210541 
	C181.350159,325.294647 199.125336,322.667816 216.844803,322.824188 
	C233.640198,322.972412 250.646149,324.829102 266.599609,331.518311 
	C277.853302,336.236969 284.811127,344.363800 288.251648,355.974518 
	C291.247803,366.085571 293.220947,376.192413 293.206360,386.866150 
	C293.174042,410.508606 293.965820,434.150879 294.199371,457.795441 
	C294.382141,476.303955 293.402039,494.587982 288.160736,512.666321 
	C281.997070,533.926147 267.835693,544.520630 246.786850,546.497559 
	C210.584961,549.897644 174.570969,549.294556 139.330399,538.753845 
	C136.181671,537.812073 133.091537,536.674316 129.958145,535.622253 
	C134.184189,507.235291 144.236053,479.964691 140.142685,450.750031 
	C141.439728,450.650848 142.573044,450.424713 143.685287,450.501953 
	C150.322479,450.962738 150.440872,451.193176 150.236176,457.977997 
	C150.090546,462.804321 150.139420,467.636536 150.103210,472.956848 
z"/>
<path fill="#EEEEEE" opacity="1.000000" stroke="none" 
	d="
M71.805954,73.583893 
	C90.089127,64.407639 109.669189,59.279514 129.563583,55.179508 
	C167.135635,47.436337 205.156387,44.836521 243.406143,46.425049 
	C275.778717,47.769489 307.854065,51.600170 338.445465,63.206093 
	C348.278137,66.936462 357.367920,71.927071 365.095215,79.475487 
	C371.312439,85.548782 372.158966,100.476532 367.503265,107.411568 
	C361.521210,116.322281 352.856110,121.736481 343.595306,125.611961 
	C319.126923,135.851501 293.705688,143.337936 267.397736,147.034744 
	C239.661957,150.932205 211.713852,152.470062 183.694901,151.724716 
	C155.812515,150.983017 128.309555,147.398880 101.582336,139.145706 
	C92.532639,136.351242 83.653374,132.966110 74.810440,129.554794 
	C69.140999,127.367706 73.412811,123.191322 72.920837,119.640549 
	C79.922600,122.522240 86.422050,125.365128 93.042686,127.890282 
	C112.263664,135.221298 131.960922,140.574493 152.664963,141.277542 
	C172.291107,141.943985 191.934769,143.192688 211.549057,142.869583 
	C247.113876,142.283691 282.310486,138.077530 316.717407,128.620865 
	C330.470367,124.840897 343.208954,118.554604 354.901001,110.557831 
	C359.376617,107.496727 362.688110,102.424545 365.802612,97.780891 
	C368.262054,94.113976 365.307434,85.556335 359.988129,81.434517 
	C354.902374,77.493698 349.386566,73.817589 343.531311,71.213448 
	C324.342041,62.679031 303.883911,58.587696 283.190674,56.045044 
	C228.696976,49.349209 174.435242,51.105568 120.548035,61.845760 
	C104.294624,65.085213 88.266068,69.219940 73.055786,76.041878 
	C69.728851,77.534042 69.676712,77.417786 70.611740,74.312210 
	C71.441803,74.068703 71.623878,73.826294 71.805954,73.583893 
z"/>
<path fill="#FAFAFA" opacity="1.000000" stroke="none" 
	d="
M177.417206,426.846252 
	C177.507080,431.888000 178.404160,436.711029 177.361252,441.069916 
	C175.406769,449.238953 168.527588,453.321136 160.947296,449.961975 
	C149.516144,444.896240 137.728088,447.024750 126.083633,446.288940 
	C124.729698,446.203369 123.266510,447.846741 121.853981,448.688538 
	C123.325500,449.415955 124.744957,450.597504 126.279686,450.773407 
	C129.206543,451.108887 132.199158,450.870758 135.271515,450.870758 
	C135.271515,453.277222 135.271515,455.325043 135.271515,457.297363 
	C127.245224,459.457764 121.010361,455.660522 115.081970,451.852509 
	C113.222275,450.657959 112.267632,447.389984 111.750710,444.894592 
	C110.227432,437.541046 108.856888,429.834229 114.053192,423.447723 
	C116.109604,420.920258 119.893913,418.742889 123.100456,418.408234 
	C132.122711,417.466583 140.623932,415.540924 148.969147,411.760773 
	C153.733612,409.602570 159.452637,409.009430 164.783585,408.806152 
	C169.514572,408.625793 172.598129,411.905365 174.025040,416.525055 
	C175.051361,419.847900 176.235229,423.122131 177.417206,426.846252 
z"/>
<path fill="#F7F7F7" opacity="1.000000" stroke="none" 
	d="
M65.186966,110.921974 
	C65.720482,113.261055 66.252899,115.369720 66.174782,117.455513 
	C65.573402,133.512314 64.858269,149.564880 64.168884,165.618347 
	C63.719742,176.077209 63.272995,186.536240 62.774845,196.992813 
	C62.707809,198.399979 62.345791,199.793121 61.992348,201.987686 
	C56.547512,195.123810 51.040272,189.262543 46.955753,182.537231 
	C45.144646,179.555176 46.054520,174.828781 45.994957,170.890167 
	C45.688412,150.621140 45.428322,130.351166 45.251942,110.080635 
	C45.217339,106.104027 45.130825,102.010880 46.006458,98.186287 
	C46.549770,95.813232 48.860451,93.844826 50.371998,91.703064 
	C54.708870,93.220467 57.773758,95.529839 57.322060,100.686394 
	C56.835686,106.238739 61.020519,108.374458 65.186966,110.921974 
z"/>
<path fill="#F6F6F6" opacity="1.000000" stroke="none" 
	d="
M92.063873,685.101318 
	C92.062225,682.642273 92.062225,680.670471 92.062225,678.202271 
	C97.448860,678.202271 102.496506,678.202271 107.706993,678.202271 
	C108.003334,679.169495 108.453575,679.928406 108.431641,680.673401 
	C108.074799,692.792236 107.481705,704.907349 107.352043,717.027710 
	C107.307503,721.191162 105.270042,722.173706 101.880539,722.218140 
	C98.781662,722.258728 95.681831,722.226746 92.065521,722.226746 
	C92.065521,710.436951 92.065521,698.012756 92.063873,685.101318 
z"/>
<path fill="#F6F6F6" opacity="1.000000" stroke="none" 
	d="
M295.521973,214.702728 
	C305.659668,212.371017 315.384949,210.138245 325.940521,207.714859 
	C326.912415,211.657623 328.318604,215.578903 328.611145,219.581543 
	C328.704987,220.865692 326.057007,223.217514 324.321716,223.624741 
	C314.443878,225.942780 304.462769,227.821045 294.516388,229.846878 
	C292.576996,230.241882 290.635834,230.628189 288.449402,231.068008 
	C287.214905,226.359497 286.015167,221.783508 284.688202,216.722336 
	C288.346832,216.048050 291.728180,215.424850 295.521973,214.702728 
z"/>
<path fill="#C2C2C2" opacity="1.000000" stroke="none" 
	d="
M160.435089,455.701477 
	C163.989197,455.461365 167.250702,455.461365 170.512192,455.461365 
	C170.515930,455.956970 170.519653,456.452606 170.523392,456.948212 
	C167.062622,458.941040 163.499283,458.405579 159.888702,456.574829 
	C159.833054,456.546600 159.787445,456.376190 159.819992,456.320465 
	C159.902298,456.179474 160.031845,456.066071 160.435089,455.701477 
z"/>
<path fill="#EEEEEE" opacity="1.000000" stroke="none" 
	d="
M55.037975,83.731651 
	C56.534687,82.667061 57.729038,81.875412 58.923389,81.083763 
	C59.376011,81.453445 59.828632,81.823120 60.281254,82.192802 
	C59.151932,83.696098 58.022610,85.199402 56.893284,86.702698 
	C56.174061,85.803329 55.454838,84.903954 55.037975,83.731651 
z"/>
<path fill="#EEEEEE" opacity="1.000000" stroke="none" 
	d="
M69.629967,77.226326 
	C66.809029,78.881958 63.988094,80.537582 61.167160,82.193214 
	C60.758179,81.529701 60.349194,80.866188 59.940212,80.202667 
	C62.192974,78.804924 64.445732,77.407181 67.548889,76.402695 
	C68.809509,76.939407 69.219734,77.082863 69.629967,77.226326 
z"/>
<path fill="#EEEEEE" opacity="1.000000" stroke="none" 
	d="
M67.928940,76.344574 
	C68.259331,76.139969 69.060059,76.386726 69.745377,76.929909 
	C69.219734,77.082863 68.809509,76.939407 67.928940,76.344574 
z"/>
<path fill="#DADADA" opacity="1.000000" stroke="none" 
	d="
M71.564194,73.619156 
	C71.623878,73.826294 71.441803,74.068703 71.129990,74.166428 
	C71.000244,74.021751 71.322441,73.654411 71.564194,73.619156 
z"/>
<path fill="#010101" opacity="1.000000" stroke="none" 
	d="
M245.807236,1566.041504 
	C212.852005,1571.138062 180.335297,1574.706665 147.461319,1568.614746 
	C136.854828,1566.649292 125.839905,1566.886841 115.234116,1564.918701 
	C104.314980,1562.892212 93.372543,1560.197876 82.980247,1556.340942 
	C71.806656,1552.193848 65.304504,1543.368774 65.207253,1531.026733 
	C64.867188,1487.867188 64.769798,1444.705688 64.489510,1401.545654 
	C64.117226,1344.220215 63.519901,1286.895874 63.274837,1229.570068 
	C62.977943,1160.119629 62.938957,1090.668091 62.811241,1021.216980 
	C62.790253,1009.802307 61.947365,998.283264 63.198654,987.002563 
	C64.398567,976.184998 67.055962,965.229309 76.015701,957.490417 
	C84.623245,950.055725 94.938545,948.486450 105.616310,950.487488 
	C119.345993,953.060425 132.811722,957.121277 146.581177,959.385681 
	C173.003021,963.730713 199.592499,964.737305 226.132919,960.071167 
	C235.289917,958.461182 244.331039,956.202576 253.468018,954.466064 
	C273.662201,950.628052 294.700317,964.729919 297.035797,985.198914 
	C299.125366,1003.512695 299.650635,1022.069641 299.799896,1040.527954 
	C300.221588,1092.678955 300.119293,1144.834351 300.138763,1196.988037 
	C300.140259,1200.945923 299.163727,1204.904175 299.166077,1208.861938 
	C299.205811,1275.166016 299.472870,1341.470215 299.375946,1407.773926 
	C299.323822,1443.431274 298.678101,1479.087646 298.304779,1514.744507 
	C298.283844,1516.744019 298.125549,1518.762817 298.333832,1520.740723 
	C300.769745,1543.872681 284.333221,1559.025513 266.307251,1561.952148 
	C259.575836,1563.045044 252.922363,1564.618408 245.807236,1566.041504 
M146.638062,1282.601685 
	C134.320480,1282.530518 121.989700,1282.772217 109.691025,1282.253174 
	C103.760284,1282.002686 100.022186,1284.487427 97.715744,1289.265747 
	C93.191986,1298.637451 92.808899,1308.482544 95.595001,1318.448120 
	C96.879524,1323.042603 99.701714,1326.078003 104.776962,1326.090576 
	C111.074310,1326.106201 117.371872,1325.869141 123.669807,1325.839722 
	C166.621399,1325.638916 209.573120,1325.461304 252.524826,1325.283936 
	C259.048859,1325.256958 263.643005,1321.936279 264.020569,1315.440063 
	C264.461121,1307.860718 264.231903,1300.155151 263.367767,1292.610229 
	C262.365417,1283.858521 258.834625,1281.337891 249.986847,1281.437012 
	C215.860474,1281.819702 181.734238,1282.212646 146.638062,1282.601685 
z"/>
<path fill="#050505" opacity="1.000000" stroke="none" 
	d="
M61.794376,593.941589 
	C60.519096,560.670288 59.793312,527.849487 57.771729,495.108704 
	C56.718765,478.055328 52.915306,461.190247 51.189999,444.155426 
	C48.892384,421.469971 47.320976,398.753326 49.101692,375.857758 
	C50.062897,363.499084 51.288406,351.319489 55.379910,339.622101 
	C57.122215,334.640961 59.403198,329.730804 62.206303,325.270355 
	C65.150414,320.585480 68.534828,320.825134 72.017509,324.995758 
	C76.953011,330.906219 78.524017,338.158051 78.855278,345.354797 
	C79.689095,363.468872 79.815147,381.617065 80.102356,399.753510 
	C80.160225,403.407684 77.939545,405.125214 74.297340,405.068146 
	C71.336411,405.021729 68.374168,405.058716 64.834137,405.058716 
	C65.676895,415.303467 66.093292,425.935913 67.501160,436.435394 
	C71.728088,467.958618 76.232880,499.443085 76.936325,531.309448 
	C77.439461,554.101440 77.850029,576.895386 78.312904,599.688293 
	C79.019615,634.488892 79.801674,669.288208 80.412567,704.090515 
	C80.628479,716.390625 80.580421,728.700439 80.367012,741.000854 
	C80.267128,746.757324 77.567635,748.206116 72.103027,746.064941 
	C64.827660,743.214417 64.988159,743.222351 65.388680,735.158997 
	C65.669029,729.515198 65.551422,723.843079 65.413170,718.188416 
	C64.644493,686.749695 63.849575,655.311523 62.986290,623.875244 
	C62.716618,614.055176 62.206421,604.241760 61.794376,593.941589 
M74.672813,367.559296 
	C74.247673,360.205261 73.822533,352.851227 73.397392,345.497192 
	C66.336250,362.898926 63.134846,380.688080 64.420998,399.430481 
	C67.790298,399.430481 71.028481,399.430481 74.678108,399.430481 
	C74.678108,389.054810 74.678108,378.799286 74.672813,367.559296 
z"/>
<path fill="#161616" opacity="1.000000" stroke="none" 
	d="
M323.787537,1285.000000 
	C323.507507,1174.692261 323.093292,1064.884277 323.152069,955.076782 
	C323.158112,943.789917 310.310242,922.228821 294.623535,918.208740 
	C288.146881,916.548950 281.209717,916.660522 274.474243,916.052673 
	C272.612579,915.884705 270.722961,916.027161 268.846161,916.027161 
	C268.797729,915.535583 268.749298,915.043945 268.700867,914.552368 
	C271.413208,914.089905 274.121368,913.253906 276.838562,913.223328 
	C301.636597,912.944397 317.314026,925.778809 324.391602,948.493286 
	C324.823975,949.880920 324.989105,951.404602 324.992401,952.865601 
	C325.386261,1127.326904 325.753845,1301.788330 326.109039,1476.249756 
	C326.112122,1477.767212 325.930328,1479.284790 325.834839,1480.802368 
	C325.152618,1480.786133 324.470398,1480.770020 323.788177,1480.753906 
	C323.788177,1415.669312 323.788177,1350.584595 323.787537,1285.000000 
z"/>
<path fill="#FCFCFC" opacity="1.000000" stroke="none" 
	d="
M147.123001,1282.601685 
	C181.734238,1282.212646 215.860474,1281.819702 249.986847,1281.437012 
	C258.834625,1281.337891 262.365417,1283.858521 263.367767,1292.610229 
	C264.231903,1300.155151 264.461121,1307.860718 264.020569,1315.440063 
	C263.643005,1321.936279 259.048859,1325.256958 252.524826,1325.283936 
	C209.573120,1325.461304 166.621399,1325.638916 123.669807,1325.839722 
	C117.371872,1325.869141 111.074310,1326.106201 104.776962,1326.090576 
	C99.701714,1326.078003 96.879524,1323.042603 95.595001,1318.448120 
	C92.808899,1308.482544 93.191986,1298.637451 97.715744,1289.265747 
	C100.022186,1284.487427 103.760284,1282.002686 109.691025,1282.253174 
	C121.989700,1282.772217 134.320480,1282.530518 147.123001,1282.601685 
z"/>
<path fill="#ECECEC" opacity="1.000000" stroke="none" 
	d="
M74.675461,368.051514 
	C74.678108,378.799286 74.678108,389.054810 74.678108,399.430481 
	C71.028481,399.430481 67.790298,399.430481 64.420998,399.430481 
	C63.134846,380.688080 66.336250,362.898926 73.397392,345.497192 
	C73.822533,352.851227 74.247673,360.205261 74.675461,368.051514 
z"/>
</svg>