<svg version="1.1" id="Layer_1" xmlns="http://www.w3.org/2000/svg" xmlns:xlink="http://www.w3.org/1999/xlink" x="0px" y="0px"
	 width="100%" viewBox="0 0 560 1812" enable-background="new 0 0 560 1812" xml:space="preserve">
<path fill="#F2EEED" opacity="1.000000" stroke="none" 
	d="
M561.000000,520.000000 
	C561.000000,951.333313 561.000000,1382.166626 561.000000,1813.000000 
	C374.333344,1813.000000 187.666672,1813.000000 1.000000,1813.000000 
	C1.000000,1209.000000 1.000000,605.000000 1.000000,1.000000 
	C187.666672,1.000000 374.333344,1.000000 561.000000,1.000000 
	C561.000000,173.833328 561.000000,346.666656 561.000000,520.000000 
M112.287544,878.499939 
	C112.287544,914.774536 112.287544,951.049133 112.287544,987.700134 
	C103.151428,988.800598 93.935417,989.973145 84.703743,991.005676 
	C74.909248,992.101135 65.746704,996.868958 55.578743,995.918274 
	C54.227280,995.791931 52.708435,996.654785 51.373592,997.285034 
	C43.950974,1000.789795 40.781757,1007.207397 37.497299,1014.529114 
	C26.920942,1038.105713 22.261719,1062.710815 22.239040,1088.302979 
	C22.225204,1103.917847 23.022758,1119.531860 23.237974,1135.149292 
	C23.382530,1145.639160 22.873312,1156.140869 23.131401,1166.625732 
	C23.852272,1195.911255 24.999712,1225.186768 25.625235,1254.473755 
	C26.019810,1272.947876 25.919533,1291.436523 25.790751,1309.916870 
	C25.609806,1335.882812 24.828791,1361.849609 25.002787,1387.811279 
	C25.133299,1407.285034 25.802313,1426.794067 27.282398,1446.207275 
	C28.473782,1461.833984 31.305927,1477.357300 40.225296,1490.860107 
	C45.896549,1499.445679 51.176449,1508.468750 58.017464,1516.044556 
	C63.273197,1521.864868 70.784187,1525.565918 79.262138,1525.599854 
	C90.762711,1525.645874 102.263603,1525.611328 112.966469,1525.611328 
	C113.896141,1556.419312 115.097061,1586.513794 115.602608,1616.619751 
	C115.904381,1634.591187 115.575241,1652.603271 114.700394,1670.556641 
	C113.612747,1692.877319 112.290146,1715.166992 115.920464,1737.347290 
	C116.407227,1740.321289 118.318016,1744.049683 120.734062,1745.537476 
	C128.341003,1750.221680 136.204468,1754.777100 144.508652,1757.984375 
	C165.210739,1765.980225 186.723801,1770.890869 208.625748,1774.820435 
	C256.172424,1783.351074 303.690094,1784.390991 351.368835,1777.090820 
	C384.348511,1772.041382 414.885132,1759.986572 443.574677,1743.181519 
	C445.412476,1742.104858 447.058899,1739.121094 447.169861,1736.941895 
	C447.745636,1725.631958 448.177765,1714.287598 447.959961,1702.968750 
	C446.956573,1650.832764 445.705353,1598.701416 444.587494,1546.567505 
	C444.446442,1539.987915 444.568207,1533.402954 444.568207,1527.669067 
	C460.540070,1526.878540 476.502869,1526.409058 492.394073,1525.082275 
	C496.505249,1524.739136 501.597351,1522.739258 504.171478,1519.731201 
	C514.867065,1507.232666 524.684021,1493.986938 534.995483,1481.153687 
	C543.227539,1470.908203 545.743591,1459.378296 545.579590,1446.324951 
	C544.863464,1389.334106 544.626343,1332.335815 544.488220,1275.339600 
	C544.395813,1237.213257 544.824890,1199.085938 544.889038,1160.958862 
	C544.911438,1147.656616 544.492554,1134.354492 544.356262,1121.051392 
	C543.753418,1062.224487 543.495728,1003.391235 542.397461,944.573730 
	C542.081543,927.651367 539.373291,910.773682 537.761780,893.875549 
	C536.852539,884.341125 531.710327,875.457825 534.247925,865.279236 
	C535.214844,861.400879 533.302490,857.217896 527.558289,857.631348 
	C526.638184,857.697571 525.634644,856.774719 524.688171,856.274048 
	C521.966431,854.834229 519.386597,852.506775 516.516357,852.070068 
	C500.725830,849.667358 484.884766,847.558228 469.019836,845.700500 
	C461.802032,844.855225 454.489380,844.819946 447.307526,844.422119 
	C447.307526,821.400879 447.174042,798.765381 447.332031,776.131897 
	C447.850830,701.804688 448.489288,627.478394 449.013092,553.151245 
	C449.036377,549.844360 448.296631,546.538452 448.084320,543.221130 
	C447.969788,541.431152 447.883759,539.520874 448.370117,537.833496 
	C449.749786,533.046570 451.079987,527.992615 446.921082,524.305603 
	C444.165039,521.862183 444.064056,519.401184 444.315918,516.457397 
	C444.556793,513.642334 445.202301,510.848907 445.282074,508.034943 
	C445.938232,484.894440 446.522400,461.751862 447.092712,438.609039 
	C448.000275,401.780365 446.829041,365.024872 443.186859,328.355438 
	C443.097565,327.455994 443.347656,326.417480 443.745605,325.591339 
	C447.545197,317.703613 447.184937,315.145416 441.550537,309.617126 
	C441.990265,306.493988 442.708862,303.564056 442.771088,300.620300 
	C443.612488,260.805817 444.437042,220.990540 445.049805,181.172134 
	C445.134705,175.656204 443.566132,170.117752 443.618103,164.597778 
	C443.773224,148.119308 444.449799,131.646347 444.712280,115.167885 
	C444.796997,109.851044 444.152496,104.526131 443.992920,99.200371 
	C443.911865,96.496002 443.786835,93.698677 444.355072,91.090057 
	C445.338593,86.574814 447.042450,82.379395 445.065704,77.523666 
	C440.935852,67.379013 433.786652,59.704639 425.067047,53.791714 
	C406.918762,41.485046 386.621918,33.745438 365.158264,29.932953 
	C323.841919,22.594130 282.259583,19.706516 240.274902,23.807232 
	C209.491333,26.813917 179.105560,31.164042 150.251770,42.942364 
	C136.626251,48.504402 124.094162,55.973457 116.092171,68.639015 
	C110.503670,77.484482 105.899887,87.251419 111.794258,98.167038 
	C112.214378,98.945045 112.090538,100.077728 112.044456,101.037086 
	C111.614647,109.985512 110.738556,118.933861 110.777206,127.878838 
	C110.850143,144.762741 111.759995,161.644730 111.742882,178.526917 
	C111.719421,201.687027 110.831917,224.847229 110.876152,248.006317 
	C111.276939,457.837616 111.800201,667.668701 112.287544,878.499939 
z"/>
<path fill="#020202" opacity="1.000000" stroke="none" 
	d="
M112.287575,877.999878 
	C111.800201,667.668701 111.276939,457.837616 110.876152,248.006317 
	C110.831917,224.847229 111.719421,201.687027 111.742882,178.526917 
	C111.759995,161.644730 110.850143,144.762741 110.777206,127.878838 
	C110.738556,118.933861 111.614647,109.985512 112.044456,101.037086 
	C112.090538,100.077728 112.214378,98.945045 111.794258,98.167038 
	C105.899887,87.251419 110.503670,77.484482 116.092171,68.639015 
	C124.094162,55.973457 136.626251,48.504402 150.251770,42.942364 
	C179.105560,31.164042 209.491333,26.813917 240.274902,23.807232 
	C282.259583,19.706516 323.841919,22.594130 365.158264,29.932953 
	C386.621918,33.745438 406.918762,41.485046 425.067047,53.791714 
	C433.786652,59.704639 440.935852,67.379013 445.065704,77.523666 
	C447.042450,82.379395 445.338593,86.574814 444.355072,91.090057 
	C443.786835,93.698677 443.911865,96.496002 443.992920,99.200371 
	C444.152496,104.526131 444.796997,109.851044 444.712280,115.167885 
	C444.449799,131.646347 443.773224,148.119308 443.618103,164.597778 
	C443.566132,170.117752 445.134705,175.656204 445.049805,181.172134 
	C444.437042,220.990540 443.612488,260.805817 442.771088,300.620300 
	C442.708862,303.564056 441.990265,306.493988 441.550537,309.617126 
	C447.184937,315.145416 447.545197,317.703613 443.745605,325.591339 
	C443.347656,326.417480 443.097565,327.455994 443.186859,328.355438 
	C446.829041,365.024872 448.000275,401.780365 447.092712,438.609039 
	C446.522400,461.751862 445.938232,484.894440 445.282074,508.034943 
	C445.202301,510.848907 444.556793,513.642334 444.315918,516.457397 
	C444.064056,519.401184 444.165039,521.862183 446.921082,524.305603 
	C451.079987,527.992615 449.749786,533.046570 448.370117,537.833496 
	C447.883759,539.520874 447.969788,541.431152 448.084320,543.221130 
	C448.296631,546.538452 449.036377,549.844360 449.013092,553.151245 
	C448.489288,627.478394 447.850830,701.804688 447.332031,776.131897 
	C447.174042,798.765381 447.307526,821.400879 447.307526,844.422119 
	C454.489380,844.819946 461.802032,844.855225 469.019836,845.700500 
	C484.884766,847.558228 500.725830,849.667358 516.516357,852.070068 
	C519.386597,852.506775 521.966431,854.834229 524.688171,856.274048 
	C525.634644,856.774719 526.638184,857.697571 527.558289,857.631348 
	C533.302490,857.217896 535.214844,861.400879 534.247925,865.279236 
	C531.710327,875.457825 536.852539,884.341125 537.761780,893.875549 
	C539.373291,910.773682 542.081543,927.651367 542.397461,944.573730 
	C543.495728,1003.391235 543.753418,1062.224487 544.356262,1121.051392 
	C544.492554,1134.354492 544.911438,1147.656616 544.889038,1160.958862 
	C544.824890,1199.085938 544.395813,1237.213257 544.488220,1275.339600 
	C544.626343,1332.335815 544.863464,1389.334106 545.579590,1446.324951 
	C545.743591,1459.378296 543.227539,1470.908203 534.995483,1481.153687 
	C524.684021,1493.986938 514.867065,1507.232666 504.171478,1519.731201 
	C501.597351,1522.739258 496.505249,1524.739136 492.394073,1525.082275 
	C476.502869,1526.409058 460.540070,1526.878540 444.568207,1527.669067 
	C444.568207,1533.402954 444.446442,1539.987915 444.587494,1546.567505 
	C445.705353,1598.701416 446.956573,1650.832764 447.959961,1702.968750 
	C448.177765,1714.287598 447.745636,1725.631958 447.169861,1736.941895 
	C447.058899,1739.121094 445.412476,1742.104858 443.574677,1743.181519 
	C414.885132,1759.986572 384.348511,1772.041382 351.368835,1777.090820 
	C303.690094,1784.390991 256.172424,1783.351074 208.625748,1774.820435 
	C186.723801,1770.890869 165.210739,1765.980225 144.508652,1757.984375 
	C136.204468,1754.777100 128.341003,1750.221680 120.734062,1745.537476 
	C118.318016,1744.049683 116.407227,1740.321289 115.920464,1737.347290 
	C112.290146,1715.166992 113.612747,1692.877319 114.700394,1670.556641 
	C115.575241,1652.603271 115.904381,1634.591187 115.602608,1616.619751 
	C115.097061,1586.513794 113.896141,1556.419312 112.966469,1525.611328 
	C102.263603,1525.611328 90.762711,1525.645874 79.262138,1525.599854 
	C70.784187,1525.565918 63.273197,1521.864868 58.017464,1516.044556 
	C51.176449,1508.468750 45.896549,1499.445679 40.225296,1490.860107 
	C31.305927,1477.357300 28.473782,1461.833984 27.282398,1446.207275 
	C25.802313,1426.794067 25.133299,1407.285034 25.002787,1387.811279 
	C24.828791,1361.849609 25.609806,1335.882812 25.790751,1309.916870 
	C25.919533,1291.436523 26.019810,1272.947876 25.625235,1254.473755 
	C24.999712,1225.186768 23.852272,1195.911255 23.131401,1166.625732 
	C22.873312,1156.140869 23.382530,1145.639160 23.237974,1135.149292 
	C23.022758,1119.531860 22.225204,1103.917847 22.239040,1088.302979 
	C22.261719,1062.710815 26.920942,1038.105713 37.497299,1014.529114 
	C40.781757,1007.207397 43.950974,1000.789795 51.373592,997.285034 
	C52.708435,996.654785 54.227280,995.791931 55.578743,995.918274 
	C65.746704,996.868958 74.909248,992.101135 84.703743,991.005676 
	C93.935417,989.973145 103.151428,988.800598 112.287544,987.700134 
	C112.287544,951.049133 112.287544,914.774536 112.287575,877.999878 
M264.387909,1028.034546 
	C263.855865,1028.056274 263.323822,1028.078003 261.936096,1028.049438 
	C248.602921,1027.235352 251.317474,1028.157227 250.980408,1016.663147 
	C250.936508,1015.166199 250.991852,1013.665161 251.036758,1012.167053 
	C251.164078,1007.918701 251.274475,1003.647461 257.184998,1003.533325 
	C256.925323,1001.197815 256.710663,999.267029 256.456573,996.981812 
	C252.161697,997.291748 248.195419,997.499634 244.245712,997.879578 
	C236.365814,998.637451 235.233200,999.601013 235.186600,1007.724792 
	C235.083527,1025.699219 235.024460,1043.681885 235.465027,1061.648438 
	C235.762115,1073.765015 236.904648,1085.862671 237.746490,1097.963379 
	C238.110367,1103.193726 241.368210,1105.750610 246.300552,1105.921753 
	C252.444672,1106.135010 258.603882,1105.914185 265.293945,1106.020630 
	C265.801483,1105.870117 266.308990,1105.719727 267.779541,1105.568115 
	C281.161346,1105.568115 294.543182,1105.568115 307.006958,1105.568115 
	C307.006958,1078.709473 307.006958,1053.310059 307.006958,1028.089111 
	C292.394226,1028.089111 278.789612,1028.089111 264.387909,1028.034546 
M423.899353,1602.699585 
	C423.695068,1608.357178 423.693939,1614.031860 423.224121,1619.667236 
	C422.827911,1624.419312 422.045868,1629.159058 421.069275,1633.827881 
	C420.843628,1634.906616 419.194092,1636.370361 418.088531,1636.474243 
	C409.343689,1637.297241 400.566681,1637.769409 391.810089,1638.479248 
	C385.415100,1638.997559 380.460236,1636.523071 376.610352,1631.583618 
	C372.007019,1625.677490 367.553162,1619.650269 362.790314,1613.876953 
	C361.907013,1612.806030 359.784241,1612.049805 358.374207,1612.232666 
	C346.660187,1613.751709 335.010956,1616.663940 323.281830,1616.990845 
	C297.087860,1617.720703 270.856598,1617.410767 244.645447,1617.102783 
	C230.679901,1616.938721 216.717987,1616.005981 202.770737,1615.153198 
	C200.167999,1614.994019 197.642899,1613.565063 194.073273,1612.390015 
	C191.644455,1615.122192 188.415588,1618.445435 185.540192,1622.050415 
	C178.615082,1630.732666 171.063004,1638.221436 158.899078,1638.275024 
	C153.567352,1638.298584 148.236557,1638.515869 142.904800,1638.545044 
	C131.603760,1638.606689 129.008408,1636.220947 127.878891,1624.822266 
	C127.747887,1623.500244 127.720688,1622.151978 127.810120,1620.827026 
	C128.310440,1613.414307 128.861374,1606.005005 129.410233,1598.383545 
	C127.018669,1597.623291 124.503929,1596.809570 121.975426,1596.041016 
	C121.702034,1595.957886 121.349037,1596.136597 120.788040,1596.238281 
	C120.788040,1597.141479 120.777512,1598.083252 120.789589,1599.024658 
	C121.099121,1623.143433 122.170189,1647.283569 121.495110,1671.374756 
	C120.897514,1692.700806 119.545341,1713.964722 122.393211,1735.205933 
	C122.615753,1736.865601 123.204277,1739.201538 124.392937,1739.886108 
	C131.010696,1743.698120 137.597107,1747.797607 144.685120,1750.521484 
	C184.108902,1765.672119 225.398483,1772.354248 267.260162,1774.392456 
	C311.050720,1776.524658 354.478577,1773.128784 396.241028,1757.927734 
	C411.014313,1752.550415 425.062225,1745.812744 437.697327,1736.408813 
	C439.220032,1735.275513 440.546326,1732.738525 440.539398,1730.857422 
	C440.384521,1688.869995 440.026367,1646.883301 439.716949,1604.896484 
	C439.683350,1600.340088 439.712433,1595.783203 439.712433,1590.805176 
	C433.686890,1592.993164 428.610291,1594.836548 423.434052,1596.716064 
	C423.571411,1598.227173 423.733948,1600.014893 423.899353,1602.699585 
M314.665619,477.247894 
	C316.720398,455.036743 318.857605,432.832794 320.805328,410.612244 
	C322.523438,391.011078 323.582458,371.397125 320.845703,351.777649 
	C319.338531,340.972656 317.997070,330.144501 316.559357,319.162170 
	C309.432892,319.162170 303.301880,319.162170 296.944855,319.162170 
	C297.146606,320.058746 297.352325,320.836212 297.494476,321.625153 
	C299.757721,334.188385 303.149506,346.679138 303.972504,359.336731 
	C304.929718,374.059021 303.330597,388.928802 303.381927,403.732666 
	C303.485260,433.546783 297.671570,462.705353 294.012451,492.097473 
	C290.209686,522.644043 285.681244,553.102600 282.103729,583.673767 
	C280.539429,597.041077 280.569000,610.593750 279.843079,624.060486 
	C278.544220,648.155640 277.047516,672.241882 275.988617,696.347412 
	C275.523224,706.941528 275.969879,717.574097 275.915955,728.188843 
	C275.898071,731.713257 274.422943,734.619690 270.602722,734.854858 
	C265.644867,735.160095 260.636810,735.067810 255.674973,734.755920 
	C251.818039,734.513428 249.772568,732.181213 249.693039,728.145874 
	C249.115799,698.856995 247.708023,669.558838 248.089218,640.283447 
	C248.532211,606.260437 254.536453,572.724182 259.434326,539.114563 
	C263.491974,511.270660 267.269043,483.378174 270.608978,455.440125 
	C272.836914,436.803467 274.079437,418.049011 275.768494,399.285706 
	C274.871643,399.115936 274.412140,398.965454 273.948273,398.950562 
	C265.548309,398.680542 257.141541,398.548676 248.750107,398.117279 
	C244.675415,397.907837 242.393829,395.538391 242.436035,391.267578 
	C242.593842,375.290070 242.313202,359.291718 243.078857,343.343536 
	C243.474960,335.093262 245.451965,326.833435 251.144547,320.157043 
	C257.066742,313.211395 265.038452,312.101624 273.417816,312.666840 
	C280.660217,313.155334 287.858612,314.363617 295.103058,314.734680 
	C302.206055,315.098541 309.343506,314.867584 316.463684,314.757996 
	C318.067963,314.733276 319.663330,314.129333 321.262817,313.791992 
	C320.143311,312.403992 319.118439,311.896667 318.073761,311.851929 
	C297.945465,310.989502 277.818176,310.073853 257.682129,309.442810 
	C253.058640,309.297913 248.389145,310.051880 243.766510,310.606323 
	C238.916000,311.188141 235.873718,313.868530 235.211258,318.878479 
	C234.841690,321.673492 234.169357,324.481262 234.225143,327.271484 
	C234.731369,352.590759 235.712189,377.904724 235.908813,403.225311 
	C236.892242,529.860962 237.681427,656.498108 238.534195,783.134766 
	C238.601868,793.182251 241.509964,797.366394 251.507538,797.698669 
	C275.775513,798.505188 300.071198,798.580139 324.356812,798.673889 
	C329.923248,798.695312 335.747742,792.800537 336.399780,787.117554 
	C337.117126,780.865723 337.814484,774.565491 337.817749,768.285950 
	C337.830811,743.126892 337.601990,717.967346 337.404968,692.808472 
	C337.137482,658.652222 336.740601,624.496887 336.545776,590.340332 
	C336.409790,566.495728 336.519592,542.649719 336.519592,518.200928 
	C335.930237,519.664551 335.404388,520.530273 335.233002,521.461365 
	C332.160156,538.154663 327.848755,554.742798 326.363739,571.579407 
	C323.468628,604.402710 321.755768,637.348816 320.355103,670.278137 
	C319.577148,688.566956 320.323608,706.926025 320.598663,725.250183 
	C320.661377,729.428650 319.590271,733.019653 315.458832,733.681396 
	C310.611359,734.457703 305.516937,734.275269 300.594666,733.814148 
	C296.754730,733.454590 294.441101,731.140625 294.869507,726.647644 
	C295.182739,723.362549 294.592468,720.002319 294.675507,716.682312 
	C295.008392,703.370544 295.393311,690.059570 295.857330,676.751709 
	C296.820129,649.140686 296.435059,621.390503 299.184265,593.956055 
	C303.066315,555.216431 309.285065,516.710876 314.665619,477.247894 
M181.685455,1578.207764 
	C176.420578,1591.755615 166.423325,1598.211670 151.989059,1598.178223 
	C148.332993,1598.169800 144.634476,1598.276855 141.038132,1598.849731 
	C139.400940,1599.110596 136.725174,1600.529175 136.634247,1601.601807 
	C135.920837,1610.016113 135.525497,1618.472046 135.442352,1626.919312 
	C135.399994,1631.220459 138.027481,1632.919800 142.403778,1632.389038 
	C145.861877,1631.969727 149.423477,1631.775513 152.881516,1632.098267 
	C164.808289,1633.211060 173.297119,1627.736084 179.990311,1618.539551 
	C191.548279,1602.658936 207.403641,1595.266724 226.781738,1595.288574 
	C251.389771,1595.316284 276.019104,1595.051636 300.598053,1595.990967 
	C318.352570,1596.669434 336.065094,1598.882080 353.743591,1600.877563 
	C359.983887,1601.581909 365.169525,1604.757080 368.858307,1610.410400 
	C372.850677,1616.528809 377.559021,1622.180054 381.959412,1628.031860 
	C384.972382,1632.038574 388.780609,1634.097900 393.995880,1633.656738 
	C399.798889,1633.165771 405.648560,1633.226074 411.450989,1632.730469 
	C412.647736,1632.628418 414.608856,1631.237671 414.722351,1630.266113 
	C415.930145,1619.928711 416.877960,1609.559692 417.756714,1599.187500 
	C417.839874,1598.205811 416.968964,1597.143433 416.565918,1596.177979 
	C412.133301,1596.834839 408.048096,1597.805908 403.930664,1597.970459 
	C396.607666,1598.263062 388.539276,1600.691772 382.760010,1594.050293 
	C379.211426,1589.972046 376.099609,1585.255249 373.879028,1580.334595 
	C369.447296,1570.513916 362.954895,1563.794189 351.882996,1562.256470 
	C341.348267,1560.793335 330.880432,1558.533203 320.300385,1557.768066 
	C282.842407,1555.059448 245.431229,1555.660767 208.018555,1559.509521 
	C195.413345,1560.806152 187.427765,1566.833496 181.685455,1578.207764 
M435.401306,1475.499756 
	C435.401306,1489.595581 435.401306,1503.691406 435.401306,1518.351807 
	C441.891968,1518.351807 447.764343,1518.351807 453.987762,1518.351807 
	C452.817688,1327.831665 451.648590,1137.473999 450.476227,946.576477 
	C443.324646,943.261719 440.665436,938.974365 442.190460,930.199097 
	C444.570831,916.502014 447.240479,902.850159 450.111389,889.247559 
	C450.661194,886.642334 452.403137,884.103333 454.144958,881.986206 
	C455.973450,879.763733 458.462921,878.084961 461.308136,875.607178 
	C462.641815,875.786743 465.168823,876.126892 467.763306,876.476196 
	C468.850159,874.753052 469.873291,873.130981 471.253510,870.942749 
	C465.641113,870.208923 460.734894,869.455994 455.800842,869.011536 
	C454.751465,868.916992 453.034058,869.647095 452.583282,870.502502 
	C447.172943,880.769592 440.476746,890.681641 437.121674,901.609131 
	C434.339325,910.671326 435.061615,920.959595 435.067841,930.704163 
	C435.116608,1007.008301 435.482483,1083.312134 435.527679,1159.616211 
	C435.589874,1264.577393 435.456573,1369.538574 435.401306,1475.499756 
M220.315536,49.980423 
	C194.133850,53.414265 168.474426,58.913921 144.435303,70.239487 
	C139.702881,72.469078 135.474594,75.895737 131.308395,79.147728 
	C129.155777,80.827988 128.452347,83.038582 130.287537,86.091248 
	C134.944290,93.837273 142.151855,97.839149 148.444183,100.556969 
	C152.264404,98.232323 154.860260,95.870537 157.896835,94.926979 
	C185.678711,86.294258 213.947372,80.588593 243.256256,81.430244 
	C245.419632,81.492371 247.946136,80.860306 249.749573,79.693985 
	C272.712616,64.843399 303.310150,65.692696 325.321045,81.907944 
	C326.584076,82.838425 328.099640,83.847900 329.577271,83.989380 
	C334.854248,84.494667 340.171143,84.563133 345.462982,84.937332 
	C365.427338,86.349098 384.404907,92.143394 402.819550,99.367981 
	C408.698120,101.674309 412.572937,100.752991 416.912201,97.785492 
	C419.085693,96.299088 421.240295,94.516350 422.759460,92.404396 
	C425.073364,89.187645 427.582123,85.428787 423.926392,81.666885 
	C420.006409,77.633018 416.218811,72.935654 411.388824,70.413551 
	C390.449585,59.479565 368.272003,51.481705 344.696381,49.238934 
	C323.195862,47.193569 301.515869,46.132404 279.922424,46.232700 
	C260.335785,46.323681 240.759140,48.565186 220.315536,49.980423 
M128.357529,169.103149 
	C163.609756,190.757385 202.668320,197.583481 242.961151,199.168518 
	C242.961151,181.346329 242.961151,164.109085 242.961151,146.815033 
	C219.455490,149.487793 197.336151,144.282013 175.391144,138.940903 
	C152.960938,133.481674 133.283905,122.435219 116.294319,105.180557 
	C116.294319,107.553879 116.244606,108.999680 116.302010,110.441223 
	C116.858200,124.409119 117.952370,138.381897 117.802101,152.341537 
	C117.715004,160.432816 118.722656,166.679871 128.357529,169.103149 
M420.881226,174.385834 
	C424.612946,172.954376 428.286163,171.334915 432.094543,170.149780 
	C435.250397,169.167740 436.599426,167.528671 436.625427,164.084778 
	C436.688293,155.756271 437.314392,147.432983 437.429626,139.103668 
	C437.583160,128.008484 437.467529,116.909561 437.467529,104.809082 
	C423.069122,121.266312 403.787354,126.475029 384.852936,131.853867 
	C365.908051,137.235687 346.849426,142.890823 327.567444,140.395203 
	C327.567444,159.407669 327.567444,177.806366 327.567444,196.065964 
	C360.526245,194.900436 390.349426,184.815994 420.881226,174.385834 
M320.621643,190.503326 
	C320.045288,177.869171 319.372620,165.238480 318.920776,152.599869 
	C318.504486,140.955994 318.036102,129.300995 318.143097,117.655960 
	C318.215088,109.822601 318.285095,109.192390 310.225769,109.166580 
	C293.422241,109.112778 276.613251,109.145737 259.816132,109.546722 
	C253.246063,109.703560 250.266876,109.258652 251.951233,118.117249 
	C252.256790,119.724297 251.992508,121.439232 251.995468,123.104347 
	C252.046280,151.729752 252.269958,180.356628 252.027557,208.979538 
	C251.967224,216.103882 254.169586,219.025589 262.265228,218.799332 
	C279.209198,218.325806 296.142151,217.449951 313.077515,216.692200 
	C314.392059,216.633377 315.716003,216.295853 316.990479,215.930557 
	C319.699463,215.154160 320.938660,213.625641 320.767914,210.474915 
	C320.426025,204.165695 320.617096,197.827591 320.621643,190.503326 
M366.236694,37.307545 
	C349.242371,35.057716 332.306091,31.645529 315.242004,30.793640 
	C276.574921,28.863266 237.906067,30.392109 199.684631,36.876251 
	C172.998764,41.403419 147.054108,48.302773 125.671028,66.786469 
	C116.206932,74.967308 113.615356,90.903320 121.478127,100.593971 
	C136.653061,119.296661 157.375549,128.254852 179.922424,133.656464 
	C200.529099,138.593231 221.515259,140.900986 243.061783,140.246414 
	C243.313004,136.288132 243.570953,132.223740 243.829605,128.148331 
	C227.911728,128.846481 212.968460,126.691185 198.237747,122.987885 
	C177.725388,117.831078 157.302765,112.249008 138.609131,102.041954 
	C134.090042,99.574440 129.933365,95.808083 126.695610,91.768837 
	C120.974014,84.630875 121.905319,77.443855 129.016678,71.745895 
	C133.515640,68.141121 138.388977,64.593254 143.674042,62.447578 
	C174.267914,50.026783 206.081024,41.978264 239.045761,40.130062 
	C264.455444,38.705437 289.975891,38.969723 315.445557,39.041664 
	C325.887665,39.071159 336.426910,39.920864 346.744751,41.532337 
	C369.530487,45.091095 391.447968,51.826073 412.527069,61.281128 
	C419.914001,64.594513 425.844696,69.557808 430.259918,76.167343 
	C433.616882,81.192604 434.879395,86.596107 431.675812,92.572441 
	C427.116119,101.078598 419.827271,105.964401 411.055969,108.753288 
	C401.871887,111.673431 392.539459,114.163094 383.192780,116.528267 
	C364.560272,121.243233 345.893463,125.866348 326.512268,125.771553 
	C326.512268,128.388702 326.512268,130.967819 326.512268,133.458344 
	C327.168854,133.617096 327.497864,133.790146 327.803711,133.755920 
	C330.450897,133.459763 333.088135,133.065628 335.739075,132.813538 
	C358.973389,130.604095 382.176086,128.236450 404.015106,119.100227 
	C411.369659,116.023506 419.957550,114.325333 425.679779,109.349701 
	C431.618347,104.185928 435.012177,95.952904 439.047913,88.796577 
	C441.494202,84.458786 440.438416,79.894089 437.057068,76.324188 
	C431.366455,70.316299 426.082123,63.617775 419.435089,58.882931 
	C403.765015,47.720798 385.615753,41.954781 366.236694,37.307545 
M497.657745,1102.501221 
	C497.372833,1070.343262 496.900452,1038.185547 496.856873,1006.027283 
	C496.815125,975.206543 497.351471,944.385315 497.349548,913.564270 
	C497.348907,903.625610 500.243927,895.460938 507.921570,888.823425 
	C514.084412,883.495667 519.753357,877.582825 525.468384,871.759766 
	C527.003540,870.195740 527.906616,868.011353 529.099915,866.111755 
	C528.649597,865.734924 528.199341,865.358032 527.749084,864.981201 
	C526.156860,866.003418 524.384827,866.827271 523.002136,868.080627 
	C515.113403,875.231445 507.281036,882.445801 499.499603,889.713501 
	C490.848816,897.793274 487.961090,908.157104 488.298462,919.565857 
	C488.756287,935.047485 490.070862,950.523132 490.012360,965.997559 
	C489.407043,1126.131104 488.584778,1286.263794 487.863098,1446.396973 
	C487.752960,1470.830811 487.847717,1495.265503 487.847717,1519.720093 
	C494.838074,1520.149414 494.760284,1520.148804 494.812378,1513.283081 
	C495.667908,1400.512695 496.561340,1287.742676 497.402618,1174.972168 
	C497.580322,1151.149170 497.584106,1127.324951 497.657745,1102.501221 
M115.404243,1414.499756 
	C115.404243,1441.385620 115.404243,1468.271484 115.404243,1495.293945 
	C120.974297,1494.824341 125.251305,1494.463867 129.352539,1494.118164 
	C129.352539,1363.640381 129.352539,1233.552490 129.352539,1103.445068 
	C127.309853,1103.740479 125.240128,1104.039795 123.561607,1104.282593 
	C123.561607,1231.321289 123.561607,1358.107422 123.561607,1484.893555 
	C123.062202,1484.896240 122.562805,1484.898926 122.063400,1484.901611 
	C122.063400,1358.175537 122.063400,1231.449463 122.063400,1105.416016 
	C118.664528,1103.439331 116.484558,1102.171509 114.792809,1101.187622 
	C114.997116,1205.296265 115.201416,1309.397949 115.404243,1414.499756 
M80.106918,1096.500000 
	C80.173851,1210.951294 80.244255,1325.402466 80.303856,1439.853760 
	C80.312531,1456.513794 79.554077,1473.215210 80.512894,1489.818726 
	C81.109848,1500.156006 79.703003,1509.087402 72.534378,1516.695801 
	C77.626694,1520.406982 81.043610,1520.130371 83.846306,1515.141357 
	C85.757607,1511.739136 87.389252,1507.793823 87.723854,1503.966919 
	C88.590965,1494.050537 89.024742,1484.064575 89.007698,1474.107544 
	C88.909348,1416.635742 88.483406,1359.164307 88.447975,1301.692627 
	C88.398773,1221.891357 88.586189,1142.089844 88.703369,1062.288452 
	C88.716576,1053.293091 89.250565,1044.288452 88.983528,1035.304810 
	C88.456474,1017.573303 80.314598,1007.131104 64.867943,1003.641968 
	C56.666328,1001.789307 49.906075,1004.639709 46.981598,1011.363159 
	C51.994610,1011.777283 56.994343,1011.824829 61.856239,1012.667603 
	C72.168861,1014.455078 79.020935,1019.571960 79.168243,1031.037842 
	C79.444328,1052.525635 79.790382,1074.012695 80.106918,1096.500000 
M337.597107,1027.232422 
	C337.655914,1018.776184 337.817352,1010.318909 337.726593,1001.864258 
	C337.686249,998.102966 335.532257,996.155701 331.638824,996.192871 
	C325.561005,996.250793 319.482269,996.208130 313.110962,996.208130 
	C313.254608,998.638184 313.407562,1001.225647 313.581573,1004.169128 
	C318.823608,1003.869629 319.215057,1006.845093 318.572571,1010.694580 
	C318.218262,1012.817688 318.221222,1015.002991 318.101196,1017.162292 
	C317.596375,1026.245728 317.601624,1026.245972 309.992676,1027.797119 
	C309.992676,1053.478882 309.992676,1079.013916 309.992676,1104.710327 
	C316.125488,1104.710327 321.255920,1104.890991 326.368530,1104.666504 
	C333.380981,1104.358643 334.928925,1102.441040 335.157318,1095.489380 
	C335.894562,1073.048828 336.743317,1050.611938 337.597107,1027.232422 
M381.946320,446.843597 
	C384.573914,446.969666 387.201477,447.095734 390.235413,447.241302 
	C390.463013,443.614105 390.665009,440.395386 390.889923,436.811157 
	C386.203369,437.284485 382.151794,437.693695 377.760345,438.137207 
	C378.134216,436.885895 378.137360,436.489044 378.337372,436.291779 
	C378.682617,435.951233 379.120239,435.661499 379.570862,435.476929 
	C389.260529,431.508514 398.954163,431.474762 408.625763,435.532227 
	C411.992493,436.944641 415.272369,438.582489 418.692291,439.845581 
	C424.021912,441.814056 427.655609,440.728180 430.597168,435.852142 
	C432.181885,433.225220 433.626617,430.103851 433.810577,427.123810 
	C434.249542,420.013306 434.201385,412.836609 433.780060,405.720398 
	C433.433136,399.861023 429.925812,395.973785 424.320557,394.086823 
	C418.282898,392.054199 412.835785,394.120850 407.513245,396.634033 
	C399.956146,400.202332 392.426117,403.423462 383.721893,403.231415 
	C380.031708,403.149963 376.172028,404.383514 372.626038,405.671173 
	C367.688110,407.464264 364.686188,411.123840 364.985138,416.684631 
	C365.243408,421.489288 365.702637,426.286224 366.188049,431.074951 
	C367.103973,440.111053 371.728607,445.690765 381.946320,446.843597 
M251.333359,330.938751 
	C245.137589,351.453033 248.683884,372.434906 247.563461,393.532532 
	C256.090881,393.532532 263.842346,393.428619 271.589233,393.572327 
	C276.092255,393.655853 277.314117,391.242004 277.078644,387.340576 
	C276.387726,375.893158 276.020935,364.414124 274.901855,353.008820 
	C274.175354,345.605194 272.771545,338.199188 270.877106,331.003357 
	C269.631409,326.271698 266.699341,322.110962 260.868744,322.038483 
	C255.426224,321.970795 252.937439,325.483978 251.333359,330.938751 
M418.684998,526.130371 
	C412.003387,524.173828 405.275116,522.360229 398.660095,520.199768 
	C395.403229,519.136108 394.389740,517.123657 395.502502,513.223267 
	C398.325867,503.326660 401.305298,493.318604 402.502319,483.152679 
	C404.074036,469.804443 403.845154,456.252075 404.725983,442.809479 
	C404.974579,439.015656 403.370270,437.697723 400.170532,437.270935 
	C398.564575,437.056732 396.937775,436.998993 395.326111,436.870941 
	C393.847168,466.292267 388.820862,494.786224 380.313873,522.740784 
	C398.879791,530.802612 417.742920,535.731506 437.718384,535.897156 
	C440.540253,535.920532 443.017303,536.095093 443.350647,532.176636 
	C443.713745,527.907959 440.941071,527.654419 437.992462,527.443054 
	C431.853699,527.002991 425.711517,526.610718 418.684998,526.130371 
M399.758362,360.751190 
	C397.745056,353.031708 395.994629,345.230072 393.617432,337.624329 
	C392.245880,333.236115 393.357361,330.948730 397.628937,329.842010 
	C402.769318,328.510193 407.830139,326.687286 413.049561,325.888611 
	C420.444672,324.756989 427.958588,324.417664 435.410583,323.633881 
	C438.122223,323.348663 440.076752,322.195496 440.175446,318.944794 
	C440.276245,315.625031 438.047516,315.152679 435.667114,314.827423 
	C433.696991,314.558258 431.658783,314.197937 429.714905,314.425720 
	C420.131714,315.548584 410.502228,316.484161 401.023010,318.217957 
	C394.091949,319.485718 387.368408,321.887939 380.641144,323.759766 
	C386.259888,348.588501 393.023865,372.124023 393.723022,397.314789 
	C396.965485,396.000488 399.956360,394.788208 404.016510,393.142487 
	C402.614075,382.600037 401.218048,372.105621 399.758362,360.751190 
M343.351685,688.499512 
	C343.351685,696.564026 343.351685,704.628601 343.351685,712.839111 
	C347.359863,712.461121 350.497711,711.851013 353.612244,711.952942 
	C357.309998,712.073853 358.411530,710.686157 358.541718,707.044861 
	C359.052887,692.747620 359.901581,678.462524 360.585876,664.171021 
	C360.630463,663.239868 360.346649,662.293030 360.209991,661.313293 
	C354.539642,660.783569 349.122375,660.277466 343.348694,659.738037 
	C343.348694,669.258484 343.348694,678.378967 343.351685,688.499512 
M283.500000,1009.155273 
	C273.754974,1009.155273 264.009949,1009.155273 254.215683,1009.155273 
	C254.573349,1013.919250 254.904587,1018.331238 255.221481,1022.552124 
	C274.638275,1022.552124 293.802063,1022.552124 313.354645,1022.552124 
	C313.649750,1017.794495 313.912384,1013.560486 314.185547,1009.156616 
	C304.003784,1009.156616 294.251923,1009.156616 283.500000,1009.155273 
M300.398712,1003.841858 
	C303.005188,1003.841858 305.611633,1003.841858 308.527710,1003.841858 
	C308.121582,998.796143 307.754608,994.236938 307.329376,988.954102 
	C292.105194,988.954102 277.264191,988.954102 262.423004,988.954102 
	C262.143219,993.826660 261.862061,998.722961 261.568420,1003.836426 
	C274.188843,1003.836426 286.806458,1003.836426 300.398712,1003.841858 
M513.180298,1271.451660 
	C513.180298,1274.853760 513.180298,1278.255737 513.180298,1282.765625 
	C518.589478,1278.741211 523.247864,1275.361938 527.781555,1271.822754 
	C528.598022,1271.185425 529.363403,1269.894409 529.371582,1268.898804 
	C529.477234,1256.002808 529.441589,1243.105713 529.441589,1228.744629 
	C523.648010,1233.335083 519.333069,1237.125977 514.619568,1240.330688 
	C512.287842,1241.916016 511.833282,1243.494995 511.996826,1246.039062 
	C512.519714,1254.172852 512.805603,1262.321777 513.180298,1271.451660 
M404.005981,1534.539307 
	C404.469574,1527.990723 404.704468,1521.540894 396.041809,1518.222778 
	C396.041809,1543.097534 396.041809,1567.728394 396.041809,1592.522217 
	C397.930573,1592.522217 400.358398,1592.522217 404.007111,1592.522217 
	C404.007111,1573.385742 404.007111,1554.455933 404.005981,1534.539307 
M147.050049,1576.532471 
	C147.552795,1581.466675 148.055542,1586.401001 148.608215,1591.825439 
	C150.928955,1591.578857 152.994385,1591.359375 155.294815,1591.114990 
	C154.674545,1568.018311 154.064667,1545.308350 153.455597,1522.628540 
	C150.495163,1523.617798 147.433212,1524.640869 144.298584,1525.688232 
	C145.203964,1542.412964 146.102692,1559.014893 147.050049,1576.532471 
M278.529114,983.664917 
	C286.908722,983.664917 295.288361,983.664917 303.468201,983.664917 
	C304.278046,976.741028 300.720520,975.764526 295.454315,975.937073 
	C286.381256,976.234314 277.291382,976.019409 267.755341,976.019409 
	C267.567902,978.242676 267.353729,980.782715 267.110565,983.666809 
	C270.946228,983.666809 274.243835,983.666809 278.529114,983.664917 
M125.333488,1077.046265 
	C118.867935,1078.028320 116.148354,1084.347290 119.515228,1090.564941 
	C121.423927,1094.089722 125.042366,1094.379150 127.485443,1091.202271 
	C130.271103,1087.579956 129.591873,1080.734497 125.333488,1077.046265 
M113.737823,1023.642334 
	C113.855797,1025.409546 113.973770,1027.176880 114.091743,1028.944092 
	C114.517471,1029.130981 114.943192,1029.317871 115.368919,1029.504639 
	C116.292252,1027.936157 117.043358,1026.224243 118.192299,1024.843384 
	C119.147293,1023.695557 120.491913,1022.377930 121.811844,1022.193298 
	C122.768364,1022.059570 124.873123,1023.621399 124.906380,1024.487061 
	C125.085091,1029.139648 128.746399,1029.925659 132.303329,1032.146362 
	C131.722458,1026.998291 131.228317,1022.618774 130.658066,1017.564758 
	C125.677246,1018.128052 121.220604,1018.394775 116.887596,1019.272217 
	C115.650566,1019.522705 114.772285,1021.544861 113.737823,1023.642334 
M118.416214,1049.886841 
	C121.048370,1051.495728 123.833397,1052.971436 126.389267,1050.056152 
	C128.791473,1047.316284 128.728149,1044.238037 127.021950,1041.442261 
	C124.956314,1043.024292 123.261261,1045.119385 121.200157,1045.581421 
	C120.087669,1045.830811 118.349068,1043.287354 116.780792,1041.904907 
	C117.129753,1044.164795 117.523308,1046.713379 118.416214,1049.886841 
M95.263596,1056.925537 
	C95.589928,1058.193237 95.916260,1059.460938 96.242592,1060.728638 
	C96.477448,1060.674561 96.712303,1060.620605 96.947159,1060.566528 
	C96.947159,1053.041382 96.947159,1045.516235 96.947159,1037.991089 
	C96.355690,1037.990356 95.764221,1037.989624 95.172752,1037.988892 
	C95.172752,1044.009644 95.172752,1050.030273 95.263596,1056.925537 
z"/>
<path fill="#FEFEFE" opacity="1.000000" stroke="none" 
	d="
M423.897919,1602.251099 
	C423.733948,1600.014893 423.571411,1598.227173 423.434052,1596.716064 
	C428.610291,1594.836548 433.686890,1592.993164 439.712433,1590.805176 
	C439.712433,1595.783203 439.683350,1600.340088 439.716949,1604.896484 
	C440.026367,1646.883301 440.384521,1688.869995 440.539398,1730.857422 
	C440.546326,1732.738525 439.220032,1735.275513 437.697327,1736.408813 
	C425.062225,1745.812744 411.014313,1752.550415 396.241028,1757.927734 
	C354.478577,1773.128784 311.050720,1776.524658 267.260162,1774.392456 
	C225.398483,1772.354248 184.108902,1765.672119 144.685120,1750.521484 
	C137.597107,1747.797607 131.010696,1743.698120 124.392937,1739.886108 
	C123.204277,1739.201538 122.615753,1736.865601 122.393211,1735.205933 
	C119.545341,1713.964722 120.897514,1692.700806 121.495110,1671.374756 
	C122.170189,1647.283569 121.099121,1623.143433 120.789589,1599.024658 
	C120.777512,1598.083252 120.788040,1597.141479 120.788040,1596.238281 
	C121.349037,1596.136597 121.702034,1595.957886 121.975426,1596.041016 
	C124.503929,1596.809570 127.018669,1597.623291 129.410233,1598.383545 
	C128.861374,1606.005005 128.310440,1613.414307 127.810120,1620.827026 
	C127.720688,1622.151978 127.747887,1623.500244 127.878891,1624.822266 
	C129.008408,1636.220947 131.603760,1638.606689 142.904800,1638.545044 
	C148.236557,1638.515869 153.567352,1638.298584 158.899078,1638.275024 
	C171.063004,1638.221436 178.615082,1630.732666 185.540192,1622.050415 
	C188.415588,1618.445435 191.644455,1615.122192 194.073273,1612.390015 
	C197.642899,1613.565063 200.167999,1614.994019 202.770737,1615.153198 
	C216.717987,1616.005981 230.679901,1616.938721 244.645447,1617.102783 
	C270.856598,1617.410767 297.087860,1617.720703 323.281830,1616.990845 
	C335.010956,1616.663940 346.660187,1613.751709 358.374207,1612.232666 
	C359.784241,1612.049805 361.907013,1612.806030 362.790314,1613.876953 
	C367.553162,1619.650269 372.007019,1625.677490 376.610352,1631.583618 
	C380.460236,1636.523071 385.415100,1638.997559 391.810089,1638.479248 
	C400.566681,1637.769409 409.343689,1637.297241 418.088531,1636.474243 
	C419.194092,1636.370361 420.843628,1634.906616 421.069275,1633.827881 
	C422.045868,1629.159058 422.827911,1624.419312 423.224121,1619.667236 
	C423.693939,1614.031860 423.695068,1608.357178 423.897919,1602.251099 
z"/>
<path fill="#F9F9F9" opacity="1.000000" stroke="none" 
	d="
M314.585266,477.676575 
	C309.285065,516.710876 303.066315,555.216431 299.184265,593.956055 
	C296.435059,621.390503 296.820129,649.140686 295.857330,676.751709 
	C295.393311,690.059570 295.008392,703.370544 294.675507,716.682312 
	C294.592468,720.002319 295.182739,723.362549 294.869507,726.647644 
	C294.441101,731.140625 296.754730,733.454590 300.594666,733.814148 
	C305.516937,734.275269 310.611359,734.457703 315.458832,733.681396 
	C319.590271,733.019653 320.661377,729.428650 320.598663,725.250183 
	C320.323608,706.926025 319.577148,688.566956 320.355103,670.278137 
	C321.755768,637.348816 323.468628,604.402710 326.363739,571.579407 
	C327.848755,554.742798 332.160156,538.154663 335.233002,521.461365 
	C335.404388,520.530273 335.930237,519.664551 336.519592,518.200928 
	C336.519592,542.649719 336.409790,566.495728 336.545776,590.340332 
	C336.740601,624.496887 337.137482,658.652222 337.404968,692.808472 
	C337.601990,717.967346 337.830811,743.126892 337.817749,768.285950 
	C337.814484,774.565491 337.117126,780.865723 336.399780,787.117554 
	C335.747742,792.800537 329.923248,798.695312 324.356812,798.673889 
	C300.071198,798.580139 275.775513,798.505188 251.507538,797.698669 
	C241.509964,797.366394 238.601868,793.182251 238.534195,783.134766 
	C237.681427,656.498108 236.892242,529.860962 235.908813,403.225311 
	C235.712189,377.904724 234.731369,352.590759 234.225143,327.271484 
	C234.169357,324.481262 234.841690,321.673492 235.211258,318.878479 
	C235.873718,313.868530 238.916000,311.188141 243.766510,310.606323 
	C248.389145,310.051880 253.058640,309.297913 257.682129,309.442810 
	C277.818176,310.073853 297.945465,310.989502 318.073761,311.851929 
	C319.118439,311.896667 320.143311,312.403992 321.262817,313.791992 
	C319.663330,314.129333 318.067963,314.733276 316.463684,314.757996 
	C309.343506,314.867584 302.206055,315.098541 295.103058,314.734680 
	C287.858612,314.363617 280.660217,313.155334 273.417816,312.666840 
	C265.038452,312.101624 257.066742,313.211395 251.144547,320.157043 
	C245.451965,326.833435 243.474960,335.093262 243.078857,343.343536 
	C242.313202,359.291718 242.593842,375.290070 242.436035,391.267578 
	C242.393829,395.538391 244.675415,397.907837 248.750107,398.117279 
	C257.141541,398.548676 265.548309,398.680542 273.948273,398.950562 
	C274.412140,398.965454 274.871643,399.115936 275.768494,399.285706 
	C274.079437,418.049011 272.836914,436.803467 270.608978,455.440125 
	C267.269043,483.378174 263.491974,511.270660 259.434326,539.114563 
	C254.536453,572.724182 248.532211,606.260437 248.089218,640.283447 
	C247.708023,669.558838 249.115799,698.856995 249.693039,728.145874 
	C249.772568,732.181213 251.818039,734.513428 255.674973,734.755920 
	C260.636810,735.067810 265.644867,735.160095 270.602722,734.854858 
	C274.422943,734.619690 275.898071,731.713257 275.915955,728.188843 
	C275.969879,717.574097 275.523224,706.941528 275.988617,696.347412 
	C277.047516,672.241882 278.544220,648.155640 279.843079,624.060486 
	C280.569000,610.593750 280.539429,597.041077 282.103729,583.673767 
	C285.681244,553.102600 290.209686,522.644043 294.012451,492.097473 
	C297.671570,462.705353 303.485260,433.546783 303.381927,403.732666 
	C303.330597,388.928802 304.929718,374.059021 303.972504,359.336731 
	C303.149506,346.679138 299.757721,334.188385 297.494476,321.625153 
	C297.352325,320.836212 297.146606,320.058746 296.944855,319.162170 
	C303.301880,319.162170 309.432892,319.162170 316.559357,319.162170 
	C317.997070,330.144501 319.338531,340.972656 320.845703,351.777649 
	C323.582458,371.397125 322.523438,391.011078 320.805328,410.612244 
	C318.857605,432.832794 316.720398,455.036743 314.585266,477.676575 
M255.533478,765.925598 
	C256.853638,766.912415 258.063965,768.117676 259.513763,768.846619 
	C264.658905,771.433716 270.668610,770.043945 274.331757,765.589722 
	C278.154022,760.942078 278.230042,752.839111 274.497131,747.976318 
	C271.117157,743.573364 264.717346,741.906250 259.744843,744.133606 
	C252.035339,747.587036 249.965897,756.938843 255.533478,765.925598 
M316.220184,766.164856 
	C321.991943,762.589600 324.277863,757.520386 322.603821,752.008728 
	C320.763733,745.950317 315.797913,742.483948 309.472717,742.842590 
	C303.605835,743.175232 299.303253,747.027771 298.178314,752.955505 
	C296.463226,761.993042 304.956787,768.653992 316.220184,766.164856 
z"/>
<path fill="#FBFBFB" opacity="1.000000" stroke="none" 
	d="
M181.869965,1577.889404 
	C187.427765,1566.833496 195.413345,1560.806152 208.018555,1559.509521 
	C245.431229,1555.660767 282.842407,1555.059448 320.300385,1557.768066 
	C330.880432,1558.533203 341.348267,1560.793335 351.882996,1562.256470 
	C362.954895,1563.794189 369.447296,1570.513916 373.879028,1580.334595 
	C376.099609,1585.255249 379.211426,1589.972046 382.760010,1594.050293 
	C388.539276,1600.691772 396.607666,1598.263062 403.930664,1597.970459 
	C408.048096,1597.805908 412.133301,1596.834839 416.565918,1596.177979 
	C416.968964,1597.143433 417.839874,1598.205811 417.756714,1599.187500 
	C416.877960,1609.559692 415.930145,1619.928711 414.722351,1630.266113 
	C414.608856,1631.237671 412.647736,1632.628418 411.450989,1632.730469 
	C405.648560,1633.226074 399.798889,1633.165771 393.995880,1633.656738 
	C388.780609,1634.097900 384.972382,1632.038574 381.959412,1628.031860 
	C377.559021,1622.180054 372.850677,1616.528809 368.858307,1610.410400 
	C365.169525,1604.757080 359.983887,1601.581909 353.743591,1600.877563 
	C336.065094,1598.882080 318.352570,1596.669434 300.598053,1595.990967 
	C276.019104,1595.051636 251.389771,1595.316284 226.781738,1595.288574 
	C207.403641,1595.266724 191.548279,1602.658936 179.990311,1618.539551 
	C173.297119,1627.736084 164.808289,1633.211060 152.881516,1632.098267 
	C149.423477,1631.775513 145.861877,1631.969727 142.403778,1632.389038 
	C138.027481,1632.919800 135.399994,1631.220459 135.442352,1626.919312 
	C135.525497,1618.472046 135.920837,1610.016113 136.634247,1601.601807 
	C136.725174,1600.529175 139.400940,1599.110596 141.038132,1598.849731 
	C144.634476,1598.276855 148.332993,1598.169800 151.989059,1598.178223 
	C166.423325,1598.211670 176.420578,1591.755615 181.869965,1577.889404 
z"/>
<path fill="#F2F2F2" opacity="1.000000" stroke="none" 
	d="
M435.404175,1474.999756 
	C435.456573,1369.538574 435.589874,1264.577393 435.527679,1159.616211 
	C435.482483,1083.312134 435.116608,1007.008301 435.067841,930.704163 
	C435.061615,920.959595 434.339325,910.671326 437.121674,901.609131 
	C440.476746,890.681641 447.172943,880.769592 452.583282,870.502502 
	C453.034058,869.647095 454.751465,868.916992 455.800842,869.011536 
	C460.734894,869.455994 465.641113,870.208923 471.253510,870.942749 
	C469.873291,873.130981 468.850159,874.753052 467.763306,876.476196 
	C465.168823,876.126892 462.641815,875.786743 461.308136,875.607178 
	C458.462921,878.084961 455.973450,879.763733 454.144958,881.986206 
	C452.403137,884.103333 450.661194,886.642334 450.111389,889.247559 
	C447.240479,902.850159 444.570831,916.502014 442.190460,930.199097 
	C440.665436,938.974365 443.324646,943.261719 450.476227,946.576477 
	C451.648590,1137.473999 452.817688,1327.831665 453.987762,1518.351807 
	C447.764343,1518.351807 441.891968,1518.351807 435.401306,1518.351807 
	C435.401306,1503.691406 435.401306,1489.595581 435.404175,1474.999756 
M442.166840,1135.500000 
	C442.475189,1247.654419 442.783569,1359.808960 443.091949,1471.963379 
	C443.417114,1471.960693 443.742310,1471.958008 444.067474,1471.955322 
	C444.067474,1297.423950 444.067474,1122.892700 444.067474,948.361328 
	C443.434082,948.359985 442.800720,948.358704 442.167328,948.357361 
	C442.167328,1010.404907 442.167328,1072.452515 442.166840,1135.500000 
z"/>
<path fill="#FBFBFB" opacity="1.000000" stroke="none" 
	d="
M220.746811,49.919495 
	C240.759140,48.565186 260.335785,46.323681 279.922424,46.232700 
	C301.515869,46.132404 323.195862,47.193569 344.696381,49.238934 
	C368.272003,51.481705 390.449585,59.479565 411.388824,70.413551 
	C416.218811,72.935654 420.006409,77.633018 423.926392,81.666885 
	C427.582123,85.428787 425.073364,89.187645 422.759460,92.404396 
	C421.240295,94.516350 419.085693,96.299088 416.912201,97.785492 
	C412.572937,100.752991 408.698120,101.674309 402.819550,99.367981 
	C384.404907,92.143394 365.427338,86.349098 345.462982,84.937332 
	C340.171143,84.563133 334.854248,84.494667 329.577271,83.989380 
	C328.099640,83.847900 326.584076,82.838425 325.321045,81.907944 
	C303.310150,65.692696 272.712616,64.843399 249.749573,79.693985 
	C247.946136,80.860306 245.419632,81.492371 243.256256,81.430244 
	C213.947372,80.588593 185.678711,86.294258 157.896835,94.926979 
	C154.860260,95.870537 152.264404,98.232323 148.444183,100.556969 
	C142.151855,97.839149 134.944290,93.837273 130.287537,86.091248 
	C128.452347,83.038582 129.155777,80.827988 131.308395,79.147728 
	C135.474594,75.895737 139.702881,72.469078 144.435303,70.239487 
	C168.474426,58.913921 194.133850,53.414265 220.746811,49.919495 
z"/>
<path fill="#FCFCFC" opacity="1.000000" stroke="none" 
	d="
M128.025711,168.934540 
	C118.722656,166.679871 117.715004,160.432816 117.802101,152.341537 
	C117.952370,138.381897 116.858200,124.409119 116.302010,110.441223 
	C116.244606,108.999680 116.294319,107.553879 116.294319,105.180557 
	C133.283905,122.435219 152.960938,133.481674 175.391144,138.940903 
	C197.336151,144.282013 219.455490,149.487793 242.961151,146.815033 
	C242.961151,164.109085 242.961151,181.346329 242.961151,199.168518 
	C202.668320,197.583481 163.609756,190.757385 128.025711,168.934540 
z"/>
<path fill="#FCFCFC" opacity="1.000000" stroke="none" 
	d="
M420.523438,174.543930 
	C390.349426,184.815994 360.526245,194.900436 327.567444,196.065964 
	C327.567444,177.806366 327.567444,159.407669 327.567444,140.395203 
	C346.849426,142.890823 365.908051,137.235687 384.852936,131.853867 
	C403.787354,126.475029 423.069122,121.266312 437.467529,104.809082 
	C437.467529,116.909561 437.583160,128.008484 437.429626,139.103668 
	C437.314392,147.432983 436.688293,155.756271 436.625427,164.084778 
	C436.599426,167.528671 435.250397,169.167740 432.094543,170.149780 
	C428.286163,171.334915 424.612946,172.954376 420.523438,174.543930 
z"/>
<path fill="#F7F7F7" opacity="1.000000" stroke="none" 
	d="
M320.604858,191.002380 
	C320.617096,197.827591 320.426025,204.165695 320.767914,210.474915 
	C320.938660,213.625641 319.699463,215.154160 316.990479,215.930557 
	C315.716003,216.295853 314.392059,216.633377 313.077515,216.692200 
	C296.142151,217.449951 279.209198,218.325806 262.265228,218.799332 
	C254.169586,219.025589 251.967224,216.103882 252.027557,208.979538 
	C252.269958,180.356628 252.046280,151.729752 251.995468,123.104347 
	C251.992508,121.439232 252.256790,119.724297 251.951233,118.117249 
	C250.266876,109.258652 253.246063,109.703560 259.816132,109.546722 
	C276.613251,109.145737 293.422241,109.112778 310.225769,109.166580 
	C318.285095,109.192390 318.215088,109.822601 318.143097,117.655960 
	C318.036102,129.300995 318.504486,140.955994 318.920776,152.599869 
	C319.372620,165.238480 320.045288,177.869171 320.604858,191.002380 
M308.675659,170.532333 
	C309.759552,169.511795 311.008118,168.616714 311.898010,167.448425 
	C315.245422,163.053848 315.470245,156.939224 312.441498,152.492065 
	C309.879456,148.730194 306.247833,146.877045 301.714630,147.720856 
	C294.331390,149.095200 289.594391,156.929001 291.638977,164.017899 
	C293.690155,171.129578 300.142670,173.861923 308.675659,170.532333 
M258.017944,162.316010 
	C258.515137,167.689072 261.155212,171.328995 266.542633,172.609787 
	C271.446838,173.775696 275.432617,172.115509 278.334625,168.133652 
	C281.552704,163.718140 282.040100,158.906723 279.266418,154.100891 
	C276.894318,149.990891 273.195923,147.906494 268.413300,148.704376 
	C262.317688,149.721329 258.626648,154.436401 258.017944,162.316010 
M295.697906,199.727463 
	C296.782166,200.478455 297.783722,201.411057 298.964996,201.949020 
	C304.073822,204.275650 309.872009,202.308075 312.718842,197.392914 
	C315.836548,192.010178 314.674377,184.994125 310.100159,181.583572 
	C305.794891,178.373611 299.904968,179.310562 295.823151,183.854721 
	C292.248901,187.833771 292.031036,193.160172 295.697906,199.727463 
M260.374023,188.023682 
	C258.737152,192.649780 259.084290,197.408554 262.959778,200.255646 
	C265.513123,202.131439 269.728882,202.949142 272.929779,202.462280 
	C278.003204,201.690598 281.153259,196.205261 280.921539,190.788177 
	C280.706116,185.752182 277.551971,181.617783 273.069092,180.495377 
	C268.229950,179.283783 264.175598,181.506409 260.374023,188.023682 
z"/>
<path fill="#F1F1F1" opacity="1.000000" stroke="none" 
	d="
M366.642365,37.420631 
	C385.615753,41.954781 403.765015,47.720798 419.435089,58.882931 
	C426.082123,63.617775 431.366455,70.316299 437.057068,76.324188 
	C440.438416,79.894089 441.494202,84.458786 439.047913,88.796577 
	C435.012177,95.952904 431.618347,104.185928 425.679779,109.349701 
	C419.957550,114.325333 411.369659,116.023506 404.015106,119.100227 
	C382.176086,128.236450 358.973389,130.604095 335.739075,132.813538 
	C333.088135,133.065628 330.450897,133.459763 327.803711,133.755920 
	C327.497864,133.790146 327.168854,133.617096 326.512268,133.458344 
	C326.512268,130.967819 326.512268,128.388702 326.512268,125.771553 
	C345.893463,125.866348 364.560272,121.243233 383.192780,116.528267 
	C392.539459,114.163094 401.871887,111.673431 411.055969,108.753288 
	C419.827271,105.964401 427.116119,101.078598 431.675812,92.572441 
	C434.879395,86.596107 433.616882,81.192604 430.259918,76.167343 
	C425.844696,69.557808 419.914001,64.594513 412.527069,61.281128 
	C391.447968,51.826073 369.530487,45.091095 346.744751,41.532337 
	C336.426910,39.920864 325.887665,39.071159 315.445557,39.041664 
	C289.975891,38.969723 264.455444,38.705437 239.045761,40.130062 
	C206.081024,41.978264 174.267914,50.026783 143.674042,62.447578 
	C138.388977,64.593254 133.515640,68.141121 129.016678,71.745895 
	C121.905319,77.443855 120.974014,84.630875 126.695610,91.768837 
	C129.933365,95.808083 134.090042,99.574440 138.609131,102.041954 
	C157.302765,112.249008 177.725388,117.831078 198.237747,122.987885 
	C212.968460,126.691185 227.911728,128.846481 243.829605,128.148331 
	C243.570953,132.223740 243.313004,136.288132 243.061783,140.246414 
	C221.515259,140.900986 200.529099,138.593231 179.922424,133.656464 
	C157.375549,128.254852 136.653061,119.296661 121.478127,100.593971 
	C113.615356,90.903320 116.206932,74.967308 125.671028,66.786469 
	C147.054108,48.302773 172.998764,41.403419 199.684631,36.876251 
	C237.906067,30.392109 276.574921,28.863266 315.242004,30.793640 
	C332.306091,31.645529 349.242371,35.057716 366.642365,37.420631 
z"/>
<path fill="#ECECEC" opacity="1.000000" stroke="none" 
	d="
M497.662903,1103.001221 
	C497.584106,1127.324951 497.580322,1151.149170 497.402618,1174.972168 
	C496.561340,1287.742676 495.667908,1400.512695 494.812378,1513.283081 
	C494.760284,1520.148804 494.838074,1520.149414 487.847717,1519.720093 
	C487.847717,1495.265503 487.752960,1470.830811 487.863098,1446.396973 
	C488.584778,1286.263794 489.407043,1126.131104 490.012360,965.997559 
	C490.070862,950.523132 488.756287,935.047485 488.298462,919.565857 
	C487.961090,908.157104 490.848816,897.793274 499.499603,889.713501 
	C507.281036,882.445801 515.113403,875.231445 523.002136,868.080627 
	C524.384827,866.827271 526.156860,866.003418 527.749084,864.981201 
	C528.199341,865.358032 528.649597,865.734924 529.099915,866.111755 
	C527.906616,868.011353 527.003540,870.195740 525.468384,871.759766 
	C519.753357,877.582825 514.084412,883.495667 507.921570,888.823425 
	C500.243927,895.460938 497.348907,903.625610 497.349548,913.564270 
	C497.351471,944.385315 496.815125,975.206543 496.856873,1006.027283 
	C496.900452,1038.185547 497.372833,1070.343262 497.662903,1103.001221 
z"/>
<path fill="#F0F0F0" opacity="1.000000" stroke="none" 
	d="
M115.404984,1413.999756 
	C115.201416,1309.397949 114.997116,1205.296265 114.792809,1101.187622 
	C116.484558,1102.171509 118.664528,1103.439331 122.063400,1105.416016 
	C122.063400,1231.449463 122.063400,1358.175537 122.063400,1484.901611 
	C122.562805,1484.898926 123.062202,1484.896240 123.561607,1484.893555 
	C123.561607,1358.107422 123.561607,1231.321289 123.561607,1104.282593 
	C125.240128,1104.039795 127.309853,1103.740479 129.352539,1103.445068 
	C129.352539,1233.552490 129.352539,1363.640381 129.352539,1494.118164 
	C125.251305,1494.463867 120.974297,1494.824341 115.404243,1495.293945 
	C115.404243,1468.271484 115.404243,1441.385620 115.404984,1413.999756 
z"/>
<path fill="#F0F0F0" opacity="1.000000" stroke="none" 
	d="
M80.107117,1096.000000 
	C79.790382,1074.012695 79.444328,1052.525635 79.168243,1031.037842 
	C79.020935,1019.571960 72.168861,1014.455078 61.856239,1012.667603 
	C56.994343,1011.824829 51.994610,1011.777283 46.981598,1011.363159 
	C49.906075,1004.639709 56.666328,1001.789307 64.867943,1003.641968 
	C80.314598,1007.131104 88.456474,1017.573303 88.983528,1035.304810 
	C89.250565,1044.288452 88.716576,1053.293091 88.703369,1062.288452 
	C88.586189,1142.089844 88.398773,1221.891357 88.447975,1301.692627 
	C88.483406,1359.164307 88.909348,1416.635742 89.007698,1474.107544 
	C89.024742,1484.064575 88.590965,1494.050537 87.723854,1503.966919 
	C87.389252,1507.793823 85.757607,1511.739136 83.846306,1515.141357 
	C81.043610,1520.130371 77.626694,1520.406982 72.534378,1516.695801 
	C79.703003,1509.087402 81.109848,1500.156006 80.512894,1489.818726 
	C79.554077,1473.215210 80.312531,1456.513794 80.303856,1439.853760 
	C80.244255,1325.402466 80.173851,1210.951294 80.107117,1096.000000 
z"/>
<path fill="#F9F9F9" opacity="1.000000" stroke="none" 
	d="
M337.573120,1027.703125 
	C336.743317,1050.611938 335.894562,1073.048828 335.157318,1095.489380 
	C334.928925,1102.441040 333.380981,1104.358643 326.368530,1104.666504 
	C321.255920,1104.890991 316.125488,1104.710327 309.992676,1104.710327 
	C309.992676,1079.013916 309.992676,1053.478882 309.992676,1027.797119 
	C317.601624,1026.245972 317.596375,1026.245728 318.101196,1017.162292 
	C318.221222,1015.002991 318.218262,1012.817688 318.572571,1010.694580 
	C319.215057,1006.845093 318.823608,1003.869629 313.581573,1004.169128 
	C313.407562,1001.225647 313.254608,998.638184 313.110962,996.208130 
	C319.482269,996.208130 325.561005,996.250793 331.638824,996.192871 
	C335.532257,996.155701 337.686249,998.102966 337.726593,1001.864258 
	C337.817352,1010.318909 337.655914,1018.776184 337.573120,1027.703125 
z"/>
<path fill="#FBFBFB" opacity="1.000000" stroke="none" 
	d="
M264.756561,1105.880737 
	C258.603882,1105.914185 252.444672,1106.135010 246.300552,1105.921753 
	C241.368210,1105.750610 238.110367,1103.193726 237.746490,1097.963379 
	C236.904648,1085.862671 235.762115,1073.765015 235.465027,1061.648438 
	C235.024460,1043.681885 235.083527,1025.699219 235.186600,1007.724792 
	C235.233200,999.601013 236.365814,998.637451 244.245712,997.879578 
	C248.195419,997.499634 252.161697,997.291748 256.456573,996.981812 
	C256.710663,999.267029 256.925323,1001.197815 257.184998,1003.533325 
	C251.274475,1003.647461 251.164078,1007.918701 251.036758,1012.167053 
	C250.991852,1013.665161 250.936508,1015.166199 250.980408,1016.663147 
	C251.317474,1028.157227 248.602921,1027.235352 262.405334,1028.535278 
	C263.501892,1054.640991 264.129242,1080.260864 264.756561,1105.880737 
z"/>
<path fill="#FBFBFB" opacity="1.000000" stroke="none" 
	d="
M381.511871,446.796326 
	C371.728607,445.690765 367.103973,440.111053 366.188049,431.074951 
	C365.702637,426.286224 365.243408,421.489288 364.985138,416.684631 
	C364.686188,411.123840 367.688110,407.464264 372.626038,405.671173 
	C376.172028,404.383514 380.031708,403.149963 383.721893,403.231415 
	C392.426117,403.423462 399.956146,400.202332 407.513245,396.634033 
	C412.835785,394.120850 418.282898,392.054199 424.320557,394.086823 
	C429.925812,395.973785 433.433136,399.861023 433.780060,405.720398 
	C434.201385,412.836609 434.249542,420.013306 433.810577,427.123810 
	C433.626617,430.103851 432.181885,433.225220 430.597168,435.852142 
	C427.655609,440.728180 424.021912,441.814056 418.692291,439.845581 
	C415.272369,438.582489 411.992493,436.944641 408.625763,435.532227 
	C398.954163,431.474762 389.260529,431.508514 379.570862,435.476929 
	C379.120239,435.661499 378.682617,435.951233 378.337372,436.291779 
	C378.137360,436.489044 378.134216,436.885895 377.760345,438.137207 
	C382.151794,437.693695 386.203369,437.284485 390.889923,436.811157 
	C390.665009,440.395386 390.463013,443.614105 390.235413,447.241302 
	C387.201477,447.095734 384.573914,446.969666 381.511871,446.796326 
z"/>
<path fill="#F7F7F7" opacity="1.000000" stroke="none" 
	d="
M265.184998,1028.089111 
	C278.789612,1028.089111 292.394226,1028.089111 307.006958,1028.089111 
	C307.006958,1053.310059 307.006958,1078.709473 307.006958,1105.568115 
	C294.543182,1105.568115 281.161346,1105.568115 267.348328,1105.071655 
	C266.873169,1102.590454 266.830078,1100.605713 266.785065,1098.620972 
	C266.251892,1075.110352 265.718414,1051.599731 265.184998,1028.089111 
M298.041046,1092.283936 
	C298.590088,1090.726929 299.328857,1089.208740 299.655640,1087.606445 
	C301.150055,1080.279053 294.048340,1073.632202 286.869049,1075.559814 
	C281.540253,1076.990601 277.816772,1081.525269 277.603760,1087.125488 
	C277.424286,1091.844727 279.278534,1095.605469 283.702789,1097.605713 
	C288.359589,1099.711182 293.473053,1097.894897 298.041046,1092.283936 
M290.407898,1052.373657 
	C292.200165,1049.907471 294.786957,1047.676636 295.603638,1044.921265 
	C296.920349,1040.478882 295.048950,1036.354492 291.449310,1033.395386 
	C288.390839,1030.881348 284.809906,1030.235474 281.230621,1032.262085 
	C277.400085,1034.430908 275.776825,1037.987427 276.006409,1042.303955 
	C276.401123,1049.724243 281.532227,1053.598999 290.407898,1052.373657 
z"/>
<path fill="#FBFBFB" opacity="1.000000" stroke="none" 
	d="
M251.496490,330.585510 
	C252.937439,325.483978 255.426224,321.970795 260.868744,322.038483 
	C266.699341,322.110962 269.631409,326.271698 270.877106,331.003357 
	C272.771545,338.199188 274.175354,345.605194 274.901855,353.008820 
	C276.020935,364.414124 276.387726,375.893158 277.078644,387.340576 
	C277.314117,391.242004 276.092255,393.655853 271.589233,393.572327 
	C263.842346,393.428619 256.090881,393.532532 247.563461,393.532532 
	C248.683884,372.434906 245.137589,351.453033 251.496490,330.585510 
z"/>
<path fill="#F3F3F3" opacity="1.000000" stroke="none" 
	d="
M419.127869,526.164612 
	C425.711517,526.610718 431.853699,527.002991 437.992462,527.443054 
	C440.941071,527.654419 443.713745,527.907959 443.350647,532.176636 
	C443.017303,536.095093 440.540253,535.920532 437.718384,535.897156 
	C417.742920,535.731506 398.879791,530.802612 380.313873,522.740784 
	C388.820862,494.786224 393.847168,466.292267 395.326111,436.870941 
	C396.937775,436.998993 398.564575,437.056732 400.170532,437.270935 
	C403.370270,437.697723 404.974579,439.015656 404.725983,442.809479 
	C403.845154,456.252075 404.074036,469.804443 402.502319,483.152679 
	C401.305298,493.318604 398.325867,503.326660 395.502502,513.223267 
	C394.389740,517.123657 395.403229,519.136108 398.660095,520.199768 
	C405.275116,522.360229 412.003387,524.173828 419.127869,526.164612 
z"/>
<path fill="#F3F3F3" opacity="1.000000" stroke="none" 
	d="
M399.790192,361.181213 
	C401.218048,372.105621 402.614075,382.600037 404.016510,393.142487 
	C399.956360,394.788208 396.965485,396.000488 393.723022,397.314789 
	C393.023865,372.124023 386.259888,348.588501 380.641144,323.759766 
	C387.368408,321.887939 394.091949,319.485718 401.023010,318.217957 
	C410.502228,316.484161 420.131714,315.548584 429.714905,314.425720 
	C431.658783,314.197937 433.696991,314.558258 435.667114,314.827423 
	C438.047516,315.152679 440.276245,315.625031 440.175446,318.944794 
	C440.076752,322.195496 438.122223,323.348663 435.410583,323.633881 
	C427.958588,324.417664 420.444672,324.756989 413.049561,325.888611 
	C407.830139,326.687286 402.769318,328.510193 397.628937,329.842010 
	C393.357361,330.948730 392.245880,333.236115 393.617432,337.624329 
	C395.994629,345.230072 397.745056,353.031708 399.790192,361.181213 
z"/>
<path fill="#F3F3F3" opacity="1.000000" stroke="none" 
	d="
M343.350189,687.999512 
	C343.348694,678.378967 343.348694,669.258484 343.348694,659.738037 
	C349.122375,660.277466 354.539642,660.783569 360.209991,661.313293 
	C360.346649,662.293030 360.630463,663.239868 360.585876,664.171021 
	C359.901581,678.462524 359.052887,692.747620 358.541718,707.044861 
	C358.411530,710.686157 357.309998,712.073853 353.612244,711.952942 
	C350.497711,711.851013 347.359863,712.461121 343.351685,712.839111 
	C343.351685,704.628601 343.351685,696.564026 343.350189,687.999512 
z"/>
<path fill="#F2F2F2" opacity="1.000000" stroke="none" 
	d="
M284.000000,1009.155945 
	C294.251923,1009.156616 304.003784,1009.156616 314.185547,1009.156616 
	C313.912384,1013.560486 313.649750,1017.794495 313.354645,1022.552124 
	C293.802063,1022.552124 274.638275,1022.552124 255.221481,1022.552124 
	C254.904587,1018.331238 254.573349,1013.919250 254.215683,1009.155273 
	C264.009949,1009.155273 273.754974,1009.155273 284.000000,1009.155945 
z"/>
<path fill="#F3F3F3" opacity="1.000000" stroke="none" 
	d="
M299.911377,1003.839111 
	C286.806458,1003.836426 274.188843,1003.836426 261.568420,1003.836426 
	C261.862061,998.722961 262.143219,993.826660 262.423004,988.954102 
	C277.264191,988.954102 292.105194,988.954102 307.329376,988.954102 
	C307.754608,994.236938 308.121582,998.796143 308.527710,1003.841858 
	C305.611633,1003.841858 303.005188,1003.841858 299.911377,1003.839111 
z"/>
<path fill="#F5F5F5" opacity="1.000000" stroke="none" 
	d="
M513.181641,1270.958252 
	C512.805603,1262.321777 512.519714,1254.172852 511.996826,1246.039062 
	C511.833282,1243.494995 512.287842,1241.916016 514.619568,1240.330688 
	C519.333069,1237.125977 523.648010,1233.335083 529.441589,1228.744629 
	C529.441589,1243.105713 529.477234,1256.002808 529.371582,1268.898804 
	C529.363403,1269.894409 528.598022,1271.185425 527.781555,1271.822754 
	C523.247864,1275.361938 518.589478,1278.741211 513.180298,1282.765625 
	C513.180298,1278.255737 513.180298,1274.853760 513.181641,1270.958252 
z"/>
<path fill="#ECECEC" opacity="1.000000" stroke="none" 
	d="
M404.006531,1535.032715 
	C404.007111,1554.455933 404.007111,1573.385742 404.007111,1592.522217 
	C400.358398,1592.522217 397.930573,1592.522217 396.041809,1592.522217 
	C396.041809,1567.728394 396.041809,1543.097534 396.041809,1518.222778 
	C404.704468,1521.540894 404.469574,1527.990723 404.006531,1535.032715 
z"/>
<path fill="#F0F0F0" opacity="1.000000" stroke="none" 
	d="
M147.025742,1576.074707 
	C146.102692,1559.014893 145.203964,1542.412964 144.298584,1525.688232 
	C147.433212,1524.640869 150.495163,1523.617798 153.455597,1522.628540 
	C154.064667,1545.308350 154.674545,1568.018311 155.294815,1591.114990 
	C152.994385,1591.359375 150.928955,1591.578857 148.608215,1591.825439 
	C148.055542,1586.401001 147.552795,1581.466675 147.025742,1576.074707 
z"/>
<path fill="#E9E9E9" opacity="1.000000" stroke="none" 
	d="
M278.035278,983.665894 
	C274.243835,983.666809 270.946228,983.666809 267.110565,983.666809 
	C267.353729,980.782715 267.567902,978.242676 267.755341,976.019409 
	C277.291382,976.019409 286.381256,976.234314 295.454315,975.937073 
	C300.720520,975.764526 304.278046,976.741028 303.468201,983.664917 
	C295.288361,983.664917 286.908722,983.664917 278.035278,983.665894 
z"/>
<path fill="#202020" opacity="1.000000" stroke="none" 
	d="
M264.786438,1028.061768 
	C265.718414,1051.599731 266.251892,1075.110352 266.785065,1098.620972 
	C266.830078,1100.605713 266.873169,1102.590454 266.866821,1105.072266 
	C266.308990,1105.719727 265.801483,1105.870117 265.025269,1105.950684 
	C264.129242,1080.260864 263.501892,1054.640991 262.833191,1028.560425 
	C263.323822,1028.078003 263.855865,1028.056274 264.786438,1028.061768 
z"/>
<path fill="#F5F5F5" opacity="1.000000" stroke="none" 
	d="
M125.717270,1077.147949 
	C129.591873,1080.734497 130.271103,1087.579956 127.485443,1091.202271 
	C125.042366,1094.379150 121.423927,1094.089722 119.515228,1090.564941 
	C116.148354,1084.347290 118.867935,1078.028320 125.717270,1077.147949 
z"/>
<path fill="#F0F0F0" opacity="1.000000" stroke="none" 
	d="
M113.733658,1023.198486 
	C114.772285,1021.544861 115.650566,1019.522705 116.887596,1019.272217 
	C121.220604,1018.394775 125.677246,1018.128052 130.658066,1017.564758 
	C131.228317,1022.618774 131.722458,1026.998291 132.303329,1032.146362 
	C128.746399,1029.925659 125.085091,1029.139648 124.906380,1024.487061 
	C124.873123,1023.621399 122.768364,1022.059570 121.811844,1022.193298 
	C120.491913,1022.377930 119.147293,1023.695557 118.192299,1024.843384 
	C117.043358,1026.224243 116.292252,1027.936157 115.368919,1029.504639 
	C114.943192,1029.317871 114.517471,1029.130981 114.091743,1028.944092 
	C113.973770,1027.176880 113.855797,1025.409546 113.733658,1023.198486 
z"/>
<path fill="#E9E9E9" opacity="1.000000" stroke="none" 
	d="
M118.166534,1049.574463 
	C117.523308,1046.713379 117.129753,1044.164795 116.780792,1041.904907 
	C118.349068,1043.287354 120.087669,1045.830811 121.200157,1045.581421 
	C123.261261,1045.119385 124.956314,1043.024292 127.021950,1041.442261 
	C128.728149,1044.238037 128.791473,1047.316284 126.389267,1050.056152 
	C123.833397,1052.971436 121.048370,1051.495728 118.166534,1049.574463 
z"/>
<path fill="#E9E9E9" opacity="1.000000" stroke="none" 
	d="
M95.218170,1056.488281 
	C95.172752,1050.030273 95.172752,1044.009644 95.172752,1037.988892 
	C95.764221,1037.989624 96.355690,1037.990356 96.947159,1037.991089 
	C96.947159,1045.516235 96.947159,1053.041382 96.947159,1060.566528 
	C96.712303,1060.620605 96.477448,1060.674561 96.242592,1060.728638 
	C95.916260,1059.460938 95.589928,1058.193237 95.218170,1056.488281 
z"/>
<path fill="#070707" opacity="1.000000" stroke="none" 
	d="
M255.292343,765.635010 
	C249.965897,756.938843 252.035339,747.587036 259.744843,744.133606 
	C264.717346,741.906250 271.117157,743.573364 274.497131,747.976318 
	C278.230042,752.839111 278.154022,760.942078 274.331757,765.589722 
	C270.668610,770.043945 264.658905,771.433716 259.513763,768.846619 
	C258.063965,768.117676 256.853638,766.912415 255.292343,765.635010 
z"/>
<path fill="#070707" opacity="1.000000" stroke="none" 
	d="
M315.859802,766.352051 
	C304.956787,768.653992 296.463226,761.993042 298.178314,752.955505 
	C299.303253,747.027771 303.605835,743.175232 309.472717,742.842590 
	C315.797913,742.483948 320.763733,745.950317 322.603821,752.008728 
	C324.277863,757.520386 321.991943,762.589600 315.859802,766.352051 
z"/>
<path fill="#202020" opacity="1.000000" stroke="none" 
	d="
M442.167084,1135.000000 
	C442.167328,1072.452515 442.167328,1010.404907 442.167328,948.357361 
	C442.800720,948.358704 443.434082,948.359985 444.067474,948.361328 
	C444.067474,1122.892700 444.067474,1297.423950 444.067474,1471.955322 
	C443.742310,1471.958008 443.417114,1471.960693 443.091949,1471.963379 
	C442.783569,1359.808960 442.475189,1247.654419 442.167084,1135.000000 
z"/>
<path fill="#0B0B0B" opacity="1.000000" stroke="none" 
	d="
M308.341125,170.740585 
	C300.142670,173.861923 293.690155,171.129578 291.638977,164.017899 
	C289.594391,156.929001 294.331390,149.095200 301.714630,147.720856 
	C306.247833,146.877045 309.879456,148.730194 312.441498,152.492065 
	C315.470245,156.939224 315.245422,163.053848 311.898010,167.448425 
	C311.008118,168.616714 309.759552,169.511795 308.341125,170.740585 
z"/>
<path fill="#0B0B0B" opacity="1.000000" stroke="none" 
	d="
M258.011719,161.899017 
	C258.626648,154.436401 262.317688,149.721329 268.413300,148.704376 
	C273.195923,147.906494 276.894318,149.990891 279.266418,154.100891 
	C282.040100,158.906723 281.552704,163.718140 278.334625,168.133652 
	C275.432617,172.115509 271.446838,173.775696 266.542633,172.609787 
	C261.155212,171.328995 258.515137,167.689072 258.011719,161.899017 
z"/>
<path fill="#0B0B0B" opacity="1.000000" stroke="none" 
	d="
M295.447937,199.432724 
	C292.031036,193.160172 292.248901,187.833771 295.823151,183.854721 
	C299.904968,179.310562 305.794891,178.373611 310.100159,181.583572 
	C314.674377,184.994125 315.836548,192.010178 312.718842,197.392914 
	C309.872009,202.308075 304.073822,204.275650 298.964996,201.949020 
	C297.783722,201.411057 296.782166,200.478455 295.447937,199.432724 
z"/>
<path fill="#0F0F0F" opacity="1.000000" stroke="none" 
	d="
M260.501892,187.669205 
	C264.175598,181.506409 268.229950,179.283783 273.069092,180.495377 
	C277.551971,181.617783 280.706116,185.752182 280.921539,190.788177 
	C281.153259,196.205261 278.003204,201.690598 272.929779,202.462280 
	C269.728882,202.949142 265.513123,202.131439 262.959778,200.255646 
	C259.084290,197.408554 258.737152,192.649780 260.501892,187.669205 
z"/>
<path fill="#070707" opacity="1.000000" stroke="none" 
	d="
M297.851776,1092.618164 
	C293.473053,1097.894897 288.359589,1099.711182 283.702789,1097.605713 
	C279.278534,1095.605469 277.424286,1091.844727 277.603760,1087.125488 
	C277.816772,1081.525269 281.540253,1076.990601 286.869049,1075.559814 
	C294.048340,1073.632202 301.150055,1080.279053 299.655640,1087.606445 
	C299.328857,1089.208740 298.590088,1090.726929 297.851776,1092.618164 
z"/>
<path fill="#0B0B0B" opacity="1.000000" stroke="none" 
	d="
M290.065155,1052.585205 
	C281.532227,1053.598999 276.401123,1049.724243 276.006409,1042.303955 
	C275.776825,1037.987427 277.400085,1034.430908 281.230621,1032.262085 
	C284.809906,1030.235474 288.390839,1030.881348 291.449310,1033.395386 
	C295.048950,1036.354492 296.920349,1040.478882 295.603638,1044.921265 
	C294.786957,1047.676636 292.200165,1049.907471 290.065155,1052.585205 
z"/>
</svg>