<svg version="1.1" id="Layer_1" xmlns="http://www.w3.org/2000/svg" xmlns:xlink="http://www.w3.org/1999/xlink" x="0px" y="0px"
	 width="100%" viewBox="0 0 424 1823" enable-background="new 0 0 424 1823" xml:space="preserve">
<path fill="#F2EEED" opacity="1.000000" stroke="none" 
	d="
M425.000000,501.000000 
	C425.000000,942.333313 425.000000,1383.166626 425.000000,1824.000000 
	C283.666656,1824.000000 142.333328,1824.000000 1.000000,1824.000000 
	C1.000000,1216.333374 1.000000,608.666687 1.000000,1.000000 
	C142.333328,1.000000 283.666656,1.000000 425.000000,1.000000 
	C425.000000,167.500000 425.000000,334.000000 425.000000,501.000000 
M40.999340,1506.500000 
	C41.089809,1529.996948 40.991894,1553.496948 41.372158,1576.989258 
	C41.506649,1585.298218 42.220367,1593.510864 39.118423,1601.503052 
	C38.480820,1603.145630 38.570885,1605.120605 38.550476,1606.944946 
	C38.367905,1623.266113 37.752743,1639.600708 38.192589,1655.906372 
	C39.023506,1686.709595 40.451607,1717.497070 41.712276,1748.287842 
	C41.776764,1749.862915 42.129414,1751.897095 43.152641,1752.877686 
	C46.857082,1756.427734 50.563389,1760.172119 54.886337,1762.844604 
	C69.154366,1771.665771 84.833031,1777.341675 100.853539,1782.026733 
	C128.245438,1790.037109 156.294937,1792.886963 184.777161,1793.041626 
	C229.026871,1793.282104 273.041687,1791.507324 316.294800,1781.040771 
	C333.190704,1776.952393 348.592041,1769.640137 362.716431,1759.596802 
	C368.696320,1755.344727 372.098846,1750.038574 372.189301,1742.065552 
	C372.703247,1696.757568 373.745300,1651.455688 374.355835,1606.148315 
	C374.423462,1601.129883 372.310364,1596.101074 372.214874,1591.057861 
	C371.931030,1576.066406 372.175018,1561.065552 372.167725,1546.068359 
	C372.095428,1397.738403 372.137878,1249.408081 371.890167,1101.078491 
	C371.733459,1007.248718 371.178040,913.419556 370.671906,819.590759 
	C370.630188,811.862549 369.592865,804.139648 368.982574,795.936401 
	C373.893097,795.141541 373.391754,790.837097 373.292542,786.562073 
	C372.531738,753.776672 371.741302,720.991455 371.166992,688.202515 
	C370.957001,676.212769 370.796967,664.182678 371.515839,652.225098 
	C372.733704,631.968201 374.783020,611.762756 376.269592,591.520081 
	C377.842590,570.101257 379.186554,548.665405 380.594513,527.234680 
	C382.481842,498.507233 384.448303,469.784302 386.159668,441.046265 
	C387.198761,423.597290 387.869934,406.125580 388.615265,388.660156 
	C389.273376,373.238342 390.363617,357.806335 390.232361,342.387634 
	C390.106689,327.625275 385.888702,314.374023 371.612305,307.659973 
	C371.004150,301.140961 369.971741,295.226990 369.981323,289.314697 
	C370.031555,258.319214 370.351837,227.324203 370.560638,196.328903 
	C370.587891,192.281845 369.530762,188.097290 373.632843,184.971603 
	C374.619843,184.219528 374.649017,181.857742 374.661957,180.232590 
	C374.891876,151.347000 377.195496,122.457123 374.255157,93.920151 
	C372.542023,92.826691 370.875275,91.471474 370.728180,89.967621 
	C369.865936,81.152840 365.138947,74.364601 358.457733,69.571747 
	C350.266968,63.695988 341.533264,58.227825 332.333496,54.173634 
	C305.146637,42.192814 276.024811,38.360310 246.742630,36.035816 
	C212.451569,33.313705 178.154739,33.456978 143.971313,37.907871 
	C119.670746,41.071957 95.487221,44.849251 72.503166,53.866158 
	C62.106716,57.944805 51.688862,62.165630 43.711796,70.408669 
	C38.877708,75.403938 34.381351,81.241234 36.333469,88.519341 
	C38.007225,94.759628 37.678291,100.151360 36.349232,106.453720 
	C34.627968,114.615921 35.213161,123.356018 35.477016,131.826385 
	C36.035637,149.759659 37.197906,167.674088 37.757557,185.607330 
	C37.964607,192.241974 36.895458,198.907181 36.881935,205.559402 
	C36.720016,285.221527 36.357872,364.884766 36.611954,444.545929 
	C37.127571,606.205933 38.024139,767.864746 38.699093,929.524292 
	C39.500690,1121.515991 40.234348,1313.508057 40.999340,1506.500000 
z"/>
<path fill="#010101" opacity="1.000000" stroke="none" 
	d="
M40.998394,1506.000000 
	C40.234348,1313.508057 39.500690,1121.515991 38.699093,929.524292 
	C38.024139,767.864746 37.127571,606.205933 36.611954,444.545929 
	C36.357872,364.884766 36.720016,285.221527 36.881935,205.559402 
	C36.895458,198.907181 37.964607,192.241974 37.757557,185.607330 
	C37.197906,167.674088 36.035637,149.759659 35.477016,131.826385 
	C35.213161,123.356018 34.627968,114.615921 36.349232,106.453720 
	C37.678291,100.151360 38.007225,94.759628 36.333469,88.519341 
	C34.381351,81.241234 38.877708,75.403938 43.711796,70.408669 
	C51.688862,62.165630 62.106716,57.944805 72.503166,53.866158 
	C95.487221,44.849251 119.670746,41.071957 143.971313,37.907871 
	C178.154739,33.456978 212.451569,33.313705 246.742630,36.035816 
	C276.024811,38.360310 305.146637,42.192814 332.333496,54.173634 
	C341.533264,58.227825 350.266968,63.695988 358.457733,69.571747 
	C365.138947,74.364601 369.865936,81.152840 370.728180,89.967621 
	C370.875275,91.471474 372.542023,92.826691 374.255157,93.920151 
	C377.195496,122.457123 374.891876,151.347000 374.661957,180.232590 
	C374.649017,181.857742 374.619843,184.219528 373.632843,184.971603 
	C369.530762,188.097290 370.587891,192.281845 370.560638,196.328903 
	C370.351837,227.324203 370.031555,258.319214 369.981323,289.314697 
	C369.971741,295.226990 371.004150,301.140961 371.612305,307.659973 
	C385.888702,314.374023 390.106689,327.625275 390.232361,342.387634 
	C390.363617,357.806335 389.273376,373.238342 388.615265,388.660156 
	C387.869934,406.125580 387.198761,423.597290 386.159668,441.046265 
	C384.448303,469.784302 382.481842,498.507233 380.594513,527.234680 
	C379.186554,548.665405 377.842590,570.101257 376.269592,591.520081 
	C374.783020,611.762756 372.733704,631.968201 371.515839,652.225098 
	C370.796967,664.182678 370.957001,676.212769 371.166992,688.202515 
	C371.741302,720.991455 372.531738,753.776672 373.292542,786.562073 
	C373.391754,790.837097 373.893097,795.141541 368.982574,795.936401 
	C369.592865,804.139648 370.630188,811.862549 370.671906,819.590759 
	C371.178040,913.419556 371.733459,1007.248718 371.890167,1101.078491 
	C372.137878,1249.408081 372.095428,1397.738403 372.167725,1546.068359 
	C372.175018,1561.065552 371.931030,1576.066406 372.214874,1591.057861 
	C372.310364,1596.101074 374.423462,1601.129883 374.355835,1606.148315 
	C373.745300,1651.455688 372.703247,1696.757568 372.189301,1742.065552 
	C372.098846,1750.038574 368.696320,1755.344727 362.716431,1759.596802 
	C348.592041,1769.640137 333.190704,1776.952393 316.294800,1781.040771 
	C273.041687,1791.507324 229.026871,1793.282104 184.777161,1793.041626 
	C156.294937,1792.886963 128.245438,1790.037109 100.853539,1782.026733 
	C84.833031,1777.341675 69.154366,1771.665771 54.886337,1762.844604 
	C50.563389,1760.172119 46.857082,1756.427734 43.152641,1752.877686 
	C42.129414,1751.897095 41.776764,1749.862915 41.712276,1748.287842 
	C40.451607,1717.497070 39.023506,1686.709595 38.192589,1655.906372 
	C37.752743,1639.600708 38.367905,1623.266113 38.550476,1606.944946 
	C38.570885,1605.120605 38.480820,1603.145630 39.118423,1601.503052 
	C42.220367,1593.510864 41.506649,1585.298218 41.372158,1576.989258 
	C40.991894,1553.496948 41.089809,1529.996948 40.998394,1506.000000 
M84.392105,1609.146362 
	C71.979736,1604.963379 59.567364,1600.780396 46.900349,1596.511597 
	C46.678661,1597.464722 46.229099,1598.554565 46.199009,1599.655884 
	C45.849167,1612.459595 44.920567,1625.288330 45.383034,1638.065674 
	C46.629719,1672.509888 48.762402,1706.923096 49.851475,1741.370605 
	C50.077797,1748.529053 52.502987,1752.485596 58.679348,1754.898560 
	C59.141956,1755.079346 59.568626,1755.351807 60.012981,1755.579712 
	C93.930847,1772.978638 130.112885,1781.735840 168.059448,1782.816895 
	C207.392441,1783.937500 246.657852,1782.480225 285.678619,1776.896606 
	C309.439575,1773.496338 332.200287,1767.278320 352.880737,1754.382690 
	C359.662384,1750.153809 362.202209,1745.619751 362.268066,1737.318115 
	C362.569153,1699.363159 363.907745,1661.416748 364.784698,1623.465332 
	C364.979156,1615.050903 364.813232,1606.628296 364.813232,1598.026001 
	C364.082642,1598.192017 362.959229,1598.374023 361.880676,1598.703247 
	C350.271362,1602.247681 338.700714,1605.922485 327.058441,1609.354614 
	C303.001251,1616.446411 278.385284,1620.606445 253.390411,1622.117310 
	C218.419983,1624.231323 183.461761,1623.694824 148.588379,1620.042969 
	C127.228302,1617.806396 105.889641,1615.414429 84.392105,1609.146362 
M118.041130,145.631897 
	C90.172379,138.598557 63.723446,128.866928 43.504662,105.647148 
	C43.504662,113.183617 43.377853,119.775597 43.530899,126.361076 
	C43.855785,140.340561 44.869415,154.328842 44.555889,168.290054 
	C44.327850,178.444794 43.641853,178.307114 52.407833,182.700333 
	C95.889297,204.491806 142.280762,214.342285 190.560257,216.035065 
	C243.698792,217.898209 295.140076,210.455429 343.726013,186.547882 
	C343.726013,167.647888 343.726013,148.597610 343.726013,129.469116 
	C269.989380,154.005692 195.157318,160.031097 118.041130,145.631897 
M305.509918,101.898842 
	C312.949219,104.293587 320.529144,106.332626 327.781616,109.199921 
	C333.210419,111.346214 338.186584,114.014610 343.214600,108.703888 
	C343.592041,108.305260 344.435211,108.286247 345.076172,108.208076 
	C350.834869,107.505661 354.043365,104.069778 353.847229,98.536522 
	C353.451874,87.383560 348.396393,78.841179 338.134216,74.506927 
	C327.743713,70.118492 317.083221,66.096848 306.197906,63.206539 
	C279.844879,56.209152 252.813110,53.515686 225.628006,52.561188 
	C184.681366,51.123512 144.041946,53.662704 104.046799,63.160915 
	C86.137688,67.414047 68.889519,73.291428 53.845047,84.459511 
	C50.342136,87.059860 48.929760,89.293755 52.503704,92.638496 
	C58.543839,98.291298 64.433487,104.139130 70.848869,109.333809 
	C72.553703,110.714264 76.172546,110.804817 78.518517,110.125900 
	C86.812050,107.725746 94.781319,104.099220 103.149269,102.080795 
	C136.162018,94.117798 169.727966,90.615898 203.680984,90.611984 
	C237.771576,90.608055 271.564880,93.192490 305.509918,101.898842 
M85.686836,1318.498291 
	C85.774307,1336.159912 85.832436,1353.821777 85.954979,1371.483154 
	C86.272850,1417.296631 86.730728,1463.109497 86.886322,1508.923462 
	C86.933365,1522.774048 102.538536,1536.512573 116.407959,1537.209961 
	C129.709122,1537.878784 143.055634,1537.651489 156.382370,1537.804932 
	C200.522415,1538.313232 244.664352,1538.703369 288.801208,1539.410400 
	C298.142059,1539.560181 306.175720,1536.305054 313.554169,1531.418457 
	C319.379761,1527.560425 323.655304,1521.738403 324.137115,1514.575439 
	C324.916931,1502.982788 325.056671,1491.331055 325.055420,1479.704346 
	C325.048279,1413.733032 324.685699,1347.760864 324.902985,1281.790527 
	C325.086243,1226.146484 325.825806,1170.503418 326.473206,1114.861816 
	C326.639801,1100.543335 327.459625,1086.233032 327.807648,1071.914917 
	C327.879059,1068.975464 327.578125,1065.905273 326.776642,1063.086426 
	C321.808472,1045.612915 303.737579,1035.878418 285.926697,1036.159302 
	C242.621231,1036.842163 199.328552,1038.344971 156.031464,1039.544312 
	C141.886627,1039.936035 127.719200,1040.029419 113.607178,1040.950073 
	C98.309448,1041.948242 88.609985,1050.316406 85.248489,1065.311768 
	C83.771057,1071.902344 83.256004,1078.825562 83.236336,1085.600586 
	C83.201523,1097.588867 84.117683,1109.577271 84.219719,1121.569214 
	C84.775414,1186.878174 85.204048,1252.188354 85.686836,1318.498291 
M330.147980,576.500000 
	C329.507507,647.641296 328.838226,718.782288 328.287537,789.924316 
	C328.248444,794.977295 329.080322,800.036987 329.500549,805.014771 
	C341.803406,800.551331 353.222961,796.477539 364.564423,792.197021 
	C365.838654,791.716064 367.509186,790.108826 367.568481,788.950806 
	C367.872620,783.014343 367.709198,777.054016 367.709198,772.390686 
	C364.095825,773.514282 360.685425,775.778442 357.919983,775.159729 
	C353.490967,774.168823 352.903442,769.586548 352.692413,765.394104 
	C352.455048,760.678772 353.647522,756.183716 358.073975,754.581787 
	C360.410980,753.735901 363.832794,755.887451 366.440704,756.597473 
	C366.440704,751.215332 366.440704,744.817444 366.440704,738.223755 
	C362.313049,738.208862 359.100830,737.384277 358.744202,732.719727 
	C358.084259,724.087402 356.815582,715.467529 356.721680,706.832520 
	C356.478973,684.517761 356.051514,662.169617 356.957886,639.886047 
	C358.316864,606.475464 360.174744,573.061340 362.905090,539.737549 
	C365.282562,510.720856 369.186615,481.829895 372.371338,452.878448 
	C376.045105,419.481171 375.235809,386.038605 372.660217,352.644592 
	C371.775024,341.167450 371.379272,329.231812 363.099457,319.637817 
	C362.177856,318.569946 362.344086,314.904510 363.332642,314.123871 
	C368.598022,309.965851 366.323730,304.842316 366.766357,298.344391 
	C352.821320,307.058258 340.234711,314.923279 329.230530,321.799469 
	C329.541962,407.572266 329.846863,491.536133 330.147980,576.500000 
M324.641602,123.269859 
	C321.971588,124.196228 319.338684,125.252213 316.626007,126.029716 
	C267.098724,140.225250 216.589066,144.978683 165.302307,141.021667 
	C137.493210,138.876068 110.056404,134.442307 84.241852,123.086502 
	C70.672272,117.117256 58.282101,109.408707 49.396461,97.160652 
	C44.497066,90.407257 45.231136,83.887230 51.713020,78.656616 
	C55.824593,75.338760 60.365215,72.394539 65.081345,70.010620 
	C88.561195,58.141998 113.889305,52.511696 139.700806,48.932301 
	C178.840073,43.504677 218.086166,43.212605 257.312103,47.975590 
	C283.659454,51.174797 309.668518,56.128910 334.092896,66.999069 
	C344.277863,71.531906 354.544525,76.587410 357.574554,88.958290 
	C358.337921,92.074852 358.555817,95.325005 359.045074,98.654854 
	C366.470062,94.322548 367.423004,92.685783 363.973267,85.518143 
	C361.863739,81.135063 358.763458,76.826118 355.088043,73.672859 
	C342.772980,63.107265 328.273651,56.523960 312.701569,52.192455 
	C284.308350,44.294643 255.293610,40.465145 225.916992,39.627758 
	C181.661423,38.366238 137.667206,40.486080 94.604568,52.051704 
	C80.103035,55.946476 65.833504,60.453632 53.323895,69.173958 
	C39.171875,79.039192 37.609249,87.781036 47.381618,101.857918 
	C55.957138,114.210777 68.051353,122.066833 81.478409,127.907570 
	C114.167610,142.127304 148.728989,147.758560 184.084457,148.779922 
	C209.759644,149.521637 235.345963,147.734283 260.760284,143.785553 
	C289.228302,139.362335 317.105560,132.612213 344.450012,123.074211 
	C344.450012,120.804771 344.450012,118.721085 344.450012,116.454514 
	C337.935730,118.703819 331.663544,120.869537 324.641602,123.269859 
M351.261108,189.354736 
	C351.261108,192.024261 351.261108,194.693787 351.261108,197.363312 
	C351.808289,197.606781 352.355469,197.850250 352.902679,198.093719 
	C356.726318,193.956223 360.728058,189.964508 364.290192,185.612930 
	C365.818359,183.746094 367.244720,181.163879 367.337677,178.851227 
	C368.359863,153.428741 369.120361,127.995628 369.902771,102.563889 
	C369.942627,101.267433 369.535828,99.957222 369.209869,97.819595 
	C364.629578,101.179344 361.188232,104.459480 357.127289,106.516304 
	C349.915436,110.169037 349.492889,116.264290 349.680023,123.051247 
	C350.280457,144.829651 350.746765,166.611771 351.261108,189.354736 
M250.371552,1031.062134 
	C249.944321,1031.191650 249.517090,1031.321289 248.847702,1031.524292 
	C260.632874,1032.846680 269.466492,1032.294922 272.376770,1029.513306 
	C270.300354,1029.302490 268.744385,1028.882690 267.249084,1029.040039 
	C261.869965,1029.605713 256.511353,1030.366333 250.371552,1031.062134 
M274.410675,1030.474854 
	C274.410675,1030.474854 274.513367,1030.420410 274.410675,1030.474854 
z"/>
<path fill="#FEFEFE" opacity="1.000000" stroke="none" 
	d="
M84.779907,1609.259277 
	C105.889641,1615.414429 127.228302,1617.806396 148.588379,1620.042969 
	C183.461761,1623.694824 218.419983,1624.231323 253.390411,1622.117310 
	C278.385284,1620.606445 303.001251,1616.446411 327.058441,1609.354614 
	C338.700714,1605.922485 350.271362,1602.247681 361.880676,1598.703247 
	C362.959229,1598.374023 364.082642,1598.192017 364.813232,1598.026001 
	C364.813232,1606.628296 364.979156,1615.050903 364.784698,1623.465332 
	C363.907745,1661.416748 362.569153,1699.363159 362.268066,1737.318115 
	C362.202209,1745.619751 359.662384,1750.153809 352.880737,1754.382690 
	C332.200287,1767.278320 309.439575,1773.496338 285.678619,1776.896606 
	C246.657852,1782.480225 207.392441,1783.937500 168.059448,1782.816895 
	C130.112885,1781.735840 93.930847,1772.978638 60.012981,1755.579712 
	C59.568626,1755.351807 59.141956,1755.079346 58.679348,1754.898560 
	C52.502987,1752.485596 50.077797,1748.529053 49.851475,1741.370605 
	C48.762402,1706.923096 46.629719,1672.509888 45.383034,1638.065674 
	C44.920567,1625.288330 45.849167,1612.459595 46.199009,1599.655884 
	C46.229099,1598.554565 46.678661,1597.464722 46.900349,1596.511597 
	C59.567364,1600.780396 71.979736,1604.963379 84.779907,1609.259277 
z"/>
<path fill="#FDFDFD" opacity="1.000000" stroke="none" 
	d="
M118.450111,145.728516 
	C195.157318,160.031097 269.989380,154.005692 343.726013,129.469116 
	C343.726013,148.597610 343.726013,167.647888 343.726013,186.547882 
	C295.140076,210.455429 243.698792,217.898209 190.560257,216.035065 
	C142.280762,214.342285 95.889297,204.491806 52.407833,182.700333 
	C43.641853,178.307114 44.327850,178.444794 44.555889,168.290054 
	C44.869415,154.328842 43.855785,140.340561 43.530899,126.361076 
	C43.377853,119.775597 43.504662,113.183617 43.504662,105.647148 
	C63.723446,128.866928 90.172379,138.598557 118.450111,145.728516 
z"/>
<path fill="#FCFCFC" opacity="1.000000" stroke="none" 
	d="
M305.109863,101.813591 
	C271.564880,93.192490 237.771576,90.608055 203.680984,90.611984 
	C169.727966,90.615898 136.162018,94.117798 103.149269,102.080795 
	C94.781319,104.099220 86.812050,107.725746 78.518517,110.125900 
	C76.172546,110.804817 72.553703,110.714264 70.848869,109.333809 
	C64.433487,104.139130 58.543839,98.291298 52.503704,92.638496 
	C48.929760,89.293755 50.342136,87.059860 53.845047,84.459511 
	C68.889519,73.291428 86.137688,67.414047 104.046799,63.160915 
	C144.041946,53.662704 184.681366,51.123512 225.628006,52.561188 
	C252.813110,53.515686 279.844879,56.209152 306.197906,63.206539 
	C317.083221,66.096848 327.743713,70.118492 338.134216,74.506927 
	C348.396393,78.841179 353.451874,87.383560 353.847229,98.536522 
	C354.043365,104.069778 350.834869,107.505661 345.076172,108.208076 
	C344.435211,108.286247 343.592041,108.305260 343.214600,108.703888 
	C338.186584,114.014610 333.210419,111.346214 327.781616,109.199921 
	C320.529144,106.332626 312.949219,104.293587 305.109863,101.813591 
z"/>
<path fill="#E6E6E6" opacity="1.000000" stroke="none" 
	d="
M85.681618,1317.998169 
	C85.204048,1252.188354 84.775414,1186.878174 84.219719,1121.569214 
	C84.117683,1109.577271 83.201523,1097.588867 83.236336,1085.600586 
	C83.256004,1078.825562 83.771057,1071.902344 85.248489,1065.311768 
	C88.609985,1050.316406 98.309448,1041.948242 113.607178,1040.950073 
	C127.719200,1040.029419 141.886627,1039.936035 156.031464,1039.544312 
	C199.328552,1038.344971 242.621231,1036.842163 285.926697,1036.159302 
	C303.737579,1035.878418 321.808472,1045.612915 326.776642,1063.086426 
	C327.578125,1065.905273 327.879059,1068.975464 327.807648,1071.914917 
	C327.459625,1086.233032 326.639801,1100.543335 326.473206,1114.861816 
	C325.825806,1170.503418 325.086243,1226.146484 324.902985,1281.790527 
	C324.685699,1347.760864 325.048279,1413.733032 325.055420,1479.704346 
	C325.056671,1491.331055 324.916931,1502.982788 324.137115,1514.575439 
	C323.655304,1521.738403 319.379761,1527.560425 313.554169,1531.418457 
	C306.175720,1536.305054 298.142059,1539.560181 288.801208,1539.410400 
	C244.664352,1538.703369 200.522415,1538.313232 156.382370,1537.804932 
	C143.055634,1537.651489 129.709122,1537.878784 116.407959,1537.209961 
	C102.538536,1536.512573 86.933365,1522.774048 86.886322,1508.923462 
	C86.730728,1463.109497 86.272850,1417.296631 85.954979,1371.483154 
	C85.832436,1353.821777 85.774307,1336.159912 85.681618,1317.998169 
M91.479614,1361.500977 
	C91.910507,1405.153076 92.345650,1448.805298 92.763390,1492.457520 
	C92.793396,1495.593506 92.098282,1498.862549 92.755798,1501.845947 
	C96.860786,1520.472168 110.279327,1531.071533 129.460159,1531.233032 
	C151.118256,1531.415405 172.776016,1531.744263 194.434280,1531.777832 
	C223.255936,1531.822388 252.091461,1531.078735 280.894775,1531.769409 
	C298.550110,1532.192505 310.087860,1524.689819 315.729828,1508.701904 
	C318.205292,1501.687134 318.795776,1493.743652 318.908569,1486.202026 
	C319.531433,1444.554688 319.901306,1402.901978 320.056213,1361.249878 
	C320.261871,1305.937012 320.230164,1250.623169 320.223175,1195.309692 
	C320.218323,1156.827637 320.089569,1118.345459 319.989868,1079.863403 
	C319.984711,1077.874023 319.975098,1075.832397 319.557098,1073.904053 
	C314.681244,1051.410400 298.371307,1040.496094 275.629211,1040.661865 
	C265.312744,1040.736938 255.004181,1041.706177 244.686493,1041.838013 
	C206.534668,1042.325806 168.379913,1042.581665 130.227463,1043.027832 
	C105.450752,1043.317505 90.426193,1057.531494 90.196945,1080.645020 
	C90.102936,1090.123779 89.829948,1099.603149 89.886055,1109.080811 
	C90.382240,1192.887695 90.934128,1276.694336 91.479614,1361.500977 
z"/>
<path fill="#F0F0F0" opacity="1.000000" stroke="none" 
	d="
M330.149841,576.000000 
	C329.846863,491.536133 329.541962,407.572266 329.230530,321.799469 
	C340.234711,314.923279 352.821320,307.058258 366.766357,298.344391 
	C366.323730,304.842316 368.598022,309.965851 363.332642,314.123871 
	C362.344086,314.904510 362.177856,318.569946 363.099457,319.637817 
	C371.379272,329.231812 371.775024,341.167450 372.660217,352.644592 
	C375.235809,386.038605 376.045105,419.481171 372.371338,452.878448 
	C369.186615,481.829895 365.282562,510.720856 362.905090,539.737549 
	C360.174744,573.061340 358.316864,606.475464 356.957886,639.886047 
	C356.051514,662.169617 356.478973,684.517761 356.721680,706.832520 
	C356.815582,715.467529 358.084259,724.087402 358.744202,732.719727 
	C359.100830,737.384277 362.313049,738.208862 366.440704,738.223755 
	C366.440704,744.817444 366.440704,751.215332 366.440704,756.597473 
	C363.832794,755.887451 360.410980,753.735901 358.073975,754.581787 
	C353.647522,756.183716 352.455048,760.678772 352.692413,765.394104 
	C352.903442,769.586548 353.490967,774.168823 357.919983,775.159729 
	C360.685425,775.778442 364.095825,773.514282 367.709198,772.390686 
	C367.709198,777.054016 367.872620,783.014343 367.568481,788.950806 
	C367.509186,790.108826 365.838654,791.716064 364.564423,792.197021 
	C353.222961,796.477539 341.803406,800.551331 329.500549,805.014771 
	C329.080322,800.036987 328.248444,794.977295 328.287537,789.924316 
	C328.838226,718.782288 329.507507,647.641296 330.149841,576.000000 
M360.817780,523.132019 
	C362.599548,502.758240 363.758636,482.306641 366.294342,462.027130 
	C371.379211,421.360535 369.494171,380.916901 363.744720,340.550201 
	C362.918915,334.752441 360.561920,329.059204 358.194397,323.631256 
	C356.370331,319.449249 352.671234,318.703796 348.554810,321.003174 
	C340.967224,325.241455 339.042145,332.809357 338.068298,340.362793 
	C336.835693,349.923218 336.382721,359.612854 336.114960,369.261230 
	C335.829102,379.561127 336.344299,389.881836 336.130524,400.185638 
	C336.013885,405.807800 336.906158,406.842407 342.176117,404.845367 
	C345.016785,403.768921 347.716187,402.319763 350.677979,400.946686 
	C350.677979,403.991089 350.862732,406.503998 350.650055,408.982819 
	C347.760834,442.654358 344.326080,476.287689 342.023102,509.998535 
	C339.697083,544.045959 337.673309,578.152832 336.983368,612.263367 
	C336.148071,653.561340 336.829285,694.890625 336.950439,736.206055 
	C336.956940,738.415344 337.365295,742.217041 338.425079,742.541870 
	C342.146576,743.682617 346.417725,744.531189 350.134186,743.779541 
	C354.125122,742.972595 354.982117,738.973450 354.897552,734.929138 
	C354.306030,706.634827 353.798462,678.338623 353.337677,650.041870 
	C352.650665,607.853210 354.212738,565.791016 360.817780,523.132019 
M345.596191,757.835205 
	C343.439514,758.226929 340.804626,757.966797 339.215668,759.132507 
	C334.435852,762.638916 334.391449,773.561096 338.772675,777.609680 
	C341.641022,780.260193 345.834076,779.991394 348.486725,776.986816 
	C353.057526,771.809875 351.938873,762.200195 345.596191,757.835205 
z"/>
<path fill="#EBEBEB" opacity="1.000000" stroke="none" 
	d="
M325.016479,123.152557 
	C331.663544,120.869537 337.935730,118.703819 344.450012,116.454514 
	C344.450012,118.721085 344.450012,120.804771 344.450012,123.074211 
	C317.105560,132.612213 289.228302,139.362335 260.760284,143.785553 
	C235.345963,147.734283 209.759644,149.521637 184.084457,148.779922 
	C148.728989,147.758560 114.167610,142.127304 81.478409,127.907570 
	C68.051353,122.066833 55.957138,114.210777 47.381618,101.857918 
	C37.609249,87.781036 39.171875,79.039192 53.323895,69.173958 
	C65.833504,60.453632 80.103035,55.946476 94.604568,52.051704 
	C137.667206,40.486080 181.661423,38.366238 225.916992,39.627758 
	C255.293610,40.465145 284.308350,44.294643 312.701569,52.192455 
	C328.273651,56.523960 342.772980,63.107265 355.088043,73.672859 
	C358.763458,76.826118 361.863739,81.135063 363.973267,85.518143 
	C367.423004,92.685783 366.470062,94.322548 359.045074,98.654854 
	C358.555817,95.325005 358.337921,92.074852 357.574554,88.958290 
	C354.544525,76.587410 344.277863,71.531906 334.092896,66.999069 
	C309.668518,56.128910 283.659454,51.174797 257.312103,47.975590 
	C218.086166,43.212605 178.840073,43.504677 139.700806,48.932301 
	C113.889305,52.511696 88.561195,58.141998 65.081345,70.010620 
	C60.365215,72.394539 55.824593,75.338760 51.713020,78.656616 
	C45.231136,83.887230 44.497066,90.407257 49.396461,97.160652 
	C58.282101,109.408707 70.672272,117.117256 84.241852,123.086502 
	C110.056404,134.442307 137.493210,138.876068 165.302307,141.021667 
	C216.589066,144.978683 267.098724,140.225250 316.626007,126.029716 
	C319.338684,125.252213 321.971588,124.196228 325.016479,123.152557 
z"/>
<path fill="#F6F6F6" opacity="1.000000" stroke="none" 
	d="
M351.262970,188.873596 
	C350.746765,166.611771 350.280457,144.829651 349.680023,123.051247 
	C349.492889,116.264290 349.915436,110.169037 357.127289,106.516304 
	C361.188232,104.459480 364.629578,101.179344 369.209869,97.819595 
	C369.535828,99.957222 369.942627,101.267433 369.902771,102.563889 
	C369.120361,127.995628 368.359863,153.428741 367.337677,178.851227 
	C367.244720,181.163879 365.818359,183.746094 364.290192,185.612930 
	C360.728058,189.964508 356.726318,193.956223 352.902679,198.093719 
	C352.355469,197.850250 351.808289,197.606781 351.261108,197.363312 
	C351.261108,194.693787 351.261108,192.024261 351.262970,188.873596 
z"/>
<path fill="#323232" opacity="1.000000" stroke="none" 
	d="
M250.758270,1031.057739 
	C256.511353,1030.366333 261.869965,1029.605713 267.249084,1029.040039 
	C268.744385,1028.882690 270.300354,1029.302490 272.376770,1029.513306 
	C269.466492,1032.294922 260.632874,1032.846680 248.847702,1031.524292 
	C249.517090,1031.321289 249.944321,1031.191650 250.758270,1031.057739 
z"/>
<path fill="#323232" opacity="1.000000" stroke="none" 
	d="
M274.462036,1030.447632 
	C274.513367,1030.420410 274.410675,1030.474854 274.462036,1030.447632 
z"/>
<path fill="#010101" opacity="1.000000" stroke="none" 
	d="
M91.474579,1361.000977 
	C90.934128,1276.694336 90.382240,1192.887695 89.886055,1109.080811 
	C89.829948,1099.603149 90.102936,1090.123779 90.196945,1080.645020 
	C90.426193,1057.531494 105.450752,1043.317505 130.227463,1043.027832 
	C168.379913,1042.581665 206.534668,1042.325806 244.686493,1041.838013 
	C255.004181,1041.706177 265.312744,1040.736938 275.629211,1040.661865 
	C298.371307,1040.496094 314.681244,1051.410400 319.557098,1073.904053 
	C319.975098,1075.832397 319.984711,1077.874023 319.989868,1079.863403 
	C320.089569,1118.345459 320.218323,1156.827637 320.223175,1195.309692 
	C320.230164,1250.623169 320.261871,1305.937012 320.056213,1361.249878 
	C319.901306,1402.901978 319.531433,1444.554688 318.908569,1486.202026 
	C318.795776,1493.743652 318.205292,1501.687134 315.729828,1508.701904 
	C310.087860,1524.689819 298.550110,1532.192505 280.894775,1531.769409 
	C252.091461,1531.078735 223.255936,1531.822388 194.434280,1531.777832 
	C172.776016,1531.744263 151.118256,1531.415405 129.460159,1531.233032 
	C110.279327,1531.071533 96.860786,1520.472168 92.755798,1501.845947 
	C92.098282,1498.862549 92.793396,1495.593506 92.763390,1492.457520 
	C92.345650,1448.805298 91.910507,1405.153076 91.474579,1361.000977 
M310.007904,1462.510864 
	C310.007904,1467.789185 310.007904,1473.067383 310.007904,1478.345703 
	C310.446991,1478.317871 310.886047,1478.289917 311.325134,1478.262085 
	C311.325134,1468.744019 311.325134,1459.225952 311.325134,1449.707886 
	C310.885834,1449.711182 310.446564,1449.714600 310.007263,1449.718018 
	C310.007263,1453.651245 310.007263,1457.584351 310.007904,1462.510864 
z"/>
<path fill="#060606" opacity="1.000000" stroke="none" 
	d="
M360.742706,523.573853 
	C354.212738,565.791016 352.650665,607.853210 353.337677,650.041870 
	C353.798462,678.338623 354.306030,706.634827 354.897552,734.929138 
	C354.982117,738.973450 354.125122,742.972595 350.134186,743.779541 
	C346.417725,744.531189 342.146576,743.682617 338.425079,742.541870 
	C337.365295,742.217041 336.956940,738.415344 336.950439,736.206055 
	C336.829285,694.890625 336.148071,653.561340 336.983368,612.263367 
	C337.673309,578.152832 339.697083,544.045959 342.023102,509.998535 
	C344.326080,476.287689 347.760834,442.654358 350.650055,408.982819 
	C350.862732,406.503998 350.677979,403.991089 350.677979,400.946686 
	C347.716187,402.319763 345.016785,403.768921 342.176117,404.845367 
	C336.906158,406.842407 336.013885,405.807800 336.130524,400.185638 
	C336.344299,389.881836 335.829102,379.561127 336.114960,369.261230 
	C336.382721,359.612854 336.835693,349.923218 338.068298,340.362793 
	C339.042145,332.809357 340.967224,325.241455 348.554810,321.003174 
	C352.671234,318.703796 356.370331,319.449249 358.194397,323.631256 
	C360.561920,329.059204 362.918915,334.752441 363.744720,340.550201 
	C369.494171,380.916901 371.379211,421.360535 366.294342,462.027130 
	C363.758636,482.306641 362.599548,502.758240 360.742706,523.573853 
M341.637054,397.806732 
	C343.959717,395.776459 349.033844,397.370605 348.795715,391.885010 
	C348.081055,375.422394 347.652069,358.947388 346.944824,342.484406 
	C346.813843,339.435883 345.905121,336.420746 345.355377,333.390167 
	C344.791382,333.453094 344.227417,333.516022 343.663452,333.578979 
	C340.527313,354.813629 342.020782,376.296692 341.637054,397.806732 
z"/>
<path fill="#060606" opacity="1.000000" stroke="none" 
	d="
M345.943359,757.978027 
	C351.938873,762.200195 353.057526,771.809875 348.486725,776.986816 
	C345.834076,779.991394 341.641022,780.260193 338.772675,777.609680 
	C334.391449,773.561096 334.435852,762.638916 339.215668,759.132507 
	C340.804626,757.966797 343.439514,758.226929 345.943359,757.978027 
z"/>
<path fill="#191919" opacity="1.000000" stroke="none" 
	d="
M310.007568,1462.014160 
	C310.007263,1457.584351 310.007263,1453.651245 310.007263,1449.718018 
	C310.446564,1449.714600 310.885834,1449.711182 311.325134,1449.707886 
	C311.325134,1459.225952 311.325134,1468.744019 311.325134,1478.262085 
	C310.886047,1478.289917 310.446991,1478.317871 310.007904,1478.345703 
	C310.007904,1473.067383 310.007904,1467.789185 310.007568,1462.014160 
z"/>
<path fill="#ECECEC" opacity="1.000000" stroke="none" 
	d="
M341.270569,397.723206 
	C342.020782,376.296692 340.527313,354.813629 343.663452,333.578979 
	C344.227417,333.516022 344.791382,333.453094 345.355377,333.390167 
	C345.905121,336.420746 346.813843,339.435883 346.944824,342.484406 
	C347.652069,358.947388 348.081055,375.422394 348.795715,391.885010 
	C349.033844,397.370605 343.959717,395.776459 341.270569,397.723206 
z"/>
</svg>