<?xml version="1.0"?>
<svg width="424" height="1823"
    xmlns="http://www.w3.org/2000/svg"
    xmlns:svg="http://www.w3.org/2000/svg" enable-background="new 0 0 424 1823" version="1.1" xml:space="preserve">

    <title>Layer 1</title>

    <path d="m41,1506c-0.77,-192.49 -1.5,-384.48 -2.3,-576.48c-0.68,-161.66 -1.57,-323.31 -2.09,-484.97c-0.25,-79.67 0.11,-159.33 0.27,-238.99c0.02,-6.65 1.08,-13.32 0.88,-19.95c-0.56,-17.94 -1.72,-35.85 -2.28,-53.78c-0.27,-8.47 -0.85,-17.21 0.87,-25.38c1.33,-6.3 1.66,-11.69 -0.02,-17.93c-1.95,-7.28 2.55,-13.12 7.38,-18.11c7.98,-8.24 18.4,-12.47 28.79,-16.54c22.99,-9.02 47.17,-12.8 71.47,-15.96c34.18,-4.45 68.48,-4.6 102.77,-1.87c29.28,2.32 58.41,6.15 85.59,18.13c9.2,4.06 17.94,9.53 26.13,15.4c6.68,4.79 11.41,11.58 12.27,20.4c0.15,1.5 1.81,2.86 3.53,3.95c2.94,28.54 0.63,57.43 0.4,86.31c-0.01,1.63 -0.04,3.99 -1.03,4.74c-4.1,3.13 -3.04,7.31 -3.07,11.36c-0.21,30.99 -0.53,61.99 -0.58,92.98c-0.01,5.92 1.02,11.83 1.63,18.35c14.28,6.71 18.5,19.97 18.62,34.73c0.13,15.42 -0.96,30.85 -1.61,46.27c-0.75,17.47 -1.42,34.94 -2.46,52.39c-1.71,28.73 -3.68,57.46 -5.57,86.18c-1.4,21.44 -2.75,42.87 -4.32,64.29c-1.49,20.24 -3.54,40.45 -4.75,60.71c-0.72,11.95 -0.56,23.98 -0.35,35.97c0.57,32.79 1.36,65.58 2.12,98.36c0.1,4.28 0.6,8.58 -4.31,9.38c0.61,8.2 1.65,15.92 1.69,23.65c0.51,93.83 1.06,187.66 1.22,281.49c0.25,148.33 0.21,296.66 0.28,444.99c0.01,15 -0.24,30 0.04,44.99c0.1,5.04 2.21,10.07 2.15,15.09c-0.61,45.31 -1.66,90.61 -2.17,135.92c-0.09,7.97 -3.49,13.27 -9.47,17.53c-14.13,10.04 -29.53,17.35 -46.43,21.44c-43.25,10.47 -87.26,12.24 -131.51,12c-28.49,-0.15 -56.53,-3 -83.93,-11.01c-16.02,-4.69 -31.7,-10.36 -45.96,-19.19c-4.33,-2.67 -8.03,-6.41 -11.74,-9.96c-1.02,-0.98 -1.37,-3.02 -1.44,-4.59c-1.26,-30.79 -2.69,-61.58 -3.52,-92.38c-0.44,-16.31 0.18,-32.64 0.36,-48.97c0.02,-1.82 -0.07,-3.79 0.57,-5.44c3.1,-7.99 2.39,-16.2 2.25,-24.51c-0.38,-23.49 -0.28,-46.99 -0.37,-70.99m43.39,103.15c-12.41,-4.19 -24.82,-8.37 -37.49,-12.64c-0.22,0.95 -0.67,2.04 -0.7,3.15c-0.35,12.8 -1.28,25.63 -0.82,38.41c1.25,34.44 3.38,68.85 4.47,103.3c0.23,7.16 2.65,11.12 8.83,13.53c0.46,0.18 0.89,0.45 1.33,0.68c33.92,17.4 70.1,26.16 108.05,27.24c39.33,1.12 78.6,-0.34 117.62,-5.92c23.76,-3.4 46.52,-9.62 67.2,-22.52c6.78,-4.23 9.32,-8.76 9.39,-17.06c0.3,-37.96 1.64,-75.9 2.51,-113.85c0.2,-8.42 0.03,-16.84 0.03,-25.44c-0.73,0.16 -1.85,0.34 -2.93,0.67c-11.61,3.55 -23.18,7.22 -34.82,10.65c-24.06,7.1 -48.67,11.26 -73.67,12.77c-34.97,2.11 -69.93,1.57 -104.8,-2.08c-21.36,-2.23 -42.7,-4.63 -64.2,-10.89m33.65,-1463.52c-27.87,-7.03 -54.32,-16.76 -74.54,-39.98c0,7.53 -0.12,14.13 0.03,20.71c0.33,13.98 1.34,27.97 1.03,41.93c-0.23,10.15 -0.92,10.02 7.85,14.41c43.48,21.79 89.87,31.64 138.15,33.34c53.14,1.86 104.58,-5.58 153.17,-29.49c0,-18.9 0,-37.95 0,-57.08c-73.74,24.54 -148.57,30.56 -225.69,16.16m187.47,-43.73c7.44,2.39 15.02,4.43 22.27,7.3c5.43,2.15 10.41,4.81 15.43,-0.5c0.38,-0.39 1.23,-0.41 1.87,-0.49c5.75,-0.7 8.96,-4.14 8.77,-9.67c-0.4,-11.16 -5.45,-19.7 -15.72,-24.03c-10.39,-4.39 -21.05,-8.41 -31.93,-11.3c-26.36,-7 -53.39,-9.69 -80.57,-10.65c-40.95,-1.44 -81.59,1.1 -121.58,10.6c-17.91,4.25 -35.16,10.13 -50.2,21.3c-3.51,2.6 -4.92,4.83 -1.35,8.18c6.04,5.65 11.93,11.5 18.35,16.69c1.7,1.38 5.32,1.47 7.67,0.8c8.29,-2.4 16.26,-6.03 24.63,-8.05c33.01,-7.96 66.58,-11.46 100.53,-11.47c34.09,0 67.88,2.58 101.83,11.29m-219.82,1216.6c0.08,17.66 0.14,35.32 0.26,52.98c0.32,45.82 0.78,91.63 0.94,137.44c0.04,13.85 15.65,27.59 29.52,28.29c13.3,0.67 26.65,0.44 39.97,0.59c44.14,0.51 88.28,0.9 132.42,1.61c9.34,0.15 17.38,-3.1 24.75,-7.99c5.83,-3.86 10.11,-9.68 10.59,-16.84c0.78,-11.6 0.92,-23.25 0.92,-34.88c-0.01,-65.97 -0.37,-131.94 -0.16,-197.91c0.19,-55.64 0.93,-111.29 1.57,-166.93c0.17,-14.32 0.99,-28.63 1.34,-42.95c0.07,-2.93 -0.23,-6 -1.03,-8.82c-4.97,-17.48 -23.04,-27.21 -40.85,-26.93c-43.31,0.68 -86.6,2.18 -129.9,3.38c-14.14,0.4 -28.31,0.49 -42.42,1.41c-15.3,1 -25,9.37 -28.36,24.36c-1.48,6.59 -1.99,13.52 -2.01,20.29c-0.04,11.99 0.88,23.98 0.98,35.97c0.56,65.31 0.98,130.62 1.47,196.93m244.46,-742c-0.64,71.14 -1.31,142.28 -1.86,213.42c-0.04,5.06 0.79,10.12 1.21,15.09c12.3,-4.46 23.72,-8.53 35.06,-12.81c1.28,-0.48 2.95,-2.09 3.01,-3.25c0.3,-5.94 0.14,-11.9 0.14,-16.56c-3.61,1.12 -7.02,3.39 -9.79,2.77c-4.43,-0.99 -5.02,-5.57 -5.23,-9.77c-0.23,-4.71 0.96,-9.21 5.38,-10.81c2.34,-0.84 5.76,1.31 8.37,2.02c0,-5.38 0,-11.78 0,-18.38c-4.13,-0.01 -7.34,-0.84 -7.7,-5.5c-0.66,-8.63 -1.92,-17.25 -2.02,-25.89c-0.24,-22.31 -0.67,-44.66 0.24,-66.94c1.36,-33.41 3.21,-66.83 5.95,-100.15c2.37,-29.02 6.28,-57.91 9.46,-86.86c3.68,-33.4 2.87,-66.84 0.29,-100.24c-0.88,-11.47 -1.28,-23.41 -9.56,-33c-0.92,-1.07 -0.76,-4.74 0.23,-5.52c5.27,-4.15 2.99,-9.28 3.44,-15.78c-13.95,8.72 -26.54,16.58 -37.54,23.46c0.31,85.77 0.62,169.74 0.92,254.7m-5.51,-453.23c-2.67,0.93 -5.3,1.98 -8.01,2.76c-49.53,14.2 -100.04,18.95 -151.33,14.99c-27.81,-2.14 -55.24,-6.58 -81.06,-17.93c-13.57,-5.97 -25.96,-13.68 -34.84,-25.93c-4.9,-6.75 -4.17,-13.27 2.31,-18.5c4.11,-3.32 8.66,-6.27 13.37,-8.65c23.48,-11.87 48.81,-17.5 74.62,-21.08c39.14,-5.43 78.39,-5.72 117.61,-0.95c26.35,3.19 52.36,8.15 76.78,19.02c10.19,4.53 20.45,9.59 23.48,21.96c0.77,3.11 0.99,6.37 1.48,9.69c7.42,-4.33 8.37,-5.96 4.92,-13.13c-2.11,-4.38 -5.21,-8.69 -8.88,-11.85c-12.32,-10.56 -26.82,-17.15 -42.39,-21.48c-28.39,-7.9 -57.41,-11.72 -86.78,-12.56c-44.26,-1.26 -88.25,0.86 -131.32,12.42c-14.5,3.9 -28.77,8.4 -41.28,17.12c-14.15,9.87 -15.71,18.61 -5.94,32.69c8.58,12.35 20.67,20.21 34.1,26.05c32.69,14.22 67.25,19.85 102.6,20.87c25.68,0.74 51.27,-1.05 76.68,-4.99c28.47,-4.43 56.35,-11.18 83.69,-20.72c0,-2.27 0,-4.35 0,-6.62c-6.51,2.25 -12.79,4.42 -19.81,6.82m26.62,66.08c0,2.67 0,5.34 0,8.01c0.55,0.25 1.1,0.49 1.64,0.73c3.83,-4.13 7.83,-8.13 11.39,-12.48c1.53,-1.86 2.95,-4.45 3.05,-6.76c1.02,-25.42 1.78,-50.85 2.56,-76.29c0.04,-1.29 -0.36,-2.6 -0.69,-4.74c-4.58,3.36 -8.02,6.64 -12.08,8.7c-7.21,3.65 -7.64,9.74 -7.45,16.53c0.6,21.78 1.07,43.56 1.58,66.3m-100.89,841.71c-0.43,0.13 -0.85,0.26 -1.52,0.46c11.78,1.33 20.62,0.77 23.53,-2.01c-2.08,-0.21 -3.64,-0.63 -5.13,-0.47c-5.38,0.57 -10.74,1.33 -16.88,2.02m24.04,-0.59c0,0 0.1,-0.05 0,0z" fill="#010101" id="svg_2" class="main" opacity="1"/>
    <path d="m84.78,1609.26c21.11,6.15 42.45,8.55 63.81,10.78c34.87,3.65 69.83,4.19 104.8,2.08c25,-1.51 49.61,-5.67 73.67,-12.77c11.64,-3.43 23.21,-7.1 34.82,-10.65c1.08,-0.33 2.2,-0.51 2.93,-0.67c0,8.6 0.17,17.02 -0.03,25.44c-0.87,37.95 -2.21,75.89 -2.51,113.85c-0.07,8.3 -2.61,12.83 -9.39,17.06c-20.68,12.9 -43.44,19.12 -67.2,22.52c-39.02,5.58 -78.29,7.04 -117.62,5.92c-37.95,-1.08 -74.13,-9.84 -108.05,-27.24c-0.44,-0.23 -0.87,-0.5 -1.33,-0.68c-6.18,-2.41 -8.6,-6.37 -8.83,-13.53c-1.09,-34.45 -3.22,-68.86 -4.47,-103.3c-0.46,-12.78 0.47,-25.61 0.82,-38.41c0.03,-1.11 0.48,-2.2 0.7,-3.15c12.67,4.27 25.08,8.45 37.88,12.75z" fill="#FEFEFE" id="svg_3" class="base" opacity="1"/>
    <path d="m118.45,145.73c76.71,14.3 151.54,8.28 225.28,-16.26c0,19.13 0,38.18 0,57.08c-48.59,23.91 -100.03,31.35 -153.17,29.49c-48.28,-1.7 -94.67,-11.55 -138.15,-33.34c-8.77,-4.39 -8.08,-4.26 -7.85,-14.41c0.31,-13.96 -0.7,-27.95 -1.03,-41.93c-0.15,-6.58 -0.03,-13.18 -0.03,-20.71c20.22,23.22 46.67,32.95 74.95,40.08z" fill="#FDFDFD" id="svg_4" class="top" opacity="1"/>
    <path d="m305.11,101.81c-33.55,-8.62 -67.34,-11.2 -101.43,-11.2c-33.95,0.01 -67.52,3.51 -100.53,11.47c-8.37,2.02 -16.34,5.65 -24.63,8.05c-2.35,0.67 -5.97,0.58 -7.67,-0.8c-6.42,-5.19 -12.31,-11.04 -18.35,-16.69c-3.57,-3.35 -2.16,-5.58 1.35,-8.18c15.04,-11.17 32.29,-17.05 50.2,-21.3c39.99,-9.5 80.63,-12.04 121.58,-10.6c27.18,0.96 54.21,3.65 80.57,10.65c10.88,2.89 21.54,6.91 31.93,11.3c10.27,4.33 15.32,12.87 15.72,24.03c0.19,5.53 -3.02,8.97 -8.77,9.67c-0.64,0.08 -1.49,0.1 -1.87,0.49c-5.02,5.31 -10,2.65 -15.43,0.5c-7.25,-2.87 -14.83,-4.91 -22.67,-7.39z" fill="#FCFCFC" id="svg_5" class="top" opacity="1"/>
    <path d="m85.68,1318c-0.48,-65.81 -0.9,-131.12 -1.46,-196.43c-0.1,-11.99 -1.02,-23.98 -0.98,-35.97c0.02,-6.77 0.53,-13.7 2.01,-20.29c3.36,-14.99 13.06,-23.36 28.36,-24.36c14.11,-0.92 28.28,-1.01 42.42,-1.41c43.3,-1.2 86.59,-2.7 129.9,-3.38c17.81,-0.28 35.88,9.45 40.85,26.93c0.8,2.82 1.1,5.89 1.03,8.82c-0.35,14.32 -1.17,28.63 -1.34,42.95c-0.64,55.64 -1.38,111.29 -1.57,166.93c-0.21,65.97 0.15,131.94 0.16,197.91c0,11.63 -0.14,23.28 -0.92,34.88c-0.48,7.16 -4.76,12.98 -10.59,16.84c-7.37,4.89 -15.41,8.14 -24.75,7.99c-44.14,-0.71 -88.28,-1.1 -132.42,-1.61c-13.32,-0.15 -26.67,0.08 -39.97,-0.59c-13.87,-0.7 -29.48,-14.44 -29.52,-28.29c-0.16,-45.81 -0.62,-91.62 -0.94,-137.44c-0.12,-17.66 -0.18,-35.32 -0.27,-53.48m5.8,43.5c0.43,43.65 0.87,87.31 1.28,130.96c0.03,3.13 -0.66,6.4 0,9.39c4.1,18.62 17.52,29.22 36.7,29.38c21.66,0.19 43.32,0.51 64.97,0.55c28.83,0.04 57.66,-0.7 86.46,-0.01c17.66,0.42 29.2,-7.08 34.84,-23.07c2.48,-7.01 3.07,-14.96 3.18,-22.5c0.62,-41.65 0.99,-83.3 1.15,-124.95c0.2,-55.31 0.17,-110.63 0.16,-165.94c0,-38.48 -0.13,-76.96 -0.23,-115.45c-0.01,-1.99 -0.01,-4.03 -0.43,-5.96c-4.88,-22.49 -21.19,-33.4 -43.93,-33.24c-10.32,0.08 -20.63,1.05 -30.94,1.18c-38.16,0.49 -76.31,0.74 -114.46,1.19c-24.78,0.29 -39.8,14.5 -40.03,37.62c-0.1,9.47 -0.37,18.95 -0.31,28.43c0.49,83.81 1.04,167.61 1.59,252.42z" fill="#E6E6E6" id="svg_6" opacity="1"/>
    <path d="m330.15,576c-0.3,-84.46 -0.61,-168.43 -0.92,-254.2c11,-6.88 23.59,-14.74 37.54,-23.46c-0.45,6.5 1.83,11.63 -3.44,15.78c-0.99,0.78 -1.15,4.45 -0.23,5.52c8.28,9.59 8.68,21.53 9.56,33c2.58,33.4 3.39,66.84 -0.29,100.24c-3.18,28.95 -7.09,57.84 -9.46,86.86c-2.74,33.32 -4.59,66.74 -5.95,100.15c-0.91,22.28 -0.48,44.63 -0.24,66.94c0.1,8.64 1.36,17.26 2.02,25.89c0.36,4.66 3.57,5.49 7.7,5.5c0,6.6 0,13 0,18.38c-2.61,-0.71 -6.03,-2.86 -8.37,-2.02c-4.42,1.6 -5.61,6.1 -5.38,10.81c0.21,4.2 0.8,8.78 5.23,9.77c2.77,0.62 6.18,-1.65 9.79,-2.77c0,4.66 0.16,10.62 -0.14,16.56c-0.06,1.16 -1.73,2.77 -3.01,3.25c-11.34,4.28 -22.76,8.35 -35.06,12.81c-0.42,-4.97 -1.25,-10.03 -1.21,-15.09c0.55,-71.14 1.22,-142.28 1.86,-213.92m30.67,-52.87c1.78,-20.37 2.94,-40.82 5.47,-61.1c5.09,-40.67 3.2,-81.11 -2.55,-121.48c-0.82,-5.8 -3.18,-11.49 -5.55,-16.92c-1.82,-4.18 -5.52,-4.93 -9.64,-2.63c-7.58,4.24 -9.51,11.81 -10.48,19.36c-1.23,9.56 -1.69,19.25 -1.96,28.9c-0.28,10.3 0.23,20.62 0.02,30.93c-0.12,5.62 0.78,6.65 6.05,4.66c2.84,-1.08 5.54,-2.53 8.5,-3.9c0,3.04 0.18,5.55 -0.03,8.03c-2.89,33.67 -6.32,67.31 -8.63,101.02c-2.32,34.05 -4.35,68.15 -5.04,102.26c-0.83,41.3 -0.15,82.63 -0.03,123.95c0.01,2.21 0.42,6.01 1.48,6.33c3.72,1.14 7.99,1.99 11.7,1.24c4,-0.81 4.85,-4.81 4.77,-8.85c-0.59,-28.3 -1.1,-56.59 -1.56,-84.89c-0.69,-42.19 0.87,-84.25 7.48,-126.91m-15.22,234.71c-2.16,0.39 -4.8,0.13 -6.38,1.29c-4.78,3.51 -4.83,14.43 -0.45,18.48c2.87,2.65 7.06,2.38 9.72,-0.62c4.57,-5.18 3.45,-14.79 -2.89,-19.15z" fill="#F0F0F0" id="svg_7" opacity="1" class="middle-strap-fill" />
    <path d="m325.02,123.15c6.64,-2.28 12.92,-4.45 19.43,-6.7c0,2.27 0,4.35 0,6.62c-27.34,9.54 -55.22,16.29 -83.69,20.72c-25.41,3.94 -51,5.73 -76.68,4.99c-35.35,-1.02 -69.91,-6.65 -102.6,-20.87c-13.43,-5.84 -25.52,-13.7 -34.1,-26.05c-9.77,-14.08 -8.21,-22.82 5.94,-32.69c12.51,-8.72 26.78,-13.22 41.28,-17.12c43.07,-11.56 87.06,-13.68 131.32,-12.42c29.37,0.84 58.39,4.66 86.78,12.56c15.57,4.33 30.07,10.92 42.39,21.48c3.67,3.16 6.77,7.47 8.88,11.85c3.45,7.17 2.5,8.8 -4.92,13.13c-0.49,-3.32 -0.71,-6.58 -1.48,-9.69c-3.03,-12.37 -13.29,-17.43 -23.48,-21.96c-24.42,-10.87 -50.43,-15.83 -76.78,-19.02c-39.22,-4.77 -78.47,-4.48 -117.61,0.95c-25.81,3.58 -51.14,9.21 -74.62,21.08c-4.71,2.38 -9.26,5.33 -13.37,8.65c-6.48,5.23 -7.21,11.75 -2.31,18.5c8.88,12.25 21.27,19.96 34.84,25.93c25.82,11.35 53.25,15.79 81.06,17.93c51.29,3.96 101.8,-0.79 151.33,-14.99c2.71,-0.78 5.34,-1.83 8.39,-2.88z" fill="#EBEBEB" id="svg_8" opacity="1" class="top" />
    <path d="m351.26,188.87c-0.51,-22.26 -0.98,-44.04 -1.58,-65.82c-0.19,-6.79 0.24,-12.88 7.45,-16.53c4.06,-2.06 7.5,-5.34 12.08,-8.7c0.33,2.14 0.73,3.45 0.69,4.74c-0.78,25.44 -1.54,50.87 -2.56,76.29c-0.1,2.31 -1.52,4.9 -3.05,6.76c-3.56,4.35 -7.56,8.35 -11.39,12.48c-0.54,-0.24 -1.09,-0.48 -1.64,-0.73c0,-2.67 0,-5.34 0,-8.49z" fill="#F6F6F6" id="svg_9" class="top" opacity="1"/>
    <path d="m250.76,1031.06c5.75,-0.69 11.11,-1.45 16.49,-2.02c1.49,-0.16 3.05,0.26 5.13,0.47c-2.91,2.78 -11.75,3.34 -23.53,2.01c0.67,-0.2 1.09,-0.33 1.91,-0.46z" fill="#323232" id="svg_10" opacity="1"/>
    <path d="m274.46,1030.45c0.05,-0.03 -0.05,0.02 0,0z" fill="#323232" id="svg_11" opacity="1"/>
    <path d="m91.47,1361c-0.54,-84.31 -1.09,-168.11 -1.58,-251.92c-0.06,-9.48 0.21,-18.96 0.31,-28.43c0.23,-23.12 15.25,-37.33 40.03,-37.62c38.15,-0.45 76.3,-0.7 114.46,-1.19c10.31,-0.13 20.62,-1.1 30.94,-1.18c22.74,-0.16 39.05,10.75 43.93,33.24c0.42,1.93 0.42,3.97 0.43,5.96c0.1,38.49 0.23,76.97 0.23,115.45c0.01,55.31 0.04,110.63 -0.16,165.94c-0.16,41.65 -0.53,83.3 -1.15,124.95c-0.11,7.54 -0.7,15.49 -3.18,22.5c-5.64,15.99 -17.18,23.49 -34.84,23.07c-28.8,-0.69 -57.63,0.05 -86.46,0.01c-21.65,-0.04 -43.31,-0.36 -64.97,-0.55c-19.18,-0.16 -32.6,-10.76 -36.7,-29.38c-0.66,-2.99 0.03,-6.26 0,-9.39c-0.41,-43.65 -0.85,-87.31 -1.29,-131.46m218.54,101.51c0,5.28 0,10.56 0,15.84c0.44,-0.03 0.88,-0.06 1.32,-0.09c0,-9.52 0,-19.03 0,-28.55c-0.44,0 -0.88,0 -1.32,0.01c0,3.93 0,7.86 0,12.79z" fill="#010101" id="svg_12" class="right-fill" opacity="1"/>
    <path d="m360.74,523.57c-6.53,42.22 -8.09,84.28 -7.4,126.47c0.46,28.3 0.97,56.59 1.56,84.89c0.08,4.04 -0.77,8.04 -4.77,8.85c-3.71,0.75 -7.98,-0.1 -11.7,-1.24c-1.06,-0.32 -1.47,-4.12 -1.48,-6.33c-0.12,-41.32 -0.8,-82.65 0.03,-123.95c0.69,-34.11 2.72,-68.21 5.04,-102.26c2.31,-33.71 5.74,-67.35 8.63,-101.02c0.21,-2.48 0.03,-4.99 0.03,-8.03c-2.96,1.37 -5.66,2.82 -8.5,3.9c-5.27,1.99 -6.17,0.96 -6.05,-4.66c0.21,-10.31 -0.3,-20.63 -0.02,-30.93c0.27,-9.65 0.73,-19.34 1.96,-28.9c0.97,-7.55 2.9,-15.12 10.48,-19.36c4.12,-2.3 7.82,-1.55 9.64,2.63c2.37,5.43 4.73,11.12 5.55,16.92c5.75,40.37 7.64,80.81 2.55,121.48c-2.53,20.28 -3.69,40.73 -5.55,61.54m-19.1,-125.76c2.32,-2.03 7.39,-0.44 7.16,-5.92c-0.72,-16.47 -1.15,-32.94 -1.86,-49.41c-0.13,-3.04 -1.03,-6.06 -1.58,-9.09c-0.57,0.06 -1.13,0.13 -1.7,0.19c-3.13,21.23 -1.64,42.72 -2.02,64.23z" fill="#060606" id="svg_13" class="middle-strap" opacity="1"/>
    <path d="m345.94,757.98c6,4.22 7.12,13.83 2.55,19.01c-2.66,3 -6.85,3.27 -9.72,0.62c-4.38,-4.05 -4.33,-14.97 0.45,-18.48c1.58,-1.16 4.22,-0.9 6.72,-1.15z" fill="#060606" id="svg_14" class="side" opacity="1"/>
    <path d="m310.01,1462.01c0,-4.43 0,-8.36 0,-12.29c0.44,-0.01 0.88,-0.01 1.32,-0.01c0,9.52 0,19.03 0,28.55c-0.44,0.03 -0.88,0.06 -1.32,0.09c0,-5.28 0,-10.56 0,-16.34z" fill="#191919" id="svg_15" opacity="1"/>
    <path d="m341.27,397.72c0.75,-21.42 -0.74,-42.91 2.39,-64.14c0.57,-0.06 1.13,-0.13 1.7,-0.19c0.55,3.03 1.45,6.05 1.58,9.09c0.71,16.47 1.14,32.94 1.86,49.41c0.23,5.48 -4.84,3.89 -7.53,5.83z" fill="#ECECEC" id="svg_16" opacity="1" class="middle-strap" />

</svg>