<?xml version="1.0"?>
<svg width="420" height="1843" xmlns="http://www.w3.org/2000/svg" xmlns:svg="http://www.w3.org/2000/svg" enable-background="new 0 0 420 1843" version="1.1" xml:space="preserve">
 <title>Layer 1</title>
 <g class="layer" display="inline">
  <title>bag</title>
  <path class="main" d="m39.61,96.14c0.93,-1.61 2.36,-2.81 2.42,-4.07c0.34,-6.48 4.71,-10.12 9.27,-13.48c16.09,-11.87 34.6,-18.36 53.62,-23.57c30.37,-8.32 61.4,-11.89 92.77,-13.48c32.56,-1.65 64.97,-0.93 97.19,4.24c19.3,3.1 38.16,7.73 55.83,16.48c9.56,4.73 17.12,11.75 22.23,20.77c2.35,4.16 2.38,9.94 2.46,15c0.13,8.26 -0.74,16.53 -0.88,24.79c-0.31,18.98 -0.33,37.97 -0.74,56.95c-0.07,3.38 -1.55,6.72 -2.2,10.12c-0.55,2.9 -1.24,5.86 -1.21,8.79c0.47,55.82 1.36,111.64 1.54,167.47c0.66,199.65 1.26,399.3 1.54,598.96c0.29,200.48 0.07,400.97 0.33,601.46c0.06,44.98 1.29,89.96 1.73,134.94c0.15,15.31 0.08,30.67 -0.98,45.93c-0.46,6.5 -3.14,12.93 -8.66,17.75c-9.12,7.94 -19.68,13.06 -30.9,16.98c-30.24,10.55 -61.18,17.59 -93.42,16.79c-28.79,-0.72 -57.7,-0.6 -86.31,-3.43c-32.57,-3.23 -64.23,-11.57 -93.65,-26.73c-4.24,-2.19 -8.02,-5.3 -12.01,-7.99c-5,-3.37 -5.93,-8.32 -5.91,-13.96c0.1,-29.99 0.03,-59.98 0.02,-89.97c-0.01,-16.33 -0.99,-32.73 0.19,-48.98c3.23,-44.21 0.91,-88.44 1.39,-132.66c0.48,-44.16 0.14,-88.33 -0.01,-132.49c-0.15,-44.33 -0.58,-88.66 -0.79,-132.99c-0.35,-76.66 -0.72,-153.32 -0.91,-229.98c-0.13,-50.33 -0.03,-100.66 0.16,-150.99c0.04,-8.97 1.01,-17.94 1.55,-26.92c0.04,-0.65 0.34,-1.53 0.03,-1.93c-4.38,-5.7 -2.98,-12.53 -3.33,-18.84c-0.82,-14.64 -0.87,-29.31 -1.35,-43.96c-1.19,-35.74 -2.05,-71.49 -3.8,-107.19c-2,-41.09 -4.7,-82.15 -7.33,-123.2c-2,-31.26 -4.86,-62.46 -6.39,-93.73c-1.12,-22.91 -2.51,-45.93 2.4,-68.73c2.15,-9.99 6.65,-18.74 12.09,-27.17c0.36,-0.55 0.75,-1.29 1.29,-1.49c6.21,-2.22 5.13,-7.27 5.11,-12.18c-0.15,-36.99 -0.16,-73.98 -0.25,-110.97c0,-1.07 -0.08,-2.44 -0.71,-3.16c-5.58,-6.39 -6.37,-14.14 -6.23,-22.03c0.41,-21.63 1,-43.26 1.61,-64.88c0.05,-1.97 0.7,-3.92 1.2,-6.27m25.79,-20.13c-2.25,1.4 -4.51,2.79 -6.76,4.19c0.41,0.67 0.82,1.33 1.23,1.99c2.82,-1.65 5.64,-3.31 8.69,-5.56c-0.8,-0.24 -1.6,-0.49 -3.16,-0.62m3.26,-1.7c-0.28,3.11 -0.23,3.22 3.1,1.73c15.21,-6.82 31.23,-10.95 47.49,-14.19c53.89,-10.74 108.15,-12.5 162.64,-5.8c20.69,2.54 41.15,6.63 60.34,15.16c5.86,2.61 11.37,6.28 16.46,10.22c5.32,4.13 8.27,12.68 5.81,16.35c-3.11,4.64 -6.42,9.72 -10.9,12.78c-11.69,7.99 -24.43,14.28 -38.18,18.06c-34.41,9.46 -69.61,13.66 -105.17,14.25c-19.62,0.32 -39.26,-0.93 -58.89,-1.59c-20.7,-0.71 -40.4,-6.06 -59.62,-13.39c-6.62,-2.52 -13.12,-5.37 -20.12,-8.25c0.49,3.55 -3.78,7.73 1.89,9.91c8.84,3.42 17.72,6.8 26.77,9.6c26.73,8.25 54.23,11.83 82.11,12.57c28.02,0.75 55.97,-0.79 83.71,-4.69c26.31,-3.69 51.73,-11.18 76.2,-21.42c9.26,-3.87 17.92,-9.29 23.9,-18.2c4.66,-6.93 3.81,-21.86 -2.4,-27.93c-7.73,-7.55 -16.82,-12.54 -26.65,-16.27c-30.6,-11.61 -62.67,-15.44 -95.04,-16.78c-38.25,-1.59 -76.27,1.01 -113.85,8.75c-19.89,4.1 -39.47,9.23 -58.24,18.47c0,0 -0.32,0.37 -1.36,0.66m48.9,1703.4c11.91,2.4 23.73,5.97 35.75,6.95c25.54,2.07 51.17,3.18 76.79,3.98c33.97,1.07 67.16,-3.97 99.07,-15.74c9.73,-3.59 18.89,-8.9 27.98,-14c5.23,-2.94 8.71,-7.2 6.8,-14.32c-1.04,-3.9 -0.31,-8.29 -0.24,-12.45c0.29,-18.98 0.62,-37.96 0.94,-56.94c0.3,-17.65 0.64,-35.29 0.9,-52.94c0.09,-6.22 0.01,-12.44 0.01,-19.43c-103.9,41.59 -207.85,34.48 -312.18,0.2c-0.05,0.78 -0.24,2.39 -0.24,4.01c-0.01,16.15 -0.02,32.31 0.05,48.47c0.15,30.32 0.44,60.64 0.45,90.96c0,4.42 1.5,6.88 5.41,8.92c18.42,9.55 37.6,17.01 58.51,22.33m188.94,-280.22c-0.2,-32.83 -0.71,-65.65 -0.55,-98.48c0.69,-136.15 1.38,-272.29 2.56,-408.44c0.26,-29.29 -26.1,-55.51 -54.79,-51.21c-16.13,2.42 -32.29,4.68 -48.39,7.3c-19.27,3.13 -38.43,3.81 -57.45,-1.5c-4.15,-1.16 -8.15,-2.97 -12.35,-3.85c-14.42,-3.05 -29.02,-4.43 -43.73,-3.06c-19.22,1.8 -41.23,18.06 -40.89,43.04c0.98,73.98 0.64,147.98 0.86,221.97c0.34,110.32 0.71,220.64 1.1,330.96c0,2.13 -0.11,4.51 0.74,6.36c5.84,12.7 14.67,22.14 28.08,27.55c19.33,7.8 39.74,9.77 60.03,11.96c16.35,1.77 32.92,1.78 49.4,2.02c23.23,0.34 46.29,-1.68 68.9,-7.24c6.74,-1.66 14.08,-3.11 19.68,-6.85c19.58,-13.07 29.59,-31.47 27.55,-55.58c-0.39,-4.64 -0.5,-9.3 -0.75,-14.95m61.6,-1378.03c0,-1.17 0,-2.35 0,-3.67c-3.49,2.75 -6.38,5.24 -9.48,7.44c-11.42,8.09 -24.38,12.41 -37.64,16.59c-25.39,8 -51.22,13.19 -77.65,15.56c-35.39,3.17 -70.84,4.35 -106,-1.76c-15,-2.6 -29.72,-7.05 -44.37,-11.35c-7.7,-2.26 -14.96,-6.02 -22.63,-9.18c-0.51,7.69 -1.14,14.93 -1.43,22.18c-0.43,10.8 -0.46,21.62 -1.02,32.42c-0.17,3.37 0.72,4.97 3.87,6.32c21.11,9.08 43.17,14.57 65.82,17.79c46.84,6.64 93.65,6.24 140.37,-1.08c29.37,-4.6 58.19,-11.14 84.79,-25.2c3.06,-1.62 4.12,-3.31 4.15,-6.81c0.19,-19.47 0.71,-38.94 1.22,-59.25m-104.84,-58.39c-22.8,-0.27 -45.62,-1.29 -68.4,-0.61c-27.47,0.81 -54.79,3.91 -81.61,10.35c-16.53,3.97 -32.85,8.62 -47.69,17.24c-1.7,0.99 -4.34,3.01 -4.15,4.14c0.67,3.86 1.51,8.36 3.98,11.09c2.93,3.24 6.38,5.64 6.68,10.51c0.05,0.94 1.4,2.23 2.41,2.53c0.9,0.28 2.26,-0.38 3.22,-0.97c1.52,-0.93 2.71,-2.69 4.31,-3.13c14.25,-3.96 28.34,-9.3 42.88,-11.22c45.84,-6.06 91.94,-6.05 138.09,-3.47c24.22,1.35 47.27,7.13 69.8,15.63c0.94,0.36 2.43,0.64 3.09,0.16c6.71,-4.8 13.41,-9.62 19.88,-14.73c4.07,-3.22 3.34,-7.46 -0.15,-10.24c-5.76,-4.61 -11.69,-9.48 -18.35,-12.41c-23.2,-10.22 -48.19,-12.4 -73.99,-14.87m-213.05,472.99c0.82,18.13 1.64,36.26 2.46,54.39c1.58,34.61 3.21,69.22 4.71,103.84c0.61,14.12 1.03,28.25 1.37,42.38c0.13,5.31 -2.21,6.75 -7.37,4.95c-1.81,-0.64 -3.59,-1.34 -5.55,-2.07c0.64,18.55 1.2,36.52 1.99,54.48c0.07,1.44 1.42,3.57 2.69,4.09c11.1,4.52 22.33,8.76 34.51,13.46c0.23,-3.64 0.45,-5.56 0.44,-7.48c-0.36,-79.48 -0.75,-158.96 -1.15,-238.44c-0.11,-23.16 -0.43,-46.33 -0.37,-69.49c0.12,-51.99 0.53,-103.97 0.47,-155.96c0,-5.43 -0.82,-11.97 -3.85,-16.08c-7.23,-9.81 -18.87,-13.16 -30.24,-17.46c-0.29,4.06 -1.55,7.13 2.87,9.1c2.32,1.03 3.3,3.76 1.32,6.8c-11.6,17.8 -15.5,37.79 -15.03,58.56c0.35,15.45 2.35,30.85 3.42,46.28c2.47,35.91 4.82,71.81 7.31,108.65m276.57,401.45c-6.89,-12.64 -16.45,-22.14 -30.74,-26.01c-15.45,-4.19 -31.02,-2.78 -46.56,-0.7c-1.03,0.14 -2.59,2.1 -2.58,3.2c0.05,4.8 0.4,9.64 1.13,14.38c0.14,0.92 2.64,2.28 3.83,2.08c4.08,-0.69 8.08,-1.93 12.08,-3.04c22.2,-6.11 43.93,7.8 47.59,30.36c1.19,7.35 2.85,14.62 4.13,21.95c0.57,3.25 1.06,6.58 1.05,9.87c-0.11,73.65 -0.22,147.29 -0.5,220.93c-0.37,96.3 -0.92,192.6 -1.27,288.89c-0.01,3.11 1.29,6.23 1.98,9.34c5.46,-6.64 9.18,-13.28 13.61,-19.42c2.77,-3.84 3.09,-7.66 2.94,-12.1c-0.65,-18.48 -1.39,-36.97 -1.42,-55.45c-0.25,-154.29 -0.29,-308.58 -0.68,-462.86c-0.01,-6.93 -2.76,-13.84 -4.59,-21.42m-177.98,-463.04c0.04,-4.83 -0.01,-9.67 0.14,-14.49c0.2,-6.79 0.08,-7.02 -6.55,-7.48c-1.12,-0.08 -2.25,0.15 -3.55,0.25c4.1,29.21 -5.96,56.49 -10.18,84.87c3.13,1.05 6.22,2.19 9.37,3.13c35.24,10.54 71.25,11.15 107.46,7.75c21.05,-1.98 35.21,-12.57 41.37,-33.83c5.24,-18.08 6.22,-36.37 6.04,-54.87c-0.23,-23.65 -1.03,-47.29 -0.99,-70.93c0.01,-10.68 -1.96,-20.78 -4.96,-30.9c-3.44,-11.61 -10.4,-19.73 -21.65,-24.45c-15.95,-6.69 -32.96,-8.55 -49.76,-8.7c-17.71,-0.15 -35.49,2.47 -53.19,4.39c-12.79,1.39 -24.93,5.3 -36.22,11.61c7.27,23.01 11.2,46.35 12.6,70.41c3.32,-1.59 6.69,-3.21 10.24,-4.91c-0.69,-2.92 -1.6,-5.6 -1.95,-8.36c-2.12,-16.49 -4.18,-32.99 -6,-49.51c-0.14,-1.2 1.56,-3.43 2.81,-3.8c4.77,-1.4 9.69,-2.33 14.59,-3.26c25.75,-4.89 51.72,-8.36 77.95,-6.5c28.84,2.04 42.96,13.27 45.92,43.02c0.76,7.73 -0.36,15.63 -0.31,23.45c0.14,18.61 -0.23,37.26 0.9,55.82c1.12,18.64 1.1,37 -4.96,54.82c-4.65,13.7 -12.53,24.34 -28.6,25.29c-19.41,1.14 -38.82,2.67 -58.25,3.02c-14.64,0.26 -29.3,-1.14 -43.42,-5.69c-7.86,-2.54 -8.06,-3.32 -6.66,-11.43c2.75,-15.89 5.23,-31.83 7.81,-48.72m27.25,-46.05c-1.11,-3.3 -2.3,-6.57 -3.32,-9.89c-1.43,-4.62 -4.52,-7.9 -9.25,-7.72c-5.33,0.2 -11.05,0.79 -15.81,2.95c-8.35,3.78 -16.85,5.71 -25.87,6.65c-3.21,0.33 -6.99,2.51 -9.05,5.04c-5.19,6.38 -3.82,14.09 -2.3,21.44c0.52,2.5 1.47,5.77 3.33,6.96c5.93,3.81 12.17,7.61 20.19,5.45c0,-1.97 0,-4.02 0,-6.43c-3.07,0 -6.06,0.24 -8.99,-0.1c-1.54,-0.17 -2.95,-1.35 -4.43,-2.08c1.42,-0.84 2.88,-2.49 4.23,-2.4c11.65,0.73 23.44,-1.39 34.87,3.67c7.58,3.36 14.46,-0.72 16.41,-8.89c1.04,-4.36 0.15,-9.18 -0.01,-14.65m-112.45,-315.74c-3.88,-2.31 -8.06,-4.44 -7.58,-9.99c0.45,-5.16 -2.61,-7.47 -6.95,-8.99c-1.51,2.14 -3.82,4.11 -4.36,6.49c-0.88,3.82 -0.79,7.91 -0.76,11.89c0.18,20.27 0.44,40.54 0.74,60.81c0.06,3.94 -0.85,8.67 0.97,11.65c4.08,6.72 9.59,12.58 15.03,19.45c0.36,-2.2 0.72,-3.59 0.78,-5c0.5,-10.45 0.95,-20.91 1.4,-31.37c0.69,-16.06 1.4,-32.11 2,-48.16c0.08,-2.09 -0.45,-4.2 -1.27,-6.78m27.17,574.91c0,12.42 0,24.85 0,36.64c3.61,0 6.71,0.03 9.81,-0.01c3.39,-0.05 5.43,-1.03 5.47,-5.19c0.13,-12.12 0.72,-24.24 1.08,-36.36c0.02,-0.74 -0.43,-1.5 -0.72,-2.47c-5.21,0 -10.26,0 -15.65,0c0,2.47 0,4.44 0.01,7.39m203.04,-470.79c-3.38,0.62 -6.76,1.25 -10.42,1.92c1.33,5.06 2.52,9.64 3.76,14.35c2.19,-0.44 4.13,-0.83 6.07,-1.22c9.94,-2.03 19.92,-3.91 29.8,-6.23c1.74,-0.4 4.38,-2.75 4.29,-4.04c-0.29,-4 -1.7,-7.92 -2.67,-11.87c-10.56,2.43 -20.28,4.66 -30.83,7.09m-134.97,241.14c-0.11,0.13 -0.24,0.24 -0.32,0.38c-0.03,0.06 0.01,0.23 0.07,0.25c3.61,1.84 7.17,2.37 10.63,0.38c0,-0.5 0,-0.99 -0.01,-1.49c-3.26,0 -6.52,0 -10.37,0.48m-105.4,-371.94c0.71,0.9 1.43,1.8 2.15,2.7c1.13,-1.5 2.26,-3 3.39,-4.51c-0.45,-0.37 -0.9,-0.74 -1.36,-1.11c-1.19,0.8 -2.39,1.59 -4.18,2.92z" fill="#020202" id="svg_2"/>
  <path class="base" d="m118.46,1777.6c-20.51,-5.21 -39.69,-12.67 -58.11,-22.22c-3.91,-2.04 -5.41,-4.5 -5.41,-8.92c-0.01,-30.32 -0.3,-60.64 -0.45,-90.96c-0.07,-16.16 -0.06,-32.32 -0.05,-48.47c0,-1.62 0.19,-3.23 0.24,-4.01c104.33,34.28 208.28,41.39 312.18,-0.2c0,6.99 0.08,13.21 -0.01,19.43c-0.26,17.65 -0.6,35.29 -0.9,52.94c-0.32,18.98 -0.65,37.96 -0.94,56.94c-0.07,4.16 -0.8,8.55 0.24,12.45c1.91,7.12 -1.57,11.38 -6.8,14.32c-9.09,5.1 -18.25,10.41 -27.98,14c-31.91,11.77 -65.1,16.81 -99.07,15.74c-25.62,-0.8 -51.25,-1.91 -76.79,-3.98c-12.02,-0.98 -23.84,-4.55 -36.15,-7.06z" fill="#FEFEFE" id="svg_3"/>
  <path class="big-middle-pocket-outline" d="m307.81,1497.99c0.24,5.15 0.35,9.81 0.74,14.45c2.04,24.11 -7.97,42.51 -27.55,55.58c-5.6,3.74 -12.94,5.19 -19.68,6.85c-22.61,5.56 -45.67,7.58 -68.9,7.24c-16.48,-0.24 -33.05,-0.25 -49.4,-2.02c-20.29,-2.19 -40.7,-4.16 -60.03,-11.96c-13.41,-5.41 -22.24,-14.85 -28.08,-27.55c-0.85,-1.85 -0.74,-4.23 -0.74,-6.36c-0.39,-110.32 -0.76,-220.64 -1.1,-330.96c-0.22,-73.99 0.12,-147.99 -0.86,-221.97c-0.34,-24.98 21.67,-41.24 40.89,-43.04c14.71,-1.37 29.31,0.01 43.73,3.06c4.2,0.88 8.2,2.69 12.35,3.85c19.02,5.31 38.18,4.63 57.45,1.5c16.1,-2.62 32.26,-4.88 48.39,-7.3c28.69,-4.3 55.05,21.92 54.79,51.21c-1.18,136.15 -1.87,272.29 -2.56,408.44c-0.16,32.83 0.35,65.65 0.56,98.98m-61.58,67.98c6.69,-1.35 13.35,-2.92 20.08,-4.02c18.02,-2.92 34.46,-18.08 32.02,-41.21c-0.2,-1.98 -0.05,-4 -0.03,-6c0.38,-35.65 1.02,-71.31 1.08,-106.97c0.09,-66.3 -0.17,-132.6 -0.21,-198.91c-0.01,-3.96 0.97,-7.91 0.97,-11.87c-0.02,-52.16 0.08,-104.31 -0.34,-156.46c-0.15,-18.46 -0.67,-37.02 -2.76,-55.33c-2.34,-20.47 -23.38,-34.57 -43.57,-30.73c-9.14,1.73 -18.18,3.99 -27.34,5.6c-26.54,4.67 -53.13,3.66 -79.55,-0.68c-13.77,-2.27 -27.23,-6.33 -40.96,-8.9c-10.68,-2 -21,-0.43 -29.6,7c-8.96,7.74 -11.62,18.69 -12.82,29.51c-1.25,11.28 -0.41,22.8 -0.39,34.22c0.13,69.45 0.17,138.9 0.46,208.35c0.25,57.33 0.85,114.65 1.22,171.98c0.28,43.16 0.38,86.32 0.72,129.48c0.09,12.34 6.6,21.16 17.77,25.31c10.39,3.86 21.33,6.55 32.25,8.58c10.61,1.97 21.62,1.73 32.23,3.69c32.88,6.1 65.39,2.53 98.77,-2.64z" fill="#F3F3F3" id="svg_4"/>
  <path class="top" d="m369.35,119.88c-0.46,19.89 -0.98,39.36 -1.17,58.83c-0.03,3.5 -1.09,5.19 -4.15,6.81c-26.6,14.06 -55.42,20.6 -84.79,25.2c-46.72,7.32 -93.53,7.72 -140.37,1.08c-22.65,-3.22 -44.71,-8.71 -65.82,-17.79c-3.15,-1.35 -4.04,-2.95 -3.87,-6.32c0.56,-10.8 0.59,-21.62 1.02,-32.42c0.29,-7.25 0.92,-14.49 1.43,-22.18c7.67,3.16 14.93,6.92 22.63,9.18c14.65,4.3 29.37,8.75 44.37,11.35c35.16,6.11 70.61,4.93 106,1.76c26.43,-2.37 52.26,-7.56 77.65,-15.56c13.26,-4.18 26.22,-8.5 37.64,-16.59c3.1,-2.2 5.99,-4.69 9.48,-7.44c0,1.32 0,2.5 -0.05,4.09z" fill="#FDFDFD" id="svg_5"/>
  <path class="top" d="m265.02,61.1c25.34,2.44 50.33,4.62 73.53,14.84c6.66,2.93 12.59,7.8 18.35,12.41c3.49,2.78 4.22,7.02 0.15,10.24c-6.47,5.11 -13.17,9.93 -19.88,14.73c-0.66,0.48 -2.15,0.2 -3.09,-0.16c-22.53,-8.5 -45.58,-14.28 -69.8,-15.63c-46.15,-2.58 -92.25,-2.59 -138.09,3.47c-14.54,1.92 -28.63,7.26 -42.88,11.22c-1.6,0.44 -2.79,2.2 -4.31,3.13c-0.96,0.59 -2.32,1.25 -3.22,0.97c-1.01,-0.3 -2.36,-1.59 -2.41,-2.53c-0.3,-4.87 -3.75,-7.27 -6.68,-10.51c-2.47,-2.73 -3.31,-7.23 -3.98,-11.09c-0.19,-1.13 2.45,-3.15 4.15,-4.14c14.84,-8.62 31.16,-13.27 47.69,-17.24c26.82,-6.44 54.14,-9.54 81.61,-10.35c22.78,-0.68 45.6,0.34 68.86,0.64z" fill="#FBFBFB" id="svg_6"/>
  <path class="middle-strap-trim" d="m51.46,533.59c-2.44,-36.37 -4.79,-72.27 -7.26,-108.18c-1.07,-15.43 -3.07,-30.83 -3.42,-46.28c-0.47,-20.77 3.43,-40.76 15.03,-58.56c1.98,-3.04 1,-5.77 -1.32,-6.8c-4.42,-1.97 -3.16,-5.04 -2.87,-9.1c11.37,4.3 23.01,7.65 30.24,17.46c3.03,4.11 3.85,10.65 3.85,16.08c0.06,51.99 -0.35,103.97 -0.47,155.96c-0.06,23.16 0.26,46.33 0.37,69.49c0.4,79.48 0.79,158.96 1.15,238.44c0.01,1.92 -0.21,3.84 -0.44,7.48c-12.18,-4.7 -23.41,-8.94 -34.51,-13.46c-1.27,-0.52 -2.62,-2.65 -2.69,-4.09c-0.79,-17.96 -1.35,-35.93 -1.99,-54.48c1.96,0.73 3.74,1.43 5.55,2.07c5.16,1.8 7.5,0.36 7.37,-4.95c-0.34,-14.13 -0.76,-28.26 -1.37,-42.38c-1.5,-34.62 -3.13,-69.23 -4.71,-103.84c-0.82,-18.13 -1.64,-36.26 -2.51,-54.86m10.35,60.84c0.4,9.81 0.91,19.63 1.18,29.45c0.86,31.43 1.65,62.87 2.42,94.31c0.14,5.65 0.26,11.33 -0.02,16.97c-0.4,8.06 -0.56,8.05 6.71,10.9c5.47,2.15 8.17,0.7 8.27,-5.06c0.21,-12.3 0.26,-24.61 0.04,-36.91c-0.61,-34.8 -1.39,-69.6 -2.1,-104.4c-0.46,-22.79 -0.87,-45.59 -1.37,-68.38c-0.71,-31.87 -5.21,-63.35 -9.44,-94.87c-1.41,-10.5 -1.82,-21.14 -2.67,-31.38c3.54,0 6.51,-0.04 9.47,0.01c3.64,0.06 5.86,-1.66 5.8,-5.32c-0.28,-18.13 -0.41,-36.28 -1.24,-54.4c-0.34,-7.19 -1.91,-14.44 -6.84,-20.35c-3.49,-4.17 -6.87,-4.41 -9.81,0.27c-2.81,4.46 -5.09,9.37 -6.83,14.35c-4.09,11.7 -5.32,23.88 -6.28,36.24c-1.78,22.89 -0.21,45.61 2.09,68.3c1.73,17.03 5.53,33.9 6.58,50.95c2.02,32.74 2.75,65.56 4.04,99.32z" fill="#F4F4F4" id="svg_7"/>
  <path class="big-middle-pocket-outline" d="m328.26,935.84c1.65,7.25 4.4,14.16 4.41,21.09c0.39,154.28 0.43,308.57 0.68,462.86c0.03,18.48 0.77,36.97 1.42,55.45c0.15,4.44 -0.17,8.26 -2.94,12.1c-4.43,6.14 -8.15,12.78 -13.61,19.42c-0.69,-3.11 -1.99,-6.23 -1.98,-9.34c0.35,-96.29 0.9,-192.59 1.27,-288.89c0.28,-73.64 0.39,-147.28 0.5,-220.93c0.01,-3.29 -0.48,-6.62 -1.05,-9.87c-1.28,-7.33 -2.94,-14.6 -4.13,-21.95c-3.66,-22.56 -25.39,-36.47 -47.59,-30.36c-4,1.11 -8,2.35 -12.08,3.04c-1.19,0.2 -3.69,-1.16 -3.83,-2.08c-0.73,-4.74 -1.08,-9.58 -1.13,-14.38c-0.01,-1.1 1.55,-3.06 2.58,-3.2c15.54,-2.08 31.11,-3.49 46.56,0.7c14.29,3.87 23.85,13.37 30.92,26.34m-4.47,349.66c0,65.08 0,130.17 0,195.25c0.68,0.02 1.36,0.04 2.04,0.05c0.1,-1.52 0.28,-3.03 0.28,-4.55c-0.36,-174.46 -0.72,-348.92 -1.12,-523.38c0,-1.47 -0.17,-2.99 -0.6,-4.38c-7.08,-22.71 -22.75,-35.55 -47.55,-35.27c-2.72,0.03 -5.43,0.87 -8.14,1.33c0.05,0.49 0.1,0.99 0.15,1.48c1.87,0 3.76,-0.15 5.62,0.02c6.74,0.61 13.68,0.5 20.15,2.16c15.69,4.02 28.54,25.58 28.53,36.87c-0.06,109.8 0.36,219.61 0.64,330.42z" fill="#F2F2F2" id="svg_8"/>
  <path class="top" d="m71.81,73.58c18.28,-9.17 37.86,-14.3 57.75,-18.4c37.58,-7.74 75.6,-10.34 113.85,-8.75c32.37,1.34 64.44,5.17 95.04,16.78c9.83,3.73 18.92,8.72 26.65,16.27c6.21,6.07 7.06,21 2.4,27.93c-5.98,8.91 -14.64,14.33 -23.9,18.2c-24.47,10.24 -49.89,17.73 -76.2,21.42c-27.74,3.9 -55.69,5.44 -83.71,4.69c-27.88,-0.74 -55.38,-4.32 -82.11,-12.57c-9.05,-2.8 -17.93,-6.18 -26.77,-9.6c-5.67,-2.18 -1.4,-6.36 -1.89,-9.91c7,2.88 13.5,5.73 20.12,8.25c19.22,7.33 38.92,12.68 59.62,13.39c19.63,0.66 39.27,1.91 58.89,1.59c35.56,-0.59 70.76,-4.79 105.17,-14.25c13.75,-3.78 26.49,-10.07 38.18,-18.06c4.48,-3.06 7.79,-8.14 10.9,-12.78c2.46,-3.67 -0.49,-12.22 -5.81,-16.35c-5.09,-3.94 -10.6,-7.61 -16.46,-10.22c-19.19,-8.53 -39.65,-12.62 -60.34,-15.16c-54.49,-6.7 -108.75,-4.94 -162.64,5.8c-16.26,3.24 -32.28,7.37 -47.49,14.19c-3.33,1.49 -3.38,1.38 -2.45,-1.73c0.83,-0.24 1.01,-0.48 1.2,-0.73z" fill="#EEEEEE" id="svg_10"/>
  <path class="top" d="m65.19,110.92c0.53,2.34 1.06,4.45 0.98,6.54c-0.6,16.05 -1.31,32.1 -2,48.16c-0.45,10.46 -0.9,20.92 -1.4,31.37c-0.06,1.41 -0.42,2.8 -0.78,5c-5.44,-6.87 -10.95,-12.73 -15.03,-19.45c-1.82,-2.98 -0.91,-7.71 -0.97,-11.65c-0.3,-20.27 -0.56,-40.54 -0.74,-60.81c-0.03,-3.98 -0.12,-8.07 0.76,-11.89c0.54,-2.38 2.85,-4.35 4.36,-6.49c4.34,1.52 7.4,3.83 6.95,8.99c-0.48,5.55 3.7,7.68 7.87,10.23z" fill="#F7F7F7" id="svg_12"/>
  <path class="top" d="m295.52,214.7c10.14,-2.33 19.86,-4.56 30.42,-6.99c0.97,3.95 2.38,7.87 2.67,11.87c0.09,1.29 -2.55,3.64 -4.29,4.04c-9.88,2.32 -19.86,4.2 -29.8,6.23c-1.94,0.39 -3.88,0.78 -6.07,1.22c-1.24,-4.71 -2.43,-9.29 -3.76,-14.35c3.66,-0.67 7.04,-1.3 10.83,-2.02z" fill="#F6F6F6" id="svg_14"/>
  <path d="m55.04,83.73c1.49,-1.06 2.69,-1.85 3.88,-2.65c0.46,0.37 0.91,0.74 1.36,1.11c-1.13,1.51 -2.26,3.01 -3.39,4.51c-0.72,-0.9 -1.44,-1.8 -1.85,-2.97z" fill="#EEEEEE" id="svg_16"/>
  <path d="m69.63,77.23c-2.82,1.65 -5.64,3.31 -8.46,4.96c-0.41,-0.66 -0.82,-1.32 -1.23,-1.99c2.25,-1.4 4.51,-2.79 7.61,-3.8c1.26,0.54 1.67,0.68 2.08,0.83z" fill="#EEEEEE" id="svg_17"/>
  <path d="m67.93,76.34c0.33,-0.2 1.13,0.05 1.82,0.59c-0.53,0.15 -0.94,0.01 -1.82,-0.59z" fill="#EEEEEE" id="svg_18"/>
  <path d="m71.56,73.62c0.06,0.21 -0.12,0.45 -0.43,0.55c-0.13,-0.15 0.19,-0.52 0.43,-0.55z" fill="#DADADA" id="svg_19"/>
  <path class="left-fill" d="m245.81,1566.04c-32.96,5.1 -65.47,8.67 -98.35,2.57c-10.61,-1.96 -21.62,-1.72 -32.23,-3.69c-10.92,-2.03 -21.86,-4.72 -32.25,-8.58c-11.17,-4.15 -17.68,-12.97 -17.77,-25.31c-0.34,-43.16 -0.44,-86.32 -0.72,-129.48c-0.37,-57.33 -0.97,-114.65 -1.22,-171.98c-0.29,-69.45 -0.33,-138.9 -0.46,-208.35c-0.02,-11.42 -0.86,-22.94 0.39,-34.22c1.2,-10.82 3.86,-21.77 12.82,-29.51c8.6,-7.43 18.92,-9 29.6,-7c13.73,2.57 27.19,6.63 40.96,8.9c26.42,4.34 53.01,5.35 79.55,0.68c9.16,-1.61 18.2,-3.87 27.34,-5.6c20.19,-3.84 41.23,10.26 43.57,30.73c2.09,18.31 2.61,36.87 2.76,55.33c0.42,52.15 0.32,104.3 0.34,156.46c0,3.96 -0.98,7.91 -0.97,11.87c0.04,66.31 0.3,132.61 0.21,198.91c-0.06,35.66 -0.7,71.32 -1.08,106.97c-0.02,2 -0.17,4.02 0.03,6c2.44,23.13 -14,38.29 -32.02,41.21c-6.73,1.1 -13.39,2.67 -20.5,4.09m-99.17,-283.44c-12.32,-0.07 -24.65,0.17 -36.95,-0.35c-5.93,-0.25 -9.67,2.24 -11.97,7.02c-4.53,9.37 -4.91,19.21 -2.12,29.18c1.28,4.59 4.1,7.63 9.18,7.64c6.29,0.02 12.59,-0.22 18.89,-0.25c42.95,-0.2 85.9,-0.38 128.85,-0.56c6.53,-0.02 11.12,-3.34 11.5,-9.84c0.44,-7.58 0.21,-15.28 -0.65,-22.83c-1,-8.75 -4.54,-11.27 -13.38,-11.17c-34.13,0.38 -68.26,0.77 -103.35,1.16z" fill="#010101" id="svg_20"/>
  <path class="middle-strap" d="m61.79,593.94c-1.27,-33.27 -2,-66.09 -4.02,-98.83c-1.05,-17.05 -4.85,-33.92 -6.58,-50.95c-2.3,-22.69 -3.87,-45.41 -2.09,-68.3c0.96,-12.36 2.19,-24.54 6.28,-36.24c1.74,-4.98 4.02,-9.89 6.83,-14.35c2.94,-4.68 6.32,-4.44 9.81,-0.27c4.93,5.91 6.5,13.16 6.84,20.35c0.83,18.12 0.96,36.27 1.24,54.4c0.06,3.66 -2.16,5.38 -5.8,5.32c-2.96,-0.05 -5.93,-0.01 -9.47,-0.01c0.85,10.24 1.26,20.88 2.67,31.38c4.23,31.52 8.73,63 9.44,94.87c0.5,22.79 0.91,45.59 1.37,68.38c0.71,34.8 1.49,69.6 2.1,104.4c0.22,12.3 0.17,24.61 -0.04,36.91c-0.1,5.76 -2.8,7.21 -8.27,5.06c-7.27,-2.85 -7.11,-2.84 -6.71,-10.9c0.28,-5.64 0.16,-11.32 0.02,-16.97c-0.77,-31.44 -1.56,-62.88 -2.42,-94.31c-0.27,-9.82 -0.78,-19.64 -1.2,-29.94m12.88,-226.38c-0.42,-7.35 -0.85,-14.71 -1.27,-22.06c-7.06,17.4 -10.27,35.19 -8.98,53.93c3.37,0 6.61,0 10.26,0c0,-10.38 0,-20.63 -0.01,-31.87z" fill="#050505" id="svg_21"/>
  <path d="m323.79,1285c-0.28,-110.31 -0.7,-220.12 -0.64,-329.92c0.01,-11.29 -12.84,-32.85 -28.53,-36.87c-6.47,-1.66 -13.41,-1.55 -20.15,-2.16c-1.86,-0.17 -3.75,-0.02 -5.62,-0.02c-0.05,-0.49 -0.1,-0.99 -0.15,-1.48c2.71,-0.46 5.42,-1.3 8.14,-1.33c24.8,-0.28 40.47,12.56 47.55,35.27c0.43,1.39 0.6,2.91 0.6,4.38c0.4,174.46 0.76,348.92 1.12,523.38c0,1.52 -0.18,3.03 -0.28,4.55c-0.68,-0.01 -1.36,-0.03 -2.04,-0.05c0,-65.08 0,-130.17 0,-195.75z" fill="#161616" id="svg_22"/>
  <path class="big-middle-pocket-outline" d="m147.12,1282.6c34.61,-0.39 68.74,-0.78 102.87,-1.16c8.84,-0.1 12.38,2.42 13.38,11.17c0.86,7.55 1.09,15.25 0.65,22.83c-0.38,6.5 -4.97,9.82 -11.5,9.84c-42.95,0.18 -85.9,0.36 -128.85,0.56c-6.3,0.03 -12.6,0.27 -18.89,0.25c-5.08,-0.01 -7.9,-3.05 -9.18,-7.64c-2.79,-9.97 -2.41,-19.81 2.12,-29.18c2.3,-4.78 6.04,-7.27 11.97,-7.02c12.3,0.52 24.63,0.28 37.43,0.35z" fill="#FCFCFC" id="svg_23"/>
  <path class="middle-strap-trim" d="m74.68,368.05c0,10.75 0,21 0,31.38c-3.65,0 -6.89,0 -10.26,0c-1.29,-18.74 1.92,-36.53 8.98,-53.93c0.42,7.35 0.85,14.71 1.28,22.55z" fill="#ECECEC" id="svg_24"/>
 </g>
 <g class="layer" display="inline">
  <title>middle bg</title>
  <path class="upper-left-pocket-fill" d="m246.25,327.88c-1.3,0 -2.23,0 -3.15,0c-0.94,0 -1.95,0 -2.92,0c-0.93,0 -1.93,0.26 -2.83,0c-0.8,-0.23 -1.62,-0.44 -2.62,-0.44c-0.9,0 -1.83,0 -2.84,0c-0.94,0 -1.91,0 -2.84,0c-0.93,0 -1.87,0 -2.82,0c-0.97,0 -1.92,0 -2.86,0c-0.94,0 -1.87,0 -2.84,0c-0.93,0 -1.86,0 -2.79,0c-0.97,0 -1.92,0 -2.86,0c-0.96,0 -1.92,0 -2.83,0c-0.94,0 -1.89,0 -2.86,0c-0.98,0 -1.91,0 -2.88,0c-0.93,0 -1.84,0 -2.84,0c-0.93,0 -1.88,-0.08 -2.82,0c-0.89,0.08 -1.78,0.26 -2.66,0.44c-0.97,0.2 -1.87,0.25 -2.76,0.48c-0.87,0.23 -1.73,0.43 -2.56,0.85c-0.76,0.38 -1.72,0.45 -2.64,0.45c-0.87,0 -1.91,-0.12 -2.77,0c-0.91,0.13 -1.86,0.44 -2.81,0.44c-0.99,0 -1.93,0 -2.78,0c-0.99,0 -1.97,0 -2.85,0.22c-0.86,0.22 -1.86,0.22 -2.79,0.22c-0.97,0 -1.9,-0.08 -2.87,0c-0.92,0.08 -1.82,0.29 -2.75,0.46c-0.87,0.16 -1.74,0.49 -2.65,0.72c-0.98,0.24 -1.84,0.51 -2.78,0.6c-0.91,0.09 -1.8,0.34 -2.71,0.57c-0.87,0.22 -1.69,0.56 -2.58,0.79c-0.84,0.22 -1.77,0.77 -2.65,0.86c-0.94,0.1 -1.87,0.2 -2.76,0.54c-0.83,0.32 -1.68,0.5 -2.48,0.83c-0.83,0.34 -1.7,0.56 -2.49,0.78c-0.92,0.26 -1.87,0.01 -2.84,0.07c-0.89,0.06 -1.76,0.44 -2.72,0.44c-0.94,0 -2.05,-0.26 -2.69,0.22c-0.64,0.48 -0.72,1.42 -1.17,2.22c-0.39,0.69 -0.91,1.31 -1.16,1.95c-0.33,0.85 0,1.82 0,2.72c0,0.93 0,1.81 0,2.74c0,0.9 0.21,1.83 0,2.73c-0.21,0.87 -0.46,1.65 -0.46,2.52c0,0.99 -0.42,1.79 -0.46,2.68c-0.04,0.93 0,1.82 0,2.76c0,0.89 0,1.76 0,2.73c0,0.9 0.31,1.68 0.57,2.56c0.23,0.8 0.48,1.6 0.92,2.39c0.44,0.8 0.57,1.76 0.82,2.61c0.25,0.84 0.48,1.66 0.48,2.59c0,0.89 0,1.82 0,2.71c0,0.84 0,1.81 0,2.71c0,0.91 0.33,1.76 0.46,2.64c0.14,0.93 -0.11,1.81 0.13,2.73c0.21,0.81 0.33,1.72 0.33,2.63c0,0.91 0,1.76 0,2.72c0,0.96 0,1.82 0,2.71c0,0.93 -0.26,1.86 0,2.77c0.24,0.83 0.64,1.6 0.87,2.44c0.25,0.88 0.29,1.69 0.51,2.53c0.25,0.92 -0.1,1.88 0.11,2.75c0.21,0.88 0.29,1.77 0.36,2.69c0.07,0.88 0.46,1.71 0.46,2.57c0,0.95 0,1.92 0,2.66c0,1.03 0,1.96 0,2.84c0,0.88 0,1.83 0,2.77c0,0.89 0,1.82 0,2.62c0,0.95 0,1.93 0,2.66c0,1.07 0,1.94 0,2.9c0,0.88 0,1.79 0,2.66c0,0.97 0,1.84 0,2.75c0,0.95 0,1.79 0,2.76c0,0.88 0,1.83 0,2.68c0,0.93 0,1.78 0,2.72c0,0.9 0,1.92 0,2.74c0,0.91 0,1.81 0,2.73c0,0.87 0,1.85 0,2.74c0,0.89 0,1.82 0,2.7c0,0.84 0,1.72 0,2.77c0,0.85 0,1.79 0,2.7c0,0.9 0,1.76 0,2.72c0,0.89 0,1.82 0,2.74c0,0.88 0,1.86 0,2.72c0,0.93 0.36,1.7 0.46,2.56c0.11,0.94 0,1.88 0,2.81c0,0.89 0,1.8 0,2.74c0,0.88 0,1.78 0,2.74c0,0.9 0,1.81 0,2.67c0,0.95 0.36,1.76 0.46,2.66c0.1,0.9 0,1.81 0,2.73c0,0.93 -0.11,1.82 0,2.76c0.1,0.86 0.27,1.6 0.02,2.38c-0.27,0.82 -0.52,1.67 -0.81,2.51c-0.3,0.87 -0.44,1.79 -0.62,2.59c-0.22,1 -0.61,1.8 -0.91,2.59c-0.35,0.9 -0.46,1.75 -0.68,2.59c-0.24,0.93 -0.23,1.78 -0.23,2.76c0,0.88 0,1.83 0,2.75c0,0.91 0,1.76 0,2.71c0,0.91 0,1.79 0,2.68c0,0.95 0,1.81 0,2.72c0,0.98 0.15,1.86 -0.08,2.76c-0.22,0.86 -0.24,1.69 -0.39,2.65c-0.13,0.84 -0.39,1.66 -0.46,2.61c-0.07,0.9 -0.42,1.78 -0.46,2.72c-0.04,0.92 0.12,1.83 -0.13,2.69c-0.23,0.78 -0.33,1.63 -0.33,2.55c0,0.93 0.24,1.69 0.45,2.65c0.19,0.83 0.01,1.91 0.64,2.57c0.66,0.68 1.39,1.06 2.11,1.74c0.55,0.51 1.28,1 2.08,1.44c0.84,0.46 1.57,0.88 2.34,1.37c0.75,0.48 1.53,0.8 2.33,1.19c0.84,0.41 1.7,0.69 2.55,1.01c0.9,0.34 1.79,0.49 2.74,0.81c0.9,0.3 1.79,0.78 2.66,1.04c0.86,0.26 1.8,0.16 2.79,0.16c0.95,0 1.85,0 2.81,0c0.95,0 1.99,-0.05 2.9,0c0.94,0.05 1.77,0.39 2.58,0.47c1,0.1 1.99,0.44 2.87,0.67c0.93,0.24 1.78,0.42 2.74,0.65c0.9,0.22 1.8,0.36 2.73,0.43c1,0.08 1.9,0.38 2.82,0.6c0.94,0.22 1.85,0.47 2.66,0.73c0.92,0.3 1.79,0.57 2.78,0.89c0.77,0.25 1.77,0.53 2.55,0.7c1.11,0.23 2,0.19 2.93,0.38c0.96,0.19 1.85,0.26 2.85,0.26c0.88,0 1.94,0 2.82,0c0.87,0 1.95,0 2.91,0c0.87,0 1.85,0 2.78,0c0.95,0 1.9,0 2.87,0c0.92,0 1.88,0 2.85,0c0.95,0 1.84,0 2.82,0c0.93,0 1.92,0 2.83,0c0.87,0 1.8,-0.15 2.78,-0.37c0.92,-0.21 1.9,0.02 2.8,-0.09c0.88,-0.11 1.87,-0.41 2.7,-0.42c1.14,-0.03 1.85,0.02 2.81,-0.04c1.02,-0.06 1.84,-0.2 2.73,-0.28c1.29,-0.11 1.97,-0.12 2.94,-0.12c1.1,-0.01 1.9,0.04 3.04,-0.13c0.84,-0.12 1.79,-0.27 2.69,-0.44c1.08,-0.21 1.89,-0.32 2.82,-0.32c1.01,0 1.97,0 2.89,0c0.96,0 1.94,0 2.85,0c0.85,0 1.8,0 2.71,0c1.02,0 2.04,0 2.92,0c0.94,0 1.93,0 2.9,0c0.94,0 1.91,0.06 2.68,-0.31c0.96,-0.46 1.75,-0.94 2.44,-1.48c0.72,-0.57 1.35,-1.11 2.04,-1.77c0.65,-0.62 1.3,-1.24 1.99,-1.91c0.65,-0.62 1.46,-1.16 2.09,-1.72c0.74,-0.67 1.52,-1.01 2.15,-1.61c0.7,-0.67 1.45,-1.2 2.18,-1.67c0.87,-0.56 1.62,-0.99 2.39,-1.5c0.77,-0.52 1.52,-1.07 2.32,-1.51c0.76,-0.43 1.49,-1.07 2.4,-1.4c0.86,-0.31 1.58,-0.76 2.39,-1.11c0.87,-0.37 1.71,-0.59 2.54,-1.02c0.8,-0.42 1.45,-1.03 2.26,-1.65c0.69,-0.53 1.48,-0.98 2.13,-1.6c0.73,-0.7 1.22,-1.37 1.72,-2.22c0.44,-0.75 1.03,-1.51 1.53,-2.24c0.48,-0.7 0.93,-1.59 1.34,-2.39c0.41,-0.8 0.85,-1.63 1.08,-2.59c0.19,-0.8 0.26,-1.7 0.41,-2.55c0.16,-0.9 0.1,-1.73 0.26,-2.73c0.15,-0.88 0.63,-1.76 0.78,-2.71c0.14,-0.88 0.23,-1.71 0.4,-2.68c0.14,-0.78 -0.01,-1.72 0.09,-2.64c0.1,-0.9 0.44,-1.79 0.45,-2.74c0.01,-0.93 0,-1.83 0,-2.58c0,-1.07 0.13,-2.01 0.27,-2.69c0.22,-1.06 0.2,-1.9 0.2,-2.9c0,-0.73 -0.01,-1.78 0.16,-2.68c0.15,-0.78 0.29,-1.68 0.3,-2.64c0.01,-0.94 0,-1.82 0,-2.73c0,-0.91 0,-1.8 0,-2.75c0,-0.84 0,-1.76 0,-2.82c0,-0.8 0,-1.73 0,-2.7c0,-0.75 0,-1.73 0,-2.69c0,-0.84 -0.03,-1.79 0.01,-2.61c0.05,-0.97 0.34,-1.84 0.43,-2.78c0.06,-0.71 0.03,-1.7 0.03,-2.57c0,-0.94 0,-1.93 0,-2.64c0,-1.07 0,-2.06 0,-2.94c0,-0.9 0,-1.88 0,-2.74c0,-0.92 -0.04,-1.78 0.03,-2.69c0.07,-0.89 0.31,-1.79 0.4,-2.79c0.07,-0.84 0.04,-1.86 0.04,-2.61c0,-0.99 -0.01,-1.75 0.1,-2.67c0.11,-0.91 0.31,-2.02 0.34,-2.72c0.05,-0.98 0.02,-1.88 0.02,-2.8c0,-0.89 0,-1.83 0,-2.78c0,-0.86 0,-1.76 0,-2.76c0,-0.73 0,-1.77 0,-2.59c0,-0.91 0.05,-1.92 0,-2.81c-0.05,-0.94 -0.53,-1.68 -0.76,-2.51c-0.23,-0.81 -0.27,-1.68 -0.36,-2.39c-0.11,-0.85 -0.21,-2.08 -0.24,-2.71c-0.05,-0.95 -0.17,-2.25 -0.29,-2.93c-0.12,-0.69 -0.38,-1.74 -0.59,-2.81c-0.14,-0.71 -0.24,-1.41 -0.4,-2.41c-0.19,-1.2 -0.34,-1.98 -0.44,-2.67c-0.15,-1.01 -0.17,-1.89 -0.4,-2.9c-0.21,-0.92 -0.13,-1.79 -0.36,-2.7c-0.23,-0.91 -0.33,-1.77 -0.33,-2.65c0,-0.93 0.12,-1.87 -0.1,-2.71c-0.24,-0.87 -0.36,-1.73 -0.36,-2.67c0,-0.84 0,-1.78 0,-2.63c0,-0.95 0,-1.77 0,-2.74c0,-0.85 0,-1.78 0,-2.73c0,-0.94 0,-1.78 0,-2.72c0,-0.95 0,-1.87 0,-2.81c0,-0.92 0,-1.8 0,-2.71c0,-0.86 0,-1.84 0,-2.73c0,-0.9 0.24,-1.72 0.46,-2.54c0.23,-0.85 0.02,-1.77 0,-2.74c-0.02,-0.86 -0.66,-1.6 -0.91,-2.46c-0.24,-0.83 -0.55,-1.69 -0.87,-2.56c-0.3,-0.84 -0.66,-1.64 -1,-2.42c-0.36,-0.8 -0.52,-1.72 -1.01,-2.47c-0.46,-0.71 -0.91,-1.51 -1.48,-2.28c-0.5,-0.68 -1.17,-1.38 -1.73,-2.13c-0.53,-0.71 -1.14,-1.32 -1.73,-2.1c-0.49,-0.65 -0.85,-1.52 -1.38,-2.17c-0.56,-0.7 -0.99,-1.41 -1.49,-2.17c-0.52,-0.8 -1.19,-1.44 -1.61,-2.19c-0.45,-0.8 -0.9,-1.54 -1.43,-2.26c-0.53,-0.72 -0.98,-1.52 -1.45,-2.26c-0.5,-0.78 -1.01,-1.48 -1.55,-2.2c-0.51,-0.67 -0.86,-1.62 -1.6,-2.15c-0.74,-0.54 -1.49,-1.02 -2.27,-1.43c-0.81,-0.43 -1.77,-0.79 -2.6,-1.03c-0.91,-0.26 -1.59,-0.72 -2.61,-1.04c-0.75,-0.23 -1.81,-0.44 -2.69,-0.57c-1.05,-0.15 -1.88,-0.15 -3.07,-0.26c-0.84,-0.08 -1.7,-0.21 -2.77,-0.29c-0.88,-0.06 -1.84,-0.03 -2.77,-0.06c-1,-0.04 -1.86,-0.2 -2.81,-0.31c-1.01,-0.11 -1.79,-0.12 -2.9,-0.13c-0.86,0 -1.81,0 -2.9,0c-0.8,0 -1.76,0 -2.78,0c-0.93,0 -1.85,0 -2.78,0c-0.93,0 -1.91,-0.23 -2.81,-0.42c-0.97,-0.2 -1.9,-0.03 -2.94,-0.03c-0.93,0 -1.83,-0.15 -2.64,-0.32c-0.97,-0.21 -1.95,-0.08 -2.96,-0.13c-0.89,-0.04 -1.82,-0.41 -2.74,-0.44c-0.95,-0.04 -1.83,-0.09 -2.74,-0.32c-0.82,-0.2 -1.92,0 -2.91,-0.2c-0.73,-0.15 -1.69,-0.22 -2.69,-0.38c-0.89,-0.15 -1.77,-0.43 -2.78,-0.44c-0.93,0 -1.9,0 -2.8,0c-1.03,0 -2.01,0.06 -2.98,-0.1c-0.82,-0.14 -1.78,-0.31 -2.52,-0.37c-1.03,-0.08 -1.88,-0.28 -3.04,-0.38c-0.77,-0.07 -1.88,-0.04 -2.84,-0.04c-0.99,0 -1.79,-0.04 -2.77,-0.22c-0.93,-0.17 -1.8,-0.22 -2.91,-0.22c-0.73,0 -1.88,0 -2.64,0c-0.99,0 -2.02,0.04 -2.94,-0.02c-0.96,-0.06 -1.87,-0.31 -2.9,-0.39c-0.87,-0.07 -1.94,-0.04 -2.72,-0.04c-1.03,0 -1.92,0 -2.89,0c-0.97,0 -1.91,0 -2.81,0c-0.95,0 -1.79,-0.03 -2.88,-0.22c-0.99,-0.18 -1.82,-0.22 -2.79,-0.22c-0.97,0 -1.81,0 -2.79,0c-1.1,0 -1.96,0 -2.93,0c-0.92,0 -1.95,-0.12 -2.86,0.07c-0.81,0.18 -1.75,0.64 -2.68,0.8c-0.88,0.16 -1.88,0.47 -2.63,0.77c-0.95,0.37 -1.92,0.67 -2.62,0.89c-0.98,0.31 -1.97,0.57 -2.76,0.76c-0.83,0.2 -1.89,0.65 -2.84,1.15c-0.67,0.36 -1.35,0.7 -2.46,1.1c-0.84,0.3 -1.71,0.44 -2.63,0.94c-0.82,0.45 -1.63,0.86 -2.43,1.26c-0.87,0.43 -1.17,1.44 -1.99,1.87c-0.79,0.41 -1.57,0.76 -2.23,1.28c-0.75,0.6 -1.44,1.2 -1.99,1.94c-0.6,0.8 -0.62,1.72 -0.86,2.56c-0.23,0.82 -0.06,1.7 0.26,2.6c0.29,0.82 0.61,1.66 1.04,2.53c0.41,0.82 1.03,1.44 1.45,2.24l0.63,0.67l0.21,0.9" fill="#000000" id="svg_28" stroke="#000000" stroke-opacity="0" stroke-width="0"/>
 </g>
 <g class="layer" display="inline">
  <title>left-strap-fill</title>
  <path class="middle-strap" d="m34.35,585.01c-1.27,-33.82 -2,-67.18 -4.02,-100.46c-1.05,-17.33 -4.85,-34.48 -6.58,-51.79c-2.3,-23.06 -3.87,-46.16 -2.09,-69.42c0.96,-12.56 2.19,-24.94 6.28,-36.84c1.74,-5.06 4.02,-10.05 6.83,-14.59c2.94,-4.76 6.32,-4.51 9.81,-0.27c4.93,6.01 6.5,13.38 6.84,20.69c0.83,18.42 0.96,36.87 1.24,55.3c0.06,3.72 -2.16,5.47 -5.8,5.41c-2.96,-0.05 -5.93,-0.01 -9.47,-0.01c0.85,10.41 1.26,21.22 2.67,31.9c4.23,32.04 8.73,64.04 9.44,96.43c0.5,23.17 0.91,46.34 1.37,69.51c0.71,35.37 1.49,70.75 2.1,106.12c0.22,12.5 0.17,25.02 -0.04,37.52c-0.1,5.85 -2.8,7.33 -8.27,5.14c-7.27,-2.9 -7.11,-2.89 -6.71,-11.08c0.28,-5.73 0.16,-11.51 0.02,-17.25c-0.77,-31.96 -1.56,-63.92 -2.42,-95.86c-0.27,-9.98 -0.78,-19.96 -1.2,-30.43m12.88,-230.11c-0.42,-7.47 -0.85,-14.95 -1.27,-22.42c-7.06,17.69 -10.27,35.77 -8.98,54.82c3.37,0 6.61,0 10.26,0c0,-10.55 0,-20.97 -0.01,-32.39l0,-0.01z" fill="#000000" id="svg_9" stroke="#000000" stroke-opacity="0" transform="rotate(1.21057 37.0024 524.501)"/>
  <ellipse cx="73" cy="283" fill="#000000" fill-opacity="0" id="svg_11" rx="18" ry="47" stroke="#000000" stroke-opacity="0"/>
  <rect class="middle-strap" fill="#000000" height="50" id="bag3_svg_13" stroke="#000000" stroke-opacity="0" stroke-width="0" width="20" x="88" y="672"/>
 </g>
 <g class="layer" display="inline">
  <title>middle outline</title>
  <path d="m159.45,453.21c3.55,-0.24 6.81,-0.24 10.07,-0.24c0.01,0.5 0.01,0.99 0.01,1.49c-3.46,1.99 -7.02,1.46 -10.63,-0.38c-0.06,-0.02 -0.1,-0.19 -0.07,-0.25c0.08,-0.14 0.21,-0.25 0.62,-0.62z" fill="#C2C2C2" id="svg_25" transform="matrix(1 0 0 1 0 0)"/>
  <path class="upper-left-pocket-trim" d="m176.43,426.56c0.09,5.66 0.98,11.06 -0.06,15.96c-1.95,9.17 -8.83,13.75 -16.41,9.98c-11.43,-5.68 -23.22,-3.3 -34.87,-4.12c-1.35,-0.1 -2.81,1.75 -4.23,2.69c1.48,0.82 2.89,2.14 4.43,2.33c2.93,0.38 5.92,0.11 8.99,0.11c0,2.7 0,5 0,7.22c-8.02,2.42 -14.26,-1.84 -20.19,-6.12c-1.86,-1.34 -2.81,-5 -3.33,-7.81c-1.52,-8.25 -2.89,-16.9 2.3,-24.06c2.06,-2.84 5.84,-5.29 9.05,-5.66c9.02,-1.05 17.52,-3.22 25.87,-7.46c4.76,-2.42 10.48,-3.09 15.81,-3.31c4.73,-0.2 7.82,3.48 9.25,8.66c1.02,3.73 2.21,7.39 3.39,11.58l0,0.01z" fill="#FAFAFA" id="svg_26"/>
  <path class="upper-left-pocket-trim" d="m149.11,472.47c-2.58,16.62 -5.06,32.77 -7.81,48.87c-1.4,8.22 -1.2,9.01 6.66,11.58c14.12,4.61 28.78,6.03 43.42,5.77c19.43,-0.35 38.84,-1.91 58.25,-3.06c16.07,-0.96 23.95,-11.74 28.6,-25.63c6.06,-18.06 6.08,-36.66 4.96,-55.55c-1.13,-18.81 -0.76,-37.7 -0.9,-56.56c-0.05,-7.92 1.07,-15.93 0.31,-23.76c-2.96,-30.15 -17.08,-41.53 -45.92,-43.59c-26.23,-1.88 -52.2,1.63 -77.95,6.59c-4.9,0.94 -9.82,1.88 -14.59,3.3c-1.25,0.37 -2.95,2.63 -2.81,3.85c1.82,16.74 3.88,33.46 6,50.17c0.35,2.8 1.26,5.51 1.95,8.47c-3.55,1.72 -6.92,3.36 -10.24,4.98c-1.4,-24.38 -5.33,-48.03 -12.6,-71.35c11.29,-6.39 23.43,-10.36 36.22,-11.76c17.7,-1.95 35.48,-4.6 53.19,-4.45c16.8,0.15 33.81,2.04 49.76,8.82c11.25,4.78 18.21,13.01 21.65,24.78c3,10.25 4.97,20.49 4.96,31.31c-0.04,23.95 0.76,47.91 0.99,71.87c0.18,18.75 -0.8,37.28 -6.04,55.6c-6.16,21.54 -20.32,32.27 -41.37,34.28c-36.21,3.45 -72.22,2.83 -107.46,-7.85c-3.15,-0.95 -6.24,-2.11 -9.37,-3.17c4.22,-28.76 14.28,-56.4 10.18,-86c1.3,-0.1 2.43,-0.33 3.55,-0.25c6.63,0.47 6.75,0.7 6.55,7.58c-0.15,4.88 -0.1,9.79 -0.14,15.18l0,-0.02z" fill="#ffffff" id="svg_27" stroke-width="5" transform="matrix(1 0 0 1 0 0)"/>
 </g>
</svg>