<?xml version="1.0"?>
<svg width="560" height="1812" xmlns="http://www.w3.org/2000/svg" xmlns:svg="http://www.w3.org/2000/svg" enable-background="new 0 0 560 1812" version="1.1" xml:space="preserve">
 <g class="layer" display="inline">
  <title>Middle BG</title>
  <rect class="middle-strap-fill" fill="#ffffff" height="492" id="svg_1" rx="20" ry="20" stroke="#000000" stroke-opacity="0" width="106" x="234" y="306"/>
  <path class="middle-strap" d="m252.17,329.78c1.44,-5.11 3.93,-8.62 9.37,-8.55c5.83,0.07 8.76,4.23 10.01,8.96c1.89,7.2 3.3,14.61 4.02,22.01c1.12,11.4 1.49,22.88 2.18,34.33c0.23,3.9 -0.99,6.32 -5.49,6.23c-7.75,-0.14 -15.5,-0.04 -24.03,-0.04c1.12,-21.1 -2.42,-42.08 3.94,-62.94z" fill="#000000" id="svg_4" stroke="#000000" stroke-opacity="0" transform="matrix(1 0 0 1 0 0)"/>
 </g>
 <g class="layer" display="inline">
  <title>Layer 1</title>
  <path class="main" d="m112.29,878c-0.49,-210.33 -1.01,-420.16 -1.41,-629.99c-0.05,-23.16 0.84,-46.32 0.86,-69.48c0.02,-16.89 -0.89,-33.77 -0.96,-50.65c-0.04,-8.95 0.83,-17.89 1.26,-26.84c0.05,-0.96 0.17,-2.09 -0.25,-2.87c-5.89,-10.92 -1.29,-20.69 4.3,-29.53c8,-12.67 20.54,-20.14 34.16,-25.7c28.86,-11.78 59.24,-16.13 90.02,-19.13c41.99,-4.1 83.57,-1.22 124.89,6.12c21.46,3.82 41.76,11.56 59.91,23.86c8.72,5.91 15.87,13.59 20,23.73c1.97,4.86 0.27,9.05 -0.71,13.57c-0.57,2.61 -0.45,5.41 -0.37,8.11c0.16,5.33 0.81,10.65 0.72,15.97c-0.26,16.48 -0.94,32.95 -1.09,49.43c-0.05,5.52 1.51,11.06 1.43,16.57c-0.61,39.82 -1.44,79.64 -2.28,119.45c-0.06,2.94 -0.78,5.87 -1.22,9c5.63,5.53 6,8.08 2.2,15.97c-0.4,0.83 -0.65,1.87 -0.56,2.77c3.64,36.66 4.81,73.42 3.9,110.25c-0.57,23.14 -1.15,46.28 -1.81,69.42c-0.08,2.82 -0.72,5.61 -0.96,8.43c-0.26,2.94 -0.15,5.4 2.6,7.85c4.16,3.68 2.83,8.74 1.45,13.52c-0.49,1.69 -0.4,3.6 -0.29,5.39c0.22,3.32 0.96,6.62 0.93,9.93c-0.52,74.33 -1.16,148.65 -1.68,222.98c-0.16,22.64 -0.02,45.27 -0.02,68.29c7.18,0.4 14.49,0.44 21.71,1.28c15.86,1.86 31.71,3.97 47.5,6.37c2.87,0.44 5.45,2.76 8.17,4.2c0.94,0.5 1.95,1.43 2.87,1.36c5.74,-0.41 7.65,3.77 6.69,7.65c-2.54,10.18 2.6,19.06 3.51,28.6c1.61,16.89 4.32,33.77 4.64,50.69c1.1,58.82 1.35,117.65 1.96,176.48c0.13,13.3 0.55,26.61 0.53,39.91c-0.07,38.13 -0.49,76.25 -0.4,114.38c0.14,57 0.37,113.99 1.09,170.98c0.16,13.06 -2.35,24.59 -10.58,34.83c-10.32,12.84 -20.13,26.08 -30.83,38.58c-2.57,3.01 -7.66,5.01 -11.78,5.35c-15.89,1.33 -31.85,1.8 -47.82,2.59c0,5.73 -0.12,12.32 0.02,18.9c1.12,52.13 2.37,104.26 3.37,156.4c0.22,11.32 -0.21,22.66 -0.79,33.97c-0.11,2.18 -1.76,5.16 -3.6,6.24c-28.68,16.81 -59.22,28.86 -92.2,33.91c-47.68,7.3 -95.2,6.26 -142.74,-2.27c-21.91,-3.93 -43.42,-8.84 -64.12,-16.84c-8.31,-3.2 -16.17,-7.76 -23.78,-12.44c-2.41,-1.49 -4.32,-5.22 -4.81,-8.19c-3.63,-22.18 -2.31,-44.47 -1.22,-66.79c0.88,-17.96 1.2,-35.97 0.9,-53.94c-0.5,-30.11 -1.7,-60.2 -2.63,-91.01c-10.71,0 -22.21,0.04 -33.71,-0.01c-8.48,-0.03 -15.99,-3.74 -21.24,-9.56c-6.84,-7.57 -12.12,-16.59 -17.79,-25.18c-8.92,-13.5 -11.76,-29.03 -12.95,-44.65c-1.48,-19.42 -2.15,-38.92 -2.28,-58.4c-0.17,-25.96 0.61,-51.93 0.79,-77.89c0.13,-18.48 0.23,-36.97 -0.16,-55.45c-0.63,-29.28 -1.78,-58.56 -2.5,-87.84c-0.26,-10.49 0.25,-20.99 0.11,-31.48c-0.22,-15.62 -1.01,-31.23 -1,-46.85c0.02,-25.59 4.68,-50.19 15.26,-73.77c3.28,-7.32 6.45,-13.74 13.87,-17.24c1.34,-0.64 2.86,-1.5 4.21,-1.37c10.17,0.95 19.33,-3.82 29.12,-4.91c9.24,-1.04 18.45,-2.21 27.59,-3.31c0,-36.65 0,-72.93 0,-109.7m152.1,150.03c-0.53,0.03 -1.07,0.05 -2.45,0.02c-13.34,-0.81 -10.62,0.11 -10.96,-11.39c-0.04,-1.49 0.01,-2.99 0.06,-4.49c0.12,-4.25 0.23,-8.52 6.14,-8.64c-0.25,-2.33 -0.47,-4.26 -0.72,-6.55c-4.3,0.31 -8.26,0.52 -12.21,0.9c-7.88,0.76 -9.02,1.72 -9.06,9.84c-0.11,17.98 -0.17,35.96 0.28,53.93c0.29,12.12 1.43,24.21 2.28,36.31c0.36,5.23 3.62,7.79 8.55,7.96c6.14,0.22 12.3,-0.01 18.99,0.1c0.51,-0.15 1.02,-0.3 2.49,-0.45c13.38,0 26.76,0 39.23,0c0,-26.86 0,-52.26 0,-77.48c-14.62,0 -28.22,0 -42.62,-0.06m159.51,574.67c-0.2,5.66 -0.21,11.33 -0.68,16.97c-0.39,4.75 -1.17,9.49 -2.15,14.16c-0.23,1.08 -1.88,2.54 -2.98,2.64c-8.75,0.83 -17.52,1.3 -26.28,2.01c-6.39,0.52 -11.35,-1.96 -15.2,-6.9c-4.6,-5.9 -9.06,-11.93 -13.82,-17.7c-0.88,-1.07 -3.01,-1.83 -4.42,-1.65c-11.71,1.52 -23.36,4.43 -35.09,4.76c-26.19,0.73 -52.42,0.42 -78.63,0.11c-13.97,-0.16 -27.93,-1.09 -41.88,-1.95c-2.6,-0.16 -5.13,-1.58 -8.7,-2.76c-2.43,2.73 -5.65,6.06 -8.53,9.66c-6.92,8.68 -14.48,16.17 -26.64,16.23c-5.33,0.02 -10.66,0.24 -16,0.27c-11.3,0.06 -13.89,-2.33 -15.02,-13.73c-0.13,-1.32 -0.16,-2.67 -0.07,-3.99c0.5,-7.42 1.05,-14.82 1.6,-22.45c-2.39,-0.76 -4.91,-1.57 -7.43,-2.34c-0.28,-0.08 -0.63,0.1 -1.19,0.2c0,0.9 -0.01,1.84 0,2.78c0.31,24.12 1.38,48.26 0.71,72.35c-0.6,21.33 -1.95,42.59 0.89,63.84c0.23,1.66 0.81,3.99 2,4.68c6.62,3.81 13.21,7.91 20.3,10.63c39.42,15.15 80.71,21.83 122.57,23.87c43.79,2.13 87.22,-1.26 128.98,-16.46c14.77,-5.38 28.82,-12.12 41.46,-21.52c1.52,-1.13 2.85,-3.67 2.84,-5.55c-0.16,-41.99 -0.51,-83.98 -0.82,-125.96c-0.04,-4.56 -0.01,-9.12 -0.01,-14.09c-6.02,2.18 -11.1,4.03 -16.28,5.91c0.14,1.51 0.3,3.29 0.47,5.98m-109.23,-1125.45c2.05,-22.21 4.19,-44.42 6.14,-66.64c1.71,-19.6 2.77,-39.21 0.04,-58.83c-1.51,-10.81 -2.85,-21.64 -4.29,-32.62c-7.13,0 -13.26,0 -19.62,0c0.21,0.9 0.41,1.68 0.55,2.47c2.27,12.56 5.66,25.05 6.48,37.71c0.96,14.72 -0.64,29.59 -0.59,44.39c0.11,29.82 -5.71,58.98 -9.37,88.37c-3.8,30.54 -8.33,61 -11.91,91.57c-1.56,13.37 -1.53,26.92 -2.26,40.39c-1.3,24.1 -2.79,48.18 -3.85,72.29c-0.47,10.59 -0.02,21.22 -0.07,31.84c-0.02,3.52 -1.5,6.43 -5.32,6.66c-4.96,0.31 -9.96,0.22 -14.93,-0.09c-3.85,-0.25 -5.9,-2.58 -5.98,-6.61c-0.57,-29.29 -1.98,-58.59 -1.6,-87.87c0.44,-34.02 6.45,-67.56 11.34,-101.17c4.06,-27.84 7.84,-55.73 11.18,-83.67c2.23,-18.64 3.47,-37.39 5.16,-56.15c-0.9,-0.17 -1.36,-0.32 -1.82,-0.34c-8.4,-0.27 -16.81,-0.4 -25.2,-0.83c-4.07,-0.21 -6.36,-2.58 -6.31,-6.85c0.15,-15.98 -0.13,-31.98 0.64,-47.93c0.39,-8.25 2.37,-16.51 8.06,-23.18c5.93,-6.95 13.9,-8.06 22.28,-7.49c7.24,0.49 14.44,1.69 21.68,2.06c7.11,0.37 14.24,0.14 21.36,0.03c1.61,-0.03 3.2,-0.63 4.8,-0.97c-1.12,-1.39 -2.14,-1.89 -3.19,-1.94c-20.12,-0.86 -40.25,-1.78 -60.39,-2.41c-4.62,-0.14 -9.29,0.61 -13.91,1.17c-4.85,0.58 -7.9,3.26 -8.56,8.27c-0.37,2.79 -1.04,5.6 -0.98,8.39c0.5,25.32 1.48,50.63 1.68,75.96c0.98,126.63 1.77,253.27 2.62,379.9c0.07,10.05 2.98,14.24 12.98,14.57c24.27,0.81 48.56,0.88 72.85,0.97c5.56,0.03 11.39,-5.87 12.04,-11.55c0.72,-6.25 1.41,-12.55 1.42,-18.83c0.01,-25.16 -0.22,-50.32 -0.42,-75.48c-0.26,-34.16 -0.66,-68.31 -0.85,-102.47c-0.14,-23.84 -0.03,-47.69 -0.03,-72.14c-0.59,1.46 -1.12,2.33 -1.29,3.26c-3.07,16.69 -7.38,33.28 -8.87,50.12c-2.89,32.82 -4.6,65.77 -6,98.7c-0.78,18.29 -0.04,36.65 0.24,54.97c0.06,4.18 -1.01,7.77 -5.14,8.43c-4.85,0.78 -9.94,0.6 -14.87,0.13c-3.84,-0.36 -6.15,-2.67 -5.72,-7.16c0.31,-3.29 -0.28,-6.65 -0.19,-9.97c0.33,-13.31 0.71,-26.62 1.18,-39.93c0.96,-27.61 0.58,-55.36 3.32,-82.79c3.89,-38.74 10.11,-77.25 15.49,-116.71m-132.98,1100.96c-5.27,13.55 -15.27,20 -29.7,19.97c-3.66,-0.01 -7.36,0.1 -10.95,0.67c-1.64,0.26 -4.31,1.68 -4.41,2.75c-0.71,8.42 -1.1,16.87 -1.19,25.32c-0.04,4.3 2.59,6 6.96,5.47c3.46,-0.42 7.02,-0.61 10.48,-0.29c11.93,1.11 20.42,-4.36 27.11,-13.56c11.56,-15.88 27.41,-23.27 46.79,-23.25c24.61,0.03 49.24,-0.24 73.82,0.7c17.75,0.68 35.47,2.89 53.14,4.89c6.24,0.7 11.43,3.88 15.12,9.53c3.99,6.12 8.7,11.77 13.1,17.62c3.01,4.01 6.82,6.07 12.04,5.63c5.8,-0.49 11.65,-0.43 17.45,-0.93c1.2,-0.1 3.16,-1.49 3.27,-2.46c1.21,-10.34 2.16,-20.71 3.04,-31.08c0.08,-0.98 -0.79,-2.05 -1.19,-3.01c-4.44,0.65 -8.52,1.63 -12.64,1.79c-7.32,0.29 -15.39,2.72 -21.17,-3.92c-3.55,-4.08 -6.66,-8.79 -8.88,-13.72c-4.43,-9.82 -10.93,-16.54 -22,-18.07c-10.53,-1.47 -21,-3.73 -31.58,-4.49c-37.46,-2.71 -74.87,-2.11 -112.28,1.74c-12.61,1.3 -20.59,7.32 -26.33,18.7m253.71,-102.71c0,14.1 0,28.19 0,42.85c6.49,0 12.36,0 18.59,0c-1.17,-190.52 -2.34,-380.88 -3.51,-571.77c-7.16,-3.32 -9.81,-7.61 -8.29,-16.38c2.38,-13.7 5.05,-27.35 7.92,-40.95c0.55,-2.61 2.29,-5.15 4.03,-7.26c1.83,-2.23 4.32,-3.91 7.17,-6.38c1.33,0.18 3.86,0.52 6.45,0.87c1.09,-1.73 2.11,-3.35 3.49,-5.54c-5.61,-0.73 -10.52,-1.48 -15.45,-1.93c-1.05,-0.09 -2.77,0.64 -3.22,1.49c-5.41,10.27 -12.1,20.18 -15.46,31.11c-2.78,9.06 -2.06,19.35 -2.05,29.09c0.05,76.31 0.41,152.61 0.46,228.92c0.06,104.96 -0.07,209.92 -0.13,315.88m-215.08,-1425.52c-26.19,3.43 -51.85,8.93 -75.88,20.26c-4.74,2.23 -8.97,5.66 -13.13,8.91c-2.15,1.68 -2.86,3.89 -1.02,6.94c4.65,7.75 11.86,11.75 18.15,14.47c3.82,-2.33 6.42,-4.69 9.46,-5.63c27.78,-8.64 56.05,-14.34 85.36,-13.5c2.16,0.06 4.69,-0.57 6.49,-1.74c22.96,-14.85 53.56,-14 75.57,2.22c1.26,0.93 2.78,1.94 4.26,2.08c5.27,0.5 10.59,0.57 15.88,0.95c19.97,1.41 38.94,7.2 57.36,14.43c5.88,2.3 9.75,1.38 14.09,-1.58c2.18,-1.49 4.33,-3.27 5.85,-5.39c2.31,-3.21 4.82,-6.97 1.17,-10.73c-3.92,-4.04 -7.71,-8.73 -12.54,-11.26c-20.94,-10.93 -43.12,-18.93 -66.69,-21.17c-21.5,-2.05 -43.18,-3.11 -64.78,-3.01c-19.58,0.09 -39.16,2.34 -59.6,3.75m-91.96,119.12c35.25,21.66 74.31,28.48 114.6,30.07c0,-17.82 0,-35.06 0,-52.35c-23.5,2.67 -45.62,-2.54 -67.57,-7.88c-22.43,-5.46 -42.11,-16.5 -59.1,-33.76c0,2.37 -0.05,3.82 0.01,5.26c0.56,13.97 1.65,27.94 1.5,41.9c-0.08,8.09 0.92,14.34 10.56,16.76m292.52,5.29c3.73,-1.44 7.41,-3.06 11.21,-4.24c3.16,-0.98 4.51,-2.62 4.54,-6.07c0.06,-8.32 0.68,-16.65 0.8,-24.98c0.15,-11.09 0.04,-22.19 0.04,-34.29c-14.4,16.46 -33.68,21.67 -52.62,27.04c-18.94,5.39 -38,11.04 -57.28,8.55c0,19.01 0,37.41 0,55.67c32.96,-1.17 62.78,-11.25 93.31,-21.68m-100.26,16.11c-0.57,-12.63 -1.25,-25.26 -1.7,-37.9c-0.42,-11.64 -0.88,-23.3 -0.78,-34.94c0.08,-7.84 0.15,-8.47 -7.91,-8.49c-16.81,-0.06 -33.62,-0.02 -50.41,0.38c-6.57,0.15 -9.55,-0.29 -7.87,8.57c0.31,1.6 0.04,3.32 0.05,4.98c0.05,28.63 0.27,57.26 0.03,85.88c-0.06,7.12 2.14,10.05 10.24,9.82c16.94,-0.47 33.87,-1.35 50.81,-2.11c1.31,-0.06 2.64,-0.39 3.91,-0.76c2.71,-0.78 3.95,-2.3 3.78,-5.46c-0.34,-6.3 -0.15,-12.64 -0.15,-19.97m45.62,-153.19c-17,-2.25 -33.93,-5.66 -51,-6.52c-38.67,-1.93 -77.33,-0.4 -115.56,6.09c-26.68,4.52 -52.63,11.42 -74.01,29.91c-9.46,8.18 -12.05,24.11 -4.19,33.8c15.17,18.71 35.9,27.66 58.44,33.07c20.61,4.93 41.6,7.24 63.14,6.59c0.25,-3.96 0.51,-8.03 0.77,-12.1c-15.92,0.7 -30.86,-1.46 -45.59,-5.16c-20.51,-5.16 -40.94,-10.74 -59.63,-20.95c-4.52,-2.47 -8.68,-6.23 -11.91,-10.27c-5.73,-7.14 -4.79,-14.33 2.32,-20.02c4.5,-3.61 9.37,-7.16 14.65,-9.3c30.6,-12.42 62.41,-20.47 95.38,-22.32c25.41,-1.42 50.93,-1.16 76.4,-1.09c10.44,0.03 20.98,0.88 31.29,2.49c22.79,3.56 44.71,10.3 65.79,19.75c7.38,3.31 13.31,8.28 17.73,14.89c3.36,5.02 4.62,10.43 1.42,16.4c-4.56,8.51 -11.85,13.39 -20.62,16.18c-9.19,2.92 -18.52,5.41 -27.87,7.78c-18.63,4.71 -37.3,9.34 -56.68,9.24c0,2.62 0,5.2 0,7.69c0.66,0.16 0.99,0.33 1.29,0.3c2.65,-0.3 5.29,-0.69 7.94,-0.95c23.23,-2.21 46.44,-4.57 68.28,-13.71c7.35,-3.08 15.94,-4.77 21.66,-9.75c5.94,-5.16 9.33,-13.4 13.37,-20.55c2.44,-4.34 1.39,-8.91 -1.99,-12.48c-5.69,-6 -10.98,-12.7 -17.62,-17.44c-15.67,-11.16 -33.82,-16.93 -53.2,-21.57m131.42,1065.19c-0.29,-32.16 -0.76,-64.31 -0.8,-96.47c-0.04,-30.82 0.49,-61.64 0.49,-92.47c0,-9.93 2.89,-18.1 10.57,-24.74c6.16,-5.32 11.83,-11.24 17.55,-17.06c1.53,-1.56 2.44,-3.75 3.63,-5.65c-0.45,-0.38 -0.9,-0.75 -1.35,-1.13c-1.59,1.02 -3.37,1.85 -4.75,3.1c-7.89,7.15 -15.72,14.37 -23.5,21.63c-8.65,8.08 -11.54,18.45 -11.2,29.86c0.46,15.48 1.77,30.95 1.71,46.43c-0.6,160.13 -1.43,320.26 -2.15,480.4c-0.11,24.43 -0.01,48.87 -0.01,73.32c6.99,0.43 6.91,0.43 6.96,-6.44c0.86,-112.77 1.75,-225.54 2.59,-338.31c0.18,-23.82 0.18,-47.65 0.26,-72.47m-382.26,312c0,26.89 0,53.77 0,80.79c5.57,-0.47 9.85,-0.83 13.95,-1.17c0,-130.48 0,-260.57 0,-390.67c-2.04,0.29 -4.11,0.59 -5.79,0.83c0,127.04 0,253.83 0,380.61c-0.5,0.01 -1,0.01 -1.5,0.01c0,-126.72 0,-253.45 0,-379.48c-3.4,-1.98 -5.58,-3.25 -7.27,-4.23c0.21,104.11 0.41,208.21 0.61,313.31m-35.29,-318c0.06,114.45 0.13,228.9 0.19,343.35c0.01,16.66 -0.75,33.37 0.21,49.97c0.6,10.34 -0.81,19.27 -7.98,26.88c5.1,3.71 8.51,3.43 11.32,-1.56c1.91,-3.4 3.54,-7.35 3.87,-11.17c0.87,-9.92 1.3,-19.91 1.29,-29.86c-0.1,-57.47 -0.53,-114.95 -0.56,-172.42c-0.05,-79.8 0.14,-159.6 0.25,-239.4c0.02,-9 0.55,-18 0.28,-26.99c-0.52,-17.73 -8.67,-28.17 -24.11,-31.66c-8.2,-1.85 -14.96,1 -17.89,7.72c5.01,0.42 10.01,0.46 14.88,1.31c10.31,1.79 17.16,6.9 17.31,18.37c0.27,21.49 0.62,42.97 0.94,65.46m257.49,-69.27c0.06,-8.45 0.22,-16.91 0.13,-25.37c-0.04,-3.76 -2.2,-5.7 -6.09,-5.67c-6.08,0.06 -12.16,0.02 -18.53,0.02c0.14,2.43 0.3,5.02 0.47,7.96c5.24,-0.3 5.64,2.68 4.99,6.52c-0.35,2.13 -0.35,4.31 -0.47,6.47c-0.5,9.09 -0.5,9.09 -8.11,10.64c0,25.68 0,51.21 0,76.91c6.14,0 11.27,0.18 16.38,-0.04c7.01,-0.31 8.56,-2.23 8.79,-9.18c0.73,-22.44 1.58,-44.88 2.44,-68.26m44.35,-580.39c2.62,0.13 5.25,0.26 8.29,0.4c0.22,-3.63 0.43,-6.84 0.65,-10.43c-4.69,0.47 -8.74,0.88 -13.13,1.33c0.37,-1.25 0.38,-1.65 0.58,-1.85c0.34,-0.34 0.78,-0.63 1.23,-0.81c9.69,-3.97 19.38,-4.01 29.06,0.05c3.36,1.41 6.64,3.05 10.06,4.32c5.33,1.96 8.97,0.88 11.91,-4c1.58,-2.62 3.03,-5.75 3.21,-8.73c0.44,-7.11 0.39,-14.28 -0.03,-21.4c-0.35,-5.86 -3.85,-9.75 -9.46,-11.63c-6.04,-2.04 -11.48,0.03 -16.81,2.54c-7.55,3.57 -15.08,6.79 -23.79,6.6c-3.69,-0.08 -7.55,1.15 -11.09,2.44c-4.94,1.79 -7.94,5.45 -7.64,11.01c0.25,4.81 0.71,9.61 1.2,14.39c0.91,9.04 5.54,14.62 15.76,15.77m-130.62,-115.9c-6.19,20.51 -2.65,41.49 -3.77,62.59c8.53,0 16.28,-0.1 24.03,0.04c4.5,0.09 5.72,-2.33 5.49,-6.23c-0.69,-11.45 -1.06,-22.93 -2.18,-34.33c-0.72,-7.4 -2.13,-14.81 -4.02,-22.01c-1.25,-4.73 -4.18,-8.89 -10.01,-8.96c-5.44,-0.07 -7.93,3.44 -9.54,8.9m167.35,195.19c-6.68,-1.96 -13.4,-3.77 -20.02,-5.93c-3.26,-1.06 -4.27,-3.08 -3.16,-6.98c2.83,-9.89 5.81,-19.9 7,-30.07c1.57,-13.35 1.35,-26.9 2.23,-40.34c0.24,-3.79 -1.36,-5.11 -4.56,-5.54c-1.61,-0.21 -3.23,-0.27 -4.84,-0.4c-1.48,29.42 -6.51,57.92 -15.02,85.87c18.57,8.06 37.43,12.99 57.41,13.16c2.82,0.02 5.3,0.2 5.63,-3.72c0.36,-4.27 -2.41,-4.53 -5.36,-4.74c-6.14,-0.44 -12.28,-0.83 -19.31,-1.31m-18.92,-165.38c-2.01,-7.72 -3.77,-15.52 -6.14,-23.13c-1.37,-4.38 -0.26,-6.67 4.01,-7.78c5.14,-1.33 10.2,-3.15 15.42,-3.95c7.39,-1.13 14.91,-1.47 22.36,-2.26c2.71,-0.28 4.67,-1.43 4.77,-4.69c0.1,-3.31 -2.13,-3.79 -4.51,-4.11c-1.97,-0.27 -4.01,-0.63 -5.96,-0.4c-9.58,1.12 -19.21,2.05 -28.69,3.79c-6.93,1.27 -13.65,3.67 -20.38,5.54c5.62,24.83 12.38,48.36 13.08,73.55c3.25,-1.31 6.24,-2.52 10.3,-4.17c-1.41,-10.54 -2.8,-21.03 -4.26,-32.39m-56.41,327.75c0,8.06 0,16.13 0,24.34c4.01,-0.38 7.15,-0.99 10.26,-0.89c3.7,0.12 4.8,-1.26 4.93,-4.91c0.51,-14.29 1.36,-28.58 2.05,-42.87c0.04,-0.93 -0.24,-1.88 -0.38,-2.86c-5.67,-0.53 -11.09,-1.03 -16.86,-1.57c0,9.52 0,18.64 0,28.76m-59.85,320.66c-9.75,0 -19.49,0 -29.28,0c0.35,4.76 0.68,9.17 1,13.39c19.42,0 38.58,0 58.13,0c0.3,-4.76 0.56,-8.99 0.84,-13.39c-10.19,0 -19.94,0 -30.69,0m16.9,-5.32c2.61,0 5.21,0 8.13,0c-0.41,-5.04 -0.78,-9.6 -1.2,-14.89c-15.22,0 -30.07,0 -44.91,0c-0.28,4.88 -0.56,9.77 -0.85,14.89c12.62,0 25.24,0 38.83,0m212.78,267.61c0,3.4 0,6.81 0,11.32c5.41,-4.03 10.07,-7.41 14.6,-10.95c0.82,-0.63 1.58,-1.93 1.59,-2.92c0.11,-12.9 0.07,-25.79 0.07,-40.16c-5.79,4.6 -10.11,8.39 -14.82,11.59c-2.33,1.59 -2.79,3.16 -2.62,5.71c0.52,8.13 0.81,16.28 1.18,25.41m-109.17,263.09c0.46,-6.55 0.69,-13 -7.97,-16.32c0,24.88 0,49.51 0,74.3c1.89,0 4.32,0 7.97,0c0,-19.13 0,-38.06 0,-57.98m-256.96,41.99c0.5,4.94 1.01,9.87 1.56,15.3c2.32,-0.25 4.38,-0.47 6.68,-0.72c-0.62,-23.09 -1.23,-45.8 -1.83,-68.48c-2.96,0.99 -6.03,2.01 -9.16,3.06c0.9,16.72 1.8,33.32 2.75,50.84m131.48,-592.87c8.38,0 16.76,0 24.94,0c0.81,-6.92 -2.75,-7.9 -8.02,-7.72c-9.07,0.29 -18.16,0.08 -27.69,0.08c-0.19,2.22 -0.41,4.76 -0.65,7.65c3.84,0 7.13,0 11.42,-0.01m-153.2,93.39c-6.46,0.98 -9.18,7.3 -5.81,13.51c1.9,3.53 5.52,3.82 7.97,0.64c2.78,-3.62 2.1,-10.47 -2.16,-14.15m-11.59,-53.41c0.12,1.77 0.23,3.54 0.35,5.3c0.43,0.19 0.85,0.38 1.28,0.56c0.92,-1.56 1.67,-3.28 2.82,-4.66c0.96,-1.14 2.3,-2.46 3.62,-2.65c0.96,-0.13 3.06,1.43 3.1,2.3c0.18,4.65 3.84,5.44 7.39,7.66c-0.58,-5.15 -1.07,-9.53 -1.64,-14.59c-4.98,0.57 -9.44,0.83 -13.77,1.71c-1.24,0.25 -2.12,2.27 -3.15,4.37m4.68,26.25c2.63,1.61 5.41,3.08 7.97,0.17c2.4,-2.74 2.34,-5.82 0.63,-8.62c-2.06,1.58 -3.76,3.68 -5.82,4.14c-1.11,0.25 -2.85,-2.29 -4.42,-3.68c0.35,2.26 0.74,4.81 1.64,7.99m-23.16,7.04c0.33,1.26 0.66,2.53 0.98,3.8c0.24,-0.06 0.47,-0.11 0.71,-0.16c0,-7.53 0,-15.05 0,-22.58c-0.59,0 -1.19,0 -1.78,0c0,6.02 0,12.04 0.09,18.94z" fill="#020202" id="svg_2"/>
  <path d="m423.9,1602.25c-0.17,-2.24 -0.33,-4.02 -0.47,-5.53c5.18,-1.88 10.26,-3.73 16.28,-5.91c0,4.97 -0.03,9.53 0.01,14.09c0.31,41.98 0.66,83.97 0.82,125.96c0.01,1.88 -1.32,4.42 -2.84,5.55c-12.64,9.4 -26.69,16.14 -41.46,21.52c-41.76,15.2 -85.19,18.59 -128.98,16.46c-41.86,-2.04 -83.15,-8.72 -122.57,-23.87c-7.09,-2.72 -13.68,-6.82 -20.3,-10.63c-1.19,-0.69 -1.77,-3.02 -2,-4.68c-2.84,-21.25 -1.49,-42.51 -0.89,-63.84c0.67,-24.09 -0.4,-48.23 -0.71,-72.35c-0.01,-0.94 0,-1.88 0,-2.78c0.56,-0.1 0.91,-0.28 1.19,-0.2c2.52,0.77 5.04,1.58 7.43,2.34c-0.55,7.63 -1.1,15.03 -1.6,22.45c-0.09,1.32 -0.06,2.67 0.07,3.99c1.13,11.4 3.72,13.79 15.02,13.73c5.34,-0.03 10.67,-0.25 16,-0.27c12.16,-0.06 19.72,-7.55 26.64,-16.23c2.88,-3.6 6.1,-6.93 8.53,-9.66c3.57,1.18 6.1,2.6 8.7,2.76c13.95,0.86 27.91,1.79 41.88,1.95c26.21,0.31 52.44,0.62 78.63,-0.11c11.73,-0.33 23.38,-3.24 35.09,-4.76c1.41,-0.18 3.54,0.58 4.42,1.65c4.76,5.77 9.22,11.8 13.82,17.7c3.85,4.94 8.81,7.42 15.2,6.9c8.76,-0.71 17.53,-1.18 26.28,-2.01c1.1,-0.1 2.75,-1.56 2.98,-2.64c0.98,-4.67 1.76,-9.41 2.15,-14.16c0.47,-5.64 0.48,-11.31 0.68,-17.42z" fill="#FEFEFE" id="svg_3"  class="base" />
  <path d="m181.87,1577.89c5.56,-11.06 13.54,-17.08 26.15,-18.38c37.41,-3.85 74.82,-4.45 112.28,-1.74c10.58,0.76 21.05,3.02 31.58,4.49c11.07,1.53 17.57,8.25 22,18.07c2.22,4.93 5.33,9.64 8.88,13.72c5.78,6.64 13.85,4.21 21.17,3.92c4.12,-0.16 8.2,-1.14 12.64,-1.79c0.4,0.96 1.27,2.03 1.19,3.01c-0.88,10.37 -1.83,20.74 -3.04,31.08c-0.11,0.97 -2.07,2.36 -3.27,2.46c-5.8,0.5 -11.65,0.44 -17.45,0.93c-5.22,0.44 -9.03,-1.62 -12.04,-5.63c-4.4,-5.85 -9.11,-11.5 -13.1,-17.62c-3.69,-5.65 -8.88,-8.83 -15.12,-9.53c-17.67,-2 -35.39,-4.21 -53.14,-4.89c-24.58,-0.94 -49.21,-0.67 -73.82,-0.7c-19.38,-0.02 -35.23,7.37 -46.79,23.25c-6.69,9.2 -15.18,14.67 -27.11,13.56c-3.46,-0.32 -7.02,-0.13 -10.48,0.29c-4.37,0.53 -7,-1.17 -6.96,-5.47c0.09,-8.45 0.48,-16.9 1.19,-25.32c0.1,-1.07 2.77,-2.49 4.41,-2.75c3.59,-0.57 7.29,-0.68 10.95,-0.67c14.43,0.03 24.43,-6.42 29.88,-20.29z" fill="#FBFBFB" id="svg_5"/>
  <path d="m435.4,1475c0.06,-105.46 0.19,-210.42 0.13,-315.38c-0.05,-76.31 -0.41,-152.61 -0.46,-228.92c-0.01,-9.74 -0.73,-20.03 2.05,-29.09c3.36,-10.93 10.05,-20.84 15.46,-31.11c0.45,-0.85 2.17,-1.58 3.22,-1.49c4.93,0.45 9.84,1.2 15.45,1.93c-1.38,2.19 -2.4,3.81 -3.49,5.54c-2.59,-0.35 -5.12,-0.69 -6.45,-0.87c-2.85,2.47 -5.34,4.15 -7.17,6.38c-1.74,2.11 -3.48,4.65 -4.03,7.26c-2.87,13.6 -5.54,27.25 -7.92,40.95c-1.52,8.77 1.13,13.06 8.29,16.38c1.17,190.89 2.34,381.25 3.51,571.77c-6.23,0 -12.1,0 -18.59,0c0,-14.66 0,-28.75 0,-43.35m6.77,-339.5c0.31,112.15 0.61,224.31 0.92,336.46c0.33,0 0.65,0 0.98,0c0,-174.54 0,-349.07 0,-523.6c-0.64,0 -1.27,0 -1.9,0c0,62.04 0,124.09 0,187.14z" fill="#F2F2F2" id="svg_6"/>
  <path class="top" d="m220.75,49.92c20.01,-1.35 39.59,-3.6 59.17,-3.69c21.6,-0.1 43.28,0.96 64.78,3.01c23.57,2.24 45.75,10.24 66.69,21.17c4.83,2.53 8.62,7.22 12.54,11.26c3.65,3.76 1.14,7.52 -1.17,10.73c-1.52,2.12 -3.67,3.9 -5.85,5.39c-4.34,2.96 -8.21,3.88 -14.09,1.58c-18.42,-7.23 -37.39,-13.02 -57.36,-14.43c-5.29,-0.38 -10.61,-0.45 -15.88,-0.95c-1.48,-0.14 -3,-1.15 -4.26,-2.08c-22.01,-16.22 -52.61,-17.07 -75.57,-2.22c-1.8,1.17 -4.33,1.8 -6.49,1.74c-29.31,-0.84 -57.58,4.86 -85.36,13.5c-3.04,0.94 -5.64,3.3 -9.46,5.63c-6.29,-2.72 -13.5,-6.72 -18.15,-14.47c-1.84,-3.05 -1.13,-5.26 1.02,-6.94c4.16,-3.25 8.39,-6.68 13.13,-8.91c24.03,-11.33 49.69,-16.83 76.31,-20.32z" fill="#FBFBFB" id="svg_7"/>
  <path class="top" d="m128.03,168.93c-9.31,-2.25 -10.31,-8.5 -10.23,-16.59c0.15,-13.96 -0.94,-27.93 -1.5,-41.9c-0.06,-1.44 -0.01,-2.89 -0.01,-5.26c16.99,17.26 36.67,28.3 59.1,33.76c21.95,5.34 44.07,10.55 67.57,7.88c0,17.29 0,34.53 0,52.35c-40.29,-1.59 -79.35,-8.41 -114.93,-30.24z" fill="#FCFCFC" id="svg_8"/>
  <path class="top" d="m420.52,174.54c-30.17,10.28 -59.99,20.36 -92.95,21.53c0,-18.26 0,-36.66 0,-55.67c19.28,2.49 38.34,-3.16 57.28,-8.55c18.94,-5.37 38.22,-10.58 52.62,-27.04c0,12.1 0.11,23.2 -0.04,34.29c-0.12,8.33 -0.74,16.66 -0.8,24.98c-0.03,3.45 -1.38,5.09 -4.54,6.07c-3.8,1.18 -7.48,2.8 -11.57,4.39z" fill="#FCFCFC" id="svg_9"/>
  <path class="top" d="m320.6,191c0.02,6.83 -0.17,13.17 0.17,19.47c0.17,3.16 -1.07,4.68 -3.78,5.46c-1.27,0.37 -2.6,0.7 -3.91,0.76c-16.94,0.76 -33.87,1.64 -50.81,2.11c-8.1,0.23 -10.3,-2.7 -10.24,-9.82c0.24,-28.62 0.02,-57.25 -0.03,-85.88c-0.01,-1.66 0.26,-3.38 -0.05,-4.98c-1.68,-8.86 1.3,-8.42 7.87,-8.57c16.79,-0.4 33.6,-0.44 50.41,-0.38c8.06,0.02 7.99,0.65 7.91,8.49c-0.1,11.64 0.36,23.3 0.78,34.94c0.45,12.64 1.13,25.27 1.68,38.4m-11.92,-20.47c1.08,-1.02 2.33,-1.91 3.22,-3.08c3.35,-4.4 3.57,-10.51 0.54,-14.96c-2.56,-3.76 -6.19,-5.61 -10.73,-4.77c-7.38,1.38 -12.12,9.21 -10.07,16.3c2.05,7.11 8.5,9.84 17.04,6.51m-50.66,-8.21c0.5,5.37 3.14,9.01 8.52,10.29c4.91,1.17 8.89,-0.49 11.79,-4.48c3.22,-4.41 3.71,-9.22 0.94,-14.03c-2.38,-4.11 -6.07,-6.19 -10.86,-5.4c-6.09,1.02 -9.78,5.74 -10.39,13.62m37.68,37.41c1.08,0.75 2.08,1.68 3.26,2.22c5.11,2.33 10.91,0.36 13.76,-4.56c3.12,-5.38 1.95,-12.4 -2.62,-15.81c-4.31,-3.21 -10.2,-2.27 -14.28,2.27c-3.57,3.98 -3.79,9.31 -0.12,15.88m-35.33,-11.71c-1.63,4.63 -1.29,9.39 2.59,12.24c2.55,1.87 6.77,2.69 9.97,2.2c5.07,-0.77 8.22,-6.25 7.99,-11.67c-0.21,-5.04 -3.37,-9.17 -7.85,-10.29c-4.84,-1.22 -8.89,1.01 -12.7,7.52z" fill="#F7F7F7" id="svg_10"/>
  <path d="m366.64,37.42c18.98,4.53 37.13,10.3 52.8,21.46c6.64,4.74 11.93,11.44 17.62,17.44c3.38,3.57 4.43,8.14 1.99,12.48c-4.04,7.15 -7.43,15.39 -13.37,20.55c-5.72,4.98 -14.31,6.67 -21.66,9.75c-21.84,9.14 -45.05,11.5 -68.28,13.71c-2.65,0.26 -5.29,0.65 -7.94,0.95c-0.3,0.03 -0.63,-0.14 -1.29,-0.3c0,-2.49 0,-5.07 0,-7.69c19.38,0.1 38.05,-4.53 56.68,-9.24c9.35,-2.37 18.68,-4.86 27.87,-7.78c8.77,-2.79 16.06,-7.67 20.62,-16.18c3.2,-5.97 1.94,-11.38 -1.42,-16.4c-4.42,-6.61 -10.35,-11.58 -17.73,-14.89c-21.08,-9.45 -43,-16.19 -65.79,-19.75c-10.31,-1.61 -20.85,-2.46 -31.29,-2.49c-25.47,-0.07 -50.99,-0.33 -76.4,1.09c-32.97,1.85 -64.78,9.9 -95.38,22.32c-5.28,2.14 -10.15,5.69 -14.65,9.3c-7.11,5.69 -8.05,12.88 -2.32,20.02c3.23,4.04 7.39,7.8 11.91,10.27c18.69,10.21 39.12,15.79 59.63,20.95c14.73,3.7 29.67,5.86 45.59,5.16c-0.26,4.07 -0.52,8.14 -0.77,12.1c-21.54,0.65 -42.53,-1.66 -63.14,-6.59c-22.54,-5.41 -43.27,-14.36 -58.44,-33.07c-7.86,-9.69 -5.27,-25.62 4.19,-33.8c21.38,-18.49 47.33,-25.39 74.01,-29.91c38.23,-6.49 76.89,-8.02 115.56,-6.09c17.07,0.86 34,4.27 51.4,6.63z" fill="#F1F1F1" id="svg_11" class="top" />
  <path d="m497.66,1103c-0.08,24.32 -0.08,48.15 -0.26,71.97c-0.84,112.77 -1.73,225.54 -2.59,338.31c-0.05,6.87 0.03,6.87 -6.96,6.44c0,-24.45 -0.1,-48.89 0.01,-73.32c0.72,-160.14 1.55,-320.27 2.15,-480.4c0.06,-15.48 -1.25,-30.95 -1.71,-46.43c-0.34,-11.41 2.55,-21.78 11.2,-29.86c7.78,-7.26 15.61,-14.48 23.5,-21.63c1.38,-1.25 3.16,-2.08 4.75,-3.1c0.45,0.38 0.9,0.75 1.35,1.13c-1.19,1.9 -2.1,4.09 -3.63,5.65c-5.72,5.82 -11.39,11.74 -17.55,17.06c-7.68,6.64 -10.57,14.81 -10.57,24.74c0,30.83 -0.53,61.65 -0.49,92.47c0.04,32.16 0.51,64.31 0.8,96.97z" fill="#ECECEC" id="svg_12"/>
  <path d="m115.4,1414c-0.2,-104.6 -0.4,-208.7 -0.61,-312.81c1.69,0.98 3.87,2.25 7.27,4.23c0,126.03 0,252.76 0,379.48c0.5,0 1,0 1.5,-0.01c0,-126.78 0,-253.57 0,-380.61c1.68,-0.24 3.75,-0.54 5.79,-0.83c0,130.1 0,260.19 0,390.67c-4.1,0.34 -8.38,0.7 -13.95,1.17c0,-27.02 0,-53.9 0,-81.29z" fill="#F0F0F0" id="svg_13"/>
  <path d="m80.11,1096c-0.32,-21.99 -0.67,-43.47 -0.94,-64.96c-0.15,-11.47 -7,-16.58 -17.31,-18.37c-4.87,-0.85 -9.87,-0.89 -14.88,-1.31c2.93,-6.72 9.69,-9.57 17.89,-7.72c15.44,3.49 23.59,13.93 24.11,31.66c0.27,8.99 -0.26,17.99 -0.28,26.99c-0.11,79.8 -0.3,159.6 -0.25,239.4c0.03,57.47 0.46,114.95 0.56,172.42c0.01,9.95 -0.42,19.94 -1.29,29.86c-0.33,3.82 -1.96,7.77 -3.87,11.17c-2.81,4.99 -6.22,5.27 -11.32,1.56c7.17,-7.61 8.58,-16.54 7.98,-26.88c-0.96,-16.6 -0.2,-33.31 -0.21,-49.97c-0.06,-114.45 -0.13,-228.9 -0.19,-343.85z" fill="#F0F0F0" id="svg_14"/>
  <path d="m337.57,1027.7c-0.83,22.91 -1.68,45.35 -2.41,67.79c-0.23,6.95 -1.78,8.87 -8.79,9.18c-5.11,0.22 -10.24,0.04 -16.38,0.04c0,-25.7 0,-51.23 0,-76.91c7.61,-1.55 7.61,-1.55 8.11,-10.64c0.12,-2.16 0.12,-4.34 0.47,-6.47c0.65,-3.84 0.25,-6.82 -4.99,-6.52c-0.17,-2.94 -0.33,-5.53 -0.47,-7.96c6.37,0 12.45,0.04 18.53,-0.02c3.89,-0.03 6.05,1.91 6.09,5.67c0.09,8.46 -0.07,16.92 -0.16,25.84z" fill="#F9F9F9" id="svg_15"/>
  <path d="m264.76,1105.88c-6.16,0.03 -12.32,0.26 -18.46,0.04c-4.93,-0.17 -8.19,-2.73 -8.55,-7.96c-0.85,-12.1 -1.99,-24.19 -2.28,-36.31c-0.45,-17.97 -0.39,-35.95 -0.28,-53.93c0.04,-8.12 1.18,-9.08 9.06,-9.84c3.95,-0.38 7.91,-0.59 12.21,-0.9c0.25,2.29 0.47,4.22 0.72,6.55c-5.91,0.12 -6.02,4.39 -6.14,8.64c-0.05,1.5 -0.1,3 -0.06,4.49c0.34,11.5 -2.38,10.58 11.43,11.88c1.09,26.1 1.72,51.72 2.35,77.34z" fill="#FBFBFB" id="svg_16"/>
  <path d="m381.51,446.8c-9.78,-1.11 -14.41,-6.69 -15.32,-15.73c-0.49,-4.78 -0.95,-9.58 -1.2,-14.39c-0.3,-5.56 2.7,-9.22 7.64,-11.01c3.54,-1.29 7.4,-2.52 11.09,-2.44c8.71,0.19 16.24,-3.03 23.79,-6.6c5.33,-2.51 10.77,-4.58 16.81,-2.54c5.61,1.88 9.11,5.77 9.46,11.63c0.42,7.12 0.47,14.29 0.03,21.4c-0.18,2.98 -1.63,6.11 -3.21,8.73c-2.94,4.88 -6.58,5.96 -11.91,4c-3.42,-1.27 -6.7,-2.91 -10.06,-4.32c-9.68,-4.06 -19.37,-4.02 -29.06,-0.05c-0.45,0.18 -0.89,0.47 -1.23,0.81c-0.2,0.2 -0.21,0.6 -0.58,1.85c4.39,-0.45 8.44,-0.86 13.13,-1.33c-0.22,3.59 -0.43,6.8 -0.65,10.43c-3.04,-0.14 -5.67,-0.27 -8.73,-0.44z" fill="#FBFBFB" id="svg_17"/>
  <path d="m265.18,1028.09c13.61,0 27.21,0 41.83,0c0,25.22 0,50.62 0,77.48c-12.47,0 -25.85,0 -39.66,-0.5c-0.48,-2.48 -0.52,-4.46 -0.56,-6.45c-0.54,-23.51 -1.07,-47.02 -1.61,-70.53m32.86,64.19c0.55,-1.55 1.29,-3.07 1.62,-4.67c1.49,-7.33 -5.61,-13.98 -12.79,-12.05c-5.33,1.43 -9.05,5.97 -9.27,11.57c-0.18,4.71 1.68,8.48 6.1,10.48c4.66,2.1 9.77,0.28 14.34,-5.33m-7.63,-39.91c1.79,-2.46 4.38,-4.69 5.19,-7.45c1.32,-4.44 -0.55,-8.57 -4.15,-11.52c-3.06,-2.52 -6.64,-3.16 -10.22,-1.14c-3.83,2.17 -5.45,5.73 -5.22,10.04c0.39,7.42 5.52,11.3 14.4,10.07z" fill="#F7F7F7" id="svg_18"/>
  <path d="m419.13,526.16c6.58,0.45 12.72,0.84 18.86,1.28c2.95,0.21 5.72,0.47 5.36,4.74c-0.33,3.92 -2.81,3.74 -5.63,3.72c-19.98,-0.17 -38.84,-5.1 -57.41,-13.16c8.51,-27.95 13.54,-56.45 15.02,-85.87c1.61,0.13 3.23,0.19 4.84,0.4c3.2,0.43 4.8,1.75 4.56,5.54c-0.88,13.44 -0.66,26.99 -2.23,40.34c-1.19,10.17 -4.17,20.18 -7,30.07c-1.11,3.9 -0.1,5.92 3.16,6.98c6.62,2.16 13.34,3.97 20.47,5.96z" fill="#F3F3F3" id="svg_20"/>
  <path d="m399.79,361.18c1.43,10.93 2.82,21.42 4.23,31.96c-4.06,1.65 -7.05,2.86 -10.3,4.17c-0.7,-25.19 -7.46,-48.72 -13.08,-73.55c6.73,-1.87 13.45,-4.27 20.38,-5.54c9.48,-1.74 19.11,-2.67 28.69,-3.79c1.95,-0.23 3.99,0.13 5.96,0.4c2.38,0.32 4.61,0.8 4.51,4.11c-0.1,3.26 -2.06,4.41 -4.77,4.69c-7.45,0.79 -14.97,1.13 -22.36,2.26c-5.22,0.8 -10.28,2.62 -15.42,3.95c-4.27,1.11 -5.38,3.4 -4.01,7.78c2.37,7.61 4.13,15.41 6.17,23.56z" fill="#F3F3F3" id="svg_21"/>
  <path d="m343.35,688c0,-9.62 0,-18.74 0,-28.26c5.77,0.54 11.19,1.04 16.86,1.57c0.14,0.98 0.42,1.93 0.38,2.86c-0.69,14.29 -1.54,28.58 -2.05,42.87c-0.13,3.65 -1.23,5.03 -4.93,4.91c-3.11,-0.1 -6.25,0.51 -10.26,0.89c0,-8.21 0,-16.28 0,-24.84z" fill="#F3F3F3" id="svg_22"/>
  <path d="m284,1009.16c10.25,0 20,0 30.19,0c-0.28,4.4 -0.54,8.63 -0.84,13.39c-19.55,0 -38.71,0 -58.13,0c-0.32,-4.22 -0.65,-8.63 -1,-13.39c9.79,0 19.53,0 29.78,0z" fill="#F2F2F2" id="svg_23"/>
  <path d="m299.91,1003.84c-13.1,0 -25.72,0 -38.34,0c0.29,-5.12 0.57,-10.01 0.85,-14.89c14.84,0 29.69,0 44.91,0c0.42,5.29 0.79,9.85 1.2,14.89c-2.92,0 -5.52,0 -8.62,0z" fill="#F3F3F3" id="svg_24"/>
  <path d="m513.18,1270.96c-0.37,-8.64 -0.66,-16.79 -1.18,-24.92c-0.17,-2.55 0.29,-4.12 2.62,-5.71c4.71,-3.2 9.03,-6.99 14.82,-11.59c0,14.37 0.04,27.26 -0.07,40.16c-0.01,0.99 -0.77,2.29 -1.59,2.92c-4.53,3.54 -9.19,6.92 -14.6,10.95c0,-4.51 0,-7.92 0,-11.81z" fill="#F5F5F5" id="svg_25"/>
  <path d="m404.01,1535.03c0,19.43 0,38.36 0,57.49c-3.65,0 -6.08,0 -7.97,0c0,-24.79 0,-49.42 0,-74.3c8.66,3.32 8.43,9.77 7.97,16.81z" fill="#ECECEC" id="svg_26"/>
  <path d="m147.03,1576.07c-0.93,-17.06 -1.83,-33.66 -2.73,-50.38c3.13,-1.05 6.2,-2.07 9.16,-3.06c0.6,22.68 1.21,45.39 1.83,68.48c-2.3,0.25 -4.36,0.47 -6.68,0.72c-0.55,-5.43 -1.06,-10.36 -1.58,-15.76z" fill="#F0F0F0" id="svg_27"/>
  <path d="m278.04,983.67c-3.8,0 -7.09,0 -10.93,0c0.24,-2.89 0.46,-5.43 0.65,-7.65c9.53,0 18.62,0.21 27.69,-0.08c5.27,-0.18 8.83,0.8 8.02,7.72c-8.18,0 -16.56,0 -25.43,0.01z" fill="#E9E9E9" id="svg_28"/>
  <path d="m264.79,1028.06c0.93,23.54 1.46,47.05 2,70.56c0.04,1.99 0.08,3.97 0.08,6.45c-0.56,0.65 -1.07,0.8 -1.84,0.88c-0.9,-25.69 -1.53,-51.31 -2.2,-77.39c0.49,-0.48 1.03,-0.5 1.96,-0.5z" fill="#202020" id="svg_29"/>
  <path d="m125.72,1077.15c3.87,3.58 4.55,10.43 1.77,14.05c-2.45,3.18 -6.07,2.89 -7.97,-0.64c-3.37,-6.21 -0.65,-12.53 6.2,-13.41z" fill="#F5F5F5" id="svg_30"/>
  <path d="m113.73,1023.2c1.04,-1.66 1.92,-3.68 3.16,-3.93c4.33,-0.88 8.79,-1.14 13.77,-1.71c0.57,5.06 1.06,9.44 1.64,14.59c-3.55,-2.22 -7.21,-3.01 -7.39,-7.66c-0.04,-0.87 -2.14,-2.43 -3.1,-2.3c-1.32,0.19 -2.66,1.51 -3.62,2.65c-1.15,1.38 -1.9,3.1 -2.82,4.66c-0.43,-0.18 -0.85,-0.37 -1.28,-0.56c-0.12,-1.76 -0.23,-3.53 -0.36,-5.74z" fill="#F0F0F0" id="svg_31"/>
  <path d="m118.17,1049.57c-0.65,-2.86 -1.04,-5.41 -1.39,-7.67c1.57,1.39 3.31,3.93 4.42,3.68c2.06,-0.46 3.76,-2.56 5.82,-4.14c1.71,2.8 1.77,5.88 -0.63,8.62c-2.56,2.91 -5.34,1.44 -8.22,-0.49z" fill="#E9E9E9" id="svg_32"/>
  <path d="m95.22,1056.49c-0.05,-6.46 -0.05,-12.48 -0.05,-18.5c0.59,0 1.19,0 1.78,0c0,7.53 0,15.05 0,22.58c-0.24,0.05 -0.47,0.1 -0.71,0.16c-0.32,-1.27 -0.65,-2.54 -1.02,-4.24z" fill="#E9E9E9" id="svg_33"/>
  <path d="m255.29,765.64c-5.32,-8.7 -3.25,-18.05 4.45,-21.51c4.98,-2.22 11.38,-0.56 14.76,3.85c3.73,4.86 3.65,12.96 -0.17,17.61c-3.66,4.45 -9.67,5.84 -14.82,3.26c-1.45,-0.73 -2.66,-1.94 -4.22,-3.21z" fill="#070707" id="svg_34"/>
  <path d="m315.86,766.35c-10.9,2.3 -19.4,-4.36 -17.68,-13.39c1.12,-5.93 5.43,-9.78 11.29,-10.12c6.33,-0.36 11.29,3.11 13.13,9.17c1.68,5.51 -0.61,10.58 -6.74,14.34z" fill="#070707" id="svg_35"/>
  <path d="m442.17,1135c0,-62.55 0,-124.6 0,-186.64c0.63,0 1.26,0 1.9,0c0,174.53 0,349.06 0,523.6c-0.33,0 -0.65,0 -0.98,0c-0.31,-112.15 -0.61,-224.31 -0.92,-336.96z" fill="#202020" id="svg_36"/>
  <path d="m308.34,170.74c-8.2,3.12 -14.65,0.39 -16.7,-6.72c-2.05,-7.09 2.69,-14.92 10.07,-16.3c4.54,-0.84 8.17,1.01 10.73,4.77c3.03,4.45 2.81,10.56 -0.54,14.96c-0.89,1.17 -2.14,2.06 -3.56,3.29z" fill="#0B0B0B" id="svg_37"/>
  <path d="m258.01,161.9c0.62,-7.46 4.31,-12.18 10.4,-13.2c4.79,-0.79 8.48,1.29 10.86,5.4c2.77,4.81 2.28,9.62 -0.94,14.03c-2.9,3.99 -6.88,5.65 -11.79,4.48c-5.38,-1.28 -8.02,-4.92 -8.53,-10.71z" fill="#0B0B0B" id="svg_38"/>
  <path d="m295.45,199.43c-3.42,-6.27 -3.2,-11.6 0.37,-15.58c4.08,-4.54 9.97,-5.48 14.28,-2.27c4.57,3.41 5.74,10.43 2.62,15.81c-2.85,4.92 -8.65,6.89 -13.76,4.56c-1.18,-0.54 -2.18,-1.47 -3.51,-2.52z" fill="#0B0B0B" id="svg_39"/>
  <path d="m260.5,187.67c3.68,-6.16 7.73,-8.39 12.57,-7.17c4.48,1.12 7.64,5.25 7.85,10.29c0.23,5.42 -2.92,10.9 -7.99,11.67c-3.2,0.49 -7.42,-0.33 -9.97,-2.2c-3.88,-2.85 -4.22,-7.61 -2.46,-12.59z" fill="#0F0F0F" id="svg_40"/>
  <path d="m297.85,1092.62c-4.38,5.27 -9.49,7.09 -14.15,4.99c-4.42,-2 -6.28,-5.77 -6.1,-10.48c0.22,-5.6 3.94,-10.14 9.27,-11.57c7.18,-1.93 14.28,4.72 12.79,12.05c-0.33,1.6 -1.07,3.12 -1.81,5.01z" fill="#070707" id="svg_41"/>
  <path d="m290.07,1052.59c-8.54,1.01 -13.67,-2.87 -14.06,-10.29c-0.23,-4.31 1.39,-7.87 5.22,-10.04c3.58,-2.02 7.16,-1.38 10.22,1.14c3.6,2.95 5.47,7.08 4.15,11.52c-0.81,2.76 -3.4,4.99 -5.53,7.67z" fill="#0B0B0B" id="svg_42"/>
 </g>
 <g class="layer" display="inline">
  <title>Middle Straps Fill</title>
  <path class="middle-strap" d="m246,395c0,-0.8 -0.33,-1.45 -0.83,-2.17c-0.5,-0.72 -0.17,-1.78 -0.17,-2.67c0,-0.81 0.26,-1.78 0,-2.59c-0.22,-0.69 -0.99,-1.07 -1,-2c-0.01,-0.93 0,-1.8 0,-2.66c0,-0.93 0,-1.79 0,-2.63c0,-0.93 0,-1.8 0,-2.67c0,-0.96 -0.29,-1.91 0.06,-2.67c0.35,-0.76 0.94,-1.37 0.94,-2.3c0,-0.93 0,-1.81 0,-2.68c0,-0.91 0,-1.8 0,-2.61c0,-0.93 0,-1.78 0,-2.71c0,-0.93 0,-1.81 0,-2.67c0,-0.92 0,-1.81 0,-2.62c0,-0.93 0,-1.78 0,-2.71c0,-0.93 0,-1.81 0,-2.68c0,-0.91 0,-1.8 0,-2.61c0,-0.93 0,-1.78 0,-2.71c0,-0.93 0,-1.81 0,-2.67c0,-0.92 -0.42,-1.96 0.06,-2.62c0.52,-0.73 0.94,-1.07 0.94,-2c0,-0.85 0,-1.78 0,-2.71c0,-0.87 0.62,-1.39 0.98,-2.15c0.36,-0.78 0.52,-1.56 0.9,-2.38c0.33,-0.71 0.71,-1.44 1.12,-2.21c0.39,-0.72 0.73,-1.25 1.28,-1.83c0.54,-0.56 0.68,-1.25 1.36,-1.73c0.7,-0.49 1.04,-0.99 1.36,-1.78c0.31,-0.76 1.06,-1.18 1.56,-1.57c0.52,-0.4 0.95,-1.11 1.39,-1.96c0.35,-0.68 0.5,-1.22 1.04,-1.91c0.45,-0.59 1.18,-0.58 1.83,-1.12c0.53,-0.44 0.76,-1.15 1.22,-1.65c0.61,-0.65 1.39,-0.69 2.11,-1.19c0.73,-0.51 1.72,-0.23 2.35,-0.67c0.81,-0.56 1.77,-0.45 2.68,-0.5c0.8,-0.04 0.82,-0.99 1.72,-1c0.8,-0.01 1.69,0 2.65,0c0.86,0 1.79,0 2.66,0c0.95,0 1.78,0 2.69,0c0.8,0 1.73,0 2.59,0c0.93,0 1.85,0 2.72,0c0.95,0 1.78,0 2.69,0c0.8,0 1.73,0 2.59,0c0.93,0 1.85,0 2.72,0c0.95,0 1.8,0 2.69,0c0.8,0 1.73,0 2.58,0c0.93,0 1.85,0 2.72,0c0.95,0 1.78,0 2.69,0c0.79,0 1.73,0 2.6,0c0.87,0 1.83,0 2.7,0c0.95,0 1.98,-0.4 2.61,0.17c0.64,0.58 1.14,0.83 2.05,0.83c0.83,0 1.69,0 2.62,0c0.93,0 1.78,0 2.72,0c0.86,0 1.76,0 2.66,0c0.84,0 1.7,0 2.62,0c0.93,0 1.78,0 2.72,0c0.86,0 1.8,-0.19 2.58,0.09c0.86,0.3 1.59,0.78 2.16,1.34c0.5,0.48 0.98,1.1 1.46,1.59c0.52,0.52 1.09,0.89 1.57,1.41c0.46,0.5 0.87,1.01 1,1.93c0.13,0.89 0.96,1.22 1.57,1.68c0.64,0.48 0.48,1.55 0.93,1.98c0.57,0.56 0.54,1.51 1,2c0.55,0.58 0.25,1.51 0.5,2.4c0.18,0.65 0.98,1 1,1.93c0.02,0.93 0.63,1.39 0.98,2.15c0.39,0.84 0.02,1.78 0.02,2.72c0,0.86 0,1.77 0,2.66c0,0.84 -0.37,1.78 0.02,2.62c0.35,0.76 0.98,1.33 0.98,2.15c0,0.93 -0.19,1.8 0,2.71c0.15,0.69 0.98,1.07 1,1.93c0.02,0.94 0,1.8 0,2.72c0,0.88 0,1.71 0,2.65c0,0.85 0,1.78 0,2.64c0,0.94 0,1.8 0,2.72c0,0.88 0,1.72 0,2.65c0,0.85 0,1.78 0,2.64c0,0.94 0,1.8 0,2.72c0,0.88 0,1.72 0,2.65c0,0.85 0,1.78 0,2.64c0,0.94 0,1.8 0,2.72c0,0.8 0,1.71 0,2.65c0,0.85 0,1.78 0,2.64c0,0.94 0,1.8 0,2.72c0,0.88 0,1.72 0,2.65c0,0.85 0,1.78 0,2.64c0,0.91 0,1.8 0,2.71c0,0.88 0.01,1.72 0,2.65c-0.01,0.85 -0.82,1.28 -1,1.96c-0.22,0.84 0,1.74 0,2.67c0,0.88 0,1.77 0,2.66c0,0.89 0,1.7 0,2.63c0,0.93 0,1.78 0,2.71c0,0.88 0,1.77 0,2.66c0,0.89 0,1.7 0,2.63c0,0.93 0,1.78 0,2.71c0,0.88 0,1.77 0,2.66c0,0.89 0,1.7 0,2.63c0,0.93 0,1.78 0,2.71c0,0.88 0,1.82 0,2.66c0,0.85 0,1.7 0,2.63c0,0.93 0,1.78 0,2.73c0,0.9 0,1.8 0,2.65c0,0.89 0,1.76 0,2.62c0,0.87 0,1.84 0,2.74c0,0.9 0.15,1.84 -0.09,2.5c-0.31,0.85 -0.91,1.56 -0.91,2.5c0,0.93 0,1.8 0,2.68c0,0.83 0,1.73 0,2.63c0,0.9 0,1.79 0,2.69c0,0.91 0,1.81 0,2.71c0,0.83 0,1.7 0,2.56c0,0.96 0,1.83 0,2.72c0,0.94 0,1.82 0,2.69c0,0.83 0,1.73 0,2.63c0,0.9 0,1.8 0,2.7c0,0.9 0,1.8 0,2.7c0,0.8 0,1.7 0,2.6c0,0.9 0,1.79 0,2.69c0,0.91 0.18,1.87 -0.17,2.71c-0.28,0.67 -0.82,1.4 -0.83,2.39c-0.02,0.9 0,1.71 0,2.61c0,0.8 0.01,1.7 0,2.64c-0.01,0.9 -0.3,1.83 -0.57,2.53c-0.36,0.93 -0.43,1.83 -0.43,2.63c0,0.9 0,1.8 0,2.68c0,0.96 0,1.82 0,2.74c0,0.88 0.29,1.83 0,2.66c-0.26,0.77 -0.97,1.42 -1,2.32c-0.03,0.88 0,1.8 0,2.68c0,0.84 0,1.73 0,2.6c0,0.96 0,1.82 0,2.74c0,0.88 0,1.78 0,2.66c0,0.84 0.01,1.77 0,2.64c-0.01,0.87 -0.77,1.42 -1,2.18c-0.24,0.83 0,1.8 0,2.65c0,0.93 0,1.81 0,2.7c0,0.89 0,1.78 0,2.59c0,0.93 0.16,1.93 -0.28,2.64c-0.48,0.75 -0.24,1.59 -0.77,2.36c-0.48,0.7 -0.59,1.14 -0.94,1.93c-0.27,0.61 -1,1.07 -1,2c0,0.85 0.05,1.82 -0.5,2.4c-0.46,0.49 -0.27,1.38 -0.67,2.19c-0.32,0.65 -0.83,1.48 -0.83,2.33c0,0.93 0.25,1.87 -0.17,2.67c-0.36,0.69 -0.6,1.44 -0.83,2.26c-0.18,0.65 -0.99,1.07 -1,1.93c-0.01,0.93 0.31,1.89 -0.06,2.7c-0.34,0.76 -0.94,1.37 -0.94,2.3c0,0.87 -0.33,1.67 -0.72,2.36c-0.41,0.73 -0.28,1.71 -0.28,2.64c0,0.87 0,1.73 0,2.65c0,0.88 -0.74,1.39 -1,2.28c-0.25,0.85 0,1.77 0,2.66c0,0.89 0.39,1.76 -0.04,2.62c-0.35,0.7 -0.96,1.24 -0.96,2.15c0,0.93 0,1.79 0,2.72c0,0.86 0.29,1.86 -0.06,2.62c-0.35,0.76 -0.94,1.45 -0.94,2.3c0,0.93 0,1.81 0,2.7c0,0.89 0,1.78 0,2.59c0,0.93 0,1.85 0,2.71c0,0.93 0,1.81 0,2.7c0,0.95 0,1.78 0,2.59c0,0.93 0,1.85 0,2.71c0,0.93 0,1.85 0,2.7c0,0.95 0,1.78 0,2.59c0,0.93 0,1.85 0,2.71c0,0.93 0,1.81 0,2.7c0,0.89 0,1.75 0,2.59c0,0.88 0,1.84 0,2.71c0,0.94 0,1.84 0,2.7c0,0.89 0,1.75 0,2.59c0,0.93 -0.55,1.61 -0.88,2.46c-0.33,0.85 -0.12,1.7 -0.12,2.6c0,0.9 -0.06,1.74 -0.57,2.29c-0.46,0.5 -0.43,1.4 -0.43,2.3c0,0.92 0,1.88 0,2.54c0,1.01 0.01,1.9 -0.43,2.61c-0.47,0.77 -0.57,1.65 -0.57,2.56c0,0.88 0,1.7 0,2.64c0,0.88 -0.07,1.7 -0.57,2.38c-0.48,0.64 -0.43,1.57 -0.43,2.47c0,0.9 0,1.8 0,2.7c0,0.9 0,1.75 0,2.6c0,0.9 0,1.8 0,2.68c0,0.96 0,1.67 0,2.63c0,0.92 0,1.87 0,2.73c0,0.81 -0.69,1.43 -1,2.25c-0.32,0.86 0,1.72 0,2.63c0,0.93 0,1.81 0,2.67c0,0.96 0,1.83 0,2.71c0,0.9 0,1.78 0,2.6c0,0.94 0,1.8 0,2.73c0,0.86 0,1.76 0,2.65c0,0.92 0,1.72 0,2.55c0,1.02 0,1.71 0,2.72c0,0.93 0,1.85 0,2.75c0,0.9 -0.22,1.81 0,2.62c0.22,0.8 1,1.45 1,2.17c0,0.94 0,1.95 0,2.75c0,0.88 0,1.86 0,2.76c0,0.9 0,1.8 0,2.7c0,0.85 0,1.73 0,2.6c0,0.9 0,1.8 0,2.6c0,1.02 0,1.83 0,2.74c0,0.95 0,1.79 0,2.66c0,0.9 0,1.77 0,2.74c0,0.71 0,1.72 0,2.66c0,0.9 0,1.7 0,2.54c0,0.88 0,1.84 0,2.72c0,0.96 0,1.64 0,2.62c0,0.97 0,1.85 0,2.67c0,0.93 0,1.85 0,2.71c0,0.93 0,1.81 0,2.7c0,0.89 0.16,1.8 -0.04,2.55c-0.23,0.85 -1.23,1.15 -2.06,1.61c-0.69,0.38 -1.07,1.43 -1.95,1.77c-0.85,0.33 -1.81,-0.2 -2.59,0c-0.86,0.22 -1.44,1 -2.35,1c-0.8,0 -1.43,0.37 -2.22,0.88c-0.71,0.46 -1.33,0.37 -1.95,0.95c-0.63,0.6 -1.75,0.19 -2.55,0.17c-0.93,-0.03 -1.25,-0.77 -1.8,-1.5c-0.59,-0.77 -1.08,-1.44 -1.52,-2.07c-0.48,-0.7 -1.14,-1.01 -1.68,-1.51c-0.7,-0.65 0.07,-1.86 -0.34,-2.56c-0.47,-0.81 -0.53,-1.57 -1.11,-2.19c-0.59,-0.63 -0.56,-1.16 -0.83,-2c-0.26,-0.81 -0.94,-1.47 -1,-2.37c-0.06,-0.85 -0.82,-1.39 -1,-2.23c-0.2,-0.91 0,-1.77 0,-2.66c0,-0.91 0,-1.79 0,-2.63c0,-0.93 0,-1.78 0,-2.71c0,-0.93 0,-1.8 0,-2.67c0,-0.91 0,-1.75 0,-2.66c0,-0.89 0,-1.74 0,-2.67c0,-0.93 0,-1.77 0,-2.66c0,-0.91 -0.24,-1.75 0,-2.63c0.22,-0.8 1,-1.45 1,-2.39c0,-0.84 0,-1.73 0,-2.55c0,-0.87 0,-1.85 0,-2.74c0,-0.9 0,-1.81 0,-2.67c0,-0.89 -0.02,-1.78 0,-2.59c0.02,-0.93 0.82,-1.35 1,-2.23c0.17,-0.82 0,-1.77 0,-2.62c0,-0.93 0,-1.79 0,-2.7c0,-0.89 0,-1.81 0,-2.68c0,-0.84 0,-1.77 0,-2.62c0,-0.93 0,-1.85 0,-2.72c0,-0.86 0.24,-1.73 0.65,-2.42c0.44,-0.75 0.35,-1.65 0.35,-2.58c0,-0.95 0,-1.8 0,-2.58c0,-0.91 0,-1.85 0,-2.7c0,-0.93 -0.04,-1.85 0,-2.72c0.04,-0.87 0.82,-1.37 1,-2.21c0.2,-0.93 0,-1.85 0,-2.73c0,-0.89 0,-1.83 0,-2.67c0,-0.81 0,-1.74 0,-2.6c0,-0.96 0,-1.86 0,-2.73c0,-0.93 0,-1.78 0,-2.67c0,-0.81 0,-1.74 0,-2.67c0,-0.85 0.56,-1.23 0.96,-1.93c0.47,-0.8 0.04,-1.8 0.04,-2.74c0,-0.85 0,-1.63 0,-2.55c0,-0.9 0,-1.85 0,-2.71c0,-0.93 0,-1.8 0,-2.67c0,-0.9 -0.24,-1.73 0,-2.61c0.22,-0.81 0.96,-1.48 1,-2.45c0.04,-0.83 0,-1.75 0,-2.67c0,-0.81 0,-1.74 0,-2.59c0,-0.93 0,-1.77 0,-2.74c0,-0.85 0,-1.75 0,-2.54c0,-0.9 0,-1.86 0,-2.72c0,-0.93 0,-1.77 0,-2.67c0,-0.9 0,-1.7 0,-2.6c0,-0.94 -0.1,-1.88 0.35,-2.6c0.52,-0.82 0.65,-1.51 0.65,-2.4c0,-0.9 0,-1.86 0,-2.74c0,-0.86 -0.29,-1.84 0.09,-2.65c0.38,-0.81 0.91,-1.42 0.91,-2.34c0,-0.86 0,-1.77 0,-2.66c0,-0.92 0,-1.72 0,-2.62c0,-0.86 0.55,-1.55 0.88,-2.4c0.33,-0.85 0.12,-1.78 0.12,-2.61c0,-0.96 -0.28,-1.87 0.01,-2.68c0.26,-0.74 0.98,-1.22 0.99,-2.17c0,-0.87 0,-1.84 0,-2.74c0,-0.9 -0.04,-1.8 0,-2.7c0.03,-0.7 0.74,-1.38 1,-2.33c0.18,-0.66 0,-1.78 0,-2.67c0,-0.8 -0.19,-1.74 0.04,-2.61c0.22,-0.84 0.96,-1.45 0.96,-2.25c0.01,-0.97 -0.19,-1.88 0.04,-2.75c0.22,-0.84 0.96,-1.47 0.96,-2.36c0,-0.9 0,-1.73 0,-2.59c0,-0.96 -0.18,-1.89 0.22,-2.66c0.35,-0.67 0.56,-1.5 0.78,-2.42c0.18,-0.78 0.94,-1.45 1,-2.36c0.05,-0.8 -0.11,-1.71 0.04,-2.64c0.14,-0.87 0.78,-1.6 0.96,-2.53c0.16,-0.82 0.11,-1.62 0.57,-2.4c0.45,-0.77 0.43,-1.72 0.43,-2.54c0,-0.9 -0.03,-1.7 0,-2.6c0.03,-0.94 0.92,-1.45 1,-2.3c0.08,-0.8 -0.01,-1.71 0,-2.61c0.01,-0.87 0.81,-1.38 1,-2.09c0.23,-0.91 0,-1.87 0,-2.72c0,-0.93 0,-1.86 0,-2.67c0,-0.93 -0.02,-1.85 0,-2.6c0.03,-0.94 0.92,-1.45 1,-2.3c0.08,-0.8 -0.01,-1.71 0,-2.57c0.01,-0.95 0.63,-1.55 0.98,-2.43c0.29,-0.75 0.02,-1.71 0.02,-2.61c0,-0.89 0,-1.78 0,-2.74c0,-0.87 -0.2,-1.81 0.17,-2.65c0.32,-0.74 0.83,-1.44 0.83,-2.3c0,-0.93 0,-1.8 0,-2.7c0,-0.92 0.37,-1.43 0.88,-2.22c0.46,-0.71 0.12,-1.74 0.12,-2.61c0,-0.88 0,-1.74 0,-2.67c0,-0.86 0,-1.8 0,-2.7c0,-0.85 0.21,-1.77 0.57,-2.4c0.45,-0.77 0.43,-1.79 0.43,-2.68c0,-0.88 0,-1.72 0,-2.63c0,-0.79 0,-1.72 0,-2.57c0,-0.86 0,-1.88 0,-2.71c0,-0.97 0.57,-1.48 0.96,-2.24c0.4,-0.77 0.04,-1.76 0.04,-2.66c0,-0.9 0,-1.7 0,-2.6c0,-0.9 0,-1.8 0,-2.69c0,-0.9 0,-1.81 0,-2.71c0,-0.9 0,-1.7 0,-2.61c0,-0.86 -0.12,-1.84 0.28,-2.57c0.43,-0.79 0.72,-1.51 0.72,-2.41c0,-0.94 0,-1.82 0,-2.7c0,-0.9 0,-1.82 0,-2.7c0,-0.9 0,-1.7 0,-2.61c0,-0.9 0,-1.76 0,-2.71c0,-0.86 -0.08,-1.78 0,-2.66c0.08,-0.93 0.82,-1.5 1,-2.35c0.18,-0.85 0,-1.77 0,-2.73c0,-0.81 0,-1.72 0,-2.54c0,-0.94 0,-1.82 0,-2.68c0,-0.96 0,-1.83 0,-2.69c0,-0.92 0,-1.72 0,-2.63c0,-0.9 -0.14,-1.8 0.01,-2.69c0.14,-0.83 0.9,-1.59 0.99,-2.4c0.09,-0.9 0,-1.8 0,-2.7c0,-0.9 0,-1.8 0,-2.7c0,-0.9 0,-1.77 0,-2.6c0,-0.9 0,-1.8 0,-2.7c0,-0.89 -0.1,-1.79 0,-2.72c0.08,-0.79 0.96,-1.06 1,-1.95c0.04,-0.88 0,-1.63 0,-2.67c0,-0.78 0,-1.73 0,-2.6c0.01,-0.95 0.73,-1.44 0.99,-2.17c0.3,-0.84 0.01,-1.79 0.01,-2.69c0,-0.9 0,-1.78 0,-2.7c0,-0.8 0,-1.71 0,-2.61c0,-0.89 0,-1.78 0,-2.67c0,-0.94 0,-1.82 0,-2.72c0,-0.8 0,-1.71 0,-2.64c0,-0.85 0,-1.78 0,-2.64c0,-0.94 0,-1.8 0,-2.72c0,-0.8 0,-1.7 0,-2.6c0,-0.9 0,-1.79 0,-2.68c0,-0.94 0,-1.8 0,-2.72c0,-0.8 0,-1.71 0,-2.61c0,-0.89 0,-1.78 0,-2.67c0,-0.91 0,-1.8 0,-2.71c0,-0.8 0,-1.7 0,-2.64c0,-0.86 0,-1.79 0,-2.65c0,-0.93 0,-1.8 0,-2.69c0,-0.87 0,-1.77 0,-2.63c0,-0.87 0,-1.81 0,-2.67c0,-0.91 0,-1.8 0,-2.71c0,-0.8 0,-1.7 0,-2.64c0,-0.88 0,-1.76 0,-2.65c0,-0.93 -0.17,-1.66 -0.65,-2.35c-0.48,-0.7 -0.35,-1.71 -0.35,-2.64c0,-0.91 0.17,-1.81 -0.09,-2.52c-0.3,-0.85 -0.91,-1.55 -0.91,-2.48c0,-0.91 -0.25,-1.67 -0.65,-2.41c-0.44,-0.82 -0.19,-1.98 -0.93,-2.29c-0.85,-0.36 -1.78,-0.01 -2.71,-0.01c-0.88,0 -1.97,0.56 -2.68,-0.01c-0.66,-0.53 -1.06,-0.99 -1.95,-0.99c-0.8,0 -1.73,0 -2.66,0c-0.85,0 -1.78,0.09 -2.65,0c-0.79,-0.08 -1.06,-0.96 -2,-1c-0.88,-0.04 -1.78,0 -2.66,0c-0.84,0 -1.7,0 -2.62,0c-0.93,0 -1.57,0.42 -2.33,0.83c-0.73,0.39 -1.82,0.33 -2.17,1.22c-0.32,0.83 0,1.78 0,2.59c0,0.93 0,1.85 0,2.71c0,0.93 0,1.81 0,2.75c0,0.84 0,1.73 0,2.55c0,0.93 0,1.85 0,2.71c0,0.93 0,1.81 0,2.7c0,0.89 0.01,1.77 0.5,2.45c0.51,0.71 0.67,1.46 1.15,2.2c0.45,0.71 0.82,1.47 1.19,2.3c0.38,0.85 0.17,1.7 0.17,2.64c0,0.86 0.04,1.75 0.57,2.35c0.45,0.51 0.43,1.4 0.43,2.29c0,0.94 0,1.77 0,2.7c0,0.9 0,1.74 0,2.63c0,0.87 0,1.75 0,2.69c0,0.9 0,1.76 0,2.7c0,0.8 0,1.7 0,2.56c0,0.96 0,1.83 0,2.72c0,0.94 0,1.82 0,2.72c0,0.88 0,1.72 0,2.57c0,0.93 0,1.78 0,2.73c0,0.9 0,1.75 0,2.67c0,0.83 0,1.73 0,2.59c0,0.94 0,1.79 0,2.74c0,0.9 0,1.8 0,2.7c0,0.88 0,1.72 0,2.57c0,0.95 0,1.83 0,2.73c0,0.9 0,1.76 0,2.7c0,0.88 -0.06,1.76 0.43,2.43c0.51,0.71 0.57,1.57 0.57,2.49c0,0.8 0,1.69 0,2.65c0,0.86 0,1.79 0,2.66c0,0.86 0,1.78 0,2.58c0,0.91 0,1.85 0,2.7c0,0.93 0.1,1.86 0,2.7c-0.11,0.92 -0.81,1.45 -0.99,2.36c-0.18,0.94 -0.01,1.84 -0.01,2.74c0,0.9 0,1.78 0,2.67c0,0.9 -0.69,1.47 -0.94,2.33c-0.26,0.86 -0.06,1.8 -0.06,2.7c0,0.88 0,1.7 0,2.6c0,0.9 0.08,1.8 0,2.7c-0.08,0.87 -0.65,1.62 -0.91,2.53c-0.23,0.79 -0.09,1.67 -0.09,2.61c0,0.86 0,1.76 0,2.66c0,0.93 0,1.7 0,2.61c0,0.9 0,1.85 0,2.72c0,0.86 -0.5,1.62 -0.88,2.44c-0.33,0.7 -0.12,1.64 -0.12,2.52c0,0.9 0,1.8 0,2.7c0,0.9 0.33,1.75 0,2.73c-0.26,0.79 -1,1.39 -1,2.27c0,0.9 0,1.7 0,2.61c0,0.86 0.12,1.84 -0.28,2.57c-0.43,0.79 -0.72,1.51 -0.72,2.41c0,0.94 0.28,1.87 -0.01,2.69c-0.26,0.74 -0.98,1.22 -0.99,2.11c-0.01,0.9 0,1.89 0,2.78c0,0.88 -0.25,1.67 -0.65,2.42c-0.42,0.78 -0.28,1.79 -0.39,2.47c-0.15,0.96 -0.9,1.7 -0.96,2.47c-0.07,0.92 0.05,1.8 -0.04,2.57c-0.12,0.99 -0.65,1.67 -0.91,2.67c-0.21,0.8 -0.06,1.76 -0.06,2.63c0,0.87 -0.35,1.61 -0.72,2.28c-0.45,0.82 -0.28,1.8 -0.28,2.7c0,0.89 0.12,1.91 -0.28,2.7c-0.34,0.66 -0.71,1.5 -0.72,2.4c0,0.9 0,1.8 0,2.7c0,0.9 0,1.8 0,2.7c0,0.8 0,1.7 0,2.6c0,0.88 0,1.84 0,2.55c0,1.07 0.3,2.01 -0.01,2.83c-0.31,0.79 -0.97,1.44 -0.99,2.35c-0.02,0.82 -0.05,1.72 -0.43,2.54c-0.3,0.65 -0.57,1.69 -0.57,2.56c-0.01,0.93 0.09,1.82 -0.17,2.74c-0.19,0.68 -0.74,1.65 -0.82,2.39c-0.11,0.96 0.11,1.84 -0.01,2.73c-0.11,0.84 -0.84,1.48 -0.99,2.31c-0.15,0.89 -0.01,1.88 -0.01,2.75c0,0.93 0,1.75 0,2.65c0,0.92 -0.69,1.44 -0.94,2.3c-0.29,0.98 -0.06,1.7 -0.06,2.67c0,1.02 0.21,1.85 0,2.66c-0.22,0.87 -0.96,1.55 -1,2.46c-0.04,0.9 0.19,1.77 -0.06,2.6c-0.26,0.87 -0.9,1.49 -0.94,2.4c-0.04,0.92 -0.02,1.67 -0.35,2.55c-0.27,0.71 -0.63,1.72 -0.65,2.67c-0.02,0.85 0.04,1.79 0,2.65c-0.04,0.83 -0.71,1.45 -0.96,2.43c-0.23,0.88 0,1.77 -0.06,2.64c-0.04,0.65 -0.26,1.64 -0.48,2.44c-0.21,0.75 -0.48,1.87 -0.5,2.85c-0.01,0.68 0.04,1.46 -0.17,2.5c-0.19,0.95 -0.56,1.54 -0.75,2.57c-0.14,0.76 -0.09,1.84 -0.09,2.7c0,0.9 0,1.85 0,2.73c0,0.78 -0.16,1.6 -0.65,2.22c-0.51,0.65 -0.35,1.66 -0.35,2.56c0,0.87 0.13,1.82 0,2.67c-0.14,0.95 -0.91,1.53 -1,2.33c-0.09,0.88 0,1.79 0,2.68c0,0.93 0.05,1.79 0,2.7c-0.04,0.8 -0.78,1.48 -1,2.36c-0.21,0.82 0,1.81 0,2.64c0,0.83 0,1.7 0,2.6c0,0.88 0,1.84 0,2.7c0,0.86 0,1.7 0,2.67c0,0.82 -0.06,1.72 -0.5,2.52c-0.44,0.8 -0.5,1.72 -0.5,2.58c0,0.92 0,1.79 0,2.62c0,0.9 0,1.8 0,2.68c0,0.94 0,1.76 0,2.69c0,0.89 0,1.8 0,2.62c0,0.9 0,1.8 0,2.7c0,0.9 0,1.82 0,2.7c0,0.9 0,1.7 0,2.6c0,0.82 0,1.79 0,2.51c0,0.99 0,1.79 0,2.79c0,0.79 0,1.83 0,2.7c0,0.9 0,1.78 0,2.66c0,0.94 0.19,1.91 -0.22,2.74c-0.35,0.71 -0.78,1.42 -0.78,2.29c0,0.94 0,1.76 0,2.69c0,0.92 0,1.72 0,2.55c0,1.01 0,1.79 0,2.72c0,0.94 0,1.86 0,2.74c0,0.87 0,1.7 0,2.6c0,0.9 0,1.8 0,2.7c0,0.9 0,1.8 0,2.7c0,0.9 0,1.78 0,2.61c0,0.96 0,1.82 0,2.69c0,0.9 0,1.8 0,2.68c0,0.92 0,1.79 0,2.62c0,0.82 0,1.78 0,2.64c0,0.9 0,1.85 0,2.74c0,0.89 0,1.79 0,2.62c0,0.9 0,1.82 0,2.62c0,0.82 0,1.9 0,2.78c0,0.87 0,1.66 0,2.55c0,0.86 0,1.83 0,2.74c0,0.89 0,1.83 0,2.71c0,0.9 0,1.7 0,2.6c0,0.9 0,1.8 0,2.7c0,0.9 0,1.82 0,2.7c0,0.9 0,1.7 0,2.54c0,1.02 0,1.71 0,2.73c0,0.93 -0.31,1.69 -0.72,2.35c-0.47,0.77 -0.28,1.72 -0.28,2.58c0,0.93 0,1.8 0,2.7c0,0.91 0,1.7 0,2.6c0,0.9 0,1.88 0,2.76c0,0.84 0,1.74 0,2.64c0,0.92 0,1.7 0,2.64c0,0.93 0,1.78 0,2.71c0,0.87 0,1.81 0,2.68c0,0.88 0.41,1.94 -0.06,2.61c-0.49,0.7 -1.65,0.35 -2.51,0.35c-0.94,0 -1.79,0 -2.72,0c-0.88,0 -1.77,0 -2.68,0c-0.87,0 -1.68,0 -2.61,0c-0.93,0 -1.78,0.05 -2.72,0c-0.79,-0.04 -1.48,-0.67 -2.06,-1.36c-0.59,-0.7 -0.12,-1.82 -0.65,-2.52c-0.45,-0.6 -0.97,-1.07 -1,-1.95c-0.03,-0.82 -0.92,-1.32 -1,-2.17c-0.09,-0.87 -0.74,-1.39 -1,-2.28c-0.25,-0.85 0,-1.77 0,-2.66c0,-0.89 -0.86,-1.11 -1,-1.97c-0.13,-0.79 0,-1.73 0,-2.59c0,-0.93 -0.41,-1.61 -0.83,-2.5c-0.31,-0.65 -0.17,-1.64 -0.17,-2.52c0,-0.87 0,-1.83 0,-2.7c0,-0.95 0,-1.78 0,-2.58c0,-0.91 0.16,-1.83 -0.02,-2.7c-0.18,-0.85 -0.92,-1.59 -0.98,-2.5c-0.05,-0.8 0,-1.71 0,-2.61c0,-0.87 0,-1.81 0,-2.67c0,-0.94 0,-1.8 0,-2.72c0,-0.88 0.19,-1.73 -0.04,-2.6c-0.22,-0.85 -0.96,-1.48 -0.96,-2.4c0,-0.76 0,-1.65 0,-2.67c0,-0.9 0,-1.69 0,-2.58c0,-0.96 0,-1.86 0,-2.76c0,-0.8 -0.37,-1.43 -0.88,-2.22c-0.48,-0.75 -0.12,-1.73 -0.12,-2.58c0,-0.9 0,-1.76 0,-2.63c0,-0.95 0,-1.85 0,-2.76c0,-0.84 0,-1.65 0,-2.63c0,-0.82 0,-1.82 0,-2.6c0,-0.93 0,-1.87 0,-2.77c0,-0.9 0,-1.75 0,-2.51c0,-0.81 0,-1.88 0,-2.79c0,-0.89 0,-1.78 0,-2.67c0,-0.89 0,-1.83 0,-2.67c0,-0.87 0,-1.77 0,-2.67c0,-0.9 0,-1.8 0,-2.67c0,-0.89 0,-1.83 0,-2.63c0,-0.9 0,-1.8 0,-2.7c0,-0.89 0,-1.79 0,-2.7c0,-0.85 0,-1.8 0,-2.63c0,-0.87 0,-1.73 0,-2.67c0,-0.85 0,-1.78 0,-2.67c0,-0.93 0,-1.83 0,-2.63c0,-0.84 0,-1.81 0,-2.7c0,-0.9 0,-1.8 0,-2.67c0,-0.93 -0.03,-1.83 0,-2.67c0.03,-0.87 0.62,-1.48 0.91,-2.37c0.29,-0.86 0.09,-1.83 0.09,-2.71c0,-0.79 -0.17,-1.7 0.02,-2.59c0.18,-0.85 0.92,-1.59 0.98,-2.5c0.05,-0.8 0,-1.7 0,-2.6c0,-0.92 -0.2,-1.92 0.06,-2.69c0.26,-0.78 0.94,-1.32 0.94,-2.21c0.01,-0.9 0,-1.8 0,-2.72c0,-0.95 0,-1.78 0,-2.69c0,-0.79 0,-1.73 0,-2.66c0,-0.85 0.5,-1.55 0.88,-2.3c0.37,-0.75 -0.04,-1.74 0.14,-2.62c0.18,-0.84 0.96,-1.48 0.98,-2.36c0.02,-0.97 0,-1.75 0.43,-2.54c0.45,-0.82 0.72,-1.58 1.15,-2.21c0.53,-0.8 0.3,-1.76 0.43,-2.69c0.11,-0.82 0.85,-1.47 0.99,-2.4c0.14,-0.89 -0.1,-1.87 0.36,-2.6c0.49,-0.77 0.65,-1.51 0.65,-2.34c0,-1.02 -0.11,-1.72 0.01,-2.74c0.11,-0.96 0.57,-1.6 0.82,-2.46c0.25,-0.84 0.17,-1.77 0.17,-2.67c0,-0.89 -0.23,-1.93 0.17,-2.67c0.37,-0.68 0.83,-1.41 0.83,-2.33c0,-0.85 -0.16,-1.8 0,-2.67c0.14,-0.79 0.9,-1.27 1,-2.13c0.1,-0.88 0.85,-1.47 0.99,-2.3c0.15,-0.89 -0.07,-1.8 0.01,-2.7c0.08,-0.88 0.84,-1.47 0.99,-2.3c0.16,-0.89 0.55,-1.6 0.89,-2.5c0.32,-0.85 0.25,-1.68 0.7,-2.5c0.43,-0.78 0.32,-1.71 0.43,-2.6c0.11,-0.92 0.8,-1.46 0.99,-2.4c0.18,-0.88 0.51,-1.62 0.84,-2.4c0.32,-0.75 0.17,-1.7 0.17,-2.6c0,-0.9 -0.09,-1.85 0.35,-2.7c0.39,-0.75 0.63,-1.5 0.65,-2.4c0.02,-0.94 0.29,-1.78 0.57,-2.44c0.44,-1.02 0.43,-1.86 0.43,-2.66c0,-0.9 0,-1.84 0,-2.77c0,-0.78 -0.11,-1.85 0.28,-2.63c0.33,-0.66 0.71,-1.5 0.72,-2.44c0,-0.88 0,-1.76 0,-2.65c0,-0.93 0,-1.8 0,-2.7c0,-0.76 0,-1.65 0,-2.52c0,-0.96 -0.13,-1.89 0,-2.78c0.14,-0.93 0.91,-1.52 1,-2.31c0.09,-0.86 0,-1.81 0,-2.72c0,-0.82 0,-1.77 0,-2.67c0,-0.89 0,-1.7 0,-2.64c0,-0.88 -0.08,-1.76 0,-2.65c0.08,-0.88 0.85,-1.47 0.99,-2.34c0.14,-0.84 0.01,-1.71 0.01,-2.73c0,-0.84 0,-1.74 0,-2.64c0,-0.8 0,-1.71 0,-2.61c0,-0.95 -0.08,-1.87 0.35,-2.69c0.4,-0.75 0.65,-1.5 0.65,-2.4c0,-0.94 0,-1.78 0,-2.59c0,-1 0,-1.91 0,-2.81c0,-0.9 0,-1.7 0,-2.6c0,-0.94 -0.11,-1.8 0.06,-2.65c0.18,-0.93 0.86,-1.64 0.94,-2.45c0.09,-0.91 -0.16,-1.83 0.02,-2.7c0.18,-0.85 0.92,-1.59 0.98,-2.5c0.05,-0.8 -0.1,-1.71 0.02,-2.52c0.15,-0.99 0.67,-1.62 0.89,-2.59c0.2,-0.87 0.21,-1.66 0.59,-2.41c0.47,-0.94 0.28,-1.84 0.67,-2.65c0.37,-0.75 0.83,-1.47 0.83,-2.32c0.01,-0.86 -0.1,-1.89 0,-2.72c0.11,-0.92 0.81,-1.45 0.99,-2.4c0.17,-0.88 -0.23,-1.83 0.02,-2.7c0.22,-0.77 0.99,-1.25 1,-2.19c0.01,-0.86 0,-1.76 0,-2.72c0,-0.9 0,-1.75 0,-2.6c0,-0.9 0.2,-1.6 0.72,-2.28c0.46,-0.62 0.27,-1.62 0.28,-2.52c0.01,-0.88 0.82,-1.39 1,-2.2c0.2,-0.88 0,-1.76 0,-2.63c0,-0.96 0,-1.86 0,-2.76c0,-0.9 0.13,-1.57 0.57,-2.4c0.46,-0.85 0.4,-1.73 0.43,-2.55c0.03,-0.96 0.57,-1.64 0.88,-2.61c0.24,-0.76 0.12,-1.73 0.12,-2.42c0,-1.07 0,-1.93 0,-2.83c0,-0.8 0,-1.83 0,-2.61c0,-0.89 0,-1.79 0,-2.69c0,-0.9 0,-1.8 0,-2.7c0,-0.92 0,-1.7 0,-2.6c0,-0.9 0.07,-1.74 0.57,-2.43c0.48,-0.64 0.43,-1.57 0.43,-2.45c0,-0.88 0,-1.82 0,-2.74c0,-0.86 0,-1.76 0,-2.66c0,-0.84 0,-1.7 0,-2.64c0,-0.88 0,-1.78 0,-2.68c0,-0.89 0,-1.8 0,-2.68c0,-0.83 0,-1.72 0,-2.6c0,-0.88 0.11,-1.83 0,-2.72c-0.11,-0.92 -0.81,-1.45 -0.99,-2.4c-0.17,-0.88 -0.01,-1.8 -0.01,-2.7c0,-0.9 0,-1.8 0,-2.7c0,-0.83 0,-1.61 0,-2.6c0,-0.9 0,-1.8 0,-2.7c0,-0.87 0.04,-1.76 0,-2.7c-0.03,-0.7 -0.74,-1.37 -1,-2.29c-0.25,-0.88 0.05,-1.82 0,-2.71c-0.04,-0.8 -0.69,-1.42 -0.94,-2.3c-0.25,-0.87 -0.06,-1.8 -0.06,-2.7c0,-0.92 0.41,-1.83 -0.06,-2.64c-0.46,-0.81 -0.9,-1.33 -0.94,-2.24c-0.04,-0.84 -0.61,-1.37 -1.04,-2.15c-0.42,-0.76 -0.82,-1.34 -0.96,-2.26c-0.11,-0.74 -0.93,-1.07 -1,-1.91c-0.07,-0.89 -0.86,-1.48 -1,-2.32c-0.15,-0.86 -0.61,-1.17 -1,-1.76c-0.48,-0.74 -0.55,-1.3 -1,-1.94c-0.48,-0.68 -0.61,-1.47 -1.29,-2.06c-0.68,-0.59 -1.59,-0.77 -2.24,-1.22c-0.73,-0.51 -1.22,-1.06 -1.92,-1.46c-0.75,-0.43 -1.25,-0.53 -1.92,-0.98c-0.78,-0.52 -1.81,-0.06 -2.7,-0.06c-0.89,0 -1.78,0 -2.59,0c-0.93,0 -1.75,0.04 -2.34,0.57c-0.49,0.45 -1.48,0.19 -2.31,0.43c-0.77,0.22 -1.28,0.98 -1.7,1.5c-0.43,0.51 -0.74,1.15 -1,1.98c-0.19,0.6 -0.74,1.06 -1,1.95c-0.19,0.65 -0.87,1.13 -1.28,1.86c-0.44,0.79 -0.72,1.55 -0.72,2.36c0,0.93 -0.72,1.18 -1,1.78c-0.39,0.84 0.21,1.94 -0.35,2.52c-0.51,0.53 -0.64,1.28 -0.65,2.16c-0.01,0.88 -0.96,0.9 -1,1.73c-0.04,0.81 -0.18,1.57 -0.72,2.17c-0.43,0.48 -0.28,1.5 -0.28,2.43c0,0.86 0,1.8 0,2.66c0,0.9 -0.45,1.46 -0.91,2.2c-0.47,0.75 -0.09,1.72 -0.09,2.63c0,0.92 0.03,1.73 -0.43,2.47c-0.51,0.82 -0.57,1.61 -0.57,2.55c0,0.89 0,1.7 0,2.63c0,0.85 0,1.78 0,2.71c0,0.88 0,1.74 0,2.66c0,0.89 0,1.7 0,2.63c0,0.86 0,1.73 0,2.63c0,0.9 0,1.83 0,2.6c0,1.03 0,1.85 0,2.77c0,0.86 0,1.73 0,2.63c0,0.9 0,1.8 0,2.72c0,0.79 0,1.68 0,2.58c0,0.98 0,1.85 0,2.78c0,0.88 0,1.74 0,2.63c0,0.92 0,1.73 0,2.66c0,0.85 -0.14,1.79 0,2.71c0.11,0.74 0.78,1.1 1,1.94c0.21,0.78 1.29,0.69 2.17,0.78c0.85,0.08 1.52,0.66 2.33,1c0.84,0.35 1.51,0.46 2.45,0.8c1.01,0.36 1.62,1.02 2.48,1.2c0.84,0.18 1.77,0 2.67,0c0.9,0 1.7,0 2.61,0c0.86,0 1.86,0.07 2.29,-0.43c0.44,-0.51 1.3,-0.56 2.2,-0.57c0.83,-0.02 1.35,-0.76 2.28,-0.98c0.85,-0.2 1.81,-0.02 2.72,-0.02c0.9,0 1.8,0 2.63,0c0.88,0 1.74,0 2.6,0l0.95,0l0.89,0l0.88,0" fill="#000000" id="svg_19" stroke="#000000" stroke-opacity="0" stroke-width="2"/>
  <path class="middle-strap" d="m250,613c0,-1 0,-1.91 0,-2.72c0,-0.93 0,-1.78 0,-2.71c0,-0.93 0,-1.8 0,-2.74c0,-0.85 0,-1.75 0,-2.55c0,-0.93 0,-1.78 0,-2.72c0,-0.86 0,-1.79 0,-2.73c0,-0.83 0,-1.75 0,-2.54c0,-0.94 -0.1,-1.88 0.35,-2.59c0.52,-0.82 0.65,-1.62 0.65,-2.42c0,-0.93 0.78,-1.23 1,-2c0.24,-0.83 0,-1.78 0,-2.71c0,-0.86 0,-1.8 0,-2.66c0,-0.91 0,-1.79 0,-2.63c0,-0.86 0,-1.78 0,-2.71c0,-0.86 0.5,-1.26 0.94,-1.93c0.52,-0.78 -0.07,-1.82 0.06,-2.75c0.11,-0.8 0.97,-1.25 1,-2.12c0.03,-0.86 0,-1.78 0,-2.66c0,-0.84 0,-1.77 0,-2.62c0,-0.93 -0.2,-1.98 0.28,-2.5c0.51,-0.55 0.72,-1.28 0.72,-2.17c0,-0.89 0,-1.78 0,-2.67c0,-0.88 -0.39,-1.84 0.02,-2.67c0.36,-0.71 0.98,-1.07 0.98,-1.93c0,-0.93 -0.35,-1.97 0.17,-2.57c0.52,-0.61 0.82,-1.22 0.83,-2.08c0.01,-0.9 0.96,-0.91 1,-1.72c0.04,-0.84 0,-1.77 0,-2.7c0,-0.85 0,-1.78 0,-2.67c0,-0.89 0.51,-1.44 0.94,-2.19c0.44,-0.75 -0.28,-1.94 0.34,-2.56c0.53,-0.54 0.72,-1.11 0.72,-2.03c0,-0.89 0.29,-1.4 0.83,-2.06c0.47,-0.57 -0.19,-1.74 0.19,-2.5c0.36,-0.71 0.98,-1.07 0.98,-2c0,-0.85 -0.17,-1.8 0,-2.7c0.14,-0.76 0.98,-1.23 1,-2.15c0.02,-0.87 -0.51,-2.01 0.02,-2.65c0.53,-0.64 0.98,-1.03 0.98,-1.94c0,-0.89 -0.01,-1.7 0,-2.63c0.01,-0.85 0.78,-1.36 1,-2.14c0.23,-0.83 0,-1.78 0,-2.71c0,-0.86 0,-1.8 0,-2.66c0,-0.91 0.47,-1.27 1,-1.94c0.56,-0.7 0,-1.7 0,-2.63c0,-0.93 0.07,-1.72 0.57,-2.38c0.49,-0.63 0.43,-1.54 0.43,-2.47c0,-0.93 0,-1.78 0,-2.72c0,-0.84 0,-1.75 0,-2.66c0,-0.84 0,-1.7 0,-2.62c0,-0.93 -0.21,-1.81 0,-2.72c0.18,-0.78 1,-1.06 1,-1.95c0,-0.83 0.25,-1.37 0.83,-2c0.58,-0.62 0.17,-1.71 0.17,-2.55c0,-0.93 0,-1.78 0,-2.71c0,-0.93 -0.29,-1.87 0.06,-2.63c0.35,-0.76 0.94,-1.45 0.94,-2.3c0,-0.93 -0.31,-1.88 0.04,-2.67c0.35,-0.8 0.96,-1.4 0.96,-2.31c0,-0.82 0,-1.75 0,-2.67c0,-0.88 0,-1.7 0,-2.56c0,-0.94 -0.1,-1.93 0.35,-2.44c0.53,-0.6 0.65,-1.35 0.65,-2.28c0,-0.88 -0.61,-2.01 0,-2.66c0.6,-0.64 1,-0.77 1,-1.7c0,-0.85 0.04,-1.75 0.57,-2.34c0.45,-0.49 0.26,-1.68 0.93,-1.99c0.84,-0.39 1.85,-0.02 2.72,-0.02c0.86,0 1.78,-0.05 2.69,0c0.8,0.04 1.57,0.61 2,1.28c0.5,0.79 0.09,1.8 0.09,2.7c0,0.9 0.37,1.34 0.91,2.02c0.52,0.66 0.15,1.56 0.66,2c0.5,0.43 0.43,1.43 0.43,2.35c0,0.87 0.43,1.29 0.91,1.93c0.57,0.75 0.09,1.77 0.09,2.69c0,0.86 0,1.73 0,2.59c0,0.94 0,1.79 0,2.72c0,0.94 0,1.77 0,2.69c0,0.86 0,1.74 0,2.64c0,0.87 0,1.74 0,2.67c0,0.91 -0.37,1.31 -0.91,2c-0.51,0.64 -0.09,1.75 -0.09,2.52c0,1.03 0,1.85 0,2.77c0,0.86 0.24,1.82 -0.22,2.65c-0.42,0.76 -0.78,1.35 -0.78,2.28c0,0.93 0.21,1.81 0,2.72c-0.18,0.79 -0.98,1.2 -1,2.14c-0.02,0.84 0,1.81 0,2.64c0,0.92 -0.02,1.82 -0.43,2.44c-0.55,0.84 -0.57,1.73 -0.57,2.6c0,0.91 0,1.67 0,2.56c0,0.9 -0.09,1.82 -0.57,2.43c-0.5,0.62 -0.43,1.57 -0.43,2.45c0,0.95 -0.62,1.31 -0.98,2.02c-0.38,0.77 -0.02,1.8 -0.02,2.7c0,0.86 0,1.75 0,2.6c0,0.84 0,1.81 0,2.7c0,0.89 0.14,1.84 -0.22,2.6c-0.36,0.78 -0.78,1.54 -0.78,2.42c0,0.96 -0.45,1.66 -0.83,2.48c-0.31,0.65 -0.17,1.6 -0.17,2.5c0,0.9 0,1.8 0,2.7c0,0.9 0,1.8 0,2.75c0,0.76 0,1.65 0,2.55c0,0.98 -0.46,1.68 -0.83,2.5c-0.34,0.74 -0.17,1.7 -0.17,2.6c0,0.88 0.12,1.76 0,2.69c-0.11,0.84 -0.85,1.48 -0.99,2.36c-0.14,0.87 0,1.76 0,2.66c0,0.9 0.18,1.92 -0.17,2.7c-0.33,0.73 -0.83,1.45 -0.83,2.32c0,0.82 0.13,1.8 -0.02,2.68c-0.14,0.86 -0.95,1.35 -0.98,2.28c-0.03,0.88 0.05,1.74 0,2.69c-0.04,0.82 -0.63,1.49 -0.88,2.34c-0.25,0.86 -0.05,1.88 -0.14,2.66c-0.11,1.01 -0.74,1.55 -0.96,2.52c-0.2,0.88 0.14,1.86 -0.24,2.6c-0.44,0.85 -0.78,1.51 -0.78,2.38c0,0.88 0.13,1.87 -0.22,2.62c-0.37,0.78 -0.78,1.6 -0.78,2.42c0,0.96 0,1.65 0,2.72c0,0.96 0.15,1.89 -0.09,2.56c-0.31,0.85 -0.91,1.56 -0.91,2.5c0,0.9 0,1.8 0,2.65c0,0.76 0,1.57 0,2.64c0,0.83 0.02,1.74 -0.01,2.65c-0.03,0.7 -0.66,1.51 -0.97,2.28c-0.32,0.82 -0.02,1.78 -0.02,2.68c0,0.91 0.04,1.82 0,2.78c-0.03,0.72 -0.68,1.44 -0.94,2.33c-0.24,0.83 -0.06,1.67 -0.06,2.71c0,0.79 0,1.69 0,2.59c0,0.9 0,1.8 0,2.7c0,0.9 0,1.8 0,2.59c-0.01,0.94 -0.18,1.94 -0.5,2.61c-0.39,0.82 -0.49,1.64 -0.5,2.67c0,0.83 0,1.63 0,2.53c0,0.94 0,1.82 0,2.7c0,0.9 -0.39,1.74 -0.72,2.4c-0.44,0.9 -0.28,1.85 -0.28,2.55c0,1.02 0,1.95 0,2.87c0,0.88 0,1.78 0,2.58c0,0.9 0,1.8 0,2.68c0,0.96 0,1.82 0,2.74c0,0.86 0,1.78 0,2.54c0,0.89 0,1.75 0,2.72c0,0.93 0.08,1.85 0,2.66c-0.08,0.87 -0.96,1.14 -1,2.08c-0.04,0.86 0.3,1.8 0,2.66c-0.27,0.75 -0.78,1.59 -1.35,2.06c-0.7,0.58 -1.52,0.85 -2.07,1.48c-0.62,0.7 -0.86,1.53 -1.77,1.57c-0.9,0.04 -1.29,0.53 -1.97,1c-0.7,0.49 -1.75,0 -2.55,0c-0.93,0 -1.89,0.23 -2.71,0c-0.65,-0.18 -0.57,-1.22 -0.57,-2.17c0,-0.83 0,-1.75 0,-2.55c0,-0.93 0,-1.86 0,-2.71c0,-0.93 -0.56,-1.31 -0.96,-2c-0.43,-0.74 -0.04,-1.8 -0.04,-2.66c0,-0.91 0,-1.79 0,-2.63c0,-0.86 0.15,-1.66 0.65,-2.34c0.51,-0.69 0.35,-1.59 0.35,-2.52c0,-0.85 0,-1.78 0,-2.71c0,-0.88 -0.31,-1.89 0.22,-2.59c0.48,-0.64 0.78,-1.34 0.78,-2.21c0,-0.89 0,-1.79 0,-2.63c0,-0.86 -0.28,-1.86 0.01,-2.67c0.26,-0.74 0.99,-1.26 0.99,-2.19c0,-0.85 0,-1.78 0,-2.71c0,-0.88 0,-1.74 0,-2.63c0,-0.92 0,-1.73 0,-2.66c0,-0.85 0,-1.78 0,-2.71c0,-0.88 0,-1.75 0,-2.63c0,-0.92 0,-1.73 0,-2.66c0,-0.85 0,-1.78 0,-2.71c0,-0.88 0,-1.74 0,-2.63l0,-0.92l0,-0.81l0,-0.93" fill="none" id="svg_43" stroke="#000000" stroke-opacity="0" stroke-width="0"/>
 </g>
</svg>