<?xml version="1.0"?>
<svg width="269" height="2030"
    xmlns="http://www.w3.org/2000/svg"
    xmlns:svg="http://www.w3.org/2000/svg" enable-background="new 0 0 269 2030" version="1.1" xml:space="preserve">

    <title>Layer 1</title>

    <path d="m108.55,1764.42c0.61,-26.46 1.9,-52.46 1.46,-78.43c-0.17,-10.25 -3.84,-20.53 -6.55,-30.63c-4.22,-15.75 -9.39,-31.26 -13.38,-47.07c-4.46,-17.68 -5.79,-35.84 -5.77,-54.04c0.02,-31.48 0.08,-62.97 0.74,-94.45c0.25,-12.06 2.74,-24.08 3.09,-36.15c0.17,-5.63 -2.31,-11.34 -3.57,-17.02c-6.97,-31.36 -14.39,-62.63 -20.75,-94.11c-5.77,-28.54 -11.25,-57.2 -15.2,-86.03c-3.2,-23.4 -3.89,-47.13 -5.77,-70.71c-3.19,-40.22 -4.3,-80.47 -3.96,-120.83c0.63,-73.49 0.16,-146.98 0.57,-220.48c0.93,-171.32 2.02,-342.64 3.3,-513.97c0.16,-21.92 1.48,-43.84 2.88,-65.73c0.95,-14.92 2.41,-29.85 4.65,-44.63c2.64,-17.37 12.94,-31.12 23.25,-44.74c6.11,-8.08 12.1,-16.28 17.74,-24.7c1.45,-2.15 2.05,-5.35 1.91,-8c-1.66,-29.66 -1.86,-59.28 1.75,-88.82c0.18,-1.46 1.84,-3.75 3.06,-3.93c24.25,-3.49 48.57,-5.93 73.1,-3.27c6.24,0.68 7.96,3.1 7.85,9.4c-0.2,11.32 0.08,22.63 -0.03,33.95c-0.16,16.64 -0.43,33.28 -0.78,49.92c-0.06,3 0.85,5.06 2.87,7.44c18.73,22.02 37.35,44.23 40.75,74.59c2.01,17.86 3.65,35.76 5.2,53.67c1.66,19.24 3.43,38.49 4.42,57.78c1.04,20.46 1.1,40.97 1.81,61.45c1,28.97 1.96,57.94 3.37,86.89c3.55,73.23 8.04,146.42 6.25,219.8c-1.19,48.62 -2.69,97.24 -3.63,145.87c-0.48,24.79 0.3,49.6 -0.15,74.4c-0.25,13.62 -2.2,27.21 -2.77,40.84c-0.58,13.63 -0.68,27.3 -0.49,40.94c0.22,15.49 1.36,30.96 1.48,46.44c0.24,31.14 0.54,62.28 -0.08,93.41c-0.66,33.13 -2.42,66.21 -7.9,99.02c-6.36,38.11 -11.4,76.44 -18.2,114.46c-4.41,24.7 -10.41,49.16 -16.7,73.47c-3.92,15.17 -2.72,30.38 -3.11,45.6c-0.9,34.97 -1.31,69.95 -2.1,104.92c-0.62,26.96 -5.29,53.33 -12.57,79.23c-5.4,19.21 -7.63,38.51 -7.37,58.64c0.63,49.14 -0.51,98.31 -0.95,147.47c-0.32,36.66 -0.84,73.33 -0.91,109.99c-0.02,13.49 -3.51,26.03 -8.83,38.1c-3.47,7.88 -7.92,15.35 -12.21,22.84c-1.2,2.1 -3.18,3.9 -5.14,5.37c-5.14,3.83 -9.68,3.21 -14.04,-1.51c-11.9,-12.87 -16.58,-28.85 -20.46,-45.42c-2.7,-11.51 -1.27,-22.87 -1.09,-34.3c0.91,-55.49 1.95,-110.98 2.96,-166.93m51.92,-56.41c0.13,-5.66 0.37,-11.32 0.34,-16.99c-0.03,-8.1 -1.26,-16.35 -0.18,-24.29c1.78,-12.98 4.43,-25.92 7.74,-38.61c7.04,-27.03 11.65,-54.36 12.22,-82.3c0.5,-23.81 0.72,-47.63 1.17,-71.45c0.13,-6.81 0.59,-13.63 0.98,-20.44c0.53,-9.25 1.14,-18.49 1.77,-28.59c-30.62,1.52 -60.85,3.01 -91.53,4.52c0,35.74 0.69,71.9 -0.2,108.02c-0.83,33.68 3.21,66.43 13.85,98.37c7.16,21.46 11.65,43.23 11.09,66.11c-1.74,71.61 -2.89,143.24 -4.4,214.86c-0.43,20.85 -1.07,41.69 4.81,62c3.13,10.79 8.16,20.6 16.09,29.13c9.41,-8.87 14.7,-19.84 19.46,-30.99c2.58,-6.04 5.12,-12.6 5.41,-19.03c0.77,-17.12 0.27,-34.3 0.35,-51.46c0.32,-65.97 0.67,-131.95 1.03,-198.86m70.43,-672.67c-0.95,-26.26 -2.47,-52.52 -2.66,-78.78c-0.14,-17.76 1.98,-35.53 2.37,-53.3c0.49,-22.63 0.08,-45.27 0.37,-67.89c0.42,-33.99 1.07,-67.97 1.71,-101.95c0.66,-34.3 2.47,-68.62 1.9,-102.9c-0.86,-52.46 -3.34,-104.89 -5.11,-157.34c-1.54,-45.78 -2.73,-91.58 -4.68,-137.35c-1.18,-27.61 -3.37,-55.19 -5.36,-82.76c-1.32,-18.26 -2.53,-36.57 -4.91,-54.71c-1.33,-10.13 -4.16,-20.25 -7.71,-29.86c-6.4,-17.33 -19.93,-30.11 -30.53,-44.75c-0.59,-0.82 -2.25,-1.4 -3.28,-1.25c-2.68,0.41 -5.3,1.3 -8.38,2.11c2.03,2.83 3.88,5.36 5.69,7.9c10.08,14.15 21.65,27.37 27.86,43.94c1.68,4.48 3.4,9.17 3.82,13.87c2,22.56 3.77,45.15 5.22,67.75c1.06,16.63 1.35,33.29 2.27,49.93c1.8,32.76 4.03,65.5 5.62,98.27c1.17,24.11 1.79,48.26 2.29,72.4c0.6,28.63 0.91,57.27 1.1,85.91c0.06,8.49 -1.08,16.98 -0.98,25.46c0.17,14.15 1.16,28.29 1.36,42.44c0.54,37.64 1.13,75.29 1.18,112.93c0.06,37.16 -0.44,74.32 -0.81,111.48c-0.27,26.82 -0.61,53.64 -1.11,80.46c-0.38,20.31 -1.22,40.61 -1.57,60.92c-0.25,14.63 0.17,29.27 -0.06,43.9c-0.41,26.32 -0.88,52.64 -1.72,78.94c-0.94,29.75 1.39,59.63 -3.78,89.23c-4.87,27.87 -8.98,55.88 -13.9,83.74c-3.39,19.16 -7.71,38.16 -11.4,57.27c-3.76,19.44 -7.24,38.93 -10.84,58.4c-0.38,2.05 -0.74,4.11 -1.16,6.42c4.49,0.34 8.28,0.62 12.46,0.93c0.21,-2.06 0.28,-3.7 0.56,-5.3c2.28,-12.78 4.37,-25.59 6.94,-38.31c3.49,-17.28 7.88,-34.4 10.95,-51.76c5.01,-28.36 9.49,-56.82 13.76,-85.31c3.33,-22.23 6.85,-44.48 8.72,-66.85c2.13,-25.54 2.82,-51.22 3.57,-76.85c0.55,-18.79 0.2,-37.61 0.23,-57.38m-139.43,-884.33c5.16,-8.23 10.33,-16.47 15.83,-25.25c-4.26,-0.66 -7.31,-1.12 -8.9,-1.37c-6.89,9.24 -12.73,17.94 -19.45,25.9c-15.03,17.83 -23.6,38.18 -24.65,61.44c-1.45,32.09 -3.21,64.19 -3.56,96.3c-1.07,97.98 -1.56,195.96 -2.21,293.94c-0.79,120.64 -1.65,241.28 -2.2,361.92c-0.19,43.47 0.05,86.95 0.89,130.4c0.46,23.47 2.47,46.91 4.04,70.35c1.61,23.92 1.92,48.08 5.66,71.68c7.34,46.35 16.45,92.43 25.3,138.53c3,15.62 7.45,30.97 11.27,46.53c3.06,-0.39 5.64,-0.72 8.46,-1.08c-0.11,-1.17 -0.12,-1.98 -0.26,-2.76c-4.44,-24.21 -8.91,-48.41 -13.3,-72.63c-0.77,-4.25 -1.02,-8.6 -1.79,-12.85c-3.2,-17.85 -7.2,-35.6 -9.61,-53.56c-3.83,-28.7 -6.62,-57.55 -9.87,-86.34c-1.75,-15.51 -4.21,-30.99 -5.17,-46.55c-1.25,-20.61 -1.65,-41.28 -1.89,-61.93c-0.71,-60.97 -1.41,-121.95 -1.64,-182.93c-0.19,-53.31 0.31,-106.62 0.42,-159.94c0.09,-44.64 -0.05,-89.29 0.11,-133.93c0.14,-38.16 0.32,-76.31 0.91,-114.46c0.7,-45.47 1.71,-90.94 2.86,-136.41c0.77,-30.14 1.83,-60.28 3.17,-90.4c0.73,-16.61 2.3,-33.17 3.5,-49.76c0.62,-8.45 0.65,-17.01 2.03,-25.34c2.45,-14.9 11.35,-26.8 20.05,-39.5m8.58,-50.46c0.4,6.21 0.8,12.42 1.2,18.59c23.19,-1.26 45.72,-2.48 68.33,-3.71c0.62,-30.7 1.23,-60.7 1.86,-92.05c-23.69,0.8 -47.66,1.61 -71.41,2.41c0,25.25 0,49.52 0.02,74.76z" fill="#020202" id="svg_2" opacity="1" class="main" />
    <path d="m160.46,1708.48c-0.35,66.44 -0.7,132.42 -1.02,198.39c-0.08,17.16 0.42,34.34 -0.35,51.46c-0.29,6.43 -2.83,12.99 -5.41,19.03c-4.76,11.15 -10.05,22.12 -19.46,30.99c-7.93,-8.53 -12.96,-18.34 -16.09,-29.13c-5.88,-20.31 -5.24,-41.15 -4.81,-62c1.51,-71.62 2.66,-143.25 4.4,-214.86c0.56,-22.88 -3.93,-44.65 -11.09,-66.11c-10.64,-31.94 -14.68,-64.69 -13.85,-98.37c0.89,-36.12 0.2,-72.28 0.2,-108.02c30.68,-1.51 60.91,-3 91.53,-4.52c-0.63,10.1 -1.24,19.34 -1.77,28.59c-0.39,6.81 -0.85,13.63 -0.98,20.44c-0.45,23.82 -0.67,47.64 -1.17,71.45c-0.57,27.94 -5.18,55.27 -12.22,82.3c-3.31,12.69 -5.96,25.63 -7.74,38.61c-1.08,7.94 0.15,16.19 0.18,24.29c0.03,5.67 -0.21,11.33 -0.35,17.46m-21.11,112.84c-2.11,0.46 -4.51,0.51 -6.19,1.62c-0.61,0.41 -0.06,3.86 0.97,5.02c0.77,0.87 4.35,0.86 4.62,0.28c0.87,-1.9 0.81,-4.23 0.6,-6.92m-1.62,-73.99c2.81,-1.39 3.36,-3.75 1.72,-6.05c-0.82,-1.15 -3.17,-2.19 -4.38,-1.82c-1.28,0.39 -3.14,3.24 -2.8,3.77c1.12,1.73 3.12,2.9 5.46,4.1m2.43,38.9c-1.2,-1.63 -2.4,-3.25 -3.6,-4.88c-1.33,1.01 -3.39,1.81 -3.77,3.09c-0.37,1.29 0.93,3.07 1.5,4.64c1.89,-0.7 3.78,-1.4 5.87,-2.85m-1.11,123.2c-0.26,-2.01 -0.17,-4.18 -0.98,-5.93c-0.23,-0.49 -3.65,-0.35 -4.58,0.56c-0.93,0.91 -1.27,4.19 -0.68,4.57c1.56,0.99 3.76,0.98 6.24,0.8m-0.15,-45.58c-1.88,0.06 -3.93,-0.28 -5.57,0.39c-0.58,0.24 -0.75,3.34 -0.02,4.38c0.67,0.96 3.78,1.6 4.1,1.15c1.05,-1.47 1.32,-3.5 1.49,-5.92m-3.96,86.72c1.46,-0.94 3.18,-1.66 4.2,-2.94c0.34,-0.41 -0.9,-2.9 -1.9,-3.33c-1,-0.44 -3.69,0.39 -3.74,0.86c-0.18,1.67 0.47,3.42 1.44,5.41z" fill="#FCFCFC" id="svg_3" class="vertical-strap-bottom" opacity="1"/>
    <path d="m230.91,1035.82c-0.04,19.29 0.31,38.11 -0.24,56.9c-0.75,25.63 -1.44,51.31 -3.57,76.85c-1.87,22.37 -5.39,44.62 -8.72,66.85c-4.27,28.49 -8.75,56.95 -13.76,85.31c-3.07,17.36 -7.46,34.48 -10.95,51.76c-2.57,12.72 -4.66,25.53 -6.94,38.31c-0.28,1.6 -0.35,3.24 -0.56,5.3c-4.18,-0.31 -7.97,-0.59 -12.46,-0.93c0.42,-2.31 0.78,-4.37 1.16,-6.42c3.6,-19.47 7.08,-38.96 10.84,-58.4c3.69,-19.11 8.01,-38.11 11.4,-57.27c4.92,-27.86 9.03,-55.87 13.9,-83.74c5.17,-29.6 2.84,-59.48 3.78,-89.23c0.84,-26.3 1.31,-52.62 1.72,-78.94c0.23,-14.63 -0.19,-29.27 0.06,-43.9c0.35,-20.31 1.19,-40.61 1.57,-60.92c0.5,-26.82 0.84,-53.64 1.11,-80.46c0.37,-37.16 0.87,-74.32 0.81,-111.48c-0.05,-37.64 -0.64,-75.29 -1.18,-112.93c-0.2,-14.15 -1.19,-28.29 -1.36,-42.44c-0.1,-8.48 1.04,-16.97 0.98,-25.46c-0.19,-28.64 -0.5,-57.28 -1.1,-85.91c-0.5,-24.14 -1.12,-48.29 -2.29,-72.4c-1.59,-32.77 -3.82,-65.51 -5.62,-98.27c-0.92,-16.64 -1.21,-33.3 -2.27,-49.93c-1.45,-22.6 -3.22,-45.19 -5.22,-67.75c-0.42,-4.7 -2.14,-9.39 -3.82,-13.87c-6.21,-16.57 -17.78,-29.79 -27.86,-43.94c-1.81,-2.54 -3.66,-5.07 -5.69,-7.9c3.08,-0.81 5.7,-1.7 8.38,-2.11c1.03,-0.15 2.69,0.43 3.28,1.25c10.6,14.64 24.13,27.42 30.53,44.75c3.55,9.61 6.38,19.73 7.71,29.86c2.38,18.14 3.59,36.45 4.91,54.71c1.99,27.57 4.18,55.15 5.36,82.76c1.95,45.77 3.14,91.57 4.68,137.35c1.77,52.45 4.25,104.88 5.11,157.34c0.57,34.28 -1.24,68.6 -1.9,102.9c-0.64,33.98 -1.29,67.96 -1.71,101.95c-0.29,22.62 0.12,45.26 -0.37,67.89c-0.39,17.77 -2.51,35.54 -2.37,53.3c0.19,26.26 1.71,52.52 2.67,79.26z" fill="#F5F5F5" id="svg_4" class="top" opacity="1"/>
    <path d="m91.27,151.31c-8.5,12.4 -17.4,24.3 -19.85,39.2c-1.38,8.33 -1.41,16.89 -2.03,25.34c-1.2,16.59 -2.77,33.15 -3.5,49.76c-1.34,30.12 -2.4,60.26 -3.17,90.4c-1.15,45.47 -2.16,90.94 -2.86,136.41c-0.59,38.15 -0.77,76.3 -0.91,114.46c-0.16,44.64 -0.02,89.29 -0.11,133.93c-0.11,53.32 -0.61,106.63 -0.42,159.94c0.23,60.98 0.93,121.96 1.64,182.93c0.24,20.65 0.64,41.32 1.89,61.93c0.96,15.56 3.42,31.04 5.17,46.55c3.25,28.79 6.04,57.64 9.87,86.34c2.41,17.96 6.41,35.71 9.61,53.56c0.77,4.25 1.02,8.6 1.79,12.85c4.39,24.22 8.86,48.42 13.3,72.63c0.14,0.78 0.15,1.59 0.26,2.76c-2.82,0.36 -5.4,0.69 -8.46,1.08c-3.82,-15.56 -8.27,-30.91 -11.27,-46.53c-8.85,-46.1 -17.96,-92.18 -25.3,-138.53c-3.74,-23.6 -4.05,-47.76 -5.66,-71.68c-1.57,-23.44 -3.58,-46.88 -4.04,-70.35c-0.84,-43.45 -1.08,-86.93 -0.89,-130.4c0.55,-120.64 1.41,-241.28 2.2,-361.92c0.65,-97.98 1.14,-195.96 2.21,-293.94c0.35,-32.11 2.11,-64.21 3.56,-96.3c1.05,-23.26 9.62,-43.61 24.65,-61.44c6.72,-7.96 12.56,-16.66 19.45,-25.9c1.59,0.25 4.64,0.71 8.9,1.37c-5.5,8.78 -10.67,17.02 -16.03,25.55z" fill="#F4F4F4" id="svg_5"  class="top" opacity="1"/>
    <path d="m100.04,100.06c-0.01,-24.75 -0.01,-49.02 -0.01,-74.27c23.75,-0.8 47.72,-1.61 71.41,-2.41c-0.63,31.35 -1.24,61.35 -1.86,92.05c-22.61,1.23 -45.14,2.45 -68.33,3.71c-0.4,-6.17 -0.8,-12.38 -1.21,-19.08m45.26,-35.55c1.55,0.56 3.06,1.37 4.66,1.62c5.33,0.85 10.05,-1.99 12.37,-7.2c2.39,-5.38 1.08,-11.62 -3.16,-14.98c-4.11,-3.27 -8.87,-3.18 -13.82,0.25c-6.57,4.55 -6.89,13.43 -0.05,20.31m-17.25,-16.86c-4.51,-5.3 -8.59,-6.41 -13.94,-3.8c-5.25,2.56 -8.07,8.3 -6.94,14.15c0.96,4.97 4.9,8.48 10.03,8.94c9.24,0.83 15.13,-8.94 10.85,-19.29m29.4,26.9c-7.75,-1.95 -13.34,1.22 -15.17,8.59c-1.56,6.3 1.76,12.17 7.71,13.59c4.87,1.17 9.98,-1.51 12.24,-6.41c2.63,-5.71 1.11,-11.48 -4.78,-15.77m-27.64,8.51c-0.24,-0.79 -0.39,-1.62 -0.73,-2.36c-2.16,-4.7 -6.09,-7.06 -10.64,-6.44c-4.66,0.64 -9.05,5.39 -9.8,10.61c-0.67,4.65 1.69,9.37 5.61,11.23c4.46,2.12 10.16,1.2 12.91,-3.01c1.68,-2.57 1.89,-6.11 2.65,-10.03z" fill="#F6F6F6" id="svg_6" class="top"  opacity="1"/>
    <path d="m139.61,1821.58c-0.05,2.43 0.01,4.76 -0.86,6.66c-0.27,0.58 -3.85,0.59 -4.62,-0.28c-1.03,-1.16 -1.58,-4.61 -0.97,-5.02c1.68,-1.11 4.08,-1.16 6.45,-1.36z" fill="#1B1B1B" id="svg_7" opacity="1"/>
    <path d="m137.39,1747.43c-2,-1.3 -4,-2.47 -5.12,-4.2c-0.34,-0.53 1.52,-3.38 2.8,-3.77c1.21,-0.37 3.56,0.67 4.38,1.82c1.64,2.3 1.09,4.66 -2.06,6.15z" fill="#202020" id="svg_8" opacity="1"/>
    <path d="m140.06,1786.6c-1.99,1.08 -3.88,1.78 -5.77,2.48c-0.57,-1.57 -1.87,-3.35 -1.5,-4.64c0.38,-1.28 2.44,-2.08 3.77,-3.09c1.2,1.63 2.4,3.25 3.5,5.25z" fill="#191919" id="svg_9" opacity="1"/>
    <path d="m138.78,1909.71c-2.21,-0.1 -4.41,-0.09 -5.97,-1.08c-0.59,-0.38 -0.25,-3.66 0.68,-4.57c0.93,-0.91 4.35,-1.05 4.58,-0.56c0.81,1.75 0.72,3.92 0.71,6.21z" fill="#1A1A1A" id="svg_10" opacity="1"/>
    <path d="m139.1,1864.16c-0.37,2.11 -0.64,4.14 -1.69,5.61c-0.32,0.45 -3.43,-0.19 -4.1,-1.15c-0.73,-1.04 -0.56,-4.14 0.02,-4.38c1.64,-0.67 3.69,-0.33 5.77,-0.08z" fill="#151515" id="svg_11" opacity="1"/>
    <path d="m134.62,1950.43c-0.65,-1.85 -1.3,-3.6 -1.12,-5.27c0.05,-0.47 2.74,-1.3 3.74,-0.86c1,0.43 2.24,2.92 1.9,3.33c-1.02,1.28 -2.74,2 -4.52,2.8z" fill="#292929" id="svg_12" opacity="1"/>
    <path d="m144.97,64.3c-6.51,-6.67 -6.19,-15.55 0.38,-20.1c4.95,-3.43 9.71,-3.52 13.82,-0.25c4.24,3.36 5.55,9.6 3.16,14.98c-2.32,5.21 -7.04,8.05 -12.37,7.2c-1.6,-0.25 -3.11,-1.06 -4.99,-1.83z" fill="#0A0A0A" id="svg_13" opacity="1"/>
    <path d="m128.24,47.99c4.09,10.01 -1.8,19.78 -11.04,18.95c-5.13,-0.46 -9.07,-3.97 -10.03,-8.94c-1.13,-5.85 1.69,-11.59 6.94,-14.15c5.35,-2.61 9.43,-1.5 14.13,4.14z" fill="#0B0B0B" id="svg_14" opacity="1"/>
    <path d="m157.82,74.72c5.52,4.12 7.04,9.89 4.41,15.6c-2.26,4.9 -7.37,7.58 -12.24,6.41c-5.95,-1.42 -9.27,-7.29 -7.71,-13.59c1.83,-7.37 7.42,-10.54 15.54,-8.42z" fill="#0A0A0A" id="svg_15" opacity="1"/>
    <path d="m129.86,83.47c-0.81,3.51 -1.02,7.05 -2.7,9.62c-2.75,4.21 -8.45,5.13 -12.91,3.01c-3.92,-1.86 -6.28,-6.58 -5.61,-11.23c0.75,-5.22 5.14,-9.97 9.8,-10.61c4.55,-0.62 8.48,1.74 10.64,6.44c0.34,0.74 0.49,1.57 0.78,2.77z" fill="#0B0B0B" id="svg_16" opacity="1"/>

</svg>