<svg version="1.1" id="Layer_1" xmlns="http://www.w3.org/2000/svg" xmlns:xlink="http://www.w3.org/1999/xlink" x="0px" y="0px"
	 width="100%" viewBox="0 0 269 2030" enable-background="new 0 0 269 2030" xml:space="preserve">
<path fill="#F2EEED" opacity="1.000000" stroke="none" 
	d="
M1.000000,752.000000 
	C1.000000,501.333344 1.000000,251.166672 1.000000,1.000000 
	C90.666664,1.000000 180.333328,1.000000 270.000000,1.000000 
	C270.000000,677.666687 270.000000,1354.333374 270.000000,2031.000000 
	C180.333328,2031.000000 90.666664,2031.000000 1.000000,2031.000000 
	C1.000000,1604.833374 1.000000,1178.666626 1.000000,752.000000 
M108.532463,1764.886963 
	C107.539070,1820.372925 106.496658,1875.857910 105.592644,1931.345337 
	C105.406410,1942.775757 103.983505,1954.144897 106.678337,1965.649658 
	C110.560738,1982.224731 115.240158,1998.201660 127.136505,2011.067017 
	C131.500809,2015.786865 136.040909,2016.410645 141.175552,2012.579224 
	C143.144913,2011.109619 145.122711,2009.306030 146.321365,2007.211060 
	C150.608627,1999.717529 155.056747,1992.251465 158.529495,1984.371826 
	C163.849579,1972.300415 167.337311,1959.758179 167.362656,1946.269165 
	C167.431564,1909.606445 167.946304,1872.944580 168.272095,1836.282349 
	C168.708939,1787.122925 169.845810,1737.954346 169.220276,1688.808350 
	C168.964050,1668.676514 171.187149,1649.376465 176.588196,1630.172607 
	C183.873901,1604.267822 188.542618,1577.898315 189.155762,1550.938721 
	C189.951111,1515.967285 190.356125,1480.986450 191.259827,1446.018188 
	C191.653015,1430.804688 190.447372,1415.586670 194.368896,1400.424194 
	C200.656357,1376.113770 206.659714,1351.654297 211.073792,1326.952393 
	C217.868149,1288.929810 222.909439,1250.597534 229.270416,1212.492798 
	C234.748077,1179.679565 236.509506,1146.601685 237.169617,1113.467651 
	C237.789688,1082.343262 237.487717,1051.195801 237.247849,1020.061096 
	C237.128571,1004.578552 235.994263,989.105408 235.771698,973.621521 
	C235.575577,959.977356 235.679749,946.310242 236.256866,932.678894 
	C236.833908,919.048706 238.778305,905.461548 239.026428,891.835510 
	C239.477875,867.043457 238.703690,842.228577 239.183609,817.437622 
	C240.124985,768.809631 241.616638,720.192444 242.806778,671.569031 
	C244.602798,598.193054 240.106628,524.996033 236.556732,451.768707 
	C235.153275,422.818451 234.190079,393.845612 233.188141,364.877472 
	C232.479813,344.397766 232.422058,323.889313 231.375870,303.429352 
	C230.389740,284.144012 228.619751,264.894165 226.955032,245.649460 
	C225.406006,227.741882 223.767181,209.836304 221.764893,191.975006 
	C218.362518,161.624268 199.735138,139.413467 181.012558,117.386841 
	C178.990829,115.008347 178.080994,112.950119 178.144257,109.947090 
	C178.494751,93.309143 178.764404,76.668678 178.921158,60.027752 
	C179.027710,48.714092 178.745010,37.395451 178.945084,26.084499 
	C179.056564,19.781496 177.342117,17.357275 171.097275,16.680702 
	C146.566498,14.023005 122.246605,16.459627 97.998085,19.951283 
	C96.779991,20.126684 95.122589,22.419207 94.943840,23.881683 
	C91.333687,53.419930 91.527985,83.039459 93.185333,112.696861 
	C93.333710,115.351913 92.726212,118.553123 91.282822,120.704254 
	C85.637260,129.118027 79.654617,137.317627 73.538231,145.400833 
	C63.234367,159.018066 52.932869,172.767334 50.293533,190.143417 
	C48.049477,204.917160 46.592045,219.852341 45.640366,234.770569 
	C44.244251,256.655518 42.922668,278.583923 42.759258,300.502686 
	C41.481991,471.825317 40.390759,643.149475 39.455135,814.474365 
	C39.053791,887.965027 39.515938,961.461548 38.891518,1034.949463 
	C38.548576,1075.309692 39.659298,1115.564819 42.854420,1155.782349 
	C44.727520,1179.359375 45.421906,1203.093018 48.622330,1226.485840 
	C52.567127,1255.319336 58.052528,1283.975708 63.816742,1312.517944 
	C70.175240,1344.002808 77.602386,1375.271729 84.569260,1406.633667 
	C85.830444,1412.311035 88.312279,1418.018555 88.144623,1423.650024 
	C87.785248,1435.721069 85.300079,1447.735596 85.048416,1459.801636 
	C84.391914,1491.277832 84.334953,1522.769287 84.305733,1554.254761 
	C84.288849,1572.450317 85.624222,1590.613892 90.080856,1608.294434 
	C94.065376,1624.102051 99.243698,1639.605103 103.462517,1655.358521 
	C106.167053,1665.457642 109.841400,1675.737549 110.013977,1685.987915 
	C110.451241,1711.959717 109.159256,1737.960693 108.532463,1764.886963 
z"/>
<path fill="#020202" opacity="1.000000" stroke="none" 
	d="
M108.546143,1764.418457 
	C109.159256,1737.960693 110.451241,1711.959717 110.013977,1685.987915 
	C109.841400,1675.737549 106.167053,1665.457642 103.462517,1655.358521 
	C99.243698,1639.605103 94.065376,1624.102051 90.080856,1608.294434 
	C85.624222,1590.613892 84.288849,1572.450317 84.305733,1554.254761 
	C84.334953,1522.769287 84.391914,1491.277832 85.048416,1459.801636 
	C85.300079,1447.735596 87.785248,1435.721069 88.144623,1423.650024 
	C88.312279,1418.018555 85.830444,1412.311035 84.569260,1406.633667 
	C77.602386,1375.271729 70.175240,1344.002808 63.816742,1312.517944 
	C58.052528,1283.975708 52.567127,1255.319336 48.622330,1226.485840 
	C45.421906,1203.093018 44.727520,1179.359375 42.854420,1155.782349 
	C39.659298,1115.564819 38.548576,1075.309692 38.891518,1034.949463 
	C39.515938,961.461548 39.053791,887.965027 39.455135,814.474365 
	C40.390759,643.149475 41.481991,471.825317 42.759258,300.502686 
	C42.922668,278.583923 44.244251,256.655518 45.640366,234.770569 
	C46.592045,219.852341 48.049477,204.917160 50.293533,190.143417 
	C52.932869,172.767334 63.234367,159.018066 73.538231,145.400833 
	C79.654617,137.317627 85.637260,129.118027 91.282822,120.704254 
	C92.726212,118.553123 93.333710,115.351913 93.185333,112.696861 
	C91.527985,83.039459 91.333687,53.419930 94.943840,23.881683 
	C95.122589,22.419207 96.779991,20.126684 97.998085,19.951283 
	C122.246605,16.459627 146.566498,14.023005 171.097275,16.680702 
	C177.342117,17.357275 179.056564,19.781496 178.945084,26.084499 
	C178.745010,37.395451 179.027710,48.714092 178.921158,60.027752 
	C178.764404,76.668678 178.494751,93.309143 178.144257,109.947090 
	C178.080994,112.950119 178.990829,115.008347 181.012558,117.386841 
	C199.735138,139.413467 218.362518,161.624268 221.764893,191.975006 
	C223.767181,209.836304 225.406006,227.741882 226.955032,245.649460 
	C228.619751,264.894165 230.389740,284.144012 231.375870,303.429352 
	C232.422058,323.889313 232.479813,344.397766 233.188141,364.877472 
	C234.190079,393.845612 235.153275,422.818451 236.556732,451.768707 
	C240.106628,524.996033 244.602798,598.193054 242.806778,671.569031 
	C241.616638,720.192444 240.124985,768.809631 239.183609,817.437622 
	C238.703690,842.228577 239.477875,867.043457 239.026428,891.835510 
	C238.778305,905.461548 236.833908,919.048706 236.256866,932.678894 
	C235.679749,946.310242 235.575577,959.977356 235.771698,973.621521 
	C235.994263,989.105408 237.128571,1004.578552 237.247849,1020.061096 
	C237.487717,1051.195801 237.789688,1082.343262 237.169617,1113.467651 
	C236.509506,1146.601685 234.748077,1179.679565 229.270416,1212.492798 
	C222.909439,1250.597534 217.868149,1288.929810 211.073792,1326.952393 
	C206.659714,1351.654297 200.656357,1376.113770 194.368896,1400.424194 
	C190.447372,1415.586670 191.653015,1430.804688 191.259827,1446.018188 
	C190.356125,1480.986450 189.951111,1515.967285 189.155762,1550.938721 
	C188.542618,1577.898315 183.873901,1604.267822 176.588196,1630.172607 
	C171.187149,1649.376465 168.964050,1668.676514 169.220276,1688.808350 
	C169.845810,1737.954346 168.708939,1787.122925 168.272095,1836.282349 
	C167.946304,1872.944580 167.431564,1909.606445 167.362656,1946.269165 
	C167.337311,1959.758179 163.849579,1972.300415 158.529495,1984.371826 
	C155.056747,1992.251465 150.608627,1999.717529 146.321365,2007.211060 
	C145.122711,2009.306030 143.144913,2011.109619 141.175552,2012.579224 
	C136.040909,2016.410645 131.500809,2015.786865 127.136505,2011.067017 
	C115.240158,1998.201660 110.560738,1982.224731 106.678337,1965.649658 
	C103.983505,1954.144897 105.406410,1942.775757 105.592644,1931.345337 
	C106.496658,1875.857910 107.539070,1820.372925 108.546143,1764.418457 
M160.473740,1708.012817 
	C160.596359,1702.349609 160.837418,1696.685913 160.813293,1691.023315 
	C160.778763,1682.915405 159.547485,1674.671265 160.632324,1666.731934 
	C162.406723,1653.746094 165.060532,1640.809082 168.368561,1628.118774 
	C175.413437,1601.092773 180.015701,1573.761230 180.593918,1545.820068 
	C181.086731,1522.006226 181.307770,1498.186890 181.757416,1474.372070 
	C181.886108,1467.555786 182.345047,1460.744019 182.736267,1453.934937 
	C183.267761,1444.684692 183.879715,1435.438843 184.510025,1425.344727 
	C153.892776,1426.855469 123.663963,1428.347046 92.979050,1429.861206 
	C92.979050,1465.603516 93.665756,1501.759033 92.778946,1537.875854 
	C91.951752,1571.564453 95.988121,1604.311768 106.634552,1636.247559 
	C113.790092,1657.711914 118.279839,1679.478638 117.723907,1702.359253 
	C115.983871,1773.974121 114.829552,1845.603027 113.324615,1917.223877 
	C112.886627,1938.068115 112.250893,1958.905762 118.134171,1979.218384 
	C121.259712,1990.009644 126.291603,1999.819580 134.223572,2008.352661 
	C143.629150,1999.478394 148.922714,1988.506836 153.681061,1977.360352 
	C156.261292,1971.316162 158.802734,1964.757935 159.092361,1958.329346 
	C159.863861,1941.206055 159.361160,1924.027344 159.443893,1906.870972 
	C159.762085,1840.897705 160.111160,1774.924316 160.473740,1708.012817 
M230.896484,1035.339600 
	C229.945068,1009.079407 228.434357,982.823486 228.237198,956.557617 
	C228.103882,938.798096 230.221191,921.033447 230.607895,903.255310 
	C231.099960,880.634094 230.690735,857.994873 230.976013,835.367249 
	C231.404480,801.383118 232.047089,767.401306 232.694260,733.420349 
	C233.347534,699.119019 235.158401,664.802795 234.594116,630.523865 
	C233.730515,578.061951 231.250244,525.626892 229.482910,473.179474 
	C227.940125,427.395721 226.745697,381.597473 224.795715,335.831238 
	C223.619156,308.216736 221.430664,280.641327 219.436569,253.067154 
	C218.115936,234.805801 216.911072,216.502167 214.532272,198.364609 
	C213.203674,188.234360 210.372452,178.112930 206.821732,168.503571 
	C200.417999,151.173096 186.885803,138.392731 176.285187,123.747520 
	C175.696075,122.933617 174.039536,122.345932 173.010025,122.503510 
	C170.325607,122.914413 167.713593,123.798325 164.629166,124.610344 
	C166.664734,127.435661 168.505173,129.965988 170.320709,132.514069 
	C180.399963,146.660202 191.965759,159.884872 198.181305,176.449219 
	C199.863617,180.932526 201.583450,185.616867 202.001282,190.322998 
	C204.004333,212.883743 205.768967,235.470642 207.218140,258.073914 
	C208.283783,274.695343 208.574890,291.364990 209.488113,307.997925 
	C211.286865,340.759186 213.522202,373.498077 215.108658,406.268890 
	C216.276001,430.381958 216.899994,454.526917 217.401138,478.665222 
	C217.995621,507.299927 218.308334,535.941956 218.503784,564.582458 
	C218.561676,573.065063 217.416260,581.558044 217.520126,590.037720 
	C217.693466,604.188843 218.675522,618.329529 218.880249,632.480835 
	C219.424835,670.123047 220.005524,707.768188 220.064468,745.412964 
	C220.122650,782.570190 219.616974,819.728882 219.249420,856.885925 
	C218.984100,883.708008 218.644333,910.530334 218.141403,937.348877 
	C217.760513,957.659729 216.916794,977.962219 216.568253,998.273376 
	C216.317230,1012.900696 216.741699,1027.539429 216.511444,1042.167358 
	C216.097183,1068.485107 215.628906,1094.805542 214.793076,1121.112305 
	C213.847763,1150.864502 216.180008,1180.737427 211.007538,1210.343140 
	C206.138153,1238.213989 202.031174,1266.218384 197.107864,1294.079224 
	C193.721695,1313.241455 189.395889,1332.235962 185.707169,1351.347168 
	C181.954803,1370.788330 178.467621,1390.280762 174.866837,1409.751099 
	C174.487488,1411.802246 174.125015,1413.856567 173.707993,1416.168335 
	C178.199661,1416.505615 181.986267,1416.790039 186.168777,1417.104126 
	C186.381927,1415.044922 186.449234,1413.400635 186.734650,1411.795044 
	C189.005692,1399.020020 191.100754,1386.208252 193.670883,1373.492920 
	C197.164825,1356.207275 201.554489,1339.089355 204.619797,1321.733398 
	C209.629379,1293.369019 214.111359,1264.905029 218.377457,1236.417480 
	C221.705658,1214.192993 225.231232,1191.940796 227.098267,1169.569824 
	C229.229797,1144.029907 229.917175,1118.353394 230.670151,1092.719727 
	C231.222198,1073.926147 230.868073,1055.106079 230.896484,1035.339600 
M91.470871,151.010788 
	C96.633774,142.775711 101.796684,134.540649 107.302841,125.758080 
	C103.037331,125.104729 99.987091,124.637520 98.398491,124.394196 
	C91.513397,133.625992 85.669098,142.327377 78.952049,150.292755 
	C63.915028,168.124374 55.354286,188.469818 54.301735,211.728104 
	C52.849438,243.819534 51.085522,275.921875 50.735668,308.033508 
	C49.668243,406.008057 49.176052,503.989014 48.531124,601.967957 
	C47.737026,722.608948 46.875671,843.249817 46.334896,963.891968 
	C46.140060,1007.358093 46.375877,1050.836060 47.220467,1094.292969 
	C47.676525,1117.758423 49.688992,1141.200562 51.261387,1164.635620 
	C52.866600,1188.559692 53.181248,1212.717773 56.920498,1236.320190 
	C64.263649,1282.670776 73.365334,1328.750244 82.220779,1374.849365 
	C85.221848,1390.472046 89.674263,1405.815796 93.485229,1421.375854 
	C96.548439,1420.985962 99.132263,1420.656982 101.952904,1420.297852 
	C101.844330,1419.131226 101.830818,1418.323242 101.687180,1417.539062 
	C97.252556,1393.330444 92.775841,1369.129639 88.387383,1344.912598 
	C87.616844,1340.660522 87.366966,1336.314575 86.604454,1332.060669 
	C83.403961,1314.205688 79.396126,1296.463501 76.994949,1278.504761 
	C73.156593,1249.797363 70.370575,1220.949707 67.118538,1192.163696 
	C65.365372,1176.645264 62.906013,1161.172363 61.954605,1145.606079 
	C60.695255,1125.001709 60.301296,1104.329468 60.060947,1083.680420 
	C59.351234,1022.706299 58.648037,961.730103 58.424000,900.752991 
	C58.228123,847.441101 58.731522,794.126892 58.839390,740.813538 
	C58.929718,696.168335 58.787567,651.522522 58.948322,606.877686 
	C59.085701,568.724121 59.274754,530.567932 59.862988,492.419403 
	C60.564163,446.946564 61.566448,401.476837 62.724030,356.013031 
	C63.491497,325.870972 64.552444,295.732483 65.887375,265.610352 
	C66.623291,249.004868 68.189934,232.436020 69.394943,215.851593 
	C70.009270,207.396683 70.041260,198.843063 71.415886,190.512161 
	C73.874588,175.611343 82.774742,163.706650 91.470871,151.010788 
M100.051903,100.548004 
	C100.450356,106.757790 100.848808,112.967575 101.245071,119.143303 
	C124.440742,117.884438 146.970322,116.661713 169.577393,115.434792 
	C170.200058,84.734612 170.808655,54.728527 171.444489,23.379091 
	C147.748367,24.178493 123.782387,24.986998 100.026695,25.788408 
	C100.026695,51.040676 100.026695,75.311256 100.051903,100.548004 
z"/>
<path fill="#FCFCFC" opacity="1.000000" stroke="none" 
	d="
M160.461227,1708.481934 
	C160.111160,1774.924316 159.762085,1840.897705 159.443893,1906.870972 
	C159.361160,1924.027344 159.863861,1941.206055 159.092361,1958.329346 
	C158.802734,1964.757935 156.261292,1971.316162 153.681061,1977.360352 
	C148.922714,1988.506836 143.629150,1999.478394 134.223572,2008.352661 
	C126.291603,1999.819580 121.259712,1990.009644 118.134171,1979.218384 
	C112.250893,1958.905762 112.886627,1938.068115 113.324615,1917.223877 
	C114.829552,1845.603027 115.983871,1773.974121 117.723907,1702.359253 
	C118.279839,1679.478638 113.790092,1657.711914 106.634552,1636.247559 
	C95.988121,1604.311768 91.951752,1571.564453 92.778946,1537.875854 
	C93.665756,1501.759033 92.979050,1465.603516 92.979050,1429.861206 
	C123.663963,1428.347046 153.892776,1426.855469 184.510025,1425.344727 
	C183.879715,1435.438843 183.267761,1444.684692 182.736267,1453.934937 
	C182.345047,1460.744019 181.886108,1467.555786 181.757416,1474.372070 
	C181.307770,1498.186890 181.086731,1522.006226 180.593918,1545.820068 
	C180.015701,1573.761230 175.413437,1601.092773 168.368561,1628.118774 
	C165.060532,1640.809082 162.406723,1653.746094 160.632324,1666.731934 
	C159.547485,1674.671265 160.778763,1682.915405 160.813293,1691.023315 
	C160.837418,1696.685913 160.596359,1702.349609 160.461227,1708.481934 
M139.351486,1821.316284 
	C137.237488,1821.784302 134.841370,1821.827271 133.158371,1822.944580 
	C132.547729,1823.349976 133.101608,1826.797363 134.133347,1827.964966 
	C134.901825,1828.834839 138.482773,1828.816528 138.746292,1828.243896 
	C139.621414,1826.341431 139.563614,1824.009888 139.351486,1821.316284 
M137.729706,1747.329956 
	C140.538025,1745.943115 141.092972,1743.583374 139.453506,1741.277954 
	C138.633728,1740.125244 136.278717,1739.086670 135.066772,1739.458374 
	C133.788147,1739.850708 131.931885,1742.703979 132.269669,1743.226074 
	C133.392197,1744.961548 135.387329,1746.132690 137.729706,1747.329956 
M140.161926,1786.225342 
	C138.959671,1784.600464 137.757431,1782.975586 136.555130,1781.350830 
	C135.232376,1782.361938 133.172760,1783.156494 132.794250,1784.444946 
	C132.415894,1785.732788 133.719345,1787.514526 134.285553,1789.079834 
	C136.178436,1788.381104 138.071304,1787.682373 140.161926,1786.225342 
M139.049622,1909.432129 
	C138.794464,1907.421265 138.876968,1905.254395 138.067123,1903.499512 
	C137.840424,1903.008301 134.422546,1903.153076 133.492172,1904.058105 
	C132.556305,1904.968506 132.216461,1908.252808 132.807175,1908.629883 
	C134.365417,1909.624512 136.570023,1909.606689 139.049622,1909.432129 
M138.903488,1863.848633 
	C137.017319,1863.906494 134.967224,1863.565063 133.332733,1864.235962 
	C132.749512,1864.475586 132.582794,1867.581543 133.310135,1868.619019 
	C133.980820,1869.575317 137.088028,1870.216919 137.409027,1869.769043 
	C138.460800,1868.301636 138.732681,1866.274902 138.903488,1863.848633 
M134.944504,1950.568115 
	C136.396317,1949.631470 138.118423,1948.911743 139.144211,1947.633301 
	C139.475494,1947.220459 138.239883,1944.733154 137.241653,1944.300171 
	C136.238449,1943.864746 133.546204,1944.691406 133.496521,1945.164795 
	C133.321930,1946.827881 133.966064,1948.577026 134.944504,1950.568115 
z"/>
<path fill="#F5F5F5" opacity="1.000000" stroke="none" 
	d="
M230.907150,1035.818604 
	C230.868073,1055.106079 231.222198,1073.926147 230.670151,1092.719727 
	C229.917175,1118.353394 229.229797,1144.029907 227.098267,1169.569824 
	C225.231232,1191.940796 221.705658,1214.192993 218.377457,1236.417480 
	C214.111359,1264.905029 209.629379,1293.369019 204.619797,1321.733398 
	C201.554489,1339.089355 197.164825,1356.207275 193.670883,1373.492920 
	C191.100754,1386.208252 189.005692,1399.020020 186.734650,1411.795044 
	C186.449234,1413.400635 186.381927,1415.044922 186.168777,1417.104126 
	C181.986267,1416.790039 178.199661,1416.505615 173.707993,1416.168335 
	C174.125015,1413.856567 174.487488,1411.802246 174.866837,1409.751099 
	C178.467621,1390.280762 181.954803,1370.788330 185.707169,1351.347168 
	C189.395889,1332.235962 193.721695,1313.241455 197.107864,1294.079224 
	C202.031174,1266.218384 206.138153,1238.213989 211.007538,1210.343140 
	C216.180008,1180.737427 213.847763,1150.864502 214.793076,1121.112305 
	C215.628906,1094.805542 216.097183,1068.485107 216.511444,1042.167358 
	C216.741699,1027.539429 216.317230,1012.900696 216.568253,998.273376 
	C216.916794,977.962219 217.760513,957.659729 218.141403,937.348877 
	C218.644333,910.530334 218.984100,883.708008 219.249420,856.885925 
	C219.616974,819.728882 220.122650,782.570190 220.064468,745.412964 
	C220.005524,707.768188 219.424835,670.123047 218.880249,632.480835 
	C218.675522,618.329529 217.693466,604.188843 217.520126,590.037720 
	C217.416260,581.558044 218.561676,573.065063 218.503784,564.582458 
	C218.308334,535.941956 217.995621,507.299927 217.401138,478.665222 
	C216.899994,454.526917 216.276001,430.381958 215.108658,406.268890 
	C213.522202,373.498077 211.286865,340.759186 209.488113,307.997925 
	C208.574890,291.364990 208.283783,274.695343 207.218140,258.073914 
	C205.768967,235.470642 204.004333,212.883743 202.001282,190.322998 
	C201.583450,185.616867 199.863617,180.932526 198.181305,176.449219 
	C191.965759,159.884872 180.399963,146.660202 170.320709,132.514069 
	C168.505173,129.965988 166.664734,127.435661 164.629166,124.610344 
	C167.713593,123.798325 170.325607,122.914413 173.010025,122.503510 
	C174.039536,122.345932 175.696075,122.933617 176.285187,123.747520 
	C186.885803,138.392731 200.417999,151.173096 206.821732,168.503571 
	C210.372452,178.112930 213.203674,188.234360 214.532272,198.364609 
	C216.911072,216.502167 218.115936,234.805801 219.436569,253.067154 
	C221.430664,280.641327 223.619156,308.216736 224.795715,335.831238 
	C226.745697,381.597473 227.940125,427.395721 229.482910,473.179474 
	C231.250244,525.626892 233.730515,578.061951 234.594116,630.523865 
	C235.158401,664.802795 233.347534,699.119019 232.694260,733.420349 
	C232.047089,767.401306 231.404480,801.383118 230.976013,835.367249 
	C230.690735,857.994873 231.099960,880.634094 230.607895,903.255310 
	C230.221191,921.033447 228.103882,938.798096 228.237198,956.557617 
	C228.434357,982.823486 229.945068,1009.079407 230.907150,1035.818604 
z"/>
<path fill="#F4F4F4" opacity="1.000000" stroke="none" 
	d="
M91.266602,151.309250 
	C82.774742,163.706650 73.874588,175.611343 71.415886,190.512161 
	C70.041260,198.843063 70.009270,207.396683 69.394943,215.851593 
	C68.189934,232.436020 66.623291,249.004868 65.887375,265.610352 
	C64.552444,295.732483 63.491497,325.870972 62.724030,356.013031 
	C61.566448,401.476837 60.564163,446.946564 59.862988,492.419403 
	C59.274754,530.567932 59.085701,568.724121 58.948322,606.877686 
	C58.787567,651.522522 58.929718,696.168335 58.839390,740.813538 
	C58.731522,794.126892 58.228123,847.441101 58.424000,900.752991 
	C58.648037,961.730103 59.351234,1022.706299 60.060947,1083.680420 
	C60.301296,1104.329468 60.695255,1125.001709 61.954605,1145.606079 
	C62.906013,1161.172363 65.365372,1176.645264 67.118538,1192.163696 
	C70.370575,1220.949707 73.156593,1249.797363 76.994949,1278.504761 
	C79.396126,1296.463501 83.403961,1314.205688 86.604454,1332.060669 
	C87.366966,1336.314575 87.616844,1340.660522 88.387383,1344.912598 
	C92.775841,1369.129639 97.252556,1393.330444 101.687180,1417.539062 
	C101.830818,1418.323242 101.844330,1419.131226 101.952904,1420.297852 
	C99.132263,1420.656982 96.548439,1420.985962 93.485229,1421.375854 
	C89.674263,1405.815796 85.221848,1390.472046 82.220779,1374.849365 
	C73.365334,1328.750244 64.263649,1282.670776 56.920498,1236.320190 
	C53.181248,1212.717773 52.866600,1188.559692 51.261387,1164.635620 
	C49.688992,1141.200562 47.676525,1117.758423 47.220467,1094.292969 
	C46.375877,1050.836060 46.140060,1007.358093 46.334896,963.891968 
	C46.875671,843.249817 47.737026,722.608948 48.531124,601.967957 
	C49.176052,503.989014 49.668243,406.008057 50.735668,308.033508 
	C51.085522,275.921875 52.849438,243.819534 54.301735,211.728104 
	C55.354286,188.469818 63.915028,168.124374 78.952049,150.292755 
	C85.669098,142.327377 91.513397,133.625992 98.398491,124.394196 
	C99.987091,124.637520 103.037331,125.104729 107.302841,125.758080 
	C101.796684,134.540649 96.633774,142.775711 91.266602,151.309250 
z"/>
<path fill="#F6F6F6" opacity="1.000000" stroke="none" 
	d="
M100.039299,100.064919 
	C100.026695,75.311256 100.026695,51.040676 100.026695,25.788408 
	C123.782387,24.986998 147.748367,24.178493 171.444489,23.379091 
	C170.808655,54.728527 170.200058,84.734612 169.577393,115.434792 
	C146.970322,116.661713 124.440742,117.884438 101.245071,119.143303 
	C100.848808,112.967575 100.450356,106.757790 100.039299,100.064919 
M145.298203,64.514091 
	C146.849991,65.068222 148.361481,65.875908 149.960938,66.130127 
	C155.286591,66.976616 160.014618,64.140350 162.328949,58.933483 
	C164.720779,53.552235 163.406113,47.305752 159.174561,43.945992 
	C155.063004,40.681492 150.302963,40.767647 145.351334,44.196148 
	C138.778076,48.747475 138.463120,57.625851 145.298203,64.514091 
M128.046692,47.651459 
	C123.541412,42.352634 119.457031,41.237228 114.111694,43.845959 
	C108.855171,46.411343 106.039116,52.153938 107.169426,58.002869 
	C108.128845,62.967472 112.073257,66.482574 117.200134,66.941826 
	C126.438438,67.769356 132.331268,58.001652 128.046692,47.651459 
M157.454193,74.547890 
	C149.703171,72.599258 144.106995,75.769188 142.279175,83.143707 
	C140.717834,89.443077 144.043274,95.306969 149.985367,96.732338 
	C154.857895,97.901161 159.965530,95.224396 162.226852,90.316917 
	C164.857056,84.608871 163.343246,78.843674 157.454193,74.547890 
M129.812592,83.062683 
	C129.573883,82.271484 129.423813,81.439552 129.082047,80.695702 
	C126.922836,75.996307 122.990135,73.640015 118.436089,74.261444 
	C113.776909,74.897217 109.390656,79.647339 108.640038,84.870140 
	C107.971619,89.520973 110.328560,94.238174 114.253098,96.104126 
	C118.705688,98.221153 124.410217,97.304298 127.162239,93.091988 
	C128.843597,90.518486 129.045105,86.978180 129.812592,83.062683 
z"/>
<path fill="#1B1B1B" opacity="1.000000" stroke="none" 
	d="
M139.607513,1821.579590 
	C139.563614,1824.009888 139.621414,1826.341431 138.746292,1828.243896 
	C138.482773,1828.816528 134.901825,1828.834839 134.133347,1827.964966 
	C133.101608,1826.797363 132.547729,1823.349976 133.158371,1822.944580 
	C134.841370,1821.827271 137.237488,1821.784302 139.607513,1821.579590 
z"/>
<path fill="#202020" opacity="1.000000" stroke="none" 
	d="
M137.388809,1747.425049 
	C135.387329,1746.132690 133.392197,1744.961548 132.269669,1743.226074 
	C131.931885,1742.703979 133.788147,1739.850708 135.066772,1739.458374 
	C136.278717,1739.086670 138.633728,1740.125244 139.453506,1741.277954 
	C141.092972,1743.583374 140.538025,1745.943115 137.388809,1747.425049 
z"/>
<path fill="#191919" opacity="1.000000" stroke="none" 
	d="
M140.063049,1786.604492 
	C138.071304,1787.682373 136.178436,1788.381104 134.285553,1789.079834 
	C133.719345,1787.514526 132.415894,1785.732788 132.794250,1784.444946 
	C133.172760,1783.156494 135.232376,1782.361938 136.555145,1781.350830 
	C137.757431,1782.975586 138.959671,1784.600464 140.063049,1786.604492 
z"/>
<path fill="#1A1A1A" opacity="1.000000" stroke="none" 
	d="
M138.783417,1909.712158 
	C136.570023,1909.606689 134.365417,1909.624512 132.807175,1908.629883 
	C132.216461,1908.252808 132.556305,1904.968506 133.492172,1904.058105 
	C134.422546,1903.153076 137.840424,1903.008301 138.067123,1903.499512 
	C138.876968,1905.254395 138.794464,1907.421265 138.783417,1909.712158 
z"/>
<path fill="#151515" opacity="1.000000" stroke="none" 
	d="
M139.103928,1864.156006 
	C138.732681,1866.274902 138.460800,1868.301636 137.409027,1869.769043 
	C137.088028,1870.216919 133.980820,1869.575317 133.310135,1868.619019 
	C132.582794,1867.581543 132.749512,1864.475586 133.332733,1864.235962 
	C134.967224,1863.565063 137.017319,1863.906494 139.103928,1864.156006 
z"/>
<path fill="#292929" opacity="1.000000" stroke="none" 
	d="
M134.621979,1950.430786 
	C133.966064,1948.577026 133.321930,1946.827881 133.496521,1945.164795 
	C133.546204,1944.691406 136.238449,1943.864746 137.241653,1944.300171 
	C138.239883,1944.733154 139.475494,1947.220459 139.144211,1947.633301 
	C138.118423,1948.911743 136.396317,1949.631470 134.621979,1950.430786 
z"/>
<path fill="#0A0A0A" opacity="1.000000" stroke="none" 
	d="
M144.972015,64.298965 
	C138.463120,57.625851 138.778076,48.747475 145.351334,44.196148 
	C150.302963,40.767647 155.063004,40.681492 159.174561,43.945992 
	C163.406113,47.305752 164.720779,53.552235 162.328949,58.933483 
	C160.014618,64.140350 155.286591,66.976616 149.960938,66.130127 
	C148.361481,65.875908 146.849991,65.068222 144.972015,64.298965 
z"/>
<path fill="#0B0B0B" opacity="1.000000" stroke="none" 
	d="
M128.240692,47.985657 
	C132.331268,58.001652 126.438438,67.769356 117.200134,66.941826 
	C112.073257,66.482574 108.128845,62.967472 107.169426,58.002869 
	C106.039116,52.153938 108.855171,46.411343 114.111694,43.845959 
	C119.457031,41.237228 123.541412,42.352634 128.240692,47.985657 
z"/>
<path fill="#0A0A0A" opacity="1.000000" stroke="none" 
	d="
M157.816605,74.724480 
	C163.343246,78.843674 164.857056,84.608871 162.226852,90.316917 
	C159.965530,95.224396 154.857895,97.901161 149.985367,96.732338 
	C144.043274,95.306969 140.717834,89.443077 142.279175,83.143707 
	C144.106995,75.769188 149.703171,72.599258 157.816605,74.724480 
z"/>
<path fill="#0B0B0B" opacity="1.000000" stroke="none" 
	d="
M129.861923,83.467384 
	C129.045105,86.978180 128.843597,90.518486 127.162239,93.091988 
	C124.410217,97.304298 118.705688,98.221153 114.253098,96.104126 
	C110.328560,94.238174 107.971619,89.520973 108.640038,84.870140 
	C109.390656,79.647339 113.776909,74.897217 118.436089,74.261444 
	C122.990135,73.640015 126.922836,75.996307 129.082047,80.695702 
	C129.423813,81.439552 129.573883,82.271484 129.861923,83.467384 
z"/>
</svg>