<?xml version="1.0"?>
<svg width="45" height="223" xmlns="http://www.w3.org/2000/svg" xmlns:svg="http://www.w3.org/2000/svg" preserveAspectRatio="xMidYMid meet" version="1.0">
 <metadata>Created by potrace 1.10, written by Peter Selinger 2001-2011</metadata>

 <g class="layer">
  <title>main-connection</title>
  <line class="main" fill="none" id="bag_2svg_3333" stroke="#ffffff" stroke-width="4" transform="matrix(1 0 0 1 0 0)" x1="49.35" x2="49.35" y1="12.59" y2="222.68"/>
  <line class="left-pocket-outline" fill="none" id="svg_5" stroke="#ffffff" stroke-width="4" x1="46.37" x2="46.37" y1="14.96" y2="222.67"/>
 </g>
 <g class="layer" display="inline">
  <title>Right Correction</title>
  <line class="left-pocket-outline" fill="none" id="bag2_svg_3" stroke="#ffffff" stroke-width="4" x1="44.48" x2="44.48" y1="11.69" y2="221.78"/>
 </g>
 <g class="layer" display="inline">
  <title>bg</title>
  <rect class="left-fill" fill="#000000" height="5.35" id="bag2_svg_8" stroke="#ffaaaa" stroke-width="0" transform="rotate(6.44965 3.10771 102.859)" width="4.96" x="0.63" y="100.18"/>
  <rect class="left-fill" fill="#000000" height="3.88" id="bag2_svg_12" stroke="#000000" stroke-width="0" width="34.63" x="9.85" y="109.62"/>
  <rect class="left-fill" fill="#000000" height="5.97" id="bag2_svg_13" stroke="#000000" stroke-width="0" transform="matrix(1 0 0 1 0 0) matrix(0.794952 0.606673 -0.606673 0.794952 69.1974 15.7213)" width="8.66" x="7.01" y="107.24"/>
  <rect class="left-fill" fill="#000000" height="3.88" id="bag2_svg_14" stroke="#000000" stroke-width="0" transform="matrix(1 0 0 1 0 0) rotate(30.4655 8.65126 106.943)" width="8.96" x="4.17" y="105"/>
  <rect class="left-fill" fill="#000000" height="95.52" id="bag2_svg_15" stroke="#000000" stroke-width="0" width="3.88" x="14.18" y="15.3"/>
  <rect class="left-fill" fill="#000000" height="11.94" id="bag2_svg_16" stroke="#000000" stroke-width="0" transform="rotate(-40.192 11.394 11.9257)" width="3.34" x="9.73" y="5.96"/>
  <rect class="left-fill" fill="#000000" height="107.76" id="bag2_svg_18" stroke="#000000" stroke-opacity="0" stroke-width="0" width="2.99" x="15.82" y="112.76"/>
  <rect class="left-fill" fill="#000000" height="30.15" id="bag2_svg_19" stroke="#000000" stroke-opacity="0" stroke-width="0" width="5.67" x="12.99" y="111.12"/>
  <rect class="left-fill" fill="#000000" height="21.19" id="bag2_svg_20" stroke="#000000" stroke-opacity="0" stroke-width="0" width="3.58" x="13.88" y="138.58"/>
  <rect class="left-fill" fill="#000000" height="90.45" id="bag2_svg_21" stroke="#000000" stroke-opacity="0" stroke-width="0" width="8.36" x="26.12" y="19.48"/>
  <rect class="left-fill" fill="#000000" height="5.97" id="bag2_svg_22" stroke="#000000" stroke-opacity="0" stroke-width="0" width="7.16" x="25.22" y="13.51"/>
  <rect class="left-fill" fill="#000000" height="15.22" id="bag2_svg_23" stroke="#000000" stroke-opacity="0" stroke-width="0" transform="rotate(-33.0917 25.415 9.16)" width="4.75" x="23.04" y="1.55"/>
  <rect class="left-fill" fill="#000000" height="105.67" id="bag2_svg_25" stroke="#ffaaaa" stroke-width="0" width="23.88" x="18.81" y="115.3"/>
  <rect class="left-fill" fill="#000000" height="90.45" id="bag2_svg_1" stroke="#000000" stroke-opacity="0" stroke-width="0" width="8.36" x="35.82" y="19.19"/>
  <ellipse class="left-fill" cx="35.84" cy="13.93" fill="#000000" id="bag2_svg_4" rx="5" ry="13.66" stroke="#000000" stroke-opacity="0" stroke-width="0" transform="rotate(-30.2564 35.84 13.93)"/>
  <ellipse class="left-fill" cx="39.35" cy="11.17" fill="#000000" id="bag2_svg_5" rx="2.26" ry="8.68" stroke="#000000" stroke-opacity="0" stroke-width="0" transform="rotate(-30.2564 39.35 11.17)"/>
  <rect class="left-fill" fill="#000000" height="90.45" id="bag2_svg_6" stroke="#000000" stroke-opacity="0" stroke-width="0" transform="matrix(1 0 0 1 0 0)" width="8.36" x="18.29" y="18.22"/>
  <ellipse class="left-fill" cx="18.9" cy="16.04" fill="#000000" id="bag2_svg_7" rx="5" ry="13.66" stroke="#000000" stroke-opacity="0" stroke-width="0" transform="rotate(-30.2564 18.9 16.04)"/>
  <rect class="left-fill" fill="#000000" height="105.67" id="bag2_svg_9" stroke="#ffaaaa" stroke-width="0" transform="matrix(1 0 0 1 0 0)" width="4.07" x="10.53" y="111.26"/>
  <rect class="left-fill" fill="#000000" height="105.67" id="bag2_svg_10" stroke="#000000" stroke-opacity="0" stroke-width="0" width="23.88" x="6.31" y="107.68"/>
  <rect class="left-fill" fill="#000000" height="100.15" id="bag2_svg_11" rx="3" ry="3" stroke="#000000" stroke-opacity="0" stroke-width="0" width="3.1" x="4.68" y="107.36"/>
  <rect class="left-fill" fill="#000000" height="97.88" id="bag2_svg_17" rx="6" ry="6" stroke="#000000" stroke-opacity="0" stroke-width="0" transform="matrix(1 0 0 1 0 0)" width="4.07" x="1.93" y="107.52"/>
  <rect class="left-fill" fill="#000000" height="105.67" id="bag2_svg_24" rx="5" ry="5" stroke="#000000" stroke-opacity="0" stroke-width="0" width="23.88" x="3.38" y="9.63"/>
 </g>
 <g class="layer" display="inline">
  <title>outline</title>
  <path class="left-pocket-outline" d="m20.59,1.35c-6.44,0.5 -12.56,1.51 -13.76,2.13c-1.2,0.75 -2.73,4.39 -3.93,9.41c-1.53,6.9 -1.86,14.17 -1.86,47.54l0,39.26l6.55,4.77c3.6,2.51 6.77,4.64 7.1,4.64c0.98,0 0.55,-87.55 -0.44,-90.68c-0.55,-1.76 -2.62,-5.14 -4.48,-7.65c-4.8,-6.15 -2.62,-5.77 2.73,0.5l4.37,5.14l0.55,46.66l0.55,46.66l2.62,0.38c1.31,0.25 3.6,0.13 4.91,-0.25l2.4,-0.63l-0.11,-35.5c-0.33,-61.08 0,-56.44 -4.37,-62.97c-4.48,-6.77 -4.59,-7.65 -1.53,-7.9c2.95,-0.25 10.48,12.92 11.36,20.19c0.44,2.88 0.55,23.71 0.33,46.03l-0.33,40.64l6.88,0.38c4.8,0.25 6.77,0.88 6.44,1.88c-0.33,1.13 -3.71,1.38 -12.45,1c-6.66,-0.25 -13.1,0 -14.3,0.38l-2.29,0.88l0.66,53.31c0.44,35.87 0.33,53.18 -0.44,53.18c-0.76,0 -1.42,-17.69 -1.97,-51.05c-0.44,-28.1 -1.09,-52.05 -1.53,-53.18c-0.33,-1.25 -3.6,-5.02 -7.21,-8.4l-6.55,-6.02l0.33,51.43c0.33,58.58 -0.22,55.31 10.26,64.85c5.13,4.64 5.9,4.89 12.99,4.89c6.01,0 7.53,0.38 7.53,1.88c0,1.13 0.98,1.88 2.4,1.88c2.29,0 2.29,0 0.22,-1.88c-1.97,-1.63 -1.86,-1.76 1.97,-1.88c5.79,0 7.43,-1.13 7.43,-4.77c0,-2.51 0.33,-2.88 1.31,-1.76c0.76,0.88 1.86,1.51 2.51,1.51c0.55,0 0.33,-0.63 -0.66,-1.25c-2.51,-1.63 -2.95,-32.74 -0.44,-35.5c1.75,-2.01 2.29,-5.27 0.66,-4.14c-2.4,1.76 -3.06,-15.68 -0.76,-20.82c0.98,-2.13 1.09,-3.76 0.44,-4.52c-0.66,-0.75 -0.66,-1.51 0.11,-2.01c0.66,-0.5 1.2,-4.14 1.09,-8.03c0,-3.89 -0.33,-6.4 -0.66,-5.52c-0.87,2.63 -2.51,0.38 -2.51,-3.64c0,-2.01 0.55,-3.64 1.31,-3.64c0.98,0 0.98,-0.38 0,-1.51c-1.64,-1.88 -1.75,-7.27 -0.11,-7.27c0.66,0 0.87,-1 0.44,-2.38c-0.33,-1.38 -0.11,-2.76 0.55,-3.26c1.64,-1.13 1.31,-5.27 -0.55,-6.15c-2.51,-1 -2.4,-15.8 0.11,-15.8c1.42,0 1.64,-0.63 0.87,-2.88c-1.42,-4.89 -1.64,-31.36 -0.22,-34.62c1.2,-2.38 1.09,-3.14 -0.55,-4.52c-2.29,-1.88 -2.4,-3.64 -0.22,-5.64c0.87,-0.88 1.64,-2.26 1.53,-3.01c0,-0.88 -0.22,-0.75 -0.66,0.13c-1.53,4.39 -2.51,0.5 -2.51,-9.66c0,-10.16 0.98,-14.05 2.51,-9.78c0.44,1.13 0.66,1.25 0.66,0.13c0.11,-0.75 -0.66,-2.26 -1.53,-3.39c-0.87,-1 -1.64,-2.38 -1.64,-3.14c0,-0.75 0.76,-1 1.64,-0.63c0.98,0.5 1.64,0.13 1.64,-0.88c0,-2.76 -11.47,-14.93 -13.76,-14.8c-1.2,0.13 -7.32,0.63 -13.65,1.25l0.02,0zm16.71,4.26c2.29,1.76 4.59,4.14 5.13,5.39c0.55,1.13 0.87,22.83 0.66,49.17l-0.22,47.04l-3.71,0l-3.71,0l0.33,-41.02c0.33,-44.53 0,-48.04 -5.35,-56.94c-1.75,-3.01 -3.17,-5.64 -3.17,-6.02c0,-2.01 6.55,-0.38 10.05,2.38l-0.01,0zm-16.27,5.02c2.07,3.01 4.04,7.65 4.37,10.29c0.33,2.63 0.55,23.08 0.44,45.53l-0.22,40.76l-2.95,0.38l-3.06,0.38l0,-43.02c0,-25.46 -0.44,-44.9 -1.09,-47.66c-0.66,-2.51 -2.62,-6.02 -4.37,-7.78c-4.04,-3.89 -4.04,-4.52 0,-4.52c2.51,0 3.93,1.25 6.88,5.64zm-11.79,2.76c0.98,1.13 2.29,3.39 2.84,5.14c0.98,2.88 1.53,85.29 0.66,86.42c-0.33,0.25 -2.51,-1.13 -5.02,-2.88l-4.48,-3.51l-0.33,-23.83c-0.44,-40.89 -0.22,-47.54 1.31,-55.69c0.76,-4.26 1.86,-7.78 2.4,-7.78c0.44,0 1.64,0.88 2.62,2.13zm-1.09,98.84l4.37,4.26l1.2,49.92c0.76,27.47 1.09,50.17 0.76,50.55c-0.33,0.38 -2.95,-2.38 -5.9,-6.02l-5.35,-6.65l0,-46.28c0,-25.46 -0.33,-47.04 -0.66,-48.16c-0.98,-3.14 0.76,-2.26 5.57,2.38l0.01,0zm34.61,5.52c-0.22,1 -0.33,22.7 -0.33,48.42c0,25.59 -0.33,48.16 -0.76,50.17l-0.87,3.76l-10.05,0.38l-10.05,0.38l0,-31.73c-0.11,-17.43 -0.55,-40.76 -0.98,-51.8c-0.55,-11.04 -0.76,-20.44 -0.55,-20.95c0.33,-0.5 5.79,-0.75 12.23,-0.63c9.39,0.25 11.57,0.63 11.36,2.01l0,-0.01zm3.6,28.35c0,2.01 -0.66,3.76 -1.31,4.01c-0.98,0.38 -1.42,-0.88 -1.42,-4.01c0,-3.14 0.44,-4.39 1.42,-4.14c0.66,0.38 1.31,2.13 1.31,4.14z" fill="#ffffff" id="bag2_svg_2" stroke="#000000" stroke-opacity="0" stroke-width="2"/>
 </g>
</svg>