<?xml version="1.0"?>
<svg width="60.00000000000001" height="225" xmlns="http://www.w3.org/2000/svg" xmlns:svg="http://www.w3.org/2000/svg" version="1.1" xml:space="preserve">
 <title>bg</title>
 <title>Outline</title>
 <title>Fill Fix</title>
 <g class="layer" display="inline">
  <title>bg</title>
  <rect class="left-fill" fill="#000000" height="207.59" id="svg_1" stroke="#000000" stroke-linecap="round" stroke-linejoin="round" stroke-opacity="0" transform="matrix(1 0 0 1 0 0)" width="31.01" x="14.18" y="6.01"/>
  <ellipse class="left-fill" cx="30.16" cy="6.49" fill="#000000" id="svg_2" rx="14.4" ry="3.64" stroke="#000000" stroke-linecap="round" stroke-linejoin="round" stroke-opacity="0"/>
  <rect class="left-fill" fill="#000000" height="183.86" id="svg_4" stroke="#000000" stroke-linecap="round" stroke-linejoin="round" stroke-opacity="0" width="24.37" x="5.5" y="16.77"/>
  <rect class="left-fill" fill="#000000" height="207.59" id="svg_5" stroke="#000000" stroke-linecap="round" stroke-linejoin="round" stroke-opacity="0" transform="matrix(1 0 0 1 0 0)" width="19.62" x="32.53" y="13.29"/>
  <ellipse class="left-fill" cx="14.18" cy="205.06" fill="#000000" id="svg_6" rx="6.96" ry="11.39" stroke="#000000" stroke-linecap="round" stroke-linejoin="round" stroke-opacity="0" transform="rotate(-28.8557 14.1772 205.063)"/>
  <ellipse class="left-fill" cx="27.31" cy="215.82" fill="#000000" id="svg_7" rx="5.22" ry="9.18" stroke="#000000" stroke-linecap="round" stroke-linejoin="round" stroke-opacity="0" transform="rotate(-90 27.3101 215.823)"/>
  <ellipse class="left-fill" cx="14.97" cy="15.19" fill="#000000" id="svg_8" rx="7.44" ry="9.49" stroke="#000000" stroke-linecap="round" stroke-linejoin="round" stroke-opacity="0"/>
  <ellipse class="left-fill" cx="44.31" cy="12.91" fill="#000000" id="svg_9" rx="7.02" ry="5.7" stroke="#000000" stroke-linecap="round" stroke-linejoin="round" stroke-opacity="0" transform="matrix(1 0 0 1 0 0) rotate(30.8609 44.3083 12.9129)"/>
 </g>
 <g class="layer" display="inline">
  <title>left-fill-fix</title>
  <path class="left-fill" d="m16.34,21.83c-0.12,-0.86 -0.48,-1.57 -0.73,-2.35c-0.25,-0.78 -0.55,-1.53 -1.27,-1.79c-0.83,-0.31 -1.42,-0.59 -1.89,-1.31c-0.42,-0.64 -0.98,-1.17 -1.53,-1.68c-0.66,-0.61 -1.49,-1.51 -2.11,-0.95c-0.61,0.54 -0.64,1.47 -0.76,2.29c-0.13,0.88 0.2,1.64 0.33,2.46c0.14,0.84 0.16,1.74 0.16,2.64c0,0.87 0,1.76 0,2.67c0,0.86 0,1.77 0,2.66c0,0.88 0.12,1.79 0,2.67c-0.12,0.84 -0.36,1.69 -0.49,2.52c-0.13,0.9 0,1.76 0,2.65c0,0.89 0,1.8 0,2.69c0,0.88 0,1.75 0,2.66c0,0.91 0,1.77 0,2.65c0,0.88 0,1.78 0,2.68c0,0.85 -0.04,1.76 0,2.67c0.03,0.86 0.24,1.73 0.24,2.6c0,0.88 0,1.8 0,2.67c0,0.88 0,1.76 0,2.62c0,0.94 0,1.82 0,2.72c0,0.89 0,1.74 0,2.65c0,0.88 0,1.74 0,2.65c0,0.9 0,1.78 0,2.68c0,0.9 0,1.77 0,2.64c0,0.89 0,1.81 0,2.71c0,0.91 0,1.79 0,2.68c0,0.82 0.12,1.72 0,2.64c-0.11,0.87 -0.24,1.71 -0.24,2.56c0,0.95 0,1.8 0,2.68c0,0.9 0,1.83 0,2.72c0,0.88 -0.11,1.8 0.01,2.64c0.12,0.84 0.13,1.75 0.24,2.61c0.12,0.9 0.15,1.77 0.28,2.68c0.12,0.83 0.11,1.74 0.24,2.6c0.12,0.76 0.2,1.65 0.2,2.55c0,0.89 0.11,1.73 0.23,2.62c0.12,0.86 0.02,1.77 0.14,2.56c0.14,0.96 0.28,1.84 0.39,2.65c0.12,0.96 0.36,1.81 0.45,2.7c0.08,0.81 0.24,1.74 0.26,2.65c0.01,0.84 0.23,1.7 0.24,2.6c0.01,0.89 0,1.75 0,2.61c0,0.94 0.22,1.82 0.24,2.66c0.02,0.88 0,1.76 0,2.65c0,0.86 0,1.82 0,2.72c0,0.87 0,1.76 0,2.66c0,0.88 0,1.78 0,2.67c0,0.89 0,1.77 0,2.62c0,0.93 0,1.81 0,2.7c0,0.85 0,1.75 0,2.56c0,0.96 0.13,1.81 0.24,2.72c0.11,0.86 0,1.79 0,2.62c0,0.97 0,1.84 0,2.76c0,0.85 0,1.79 0,2.63c0,0.91 0,1.81 0,2.68c0,0.87 0,1.75 0,2.64c0,0.93 0,1.8 0,2.7c0,0.88 0,1.76 0,2.65c0,0.92 0,1.81 0,2.7c0,0.88 0,1.76 0,2.65c0,0.9 0.24,1.74 0.24,2.57c0.01,0.86 0,1.82 0,2.66c0,0.94 0,1.81 0,2.74c0,0.88 0,1.74 0,2.68c0,0.86 0.16,1.75 0.24,2.59c0.09,0.9 -0.03,1.78 0.09,2.64c0.12,0.9 0.19,1.77 0.32,2.62c0.13,0.89 0.3,1.77 0.45,2.59c0.17,0.91 0.48,1.73 0.73,2.57c0.24,0.82 0.49,1.66 0.61,2.48c0.14,0.89 0,1.8 0,2.66c0,0.88 0,1.83 0,2.6c0,0.96 -0.02,1.7 0.13,2.76c0.13,0.93 0.31,1.6 0.36,2.64c0.04,0.9 0.12,1.76 0.25,2.61c0.12,0.84 0.43,1.87 1.21,1.71c0.73,-0.15 1.03,-1.12 1.29,-1.93c0.24,-0.76 0.42,-1.57 0.42,-2.47c0,-0.88 0,-1.77 0,-2.68c0,-0.86 -0.1,-1.76 0,-2.63c0.09,-0.79 0.24,-1.63 0.24,-2.51c0,-0.88 0,-1.77 0,-2.69c0,-0.86 0.16,-1.72 0.24,-2.59c0.09,-0.87 0.14,-1.76 0.24,-2.62c0.11,-0.89 0.12,-1.75 0.24,-2.6c0.13,-0.87 0,-1.79 0,-2.67c0,-0.87 0,-1.77 0,-2.67c0,-0.87 0.13,-1.79 0,-2.66c-0.12,-0.8 -0.24,-1.66 -0.24,-2.53c0,-0.9 -0.12,-1.75 -0.24,-2.63c-0.12,-0.86 -0.12,-1.73 -0.24,-2.61c-0.12,-0.87 0.11,-1.79 0,-2.66c-0.11,-0.88 -0.24,-1.71 -0.24,-2.58c0,-0.93 0,-1.81 0,-2.71c0,-0.87 0,-1.76 0,-2.66c0,-0.9 -0.24,-1.71 -0.24,-2.61c0,-0.87 0,-1.78 0,-2.64c0,-0.9 0,-1.81 0,-2.69c0,-0.89 0,-1.77 0,-2.65c0,-0.91 0,-1.8 0,-2.68c0,-0.88 0.09,-1.76 0.21,-2.57c0.13,-0.87 -0.04,-1.76 0.03,-2.65c0.06,-0.84 0.25,-1.71 0.37,-2.54c0.12,-0.87 0.12,-1.76 0.12,-2.66c0,-0.88 0.24,-1.72 0.24,-2.61c0,-0.86 0.23,-1.71 0.24,-2.57c0.02,-0.91 -0.13,-1.8 0,-2.7c0.12,-0.83 0.24,-1.66 0.24,-2.57c0,-0.91 0,-1.78 0,-2.67c0,-0.88 -0.05,-1.77 -0.17,-2.59c-0.13,-0.88 -0.28,-1.71 -0.31,-2.59c-0.04,-0.91 0,-1.78 0,-2.66c0,-0.9 -0.13,-1.76 -0.24,-2.63c-0.11,-0.85 0,-1.76 0,-2.66c0,-0.85 0,-1.75 0,-2.62c0,-0.88 0,-1.82 0,-2.7c0,-0.89 0,-1.77 0,-2.65c0,-0.91 0,-1.78 0,-2.66c0,-0.91 0,-1.8 0,-2.67c0,-0.87 -0.24,-1.74 -0.24,-2.64c0,-0.88 0,-1.75 0,-2.63c0,-0.93 0,-1.79 0,-2.69c0,-0.88 0.12,-1.75 0.24,-2.63c0.12,-0.86 0,-1.74 0.24,-2.56c0.24,-0.79 0.24,-1.7 0.24,-2.59c0,-0.88 0,-1.78 0,-2.66c0,-0.87 0.09,-1.78 -0.04,-2.68c-0.12,-0.83 -0.2,-1.71 -0.2,-2.6c0,-0.89 0,-1.79 0,-2.64c0,-0.9 -0.12,-1.75 -0.24,-2.56c-0.14,-0.89 0.12,-1.81 -0.01,-2.69c-0.12,-0.82 -0.24,-1.7 -0.24,-2.58c0,-0.9 -0.12,-1.77 -0.24,-2.61c-0.13,-0.88 0,-1.76 0,-2.66c0,-0.88 0.13,-1.77 0,-2.67c-0.12,-0.81 -0.24,-1.69 -0.24,-2.57c0,-0.89 0,-1.75 0,-2.65c0,-0.9 0,-1.8 0,-2.66c0,-0.92 0,-1.78 0,-2.69c0,-0.89 0.14,-1.75 0.24,-2.54c0.11,-0.88 -0.12,-1.77 0,-2.64c0.12,-0.86 0.24,-1.71 0.24,-2.61c0,-0.89 0,-1.76 0,-2.67c0,-0.89 -0.09,-1.78 0,-2.67c0.08,-0.82 0.24,-1.68 0.24,-2.59c0,-0.88 0.11,-1.78 0,-2.67c-0.1,-0.8 -0.37,-1.53 -0.77,-2.25c-0.36,-0.64 -0.89,-1.33 -1.49,-1.89c-0.63,-0.59 -1.41,-0.97 -2,-1.48c-0.6,-0.51 -1.27,-0.96 -1.82,-1.47c-0.52,-0.49 -0.93,-1.12 -1.53,-1.52c-0.64,-0.43 -1.59,-0.49 -2.02,0.18c-0.46,0.72 -0.49,1.41 -0.37,2.16c0.15,0.88 0,1.77 0,2.67c0,0.9 0,1.76 0,2.66l0,0.9l0.24,0.77l0.24,0.71" fill="#000000" id="svg_12344" stroke="#ffffff" stroke-linecap="round" stroke-linejoin="round" stroke-width="0"/>
 </g>
 <g class="layer" display="inline">
  <title>outline</title>
  <path class="left-pocket-outline" d="m8.37,12.25c-2.59,5.21 -2.97,10.87 -3.36,16.47c-1.03,14.42 -1.36,28.86 -1.01,43.29c1.04,41.99 0.46,83.99 0.63,125.98c0.01,2.81 0.71,5.35 2.34,7.79c3.24,4.83 6.31,9.6 11.47,13.05c2.31,1.55 4.58,1.25 6.57,1.27c7.5,0.06 14.86,1.68 22.42,1.22c4.66,-0.28 5.83,-1.57 5.82,-5.56c-0.02,-25.96 0.49,-51.91 0.19,-77.86c-0.48,-40.17 -0.08,-80.33 -0.21,-120.5c-0.01,-5 -3.42,-7.59 -6.84,-10.33c-0.5,-0.4 -1.25,-0.55 -1.67,-1c-4.31,-4.54 -9.81,-3.82 -15.3,-3.22c-5.1,0.55 -10.21,1.13 -15.29,1.86c-3.45,0.51 -4.34,3.03 -5.71,5.28c-0.3,0.49 -0.36,1.57 0.63,1.89c1.99,0.62 2.81,2.54 4.41,3.56c4.24,2.66 4.71,6.71 4.74,11.01c0.68,62.46 0.16,124.91 0.35,187.38c0.01,1.35 -0.22,2.63 -0.7,3.87" fill="#000000" id="svg_111" stroke="#ffffff" stroke-linecap="round" stroke-linejoin="round" stroke-width="2"/>
 </g>
 <g class="layer">
  <title>square</title>
  <rect class="left-fill-square" fill="#ffffff" height="14.72" id="svg_14" stroke="#000000" stroke-linecap="round" stroke-linejoin="round" stroke-opacity="0" transform="matrix(0.989687 0.143244 -0.143244 0.989687 16.4483 -0.395043)" width="6.31" x="7.7" y="99.04"/>
 </g>
</svg>