<?xml version="1.0"?>
<svg width="60.00000000000001" height="225.00000000000003" xmlns="http://www.w3.org/2000/svg" xmlns:svg="http://www.w3.org/2000/svg" version="1.1" xml:space="preserve">
 <title>bg</title>
 <title>Outline</title>
 <g class="layer" display="inline">
  <title>outline</title>
  <rect class="right-pocket-outline" fill="#000000" fill-opacity="0" height="153.28" id="svg_1912" rx="8" ry="8" stroke="#ffffff" stroke-width="3" transform="matrix(1.01246 0 0 1.17463 -49.3088 -1371.63)" width="39.62" x="58.1" y="1198.05"/>
 </g>
 <g class="layer" display="inline">
  <title>bg</title>
  <rect class="right-fill" fill="#000000" id="svg_11" stroke="#000000" stroke-linecap="round" stroke-linejoin="round" stroke-width="2" transform="rotate(14.4346 136.46 334)" width="8" x="132.46" y="334"/>
  <rect class="right-fill" fill="#000000" height="177.44" id="svg_1401" rx="4" ry="4" stroke="#000000" stroke-opacity="0" stroke-width="NaN" width="37.03" x="10.89" y="36.68"/>
  <rect class="right-pocket-outline" fill="#000000" id="svg_13" stroke="#ffffff" stroke-linecap="round" stroke-linejoin="round" stroke-width="2" transform="rotate(14.4346 12.6426 92.194) matrix(1.33338 0.342068 -0.419768 1.08657 -29.1079 -317.399)" width="8" x="132.46" y="334"/>
 </g>
 <g class="layer">
  <title>outline2</title>
  <path class="right-pocket-outline" d="m28.96,143.52c-0.09,-27.87 -0.22,-55.57 -0.24,-83.27c0,-3.54 0.33,-7.19 0.99,-10.58c0.45,-2.27 1.6,-4.37 2.69,-6.18c1.59,-2.64 3.39,-4.98 5.15,-7.37c0.28,-0.38 0.81,-0.35 1.23,-0.5c-0.07,0.98 0.1,2.29 -0.25,2.86c-0.8,1.32 -1.84,2.32 -2.81,3.38c-3.05,3.32 -4.19,8.18 -4.27,13.5c-0.25,14.98 -0.4,29.97 -0.44,44.96c-0.09,31.12 -0.08,62.24 -0.11,93.36c0,1.36 -0.06,2.75 0.07,4.09c0.07,0.7 0.49,1.32 0.75,1.97c0.36,-0.33 0.81,-0.55 1.06,-1.02c1.61,-3 3.17,-6.08 4.77,-9.09c0.46,-0.87 1.01,-1.63 1.56,-2.51c0.73,1.35 0.19,2.24 -0.23,3.03c-1.35,2.58 -2.77,5.09 -4.14,7.66c-1.37,2.56 -2.71,5.16 -4.06,7.72c-1.45,-0.86 -1.85,-1.91 -1.84,-4.07c0.06,-12.94 0.1,-25.88 0.13,-38.81c0.01,-6.33 -0.01,-12.65 -0.01,-19.15l0,0.02z" fill="#ffffff" id="svg_2" transform="rotate(0.110364 34.0952 120.576)"/>
 </g>
</svg>