<?xml version="1.0"?>
<svg width="60.00000000000001" height="225.00000000000003" xmlns="http://www.w3.org/2000/svg" xmlns:svg="http://www.w3.org/2000/svg" version="1.1" xml:space="preserve">
 <title>bg</title>
 <title>Outline</title>
 <g class="layer" display="inline">
  <title>bg</title>
  <rect class="right-fill" fill="#000000" id="svg_11" stroke="#000000" stroke-linecap="round" stroke-linejoin="round" stroke-width="2" transform="rotate(14.4346 136.46 334)" width="8" x="132.46" y="334"/>
  <rect class="right-fill" fill="#000000" height="177.44" id="svg_1401" rx="4" ry="4" stroke="#000000" stroke-opacity="0" stroke-width="NaN" width="37.03" x="10.89" y="36.68"/>
  <rect class="right-pocket-outline" fill="#000000" id="svg_13" stroke="#ffffff" stroke-linecap="round" stroke-linejoin="round" stroke-width="2" transform="rotate(14.4346 12.6426 92.194) matrix(1.33338 0.342068 -0.419768 1.08657 -29.1079 -317.399)" width="8" x="132.46" y="334"/>
 </g>
 <g class="layer" display="inline">
  <title>outline</title>
 </g>
 <g class="layer" display="inline">
  <title>outline2</title>
  <path class="right-pocket-outline" d="m28.92,143.51c-0.04,-27.87 -0.11,-55.57 -0.08,-83.27c0.01,-3.54 0.34,-7.19 1.01,-10.58c0.45,-2.27 1.61,-4.37 2.7,-6.17c1.6,-2.64 3.4,-4.97 5.16,-7.36c0.28,-0.38 0.81,-0.35 1.23,-0.5c-0.07,0.98 0.1,2.29 -0.26,2.86c-0.8,1.32 -1.84,2.32 -2.82,3.37c-3.06,3.31 -4.21,8.17 -4.3,13.49c-0.28,14.98 -0.46,29.97 -0.53,44.96c-0.15,31.12 -0.2,62.24 -0.29,93.36c0,1.36 -0.07,2.75 0.06,4.09c0.07,0.7 0.49,1.32 0.75,1.97c0.36,-0.33 0.81,-0.55 1.06,-1.02c1.62,-3 3.18,-6.07 4.79,-9.08c0.46,-0.87 1.01,-1.63 1.56,-2.51c0.73,1.35 0.19,2.24 -0.24,3.03c-1.35,2.58 -2.78,5.08 -4.15,7.65c-1.37,2.56 -2.72,5.15 -4.07,7.71c-1.45,-0.86 -1.85,-1.91 -1.83,-4.07c0.08,-12.94 0.15,-25.88 0.2,-38.81c0.02,-6.33 0.01,-12.65 0.03,-19.15l0,0.02z" fill="#ffffff" id="right_pocket_outline_svg_2"/>
  <rect class="right-pocket-outline" fill="#ffffff" height="174.21" id="bag2_svg_4" stroke="#000000" stroke-opacity="0" stroke-width="0" width="3.16" x="9.32" y="38.02"/>
  <rect class="right-pocket-outline" fill="#ffffff" height="174.7" id="svg_5" stroke="#000000" stroke-opacity="0" stroke-width="0" width="3.16" x="46.2" y="37.77"/>
  <rect class="right-pocket-outline" fill="#ffffff" height="37.71" id="svg_6" stroke="#000000" stroke-opacity="0" stroke-width="0" transform="rotate(-90.1514 29.6671 213.179)" width="3.16" x="28.09" y="194.32"/>
  <rect class="right-pocket-outline" fill="#ffffff" height="37.71" id="svg_8" stroke="#000000" stroke-opacity="0" stroke-width="0" transform="rotate(-90.1514 29.2915 37.7732)" width="3.16" x="27.71" y="18.92"/>
  <ellipse class="right-pocket-outline" cx="11.91" cy="212.63" fill="#ffffff" id="svg_91111" rx="1.95" ry="1.63" stroke="#000000" stroke-opacity="0" stroke-width="0" transform="rotate(22.1095 11.9131 212.634)"/>
  <ellipse class="right-pocket-outline" cx="47.3" cy="38.02" fill="#ffffff" id="svg_10" rx="1.95" ry="1.63" stroke="#000000" stroke-opacity="0" stroke-width="0" transform="rotate(22.1095 47.2974 38.021)"/>
  <ellipse class="right-pocket-outline" cx="47.3" cy="211.99" fill="#ffffff" id="svg_12" rx="1.95" ry="1.63" stroke="#000000" stroke-opacity="0" stroke-width="0" transform="rotate(22.1095 47.2974 211.987)"/>
  <ellipse class="right-pocket-outline" cx="11.04" cy="38.02" fill="#ffffff" id="svg_14" rx="1.95" ry="1.63" stroke="#000000" stroke-opacity="0" stroke-width="0" transform="rotate(-35.1796 11.0444 38.021)"/>
 </g>
</svg>