<?xml version="1.0"?>
<svg width="44" height="181" xmlns="http://www.w3.org/2000/svg" xmlns:svg="http://www.w3.org/2000/svg" preserveAspectRatio="xMidYMid meet" version="1.0">
 <metadata>Created by potrace 1.10, written by Peter Selinger 2001-2011</metadata>
 <g class="layer">
  <title>Right Correction</title>
  <line class="left-outline" fill="none" id="svg_3" stroke="#000000" stroke-width="5" x1="41.49" x2="41.49" y1="10.18" y2="173.99"/>
  <rect fill="#000000" height="3.52" id="svg_5" stroke="#000000" stroke-width="0" transform="rotate(30.9638 7.39307 80.5839)" width="12.16" x="1.31" y="78.82"/>
 </g>
 <g class="layer">
  <title>Layer 1</title>
  <path class="left-outline" d="m18.9,1.1c-5.9,0.4 -11.5,1.2 -12.6,1.7c-1.1,0.6 -2.5,3.5 -3.6,7.5c-1.4,5.5 -1.7,11.3 -1.7,37.9l0,31.3l6,3.8c3.3,2 6.2,3.7 6.5,3.7c0.9,0 0.5,-69.8 -0.4,-72.3c-0.5,-1.4 -2.4,-4.1 -4.1,-6.1c-4.4,-4.9 -2.4,-4.6 2.5,0.4l4,4.1l0.5,37.2l0.5,37.2l2.4,0.3c1.2,0.2 3.3,0.1 4.5,-0.2l2.2,-0.5l-0.1,-28.3c-0.3,-48.7 0,-45 -4,-50.2c-4.1,-5.4 -4.2,-6.1 -1.4,-6.3c2.7,-0.2 9.6,10.3 10.4,16.1c0.4,2.3 0.5,18.9 0.3,36.7l-0.3,32.4l6.3,0.3c4.4,0.2 6.2,0.7 5.9,1.5c-0.3,0.9 -3.4,1.1 -11.4,0.8c-6.1,-0.2 -12,0 -13.1,0.3l-2.1,0.7l0.6,42.5c0.4,28.6 0.3,42.4 -0.4,42.4c-0.7,0 -1.3,-14.1 -1.8,-40.7c-0.4,-22.4 -1,-41.5 -1.4,-42.4c-0.3,-1 -3.3,-4 -6.6,-6.7l-6,-4.8l0.3,41c0.3,46.7 -0.2,44.1 9.4,51.7c4.7,3.7 5.4,3.9 11.9,3.9c5.5,0 6.9,0.3 6.9,1.5c0,0.9 0.9,1.5 2.2,1.5c2.1,0 2.1,0 0.2,-1.5c-1.8,-1.3 -1.7,-1.4 1.8,-1.5c5.3,0 6.8,-0.9 6.8,-3.8c0,-2 0.3,-2.3 1.2,-1.4c0.7,0.7 1.7,1.2 2.3,1.2c0.5,0 0.3,-0.5 -0.6,-1c-2.3,-1.3 -2.7,-26.1 -0.4,-28.3c1.6,-1.6 2.1,-4.2 0.6,-3.3c-2.2,1.4 -2.8,-12.5 -0.7,-16.6c0.9,-1.7 1,-3 0.4,-3.6c-0.6,-0.6 -0.6,-1.2 0.1,-1.6c0.6,-0.4 1.1,-3.3 1,-6.4c0,-3.1 -0.3,-5.1 -0.6,-4.4c-0.8,2.1 -2.3,0.3 -2.3,-2.9c0,-1.6 0.5,-2.9 1.2,-2.9c0.9,0 0.9,-0.3 0,-1.2c-1.5,-1.5 -1.6,-5.8 -0.1,-5.8c0.6,0 0.8,-0.8 0.4,-1.9c-0.3,-1.1 -0.1,-2.2 0.5,-2.6c1.5,-0.9 1.2,-4.2 -0.5,-4.9c-2.3,-0.8 -2.2,-12.6 0.1,-12.6c1.3,0 1.5,-0.5 0.8,-2.3c-1.3,-3.9 -1.5,-25 -0.2,-27.6c1.1,-1.9 1,-2.5 -0.5,-3.6c-2.1,-1.5 -2.2,-2.9 -0.2,-4.5c0.8,-0.7 1.5,-1.8 1.4,-2.4c0,-0.7 -0.2,-0.6 -0.6,0.1c-1.4,3.5 -2.3,0.4 -2.3,-7.7c0,-8.1 0.9,-11.2 2.3,-7.8c0.4,0.9 0.6,1 0.6,0.1c0.1,-0.6 -0.6,-1.8 -1.4,-2.7c-0.8,-0.8 -1.5,-1.9 -1.5,-2.5c0,-0.6 0.7,-0.8 1.5,-0.5c0.9,0.4 1.5,0.1 1.5,-0.7c0,-2.2 -10.5,-11.9 -12.6,-11.8c-1.1,0.1 -6.7,0.5 -12.5,1zm15.3,3.4c2.1,1.4 4.2,3.3 4.7,4.3c0.5,0.9 0.8,18.2 0.6,39.2l-0.2,37.5l-3.4,0l-3.4,0l0.3,-32.7c0.3,-35.5 0,-38.3 -4.9,-45.4c-1.6,-2.4 -2.9,-4.5 -2.9,-4.8c0,-1.6 6,-0.3 9.2,1.9zm-14.9,4c1.9,2.4 3.7,6.1 4,8.2c0.3,2.1 0.5,18.4 0.4,36.3l-0.2,32.5l-2.7,0.3l-2.8,0.3l0,-34.3c0,-20.3 -0.4,-35.8 -1,-38c-0.6,-2 -2.4,-4.8 -4,-6.2c-3.7,-3.1 -3.7,-3.6 0,-3.6c2.3,0 3.6,1 6.3,4.5zm-10.8,2.2c0.9,0.9 2.1,2.7 2.6,4.1c0.9,2.3 1.4,68 0.6,68.9c-0.3,0.2 -2.3,-0.9 -4.6,-2.3l-4.1,-2.8l-0.3,-19c-0.4,-32.6 -0.2,-37.9 1.2,-44.4c0.7,-3.4 1.7,-6.2 2.2,-6.2c0.4,0 1.5,0.7 2.4,1.7zm-1,78.8l4,3.4l1.1,39.8c0.7,21.9 1,40 0.7,40.3c-0.3,0.3 -2.7,-1.9 -5.4,-4.8l-4.9,-5.3l0,-36.9c0,-20.3 -0.3,-37.5 -0.6,-38.4c-0.9,-2.5 0.7,-1.8 5.1,1.9zm31.7,4.4c-0.2,0.8 -0.3,18.1 -0.3,38.6c0,20.4 -0.3,38.4 -0.7,40l-0.8,3l-9.2,0.3l-9.2,0.3l0,-25.3c-0.1,-13.9 -0.5,-32.5 -0.9,-41.3c-0.5,-8.8 -0.7,-16.3 -0.5,-16.7c0.3,-0.4 5.3,-0.6 11.2,-0.5c8.6,0.2 10.6,0.5 10.4,1.6zm3.3,22.6c0,1.6 -0.6,3 -1.2,3.2c-0.9,0.3 -1.3,-0.7 -1.3,-3.2c0,-2.5 0.4,-3.5 1.3,-3.3c0.6,0.3 1.2,1.7 1.2,3.3z" id="svg_2"/>
 </g>
</svg>